<svg xmlns="http://www.w3.org/2000/svg" viewBox="0 0 354.41785 198.18399"><path d="M349.69 92.48h-17.887v19.41l-18.008-19.41H283.64l14.353 16.285v59.256h22.094v-35.954c5.408 5.939 10.516 11.552 11.715 12.87v25.037l22.048 23.874V92.481Z" style="fill:#fff;fill-opacity:1;fill-rule:nonzero;stroke:none;stroke-width:.13333"/><path d="M284.953 113.94V92.48h-43.546v53.657l16.073 22.072h27.473v-22.65h-21.474v-6.607h21.474v-20.368h-21.474v-4.644zm-83.72-21.46h-29.488v75.54h50.792l17.231-23.025zm-7.789 53.204V119.47l19.442 26.214zM162.87 92.436h-17.854v75.585h22.017V92.436Zm-27.368.045h-19.808l-15.029 20.23-7.218-10.218L79.682 121.1l7.408 10-13.695 18.676L87.05 168.75l13.917-18.966 13.64 18.424h25.057V92.48Zm-17.733 34.554v8.93c-1.585-2.166-2.48-3.389-3.292-4.494.816-1.1 1.704-2.298 3.292-4.436" style="fill:#fff;fill-opacity:1;fill-rule:nonzero;stroke:none;stroke-width:.13333"/><path d="M223.255 4.1H205.37v19.41L187.36 4.1h-30.156l14.356 16.284v59.254h22.094V43.684l11.717 12.872v25.037l22.045 23.877V4.1ZM23.56 4.054H5.708v75.584h22.016V4.054ZM57.53 90.007l-3.312 4.243-10.567 13.537L31.748 92.65H1.138L13.004 108.4v59.81H34.11v-37.373l9.613 12.167 9.029-11.859v41.542l21.287 24.004v-85.136z" style="fill:#fff;fill-opacity:1;fill-rule:nonzero;stroke:none;stroke-width:.13333"/><path d="m125.172 1.284-3.352 4.564-39.69 54.04 14.752 19.75h57.174l14.348-19.577zm-.2 35.79 14.52 19.694h-29.04z" style="fill:#fff;fill-opacity:1;fill-rule:nonzero;stroke:none;stroke-width:.13333"/><path d="m76.931 59.633 14.634-20.04L63.122.959l-3.346 4.59-5.457 7.484V4.054H32.63v75.584H54.32V66.29L82.6 104.176 96.12 85.892s-16.24-22.223-19.188-26.26M62.488 38.228l.826-1.128.824 1.128z" style="fill:#fff;fill-opacity:1;fill-rule:nonzero;stroke:none;stroke-width:.13333"/><path d="M311.979 96.411h-19.121l9.298 10.55v56.665h13.77V121.08l20.04 22.013v25.023l13.724 14.858V96.411h-13.724v25.852zm-31.189 0h-35.222v48.138l14.03 19.266h21.192v-14.328h-21.474v-14.929h21.474v-12.045h-21.474v-12.967h21.474z" style="fill:#000;fill-opacity:1;fill-rule:nonzero;stroke:none;stroke-width:.13333"/><path d="M189.283 106.639v42.974h31.873zm9.841-10.228h-23.217v67.215h44.546l14.136-18.887z" style="fill:#000;fill-opacity:1;fill-rule:evenodd;stroke:none;stroke-width:.13333"/><path d="M149.179 96.365h13.691v67.26H149.18z" style="fill:#000;fill-opacity:1;fill-rule:nonzero;stroke:none;stroke-width:.13333"/><path d="M121.931 114.209v34.248l-12.625-17.236zm-5.227 49.606h18.798V96.41h-17.716l-17.206 23.16-7.21-10.207-8.51 11.501 7.4 9.987-13.72 18.713 8.542 11.872 13.87-18.898z" style="fill:#000;fill-opacity:1;fill-rule:evenodd;stroke:none;stroke-width:.13333"/><path d="M185.544 8.03h-19.122l9.3 10.55v56.663h13.77V32.696l20.04 22.016v25.02l13.723 14.862V8.03h-13.723v25.852ZM9.869 7.983H23.56v67.26H9.869ZM29.726 96.58H9.485l7.682 10.194v57.04h12.781v-45.193l13.713 17.36 13.253-17.406v52.299l12.963 14.617v-72.758L57.5 96.579 43.66 114.303Z" style="display:inline;fill:#000;fill-opacity:1;fill-rule:nonzero;stroke:none;stroke-width:.13333"/><path d="m124.972 29.828-22.76 30.87h45.52zm.203-21.749L87.309 59.634l11.659 15.61h52.978l11.296-15.411z" style="display:inline;fill:#000;fill-opacity:1;fill-rule:evenodd;stroke:none;stroke-width:.13333"/><path d="M54.28 42.157h18.05l-9.01-12.342ZM36.795 7.983h13.362v17.592L63.138 7.769 86.404 39.37 71.776 59.402l19.179 26.242-8.37 11.32-32.429-43.438v21.717H36.794z" style="display:inline;fill:#000;fill-opacity:1;fill-rule:evenodd;stroke:none;stroke-width:.13333"/><path d="M284.953 113.94h-21.474v4.644h21.474v20.368h-21.474v6.606h21.474v22.65H257.48l-16.073-22.071V92.48h72.388l18.008 19.41V92.48h22.048v101.367l-22.048-23.874v-25.037l-11.715-12.87v35.954h-22.094v-59.256L284.953 93.97Zm-83.72-21.46 38.535 52.515-17.231 23.026h-50.792V92.48h27.38z" style="display:inline;fill:none;stroke:#231f20;stroke-width:1.13384;stroke-linecap:butt;stroke-linejoin:miter;stroke-miterlimit:3.86369;stroke-dasharray:none;stroke-opacity:1"/><path d="M193.444 145.684h19.442l-19.442-26.214zM162.87 92.436h4.163v75.585h-22.017V92.436Zm-45.101 34.6-3.292 4.435 3.292 4.493zM223.255 4.1h4.161v101.37l-22.045-23.877V56.556l-11.717-12.872v35.954H171.56V20.384L157.204 4.099h30.156l18.011 19.41V4.1ZM23.56 4.054h4.163v75.584H5.707V4.054Z" style="display:inline;fill:none;stroke:#231f20;stroke-width:1.13384;stroke-linecap:butt;stroke-linejoin:miter;stroke-miterlimit:3.86369;stroke-dasharray:none;stroke-opacity:1"/><path d="m57.53 90.007 16.51 21.547v37.344l13.05-17.8-7.408-9.999 13.765-18.606 7.218 10.218 15.03-20.23h23.97v75.728h-25.059l-13.64-18.424L87.05 168.75 74.04 150.67v46.02l-21.288-24.004v-41.542l-9.03 11.86-9.612-12.168v37.373H13.005v-59.81L1.137 92.65h30.611l11.903 15.137L54.218 94.25ZM125.172 1.284l43.232 58.777-14.348 19.577H96.882L82.13 59.888l39.69-54.04Z" style="display:inline;fill:none;stroke:#231f20;stroke-width:1.13384;stroke-linecap:butt;stroke-linejoin:miter;stroke-miterlimit:3.86369;stroke-dasharray:none;stroke-opacity:1"/><path d="m124.972 37.074-14.52 19.694h29.04zm-48.04 22.559 19.187 26.259-13.518 18.284L54.32 66.29v13.348H32.63V4.054H54.32v8.98l5.457-7.484L63.122.96l28.443 38.633Z" style="display:inline;fill:none;stroke:#231f20;stroke-width:1.13384;stroke-linecap:butt;stroke-linejoin:miter;stroke-miterlimit:3.86369;stroke-dasharray:none;stroke-opacity:1"/><path d="M62.488 38.227h1.65l-.824-1.128Z" style="display:inline;fill:none;stroke:#231f20;stroke-width:1.13384;stroke-linecap:butt;stroke-linejoin:miter;stroke-miterlimit:3.86369;stroke-dasharray:none;stroke-opacity:1"/></svg>