<svg xmlns="http://www.w3.org/2000/svg" viewBox="0 0 800 550"><path d="M797.869 4.5h-59.766v86.176L685.619 4.5h-61.287v174.214h59.086V94.57l51.299 84.144h63.152zM551.361 4.5h-63.658l-40.125 65.521V4.5H381.38v174.214h66.198v-65.52l39.956 65.52h131.719V4.5h-66.198v158.639l-50.452-71.616zM547.975 202.925c-15.914-13.376-34.875-19.809-57.055-19.302H381.38V364.44l-63.32-180.817H169.072l44.696 46.729-16.422 46.049a72.5 72.5 0 0 0 1.015-12.188v-7.789c0-20.146-7.788-37.247-23.533-51.468-15.576-14.391-34.199-21.333-55.362-21.333H4v217.388h85.838l.996-59.512c8.667-.333 17-1 26.667-2 23-2.666 40.906-9.596 56.82-23.648 6.603-5.926 11.852-12.19 15.745-19.133l-37.247 104.293h82.621l6.941-28.105h60.103l6.772 28.105h153.729v-64.336l114.45 211.292V395.593l-43.851-81.097c4.74-2.54 9.312-5.756 13.715-9.142 16.084-13.206 24.039-28.952 24.039-47.406v-7.449c0-18.453-7.786-34.2-23.363-47.574m-51.468 59.596q.254 11.681-10.159 16.761c-6.771 3.556-14.56 4.91-23.363 4.571v-42.495c8.466-.846 16.254.676 23.195 4.233 6.77 3.385 10.327 9.14 10.327 16.93M89.838 283.853v-42.495c8.634-.846 16.252.676 23.024 4.233 6.941 3.386 10.498 9.141 10.498 16.93q.254 11.681-10.158 16.761c-6.773 3.555-14.561 4.909-23.364 4.571m199.948 36.739h-34.369l17.27-69.922zM658.7 183.624h-74.493v217.388H658.7v-86.007l51.978 86.007h87.191l-68.231-108.694 68.231-108.694h-94.473l-44.696 82.62z"/><path d="M266.761 4.5h-61.289v174.214h60.78V92.538L376.3 273.187V4.5h-56.886v86.176zM200.393 178.714V4.5h-66.198v174.214zM129.116 119.458H70.029V4.5H4v174.214h125.116z"/></svg>