<svg xmlns="http://www.w3.org/2000/svg" viewBox="0 0 557.778 233.736"><path d="M101.584 82.392C123.621 65.659 141.163 46 156.672 25.011L131.04 82.008l2.572 6.208 24.206-21.128v60.444l-26.778 24.866 7.271-50.879-9.949 12.243-5.737-12.624q-21.038 45.523-42.08 91.047c-1.519 3.341 1.959 5.873 4.971 3.44l19.514-16.064-78.042 79.186 81.866-157.993 14.151-27.541c.322-.589.003-2.35-1.912-1.764zM293.471 66.976h18.556v43.261h23.137v16.897h-41.693zM338.257 66.976h18.556v43.261h21.608v16.897h-40.164zM382.097 66.976h18.773v60.158h-18.773zM238.681 83.387v43.747h-19.864V83.387h-10.004V66.976h52.605l-6.983 16.411zM162.499 66.976h42.129v16.411h-23.357v6.038h23.357v16.411h-23.357v4.888h23.357v16.411h-42.129zM288.537 66.976l.229 60.158h-17.809v-16.867h-1.389l-8.328 16.867h-19.201l26.369-60.158zm-19.985 30.913 4.6.167v-8.514zM436.354 63.437c8.154 0 15.605 3.059 21.268 8.083l-13.715 14.282a12.46 12.46 0 0 0-7.882-2.786c-6.784 0-12.316 5.383-12.316 11.988s5.532 11.988 12.316 11.988c4.987 0 9.299-2.91 11.232-7.076l17 10.94c-5.498 9.701-15.949 16.278-27.903 16.278-17.626 0-32.004-14.307-32.004-31.849.001-17.542 14.379-31.848 32.004-31.848M448.879 25.844c18.571 16.526 37.512 32.683 57.108 48.186q-9.816-5.737-19.631-11.474c-2.173-1.088-5.368 0-3.06 4.42 33.839 63.505 68.351 126.745 101.47 190.619a6284 6284 0 0 1-83.369-79.291l28.046 17.338c3.344 1.407 5.504-1.333 2.039-6.887l-33.906-70.364-5.864-11.728-7.906-.254 7.395 47.166-22.799-26.44-3.898-73.225zm31.988 64.284h4.494l-6.533-10.634z" transform="translate(-26.988 -25.011)"/></svg>