<svg xmlns="http://www.w3.org/2000/svg" viewBox="0 0 1506 696"><path fill="#fefefe" d="M0 0h1506v696H0z"/><path d="M10.65 10.22c3.45.05 6.9.05 10.35.04h1463c3.79.01 7.58.02 11.37-.04.08 3.59.08 7.19.06 10.78v654c.02 3.6.03 7.19-.07 10.79-3.79-.07-7.57-.06-11.36-.05H21c-3.46-.01-6.91-.01-10.37.04-.08-3.6-.07-7.19-.06-10.78V25c.02-4.77-.08-9.54.07-14.31z" fill="#000"/><path fill="#fefefe" d="M51.22 50.57h1403.56c.03 198.28.03 396.58 0 594.86H51.22c-.03-198.28-.03-396.58 0-594.86"/><path d="M91.5 91.32c2.6-.92 5.76-.36 8.5-.49 435 .01 870 0 1305 0 3.21-.05 6.39-.08 9.58.33-.06 171.22-.06 342.46 0 513.68-3.19.42-6.37.38-9.58.33H101c-3.21.05-6.39.08-9.58-.33.11-170.49-.06-343.14.08-513.52" fill="#000"/><path fill="#fefefe" d="M1021.55 164.68c28.42.06 56.85.02 85.28.02-.32 4.12-1.15 8.14-1.88 12.19-2.87 16.26-5.68 32.53-8.57 48.79-28.6.01-57.22.12-85.82-.06 3.89-20.24 6.9-40.74 10.99-60.94M298.12 248.09c11.88-1.13 25-1.21 36.88.12 10.33.97 20.63 3.14 30.4 6.65 15.43 5.56 29.63 15.03 39.64 28.14 11.08 14.17 16.37 32.15 16.64 50 .61 18.3-3.19 36.84-9.15 54.08-8.92 25.33-25.38 47.74-47.62 62.95-21.56 15-46.85 22.86-72.92 24.83-16.78 1.38-33.93.71-50.4-2.91-17.83-3.94-34.67-11.84-47.66-24.88-10.87-10.55-17.91-24.4-20.83-39.22-2.2-10.18-2.02-20.43-1.56-30.82 1.35-16.18 5.31-32.23 11.46-47.24 9.21-22.47 24.62-42.28 44.45-56.36 20.78-14.83 45.33-23.05 70.67-25.34M578 247.6c17.8-.57 35.38-.66 53.09 1.58 13.49 1.74 28.26 4.79 40.04 11.89 9.1 5.38 15.82 14.18 18.73 24.33 3.48 11.56 2.6 22.87 1.22 34.66-1.75 13.7-4.46 27.36-6.78 40.98-4.42 25.01-8.8 50.02-13.17 75.04-1.02 5.64-2.63 11.17-1.43 16.93 1.25 4.85 4.2 8.72 7.72 12.17-.32 1.39-.63 2.79-.92 4.19-29.36.02-58.75-.15-88.11.08-.87-2.81-.59-5.57-.61-8.45.03-4.9.02-9.8-.04-14.7-23.85 19.52-54.09 29.08-84.74 29.17-10.63.22-21.54-1-31.68-4.28-10.78-3.52-21.37-10.08-28.18-19.26-6.98-9.47-9.16-21.39-8.45-32.94 1.34-14.91 5.77-29.4 14.93-41.41 8.26-11.16 20.33-19.32 33-24.7 9.06-3.95 19.28-6.06 28.95-8.03 16.8-3.21 33.79-5.57 50.76-7.72 10.37-1.45 21.58-3.32 31.19-7.65 4.48-2.14 9.12-4.89 11.43-9.48 2.46-5.32 2.27-12.32-2.59-16.26-4.88-3.93-12.33-4.67-18.36-5.04-9.05-.24-19.31 1-26.78 6.56-5.01 3.6-7.71 8.73-9.75 14.41-27.42-.04-54.85.01-82.28-.02 2.6-16.3 10.49-31.63 22.79-42.72 15.02-13.87 35.75-21.28 55.5-25.18 11.41-2.29 22.93-3.36 34.52-4.15M867 247.58c16.41 1.15 33.09 3.43 48.22 10.27 10.53 4.75 19.97 12.08 25.68 22.28 6.04 10.77 7.23 23 6.29 35.12-25.93.04-51.86-.01-77.79.03-.05-5.49-.6-10.95-4.43-15.22-4.32-4.59-10.92-5.82-16.97-5.8-7.22-.11-15.77.66-21.75 5.14-3.99 2.96-7.06 8.35-5.82 13.42 1.24 3.39 4.99 5.96 8.06 7.58 8.08 4.24 17.73 6.46 26.57 8.52 14.48 3.47 28.99 7.04 43.2 11.51 10.18 3.04 20.24 8.05 28.26 15.09 7.68 6.68 13 15.63 14.67 25.72 3.26 25.07-8.68 51.13-28.64 66.35-20.25 15.77-44.39 22.96-69.56 26.07-14.28 1.8-28.62 2.08-43 1.68-17.82-1.02-36.03-3.35-52.29-11.2-11.32-5.46-21-13.89-26.48-25.36-5.64-11.62-6.35-23.81-5.57-36.51 27.23-.15 54.47-.05 81.69-.04-.24 3.83-.66 8.14.35 11.87 1.83 5.92 7.11 10.33 12.78 12.43 8.03 2.89 17.37 2.44 25.56.44 6.33-1.54 12-5.17 15.12-11 1.73-3.31 3.09-7.38 2.12-11.12-1.23-4.06-5.48-7.17-9.08-9.07-8.77-4.6-19.45-6.5-29.06-8.79-14.16-3.44-28.5-6.62-42.4-11.01-12.63-4.24-25.69-12.68-31.92-24.82-5.91-11-5.59-24.56-2.81-36.41 3.06-14.11 10.25-27.08 20.75-37 14.42-13.84 34.42-22.29 53.73-26.51 18-4.06 36.16-4.43 54.52-3.66M1256.06 247.58c15.97 1.09 31.97 3.25 46.82 9.58 11.9 5.01 22.83 13.52 28.48 25.37 5.09 10.37 5.86 21.38 4.98 32.74-25.92-.01-51.85-.01-77.78 0-.06-3.85-.17-7.51-1.76-11.09-1.48-3.59-4.47-6.36-8.03-7.85-5.45-2.46-11.9-2.18-17.76-1.9-6.18.49-13.33 2.16-17.66 6.93-2.83 3-4.97 7.81-3.6 11.92 2.01 3.75 6.01 6.28 9.77 8.03 9.66 4.55 21.06 6.63 31.42 9.2 13.71 3.42 27.58 6.82 40.96 11.39 9.83 3.49 19.47 8.9 26.75 16.46a41.8 41.8 0 0 1 11.69 22.59c1.61 11.88-.18 23.86-4.63 34.95-6.17 15.9-17.87 28.57-32.22 37.53-21.94 14.14-48.87 19.81-74.6 21.44-9.91.9-19.96.6-29.89.47-18.29-1.06-37.72-3.63-54.14-12.26-11.65-5.99-21.3-15.63-26.03-27.97-4.18-10.63-4.66-21.5-4.03-32.79 27.23-.28 54.49-.03 81.73-.13-.38 4.68-.93 9.61 1.19 13.97 2.36 5.22 7.45 8.82 12.74 10.64 7.77 2.58 16.68 2.1 24.56.22 6.32-1.49 12.04-4.99 15.24-10.79 1.98-3.5 3.38-8.5 1.85-12.38-1.54-3.4-5.04-6.06-8.24-7.83-6.63-3.59-14.54-5.56-21.84-7.26-13.1-3-26.17-6.14-39.16-9.57-6.92-1.97-13.6-3.62-20.01-7.02-9.74-4.98-18.21-11.72-23.17-21.69-5.73-11.46-5.26-24.35-2.27-36.51 3.68-16.93 13.71-31.68 27.43-42.13 15.77-12 35.7-19.03 55.13-22.19 15.29-2.63 30.62-2.67 46.08-2.07M1005.76 253.52c28.27-.2 56.94-.04 85.25-.08-.18 2.48-.43 4.96-.89 7.4-12.27 69.48-24.36 139.06-36.7 208.51-28.46-.01-56.91 0-85.36 0q.18-2.205.45-4.41c8.01-46.02 16.19-91.98 24.21-137.99 4.41-24.4 8.46-49.1 13.04-73.43"/><path d="M321.25 307.74c6.79 3.48 10.51 10.2 12.39 17.35 3.18 12.53 2.24 25.86-.44 38.39-2.34 11.71-6 23.99-12.32 34.2-5.31 8.53-12.98 15.78-22.85 18.54-5.24 1.66-10.68 1.68-16.12 1.31-8.32-.79-15.83-5.4-19.55-13-4.95-9.88-5.27-22.46-4.17-33.24 1.49-15.73 4.99-31.85 14.04-45.1 6.02-8.83 13.63-16.37 24.08-19.57 7.8-2.31 17.54-2.75 24.94 1.12M595.93 374.01c-.94 13.32-4.9 27.89-13.46 38.43-7.24 8.94-18.12 13.67-29.48 14.27-6.99.23-14.51.33-20.99-2.7-3.99-1.85-7.06-5.45-7.4-9.95-.46-6.42 2.02-13.36 6.43-18.06 6.23-6.52 14.4-8.64 22.82-10.88 14.19-3.4 28.41-5.74 42.08-11.11" fill="#000"/></svg>