<svg xmlns="http://www.w3.org/2000/svg" fill="none" stroke-linecap="square" stroke-miterlimit="10" viewBox="0 0 870.425 558.614"><clipPath id="a"><path d="M0 0h870.425v558.614H0z"/></clipPath><g clip-path="url(#a)"><path fill="none" d="M0 0h870.425v558.614H0z"/><path fill="#000" fill-rule="evenodd" d="M52.697 437.155c3.443-6.46 21.975-26.631 41.317-55.45s52.455-83.774 74.733-117.463 39.496-59.029 58.94-84.667c19.442-25.639 41.213-51.576 57.72-69.165a290.7 290.7 0 0 1 41.316-36.37c9.317-6.757 11.95-5.07 14.583-4.175 2.633.894 3.544 6.36 1.215 9.54s-9.012 4.77-15.189 9.54-8.81 5.167-21.873 19.08-34.736 36.371-56.509 64.395c-21.772 28.023-55.595 77.115-74.127 103.747s-24.606 37.266-37.062 56.048-26.937 41.938-37.67 56.645c-10.735 14.708-18.837 23.55-26.735 31.6-7.9 8.049-24.102 23.154-20.659 16.695"/><path fill="#000" fill-rule="evenodd" d="M278.808 372.42c-20.875-15.844-95.162-69.08-129.506-87.905-34.345-18.824-56.001-21.763-76.558-25.042s-34.936 1.89-46.784 5.368-21.164 9.54-24.304 15.502-2.027 14.807 5.467 20.273 23.09 11.128 39.496 12.52c16.405 1.39 41.112-2.185 58.935-4.173s42.23-5.268 48.002-7.752-4.455-7.056-13.367-7.155c-8.911-.1-25.52 4.97-40.101 6.56-14.583 1.59-34.532 3.278-47.393 2.98s-23.394-2.485-29.774-4.77c-6.38-2.286-8-6.061-8.507-8.943s2.128-5.863 5.47-8.347c3.342-2.485 7.9-4.772 14.583-6.56 6.683-1.79 15.392-4.173 25.519-4.173s18.735-.895 35.24 4.173c16.507 5.067 42.025 14.21 63.797 26.235s50.72 34.938 66.836 45.912 21.745 14.523 29.86 19.932c8.116 5.408 14.986 11.625 18.834 12.52 3.848.893 25.13 8.687 4.255-7.156"/><path fill="#000" fill-rule="evenodd" d="M131.686 295.249c.81-1.49 14.48-4.173 18.834-4.173s8.101 2.682 7.29 4.173c-.81 1.49-7.797 4.77-12.151 4.77s-14.783-3.28-13.973-4.77"/><path fill="#000" fill-rule="evenodd" d="M62.761 214.158c-1.953 6.02-2.937 9.74-2.43 14.908s2.938 12.42 5.47 16.097 7.19 5.466 9.721 5.963c2.532.497 5.164-1.588 5.467-2.98.304-1.391-2.228-3.877-3.645-5.368-1.418-1.49-3.748-1.788-4.861-3.577-1.114-1.789-2.632-2.087-1.821-7.155.81-5.068 1.922-13.556 6.682-23.252 4.759-9.696 11.645-21.352 21.873-34.924s23.698-30.99 39.496-46.507c15.797-15.518 35.441-32.57 55.29-46.596s43.343-27.767 63.8-37.562c20.455-9.795 36.454-15.984 58.935-21.208s54.179-9.74 75.952-10.138 38.452 3.082 54.684 7.753c16.23 4.67 29.915 10.832 42.704 20.272 12.788 9.44 24.506 23.196 34.025 36.37 9.52 13.174 19.14 31.174 23.09 42.673s3.444 18.657.608 26.323-7.596 12.52-17.622 19.675-23.624 14.894-42.532 23.255c-18.908 8.362-33.476 14.479-70.915 26.914s-109.873 34.98-153.721 47.7-92.355 22.658-109.368 28.62c-17.013 5.963-3.14 8.248 7.291 7.155 10.43-1.093 15.492-2.682 55.29-13.712s140.558-39.537 183.495-52.47 50.836-15.573 74.127-25.127c23.292-9.554 51.14-21.862 65.621-32.197 14.482-10.335 18.432-19.762 21.268-29.813 2.835-10.051-1.115-20.344-4.255-30.495s-6.583-18.286-14.582-30.41-23.493-32.04-33.417-42.332-15.495-13.6-26.128-19.421-24.608-11.826-37.671-15.503C431.618 3.412 418.86 1.327 403.974.532s-29.57-.896-48.608 1.787-44.456 7.354-65.62 14.31c-21.166 6.956-44.328 18.328-61.37 27.428s-23.943 13.897-40.883 27.17-43.849 35.86-60.76 52.47-31.594 35.648-40.708 47.19-10.099 14.851-13.976 22.063-7.335 15.19-9.288 21.208"/><path fill="#000" fill-rule="evenodd" d="M296.343 241.33c-2.937 1.887-6.076 5.21-8.506 8.347-2.43 3.138-4.253 6.845-6.076 10.479s-4.05 7.253-4.86 11.327-1.419 9.64 0 13.118c1.417 3.478 5.062 6.262 8.506 7.752s7.797 2.286 12.151 1.193c4.355-1.093 7.597-1.89 13.977-7.753s20.253-20.869 24.304-27.427c4.05-6.56 3.747-11.33 0-11.925-3.747-.597-18.432 4.77-22.483 8.347-4.05 3.578 1.115 8.844-1.821 13.118-2.937 4.273-11.747 10.137-15.798 12.522-4.05 2.385-7.797 3.477-8.506 1.788-.71-1.69 1.518-8.745 4.251-11.925s9.823-1.832 12.152-7.155c2.33-5.324 3.04-21.152 1.825-24.786s-6.179 1.092-9.116 2.98"/><path fill="#000" fill-rule="evenodd" d="M292.696 267.312c3.24.937 7.09 1.803 12.762.851 5.67-.951 24.504-5.623 21.264-6.56s-35.037-.013-40.708.939c-5.67.951 3.442 3.833 6.682 4.77"/><path fill="#000" fill-rule="evenodd" d="M300.598 256.58c.303-1.392 13.973-1.89 16.403-.599 2.43 1.292.913 8.248-1.821 8.348s-14.886-6.358-14.582-7.75"/><path fill="#000" fill-rule="evenodd" d="M299.99 263.137c2.025.596 10.126-1.391 9.72-2.385-.404-.994-10.53-3.975-12.151-3.577-1.62.397.405 5.366 2.43 5.962M301.203 237.498l7.291 5.963M327.33 246.44c-2.025-.796 2.43-6.586 0-6.558s-10.633 4.742-14.582 6.73c-3.95 1.987-6.584 6.019-9.116 5.195s-7.494-6.858-6.076-10.138 9.722-7.353 14.582-9.54 10.532-3.776 14.583-3.577c4.05.199 7.595 2.087 9.721 4.77s4.559 9.144 3.04 11.33-10.127 2.582-12.152 1.787"/><path fill="#000" fill-rule="evenodd" d="M362.573 240.138c5.974-.397 12.454.2 16.403 1.79 3.95 1.59 6.076 5.266 7.291 7.75s-2.43 7.652 0 7.155 8.304-6.358 14.583-10.135c6.278-3.776 17.823-10.237 23.089-12.522s6.177-1.79 8.506-1.193c2.33.596 4.66 2.981 5.47 4.77s.91 3.578-.61 5.963c-1.518 2.385-3.847 3.477-8.506 8.347-4.658 4.87-14.582 14.71-19.443 20.87-4.86 6.162-10.937 14.21-9.721 16.098s8.506-.398 17.012-4.77c8.507-4.373 20.456-11.472 34.026-21.465s37.064-29.839 47.393-38.498c10.33-8.66 7.797-4.756 14.582-13.46 6.785-8.702 19.749-30.21 26.129-38.757s7.493-11.923 12.152-12.52 14.279 5.663 15.797 8.943-.507 3.676-6.685 10.732c-6.177 7.056-18.532 19.976-30.38 31.603s-27.948 27.314-40.708 38.16-25.318 19.447-35.85 26.914-19.239 13.316-27.34 17.888c-8.101 4.57-14.887 9.042-21.268 9.54-6.38.497-13.873-3.477-17.012-6.558s-3.442-6.856-1.822-11.925c1.62-5.068 12.556-17.193 11.543-18.485s-7.29 3.875-17.619 10.733c-10.329 6.857-34.533 23.751-44.356 30.41s-10.026 9.142-14.582 9.54-13.062-4.074-12.758-7.155 5.367-4.076 14.582-11.33 32.303-24.546 40.708-32.198 10.126-11.725 9.721-13.712-4.86.098-12.152 1.787c-7.29 1.69-24.506 8.348-31.595 8.348s-13.266-5.268-10.937-8.348 17.52-7.75 24.913-10.135 13.47-3.777 19.444-4.175"/><path fill="#000" fill-rule="evenodd" d="M499.89 234.773c-8 10.789-6.583 13.713-9.115 21.465-2.532 7.75-5.874 16.397-6.076 25.042-.203 8.645 1.62 19.973 4.86 26.83s9.62 12.124 14.583 14.31c4.962 2.186 13.47-.398 15.192-1.193s-2.937-2.84-4.861-3.577c-1.925-.738-4.255.582-6.685-.852s-5.771-3.916-7.898-7.75c-2.126-3.832-5.366-7.241-4.86-15.248s1.922-17.631 7.897-32.792c5.974-15.162 21.974-46.592 27.95-58.176 5.974-11.585 13.064-16.654 7.9-11.33-5.165 5.323-30.886 32.481-38.887 43.27"/><path fill="#000" fill-rule="evenodd" d="M517.595 228.725c2.633-3.975 12.455-18.781 15.797-23.85 3.342-5.068 3.546-5.467 4.255-6.56"/><path fill="#000" fill-rule="evenodd" d="M542.506 197.72c-4.86 5.864-12.354 12.421-17.012 18.483s-7.9 13.316-10.937 17.887c-3.038 4.572-4.659 8.348-7.291 9.54-2.633 1.193-16.507 9.043-8.507-2.385s47.189-56.145 56.505-66.182 1.52 2.187-.606 5.963-7.29 10.832-12.152 16.695"/><path fill="#000" fill-rule="evenodd" d="M557.09 152.915c3.038-3.776 7.494-9.838 13.368-16.695 5.873-6.857 15.392-18.386 21.873-24.448s12.962-10.236 17.013-11.925c4.05-1.689 6.076.101 7.291 1.79s1.215 5.764 0 8.348-.91-.596-7.291 7.155c-6.38 7.751-23.698 30.011-30.99 39.353-7.29 9.34-8.302 11.527-12.757 16.695-4.456 5.167-9.723 11.826-13.977 14.31s-11.644 5.364-11.542.594c.101-4.77 9.316-23.351 12.152-29.214s1.822-2.187 4.86-5.963M597.107 206.92c-.507-1.888 12.454-11.23 22.48-17.888 10.024-6.658 22.176-13.715 37.67-22.063s44.762-25.34 55.294-28.022c10.531-2.683 9.011 8.745 7.897 11.925s-4.152 2.087-14.583 7.155c-10.43 5.068-34.125 16.197-47.998 23.252-13.874 7.056-25.114 14.807-35.241 19.08-10.127 4.274-25.013 8.448-25.52 6.56M562.645 268.672c-.434-3.123.87-6.174 2.867-8.601s3.847-3.379 9.112-5.963 8.711-4.968 22.483-9.54c13.773-4.57 46.075-14.21 60.151-17.887s19.14-4.275 24.304-4.175c5.165.099 5.774 2.782 6.685 4.77.912 1.987 1.013 5.565-1.215 7.155s-3.95.496-12.152 2.385c-8.203 1.888-22.078 4.175-37.065 8.945-14.988 4.77-42.43 15.5-52.86 19.675-10.43 4.173-11.876 2.542-9.721 5.367s11.209 7.113 22.652 11.584c11.442 4.472 32.362 10.363 46.005 15.246 13.642 4.883 13.369 4.258 35.85 14.053s70.075 30.098 99.037 44.72 59.647 32.964 74.737 43.015c15.088 10.051 13.67 12.423 15.797 17.293 2.126 4.87 1.214 10.435-3.04 11.925s-8.302-.598-22.48-2.983c-14.176-2.385-35.85-6.756-62.584-11.327s-70.074-12.224-97.822-16.1c-27.747-3.876-46.685-5.565-68.66-7.155s-41.62-2.385-63.19-2.385-45.583.795-66.227 2.385-35.17 3.279-57.638 7.155c-22.466 3.876-54.074 10.819-77.163 16.1s-36.964 7.126-61.37 15.587-54.48 20.115-85.063 35.177-75.517 41.525-98.432 55.196c-22.915 13.672-30.928 20.473-39.058 26.833s-6.987 10.433-9.722 11.327-5.875-3.18-6.685-5.962c-.81-2.783-1.619-6.261 1.824-10.733 3.443-4.471 3.037-5.705 18.834-16.097s46.382-30.396 75.952-46.254 71.855-36.457 101.468-48.892 45.28-17.659 76.21-25.722 73.317-17.59 109.368-22.657c36.05-5.069 70.582-7.455 106.937-7.753s74.548 2.385 111.193 5.962 76.788 10.335 108.672 15.503c31.885 5.167 71.393 15.005 82.634 15.502s-8.404-7.948-15.189-12.52c-6.784-4.57-16.708-10.08-25.519-14.907s-11.546-6.444-27.343-14.054c-15.798-7.609-49.113-23.24-67.442-31.602-18.33-8.362-24.102-11.398-42.532-18.567s-51.863-17.634-68.052-24.448c-16.188-6.814-23.32-12.009-29.078-16.438-5.758-4.43-5.037-7.015-5.47-10.138"/></g></svg>