<svg xmlns="http://www.w3.org/2000/svg" viewBox="52.5 5.5 497 193"><g><path d="M159.3,164.7l-25.6,25.6l-25.4-25.6l11.4-11.4V129.9H95.1V153.3l11.4,11.4l-25.6,25.6l-25.4-25.6l11.4-11.4V50.1l42.2-41.8l38.8,38.8v106.2L159.3,164.7z M119.7,100.5V63.9L95.1,39.3v61.2H119.7zM248.097,49.3l-21.4,21l-30.4-31v105l7.4,7.2l23-23.2l20.6,20.2l-42,41.8l-37.2-37V47.1l39.2-39L248.097,49.3zM342.696,93.1l-73.8,102.8l25.8-74.4h-25.8l33.6-77.2h31.8l-18,48.8H342.696L342.696,93.1zM442.695,156.9l-33,33.398h-37.801l-22.199-22.8l12-11.8V43.1l-12.2-12.2l22.399-22.4h37.801l33,33.4V156.9L442.695,156.9zM414.495,140.9v-83l-24.601-23.8v130.6L414.495,140.9zM542.894,49.3l-21.398,21l-30.4-31v105l7.4,7.2l23-23.2l20.6,20.2l-42,41.8l-37.2-37V47.1l39.2-39L542.894,49.3z"/></g></svg>