<svg xmlns="http://www.w3.org/2000/svg" viewBox="0 0 800 213"><path d="M676.391 202.25c-11.608-19.24-46.558-74.78-47.96-76.214-1.243-1.272-1.431.885-1.431 16.379v17.843l-4.75-.624c-5.937-.779-44.614-5.28-52.906-6.157l-6.155-.651-6.845-10.163L549.5 132.5l-.29 9.39-.289 9.39-10.21-.67c-5.616-.37-13.024-.944-16.461-1.279l-6.25-.607V46l4.25.013c8.742.026 39.038 3.01 45.297 4.462 11.854 2.749 18.967 7.873 24.938 17.966L594 74.382v-10.69c0-5.881.338-10.698.75-10.706.413-.008 6.932.74 14.487 1.663l13.738 1.678 13.262 22.316L649.5 100.96l.5-20.23c.424-17.152.728-20.215 2-20.134.825.054 8.137 1.133 16.25 2.4L683 65.298v73.351c0 40.343-.163 73.351-.363 73.351s-3.01-4.387-6.246-9.75m3.346-133.847C679.409 68.076 655.773 64 654.2 64c-.743 0-1.039 7.29-.953 23.48.069 12.915-.09 23.697-.354 23.96-.263.263-7.552-11.396-16.197-25.91L620.978 59.14l-5.74-.657A437 437 0 0 1 604 57.022c-3.303-.483-5.736-.428-6.091.14-.326.518-.545 21.652-.487 46.964s-.169 46.464-.504 47.007-1.433-.278-2.44-1.823c-1.007-1.546-6.496-9.053-12.198-16.683-5.703-7.63-10.236-13.99-10.074-14.134.162-.143 2.676-1.277 5.588-2.519 10.673-4.552 15.76-14.209 15.01-28.496-.545-10.374-4.432-18.986-11.596-25.687-7.996-7.479-15.656-9.405-47.007-11.823-7.314-.564-13.703-.776-14.198-.47-.516.32-.815 20.834-.701 48.207l.198 47.65 2.5.664c1.375.365 7.324.974 13.22 1.352l10.72.688.28-12.78.28-12.779 9.268 13.75c5.097 7.563 9.441 13.75 9.654 13.75 2.366 0 49.682 5.514 55.828 6.506l2.75.444v-21.675c0-13.18.36-21.303.918-20.725.902.934 28.053 44.016 45.631 72.405l8.951 14.456.257-66.365c.142-36.5.132-66.49-.02-66.643M668.5 180.251c-4.95-8.072-13.828-22.343-19.729-31.713a7143 7143 0 0 1-18-28.737c-4-6.435-7.609-11.723-8.021-11.75-.412-.028-.75 10.533-.75 23.468v23.52l-2.25-.5c-1.237-.275-6.062-.994-10.722-1.598-4.66-.603-8.822-1.314-9.25-1.578-.999-.618-1.027-92.102-.028-92.676 1.117-.642 19.392 2.054 20.328 2.999.443.448 8.481 13.639 17.861 29.314l17.055 28.5.003-26.875L655 65.75l2.791.558c1.535.307 6.71 1.107 11.5 1.777L678 69.303v62.849c0 34.566-.112 62.832-.25 62.812-.137-.02-4.3-6.64-9.25-14.713m-91.334-30.785c-6.234-.716-11.424-1.45-11.534-1.634-2.336-3.89-20.276-30.112-20.84-30.46-.436-.27-.792 6.095-.792 14.144v14.634l-9.25-.629c-5.087-.346-10.262-.838-11.5-1.094l-2.25-.465V51h2.484c5.767 0 36.42 3.09 41.016 4.135 6.945 1.579 11.89 4.256 16.644 9.009 9.316 9.316 12.757 25.646 8.005 37.995-2.526 6.567-11.915 13.782-18.006 13.839-1.536.014-2.18.482-1.85 1.342.278.727 5.42 8.04 11.423 16.25 6.005 8.212 11.252 15.493 11.66 16.18.888 1.495.185 1.482-15.21-.284m-13.443-51.439c3.726-2.271 4.736-5.261 3.996-11.825-.418-3.708-1.2-5.24-3.775-7.39-3.318-2.77-10.318-4.812-16.493-4.812H544v12.333c0 6.784.3 12.634.667 13 .366.367 4.079.665 8.25.663 5.773-.003 8.352-.472 10.806-1.969m-13.973.273-3.75-.42V76h3.057c5.35 0 11.812 2.142 14.464 4.794 2.231 2.231 2.53 3.285 2.274 8.035-.243 4.498-.738 5.786-2.795 7.267-2.809 2.022-7.67 2.83-13.25 2.204m12.276-4.831c.603-.727.956-3.222.785-5.545-.372-5.053-3.157-7.536-9.561-8.524l-4.25-.656v8.062c0 8.05.004 8.062 2.75 8.378 4.378.503 9.087-.282 10.276-1.715m31.968 29.781c-.006-18.486-.106-19.558-1.561-16.75-2.233 4.31-7.333 9.366-11.735 11.635l-3.802 1.959 3.11 4.203c1.71 2.312 5.446 7.446 8.302 11.41s5.304 7.226 5.442 7.25.247-8.844.244-19.707M685 107.845c0-87.243.21-102.984 1.356-101.318.746 1.085 5.528 8.723 10.627 16.973s12.088 19.5 15.53 25c6.07 9.695 20.535 33.354 30.747 50.288 2.748 4.558 4.787 8.498 4.53 8.755-.382.383-18.86-3.006-27.54-5.051-1.92-.452-2.25-.124-2.247 2.239l.003 2.769 17.359 3.376 17.359 3.376 10.575 17.624c5.816 9.693 10.187 17.763 9.713 17.932-.473.17-11.358-1.94-24.187-4.687-33.418-7.157-30.825-6.842-30.825-3.751 0 1.887.612 2.715 2.25 3.046 14.961 3.017 52.06 10.907 54.75 11.644 3.199.877 4.42 2.507 14.201 18.95 5.886 9.894 10.363 17.99 9.95 17.99s-11.53-2.506-24.701-5.568c-32.614-7.582-59.473-12.82-60.441-11.787-.44.47-7.148 8.648-14.905 18.173L685 211.136zm16.416 78.405c8.889-10.804 12.28-14.25 14.024-14.25 2.807 0 54.293 10.86 67.81 14.303 5.363 1.366 9.748 2.194 9.745 1.84s-3.763-6.943-8.357-14.643l-8.352-14-11.893-2.68c-6.541-1.473-20.33-4.378-30.643-6.456L715 146.587v-5.794c0-3.186.118-5.793.262-5.793.65 0 39.316 8.09 45.319 9.482 3.692.857 6.847 1.423 7.011 1.26.27-.27-15.629-27.112-16.68-28.164-.243-.243-7.41-1.843-15.927-3.556a5222 5222 0 0 1-17.735-3.587c-2.002-.421-2.25-1.077-2.25-5.954 0-6.528-.87-6.348 15-3.099 6.325 1.295 11.66 2.217 11.855 2.048.195-.168-2.031-4.271-4.946-9.118-10.978-18.251-47.163-76.85-48.018-77.762-.522-.556-.891 37.759-.891 92.45 0 51.37.38 92.973.846 92.45s6.121-7.362 12.57-15.2m-11.564 7.92c-.194-1.469-.127-40.82.148-87.448l.5-84.777 3.409 5.777C695.784 30.9 701.93 40.925 707.568 50c22.28 35.865 31.09 50.51 30.524 50.742-.326.134-5.992-.809-12.592-2.094l-12-2.337-.297 6.998c-.163 3.848.062 7.319.5 7.712s7.997 2.145 16.797 3.894c8.8 1.748 16.78 3.411 17.734 3.694 1.588.472 16.139 23.351 15.351 24.139-.189.189-9.96-1.671-21.714-4.134s-23.059-4.784-25.121-5.157l-3.75-.68v7.612c0 4.186.238 7.611.53 7.611 1.532 0 57.818 12.182 59.843 12.952 1.586.603 4.616 4.743 9.008 12.306 3.64 6.27 6.619 11.642 6.619 11.939s-6.637-1.005-14.75-2.893-25.226-5.594-38.03-8.236l-23.278-4.803-8.662 10.617c-4.764 5.84-9.88 12.044-11.37 13.787l-2.707 3.17zm-555.912 7.067a8755 8755 0 0 1-15.75-19.937L107 167.1v-22.191l-3.75.663c-12.103 2.138-21.732 4.369-21.988 5.094-.161.459-4.224 7.118-9.028 14.798L63.5 179.428l-6.427 1.292c-3.535.71-17.417 3.794-30.85 6.853s-24.632 5.351-24.89 5.094c-.256-.257 2.601-4.759 6.35-10.004 3.75-5.245 9.499-13.38 12.777-18.08l5.96-8.542 9.654-2.155c8.485-1.895 9.86-2.503 11.347-5.021.93-1.576 1.49-2.865 1.242-2.865-.247 0-3.907.715-8.134 1.59-4.226.873-7.876 1.397-8.11 1.162-.235-.234 5.41-8.514 12.545-18.4l12.971-17.972 6.482-1.289c4.98-.99 6.86-1.864 8.112-3.776.897-1.369 1.43-2.69 1.184-2.936s-2.592.034-5.213.621-4.92.913-5.11.723c-.509-.509 22.426-31.92 24.804-33.973 1.115-.963 3.248-1.75 4.74-1.75 2.483 0 4.538-2.924 24.14-34.34L138.5 1.32l.259 51.34c.142 28.237.142 74.51 0 102.827l-.259 51.487zm1.82-142.782-.26-46.545-14 22.57C97.493 73.18 98.046 72.41 93.739 73.092c-2.069.328-3.887.778-4.04 1.001-.415.602-7.55 10.321-14.162 19.288l-5.812 7.883 5.647-.706 5.647-.705-4.022 6.415-4.022 6.415-6.738 1.25-6.737 1.25-10 14.082c-5.5 7.745-10.136 14.412-10.303 14.816-.166.404 3.343-.056 7.8-1.023 9.183-1.993 9.067-2.189 3.697 6.205-3.18 4.971-3.704 5.339-9.282 6.502-13.477 2.81-12.402 2.005-23.368 17.517-5.527 7.819-9.63 14.355-9.116 14.526.514.172 11.922-2.19 25.351-5.249C47.71 179.502 59.38 177 60.216 177c.887 0 5.183-6.073 10.329-14.602 4.946-8.198 9.719-14.977 10.882-15.456 2.515-1.035 23.395-4.942 26.415-4.942 2.09 0 2.158.377 2.158 11.9v11.9l12.75 16.205 12.75 16.206.26-46.606c.143-25.633.143-67.55 0-93.15m-13.003 120.673L112.015 165.5l-.007-13.358c-.007-13.34-.01-13.358-2.258-12.836-1.237.288-8.666 1.738-16.509 3.223l-14.259 2.7-9.048 14.827-9.05 14.826-5.691 1.172c-3.131.645-14.146 3.083-24.479 5.418s-18.657 3.905-18.5 3.487 4.111-6.15 8.786-12.74l8.5-11.98 8.5-1.76c4.675-.968 9.073-2.057 9.773-2.422 2.235-1.163 11.255-16.532 9.885-16.842-.693-.157-4.142.388-7.666 1.21s-6.52 1.381-6.657 1.243 3.667-5.732 8.457-12.432l8.708-12.181 7.012-1.575 7.012-1.575 4.813-8.044c2.647-4.424 4.667-8.189 4.488-8.366s-2.35.05-4.825.505-4.58.748-4.679.651c-.098-.096 3.619-5.419 8.26-11.827 7.83-10.813 8.724-11.7 12.418-12.324 3.936-.665 4.125-.906 17.112-21.836 7.223-11.64 14.584-23.414 16.358-26.164s3.73-5.9 4.348-7 1.145-1.55 1.172-1c.206 4.122-.007 173.843-.218 174.024-.15.128-5.105-5.9-11.014-13.396m-17.507-60.172 6.75-1.161v-12.398c0-6.818-.175-12.397-.39-12.397-.213 0-3.67 5.288-7.682 11.75-4.012 6.463-7.987 12.836-8.834 14.164-1.494 2.343-1.466 2.397.933 1.809 1.36-.333 5.51-1.129 9.223-1.767m-6.085-3.085c.854-1.304 3.528-5.675 5.944-9.713l4.391-7.342.293 8.249c.161 4.537-.064 8.583-.5 8.99s-3.243 1.066-6.237 1.464l-5.444.722zm7.835-4.038c0-1.191-.127-1.979-.283-1.75s-.886 1.205-1.622 2.167c-1.147 1.498-1.106 1.75.283 1.75.997 0 1.622-.835 1.622-2.167m34 22.886V62.04l2.25-.528c2.497-.584 29.31-4.511 30.805-4.511.58 0 .945 19.237.945 49.919v49.918l-16.11 24.332c-8.86 13.382-16.51 24.759-17 25.281-.52.556-.89-29.213-.89-71.73m17.126 42.031 13.358-20.25.008-47.75L171.5 61h-2.484c-1.367 0-7.554.758-13.75 1.684L144 64.368v66.316c0 36.474.173 66.316.384 66.316s6.395-9.112 13.742-20.25M146 128.73V66.158l2.75-.576c4.253-.89 16.49-2.541 19-2.563L170 63v92.359l-9.212 14.07c-5.067 7.74-10.467 15.826-12 17.971L146 191.3zm30.241-20.48.259-51.75 17-2.207c19.77-2.566 35.687-3.045 41.178-1.238 8.245 2.713 14.388 8.468 18.346 17.189l1.932 4.256.022-13.189.022-13.188 4.25-.538C267.868 46.494 290.528 45 298.462 45c19.115 0 27.97 7.27 31.045 25.487l.673 3.987 2.66-5.45c3.711-7.603 13.121-17.343 21.054-21.792 21.56-12.091 48.83-8.698 65.695 8.176 3.35 3.35 7.508 8.567 9.24 11.592l3.152 5.5.01-15.25L432 42l7.25.005c3.988.003 11.638.296 17 .651l9.75.646v33.381c0 36.817.374 39.582 5.491 40.56 4.013.767 6.549-.217 7.586-2.945.508-1.335.923-17.624.923-36.196 0-18.573.186-33.956.413-34.185.227-.23 7.877-.012 17 .483l16.587.9v35.3c0 21.78-.421 37.331-1.1 40.6-2.075 10.008-8.785 18.331-18.9 23.447-4.75 2.402-6.948 2.835-16.128 3.173-16.013.592-25.611-2.655-34.688-11.731-5.488-5.489-9.107-12.099-9.913-18.106-.596-4.446-1.754-5.179-2.635-1.668-.96 3.826-10.158 15.164-15.458 19.055-15.08 11.069-35.938 14.434-53.285 8.596-8.704-2.929-19.024-10.004-24.132-16.544L333.526 122l-2.15 4.872c-1.182 2.68-3.85 6.754-5.93 9.055-7.97 8.824-15.8 11.32-40.946 13.057-8.8.608-25.225 1.984-36.5 3.058s-21.474 1.954-22.663 1.956c-1.553.002-4.094-2.54-9-9.001l-6.837-9.004-.285 10.004c-.157 5.502-.607 10.004-1 10.004s-7.69.9-16.215 1.999-15.617 1.998-15.759 1.999c-.142 0-.142-23.286 0-51.749m16.259 46.746c3.85-.53 8.45-1.214 10.221-1.52l3.222-.556.278-12.945.279-12.946 9.042 11.736c8.505 11.038 9.247 11.732 12.5 11.683 5.454-.082 22.54-1.612 25.823-2.313l2.98-.635-12.372-14c-6.805-7.7-12.395-14.514-12.422-15.142-.028-.627 1.02-1.41 2.328-1.738 4.068-1.021 12.338-9.343 15.32-15.417C252.17 96.172 252.5 94.38 252.5 86c0-8.385-.33-10.17-2.806-15.214-3.276-6.67-9.928-12.94-15.5-14.61-5.775-1.73-18.61-1.438-36.694.835-8.8 1.107-16.562 2.217-17.25 2.469-.976.357-1.25 10.974-1.25 48.489V156l3.25-.02c1.788-.01 6.4-.453 10.25-.984m-11.5-47.45V61.09l3.25-.544c11.565-1.937 29.657-3.776 37.75-3.838 10.917-.084 15.085 1.376 21.102 7.393 5.581 5.581 8.186 13.527 7.685 23.44-.659 13.023-7.022 22.98-17.773 27.81l-4.783 2.148 12.353 14c6.794 7.7 12.367 14.26 12.385 14.58.03.577-27.06 3.252-27.416 2.707-.103-.158-4.882-6.312-10.62-13.676L204.5 121.72l-.275 14.963-.275 14.962-10.225 1.183c-5.624.65-10.787 1.18-11.475 1.177-.982-.004-1.25-9.967-1.25-46.46m30.976-3.612C222.766 102.184 228 97.3 228 88.982c0-8.902-7.08-12.517-20.25-10.34l-3.75.62V92.13c0 7.078.338 12.866.75 12.861.413-.004 3.664-.48 7.226-1.058M206 92.194C206 79.622 205.716 80 215.127 80 222.926 80 226 82.651 226 89.378c0 7.623-4.532 11.404-15.75 13.14l-4.25.658zm11.452 5.39c4.01-1.675 5.548-4.166 5.548-8.983 0-4.413-2.29-5.822-8.784-5.404l-4.716.303-.292 7.75c-.292 7.735-.287 7.75 2.282 7.75 1.416 0 4.099-.637 5.962-1.415M284 145.929c16.06-1.131 26.05-2.868 30.89-5.37 1.545-.8 4.895-3.57 7.444-6.154 5.443-5.521 8.645-13.126 8.713-20.692l.047-5.212 1.796 4.592c8.116 20.745 31.374 33.402 55.28 30.087 15.147-2.1 30.366-11.706 37.302-23.542 22.895-39.067-12.007-85.556-56.379-75.097-23.038 5.43-39.072 25.625-39.351 49.563l-.101 8.7-2.76-3.809c-1.518-2.095-4.11-4.606-5.759-5.58l-2.998-1.772 2.59-3.071c3.927-4.657 5.512-9.388 5.472-16.335-.045-7.78-2.767-13.865-8.332-18.63-6.78-5.803-13.297-6.53-40.706-4.545-8.056.584-15.66 1.268-16.898 1.52l-2.25.457v97.192l5.25-.605c2.888-.333 12.225-1.096 20.75-1.697m-24-46.696V52.276l18.75-1.28c21.473-1.467 29.151-1.137 34.616 1.486 11.972 5.747 14.97 24.774 5.52 35.026-2.137 2.319-3.886 4.448-3.886 4.733s1.345 1.074 2.99 1.755c4.307 1.784 9.782 8.27 10.583 12.54 1.964 10.473-1.315 21.042-8.738 28.163-6.237 5.983-12.628 7.68-34.835 9.245-8.525.602-17.637 1.352-20.25 1.669l-4.75.575zm35.5 22.789c7.09-1.144 10.5-4.203 10.5-9.422 0-6.033-4.035-7.893-15.117-6.969l-7.883.658V123l3.25-.006c1.788-.003 5.95-.441 9.25-.974zm-10.5-7.297v-6.565l6.425-.688c3.533-.378 7.696-.264 9.25.254 2.53.843 2.825 1.402 2.825 5.345 0 3.8-.37 4.58-2.706 5.7-1.488.713-5.651 1.572-9.25 1.908l-6.544.611zm14.25 1.113c2.415-1.252 2.2-4.56-.349-5.368-1.154-.367-4.08-.37-6.5-.006-4.237.635-4.401.79-4.401 4.16v3.5l4.75-.69c2.613-.379 5.538-1.097 6.5-1.596m-.823-32.197c4.074-2.67 4.032-9.654-.068-11.522-2.733-1.246-7.509-1.438-12.234-.493L283 72.25v14.024l6.5-.522c3.575-.287 7.592-1.237 8.927-2.112M285 78.5V73h6.465c5.57 0 6.622.294 7.603 2.126C301.603 79.864 296.88 84 288.935 84H285zm11.277.623c1.69-1.69-.299-3.123-4.336-3.123-3.59 0-3.941.235-3.941 2.63 0 2.471.223 2.595 3.664 2.037 2.015-.327 4.09-1.022 4.613-1.544m72.831 61.795c-5.406-1.061-15.893-5.89-20.613-9.49-5.511-4.203-12.105-13.755-14.607-21.161-4.462-13.203-2.386-30.583 5.035-42.147 20.934-32.623 70.581-30.184 87.027 4.275 17.756 37.204-15.035 76.734-56.842 68.523m23.728-23.136c9.088-4.677 15.05-16.59 13.766-27.511-1.778-15.124-13.505-25.283-27.701-23.996-27.368 2.482-32.21 43.32-6.31 53.213 5.402 2.063 14.392 1.305 20.245-1.706m-20.22-.254c-5.218-1.86-11.207-7.9-13.358-13.473-2.172-5.627-2.18-16.156-.016-21.195.86-2.001 3.211-5.463 5.224-7.691 10.336-11.44 29.127-8.982 36.928 4.831 2.764 4.895 3.104 6.38 3.089 13.5-.02 9.37-1.976 14.003-8.34 19.752-6.195 5.596-15.22 7.237-23.528 4.276m16.152-3.076c8.408-3.513 12.671-10.559 12.676-20.952.006-13.215-8.284-22.5-20.088-22.5-16.46 0-26.127 19.005-17.83 35.05 1.596 3.086 6.561 7.264 10.504 8.837 3.75 1.497 10.6 1.295 14.738-.435m103.503 27.739c2.624-1.176 6.976-4.343 9.67-7.037 3.867-3.867 5.339-6.32 6.98-11.632 1.935-6.265 2.079-9.12 2.079-41.127V48h-4.846c-2.666 0-8.863-.285-13.773-.634l-8.926-.633-.057 33.015c-.042 24.351-.392 33.822-1.331 36.09-2.479 5.984-12.264 6.456-16.492.796-1.99-2.663-2.087-4.166-2.362-36.557l-.288-33.78-9.712-.643c-5.342-.354-11.66-.646-14.04-.649L434.847 45l.388 36.25c.442 41.2.572 41.982 8.4 50.69 8.88 9.875 17.664 13.225 33.365 12.724 8.042-.257 11.617-.836 15.271-2.473m-23.868.71c-10.756-1.316-19.074-5.96-24.906-13.905-5.938-8.089-6.497-12.33-6.497-49.263V46.886l10.144.188c5.58.104 10.957.401 11.95.66 1.686.442 1.825 2.629 2.106 33.12.274 29.784.464 32.916 2.166 35.728 1.027 1.695 2.768 3.645 3.87 4.334 2.52 1.573 9.887 1.624 12.759.087 4.598-2.461 5.005-5.711 5.005-39.97V49h4.35c2.391 0 7.817.293 12.056.652l7.708.651-.307 35.599c-.347 40.257-.182 39.309-8.354 48.045-7.232 7.731-17.835 10.693-32.05 8.954m-213.44-24.151-.036-21.25-2.444 5c-2.61 5.343-6.947 10.434-12.373 14.528l-3.35 2.528 8.746 10.222c4.81 5.622 8.914 10.222 9.12 10.222s.358-9.562.338-21.25m72.015-30.059-.022-3.191-1.908 2.482c-1.369 1.782-1.613 2.837-.864 3.74 1.573 1.895 2.819.544 2.794-3.031"/></svg>