<svg xmlns="http://www.w3.org/2000/svg" viewBox="0 0 1600.681 745.806"><path style="stroke-width:2.12932" transform="matrix(.1 0 0 -.1 -529.879 1226.928)" d="M14152.406 11732.467c-317.269-42.587-981.617-398.183-1147.704-615.374-42.586-55.362-76.655-108.595-76.655-121.371 0-34.069 87.302-163.958 108.595-163.958 10.647 0 44.716 17.035 74.526 36.199 53.233 34.069 57.492 34.069 93.691-14.906l38.327-48.974 55.363 59.621c29.81 31.94 55.362 66.009 55.362 76.656 0 12.775 183.122 125.629 204.415 125.629 4.258 0 8.517-14.905 8.517-31.939 0-17.035-8.517-31.94-21.293-31.94-10.647 0-21.293-23.423-21.293-53.233 0-76.656-102.208-417.347-136.277-455.675-17.034-19.164-40.457-106.466-53.233-193.768-14.905-87.302-42.586-240.613-66.009-340.691-23.422-100.078-63.879-295.976-91.561-436.511l-48.974-255.518-132.018-91.561c-70.267-51.104-215.061-166.087-317.269-255.519-140.535-125.63-195.897-187.38-219.32-255.518-38.327-112.854-12.776-146.923 78.785-100.078 36.199 19.164 76.656 46.845 91.561 63.88 34.069 42.586 97.949 40.457 114.983-2.13 17.035-42.586 91.561-27.681 206.544 46.845 46.845 27.681 93.69 46.845 106.466 38.328 12.776-6.388 57.492 10.646 100.078 40.457 42.587 29.81 159.7 95.82 259.778 146.923 155.44 80.914 195.897 91.56 281.07 85.173 89.431-6.388 108.595 0 161.828 53.233 34.069 31.94 74.526 57.492 91.561 53.233 29.811-4.259 208.673 80.914 466.321 223.579 53.233 27.68 191.639 104.336 308.752 170.345 117.112 63.88 242.742 142.665 276.811 174.604 36.199 31.94 89.432 74.527 123.501 93.69q57.492 38.328 57.492 89.432c0 29.81 8.517 53.233 17.034 53.233 34.069 0 66.009 129.889 44.716 185.251-63.88 168.216-180.992 242.743-455.675 283.2-80.914 12.776-151.181 27.681-155.44 29.81-2.129 4.259 72.397 87.302 166.087 185.251 176.734 180.992 319.398 385.407 319.398 457.804 2.129 23.422 14.905 63.88 31.94 93.69 51.104 89.432 40.457 217.191-25.552 313.01-97.949 142.665-144.794 191.639-229.967 249.131-78.784 53.233-89.431 55.362-381.148 53.233-166.087-2.13-327.915-8.518-364.114-12.776m393.925-459.933c0-61.751-159.7-287.459-323.657-455.675-95.82-95.819-178.863-176.734-185.251-176.734-21.293 0-2.129 242.743 23.422 291.717 12.776 27.681 19.164 100.078 10.647 174.605l-10.647 125.629 110.725 31.94c140.535 42.587 374.761 46.845 374.761 8.518m-319.399-1377.67c0-10.648-38.327-46.846-85.172-76.656-44.716-29.81-108.596-87.303-138.406-125.63-55.363-72.397-234.226-178.863-257.648-153.311-8.517 8.517-6.388 44.715 4.259 80.914 14.905 51.103 38.327 74.526 91.56 93.69 38.328 12.776 89.432 44.716 110.725 72.397 68.138 83.043 274.682 166.087 274.682 108.595M18117.201 11681.363c-17.034-27.681-51.104-89.431-74.526-136.276-34.069-68.139-80.914-108.596-240.613-204.415-221.45-132.018-244.872-168.217-159.699-259.777 44.715-48.975 61.75-55.363 95.819-36.199 80.914 42.587 117.113 12.776 59.621-46.845-17.035-14.905-25.552-38.328-21.293-51.104 8.517-23.422-8.517-74.526-140.535-455.674-93.69-270.424-106.466-283.2-257.648-234.225-68.138 23.422-93.69 19.164-217.191-29.811-74.526-29.81-146.923-55.362-159.699-55.362s-17.034 95.819-10.646 272.553c4.258 149.052 0 353.467-12.776 453.545-25.552 208.674-114.984 489.744-187.381 585.563-97.948 132.018-268.294 146.923-381.148 34.069-70.268-70.267-95.819-132.017-95.819-232.096 0-55.362-38.328-138.405-142.665-313.01-76.655-129.888-153.311-251.259-166.087-268.294-14.905-17.035-93.69-155.44-174.604-308.752-302.364-562.14-293.846-549.364-462.063-606.856-134.147-44.716-289.587-129.889-357.726-200.156-44.715-44.716-53.233-208.673-10.646-242.743 12.776-12.775 51.103-27.68 85.173-36.198 70.267-19.164 70.267-21.293 10.646-140.535-46.845-100.078-57.491-210.803-29.81-344.95 12.776-66.01 29.81-87.302 89.431-112.854 112.854-46.845 221.45-8.517 355.597 125.63 259.777 257.648 419.476 442.899 485.485 570.658 61.75 114.983 89.431 144.794 174.604 185.25 55.362 25.552 129.889 53.234 163.958 59.622l61.75 12.776 8.517-272.553c6.388-151.182 10.647-310.881 12.776-357.726 0-44.716 14.906-104.337 34.069-132.018 17.035-27.681 34.07-95.82 36.199-151.182 4.259-119.242 14.905-149.052 40.457-110.725q19.164 31.94 19.164-38.327c0-48.975 10.646-70.268 31.94-70.268 17.034 0 31.939-14.905 31.939-34.07 0-17.034 8.518-27.68 17.035-21.292 10.647 6.388 25.552 129.888 34.069 272.553 19.164 347.079 34.069 470.58 57.492 496.131 10.646 10.647 19.164 2.13 19.164-27.68 0-42.587 4.258-44.717 42.586-21.294 27.681 19.164 42.587 51.104 42.587 95.82 0 38.327 23.422 157.57 51.103 266.165s57.492 238.483 66.009 289.587c8.517 57.492 27.681 95.82 48.975 104.337 21.293 6.388 138.405 53.233 261.906 104.336 125.63 51.104 232.096 93.691 238.484 93.691 8.517 0 0-38.328-17.035-85.173-17.034-46.845-29.81-91.561-29.81-95.82 4.258-53.233-42.587-166.087-112.854-274.682-95.82-146.923-268.295-491.873-276.812-553.623-8.517-53.233 36.199-66.01 72.397-23.423 95.819 114.983 144.794 142.665 144.794 85.173 0-63.88 57.491-55.362 136.276 21.293 44.716 40.457 97.949 74.526 121.372 74.526 25.551 0 106.466 63.88 187.38 144.794 80.914 78.785 183.121 172.475 227.837 208.674 174.604 142.664 223.579 191.638 229.967 232.096 4.258 23.422 25.552 46.845 51.103 53.233s85.173 63.879 136.277 127.759c51.104 66.009 166.087 195.897 257.648 291.717 91.561 93.69 202.285 219.32 244.872 278.941 42.586 59.621 91.56 110.724 106.466 110.724 38.327 0 195.897 166.087 195.897 204.415 0 17.035 8.517 27.681 17.035 21.293 27.681-17.034 55.362 12.776 106.466 114.984 112.854 227.837 104.336 295.975-61.751 451.416-166.087 157.569-327.915 193.768-626.02 136.276-125.63-25.552-153.311-25.552-193.768 0-25.552 17.035-93.69 36.199-153.311 44.716-95.819 10.646-108.595 6.388-138.406-38.328m751.65-319.398c0-25.552-78.785-25.552-95.819 0-6.388 10.647 6.388 23.423 25.552 27.681 44.715 10.647 70.267 0 70.267-27.681m-21.293-95.819c0-27.682-195.897-291.717-430.123-577.046-125.63-155.441-315.139-334.304-332.174-315.14-6.388 6.388 4.259 46.845 23.423 89.432 17.034 44.715 72.397 187.38 123.5 315.139 185.251 487.615 180.993 481.227 423.735 517.425 136.277 19.164 191.639 10.647 191.639-29.81m-2484.917-930.514c6.388-17.034 17.035-91.56 25.552-168.216l14.905-140.535-89.431-14.905c-48.975-8.518-91.561-10.647-95.82-6.388-14.905 12.776 97.949 357.726 117.113 357.726 8.517 0 21.293-12.776 27.681-27.682M15745.138 8587.46c-183.122-200.156-319.398-494.002-474.839-1024.203-97.948-327.915-210.802-668.607-236.354-702.676-8.517-10.646-66.009-149.052-125.63-306.622-144.794-366.243-251.26-511.037-459.933-623.89-80.914-44.716-161.829-80.915-180.992-80.915-51.104 0-112.854 76.656-95.82 119.242 8.517 21.293 2.129 104.337-10.647 189.51-21.293 127.759-21.293 174.604 10.647 308.751 19.164 87.302 61.75 215.061 95.82 287.458 34.069 70.268 117.112 253.39 183.121 404.571 68.138 153.311 129.889 287.459 140.535 300.234 42.587 53.233 217.191 491.873 212.932 536.59-4.258 83.043-249.13 304.492-370.501 334.303-66.009 17.034-89.432-12.776-283.2-361.985-272.553-491.873-323.657-591.951-415.218-809.142-166.087-402.441-174.604-455.674-140.535-894.315 31.94-432.252 55.363-551.494 114.984-572.787 53.233-21.293 55.362-2.129 17.034 104.337-44.716 112.854-29.81 151.182 19.164 55.362 46.845-87.302 153.311-163.957 295.976-212.932 193.768-68.138 276.811-112.854 244.871-132.018-14.905-10.646-48.974-19.164-76.655-19.164-31.94 0-46.845-10.646-40.457-25.551 12.776-42.587 178.863-17.035 259.777 38.327 23.422 17.035 76.655 29.81 121.371 29.81 212.932 0 626.02 161.83 649.443 257.649 6.388 21.293 31.94 40.457 55.362 44.715 48.975 6.388 149.053 138.406 129.889 170.346-6.388 10.647-6.388 44.716 2.129 76.656 10.647 42.586 17.035 48.974 31.94 23.422 29.81-46.845 87.302 23.423 95.819 119.242 4.259 42.586 27.682 100.078 48.975 125.63 36.198 38.328 44.715 87.302 57.491 310.88 14.906 268.295 27.682 327.916 123.501 660.09 29.81 106.466 48.974 208.674 42.586 251.26-8.517 46.845 0 83.043 23.423 108.595 19.164 21.294 34.069 66.01 31.94 100.078-2.13 34.07 12.776 97.95 31.94 140.536 23.422 53.233 25.551 83.043 10.646 91.56-12.776 8.518-27.681-4.258-34.069-29.81-10.647-40.457-48.974-63.88-48.974-29.81 0 34.069 97.948 153.31 136.276 163.957 36.199 8.517 38.328 27.681 29.811 191.639-4.259 100.078-14.906 189.51-23.423 195.898-8.517 8.517-27.681 2.129-46.845-12.777-42.586-34.069-42.586-2.129 0 100.079 34.069 78.784 29.811 134.147-8.517 134.147-10.647 0-76.656-61.75-144.794-136.277M19273.422 8685.409c-29.81-4.259-61.75-14.905-70.267-23.422-38.328-36.199-191.639-494.003-249.131-747.392-23.422-100.078-51.104-204.415-63.88-234.225-10.646-29.81-42.586-136.277-74.526-238.484-51.103-176.734-57.491-185.251-112.854-180.992-51.103 4.258-57.491 14.905-63.879 95.819-4.259 61.75-17.035 89.432-38.328 89.432-17.035 0-48.974 40.456-70.268 91.56-21.293 51.104-93.69 168.217-159.699 261.907-66.009 91.56-119.242 180.992-119.242 198.026s-21.293 53.233-44.715 78.785c-25.552 27.681-57.492 70.268-70.268 97.95-27.681 55.361-163.958 91.56-223.579 61.75-46.845-25.552-110.724-342.821-270.423-1343.602-40.457-251.26-40.457-787.848 0-843.21 48.974-66.01 83.043-8.518 95.819 166.086 10.647 136.277 17.035 155.44 55.362 155.44 29.811 0 44.716 17.035 53.233 63.88 6.388 36.199 27.682 93.69 48.975 132.018 19.164 38.328 44.716 104.337 57.491 149.053 17.035 72.396 19.164 70.267 8.518-29.811-8.518-70.268-4.259-112.854 8.517-112.854 27.681 0 57.492 89.432 100.078 293.846 40.457 202.286 68.138 253.39 108.595 215.062 34.07-36.199 261.907-534.46 353.468-775.073 78.784-206.544 125.63-266.165 176.733-223.579 31.94 25.552 38.328 25.552 57.492-8.517 19.164-36.198 23.422-36.198 61.75 6.388 23.423 25.552 55.363 44.716 72.397 44.716 40.457 0 59.621 72.397 61.75 242.742 0 112.854 4.259 134.147 19.164 89.432 10.647-29.81 27.681-51.104 38.328-42.587 31.94 19.164 21.293 149.053-12.776 178.863-40.457 34.07-42.586 125.63-2.129 157.57 14.905 12.776 38.328 61.75 51.103 108.595 42.587 157.57 112.854 338.562 195.898 515.296 46.845 97.949 85.173 195.897 85.173 219.32 0 57.491 61.75 80.914 95.819 36.198 14.905-21.293 31.94-85.173 38.328-144.794 8.517-61.75 31.94-146.923 57.492-191.638 23.422-46.845 44.715-138.406 48.974-204.415 4.259-68.138 19.164-125.63 31.94-129.889 14.905-4.258 25.552-17.034 25.552-29.81 0-10.647 19.164-48.975 42.586-80.914 23.423-31.94 51.104-95.82 59.621-140.536 10.647-46.845 29.811-80.914 44.716-76.655 12.776 2.13-19.164-78.785-72.397-178.863-53.233-102.207-95.82-202.285-95.82-225.708 0-21.293-14.905-68.138-31.939-104.337-48.975-93.69-159.699-440.769-159.699-500.39 0-36.198 12.776-51.104 42.586-51.104 23.423 0 42.586 8.518 42.586 19.164 0 29.81 138.406 108.596 189.51 108.596 34.069 0 55.362 21.293 78.785 74.526 17.034 40.457 38.328 74.526 46.845 74.526s46.845 53.233 85.173 117.113c38.327 63.88 80.914 117.112 91.561 117.112 12.775 0 14.905-8.517 8.517-21.293-6.388-10.646-4.259-21.293 6.388-21.293 19.164 0 285.329 525.942 334.303 660.09 38.328 104.336 144.794 304.492 255.519 479.096 51.103 83.044 104.336 172.475 117.112 200.156s40.457 72.397 63.88 102.208c21.293 27.681 36.198 68.138 29.81 87.302-8.517 27.681-2.129 23.423 29.811-10.647l40.457-44.715 44.716 93.69c25.551 51.104 59.621 93.69 76.655 93.69 14.905 0 51.104 51.104 76.656 112.854 51.103 114.983 53.233 129.889 59.621 240.613 4.258 51.104 19.164 72.397 78.785 100.078 80.914 38.328 95.819 72.397 40.457 93.69-38.328 14.906-23.423 102.208 25.551 157.57 27.682 31.94 25.552 40.457-23.422 78.785-29.811 23.422-66.009 48.974-80.914 55.362-17.035 6.388-2.13 29.81 36.198 66.01 70.268 63.879 51.104 119.241-25.552 72.396-34.069-21.293-51.103-21.293-74.526-2.13-31.94 27.682-68.138 17.035-183.121-46.844-91.561-53.233-276.812-334.304-466.322-713.323-244.872-481.226-264.035-515.295-302.363-506.778-17.035 4.259-29.811 19.164-25.552 31.94 10.647 51.104-40.457 313.01-70.268 357.726-17.034 25.552-46.845 44.715-68.138 42.586-27.681-2.13-40.457 14.905-44.716 61.75-6.388 61.75-31.939 138.406-70.267 202.286-59.621 97.949-78.785 161.828-57.492 187.38 25.552 29.81-36.198 195.898-74.526 195.898-10.647 0-14.905-14.906-8.517-31.94 8.517-17.035 4.258-36.199-6.388-42.587-12.776-8.517-21.293-2.129-21.293 8.518 0 12.776-42.587 23.422-93.691 23.422-91.56 0-95.819 4.259-144.793 97.949-51.104 104.337-123.501 153.311-208.674 140.535m1618.284-1047.626c0-10.646-10.647-21.293-23.423-21.293-10.646 0-14.905 10.647-8.517 21.293 6.388 12.776 17.035 21.293 23.423 21.293 4.258 0 8.517-8.517 8.517-21.293M17440.077 8519.322c-46.845-57.492-123.5-266.165-200.156-551.494-42.586-151.182-97.949-353.467-127.759-447.157-27.681-93.69-61.75-208.674-74.526-255.519-27.682-106.466-53.233-151.182-72.397-121.371-8.518 12.776-27.681 19.164-42.587 12.776-21.293-8.517-34.069 14.905-44.715 74.526-8.518 55.362-23.423 80.914-40.458 74.526-23.422-8.517-76.655 72.397-76.655 119.242 0 10.647-55.362 104.337-125.63 206.544-68.138 104.337-132.018 210.803-140.535 240.614-8.517 29.81-36.199 74.526-61.75 100.078s-61.751 68.138-80.915 91.56c-27.681 29.81-63.879 42.587-123.5 42.587-97.949 0-117.113-23.423-138.406-191.639-8.517-63.88-23.423-132.018-31.94-149.052-8.517-17.035-21.293-78.785-27.681-138.406-21.293-195.898-83.044-572.787-112.854-702.676-44.716-193.768-80.914-745.262-59.621-894.315 17.035-106.466 27.681-129.888 63.88-134.147 38.327-6.388 46.845 8.517 57.491 74.526 8.518 44.716 14.905 121.372 14.905 172.475 0 72.397 6.388 89.432 40.458 89.432 29.81 0 42.586 21.293 53.233 83.043 6.388 44.716 27.681 93.69 44.715 108.596 17.035 14.905 38.328 63.88 44.716 108.595 19.164 110.725 51.104 106.466 36.199-2.13-8.518-53.232-4.259-85.172 10.646-85.172 12.776 0 42.587 93.69 68.138 208.673 25.552 112.854 55.363 238.484 68.139 278.941 21.293 70.268 23.422 72.397 53.233 31.94 42.586-53.233 198.026-383.278 330.044-700.546 57.492-140.536 117.113-268.295 127.76-281.07 12.775-14.906 48.974-27.682 83.043-27.682 40.457 0 61.75-10.647 61.75-31.94 0-17.034 10.647-31.94 21.294-31.94 12.776 0 21.293 17.035 21.293 38.328 0 48.975 40.457 89.432 87.302 89.432 27.681 0 38.328 27.68 48.974 123.5 8.518 66.01 8.518 155.44 2.13 195.898l-10.647 74.526 25.552-68.138c12.776-38.328 31.94-70.268 40.457-70.268 29.81 0 21.293 108.596-17.035 208.674-34.069 89.431-34.069 95.819 0 121.37 19.164 14.906 44.716 68.14 55.363 119.243 25.552 119.242 125.63 406.7 153.311 432.252 10.646 12.776 19.164 38.328 19.164 57.492 0 21.293 6.388 40.457 17.034 44.715 8.518 4.259 36.199 63.88 63.88 134.147 27.681 70.268 59.621 142.665 70.267 159.7 10.647 17.034 25.552 46.845 31.94 63.88 6.388 17.034 25.552 57.49 40.457 87.301 68.139 127.76 97.949 408.83 63.88 611.115-8.517 48.975-23.423 89.432-34.069 89.432s-19.164 12.776-19.164 29.81c0 46.845-104.337 119.242-170.346 119.242-31.939 0-70.267-14.905-87.302-34.069M12353.13 8331.942c-332.174-76.656-809.142-298.105-962.453-447.157-110.724-104.337-125.63-161.829-68.138-244.872 34.069-48.975 72.397-51.104 161.829-14.906 23.422 10.647 38.327 2.13 48.974-27.68 19.164-63.88 57.492-55.363 161.828 31.939 151.182 125.63 291.717 178.863 208.674 78.785-17.035-21.293-53.233-112.854-78.785-202.286-25.552-89.431-76.656-210.802-110.725-266.165-36.198-55.362-80.914-155.44-97.949-219.32-19.164-63.88-78.784-266.165-136.276-447.157s-114.983-376.89-129.889-436.51c-27.681-117.113-68.138-176.734-142.664-204.415-72.397-27.682-485.485-310.881-568.529-391.796-76.655-70.267-114.983-170.345-78.785-206.544 12.776-12.776 51.104-6.388 112.854 23.423 108.596 53.233 189.51 57.492 189.51 12.776 0-42.587 19.164-40.457 163.958 14.905 68.138 25.552 140.535 44.716 159.699 40.457 19.164-2.13 74.526 14.905 123.5 40.457 212.932 108.596 451.416 191.64 489.744 170.346 63.88-34.07 149.052-25.552 215.061 23.422 36.199 25.552 93.69 46.845 132.018 51.104 38.328 2.13 149.053 40.457 249.131 85.173 100.078 42.586 291.717 125.63 427.993 180.992 274.683 114.984 406.7 176.734 494.003 238.484 78.784 55.362 227.837 289.588 227.837 355.597 0 138.405-193.768 295.975-423.735 344.95-57.492 10.646-121.371 34.069-142.664 48.974-34.07 25.552-31.94 31.94 46.845 83.043 44.715 29.811 157.569 127.76 247.001 221.45 344.95 349.208 393.924 672.865 140.535 915.608-138.406 134.147-244.872 163.957-613.244 168.216-212.932 4.259-372.631-2.13-447.158-21.293m574.917-438.64c40.457-21.293 40.457-23.423 4.259-85.173-100.079-161.828-464.192-511.037-536.589-511.037-36.199 0-14.906 185.25 29.81 274.682 19.164 36.199 34.069 117.113 34.069 180.993 0 127.759-10.646 117.112 138.406 146.923 85.173 19.164 291.717 14.905 330.045-6.388m-174.604-1339.343c8.517-21.293-4.259-25.552-46.845-14.905-48.975 12.776-76.656-4.259-200.157-117.113-234.225-212.932-557.882-366.243-557.882-264.036 0 51.104 59.621 180.993 83.044 180.993 10.646 0 138.406 57.491 283.2 127.759 202.285 97.949 281.07 125.63 344.949 121.371 48.975-2.13 87.303-17.034 93.691-34.069"/><path d="M246.521 580.328c-7.9 2.5-14.5 6.7-19.2 12.1-3.9 4.3-7.5 11.2-6.7 12.5.4.6 16 1 40.6 1 45.4 0 42.3.7 36.9-8.7-8.9-15.6-31.9-23.1-51.6-16.9M137.421 512.628c-.9.3-1.1 2.4-.6 7.8l.6 7.4-9.4.3-9.4.3v8l9 .3c5 .2 9.2.8 9.6 1.4s1 7.5 1.4 15.5l.7 14.4 4-.3 4-.3.1-15 .2-15 9.3-.3 9.2-.3v-8.8l-9.2-.3-9.3-.3v-7.5l-.1-7.5-4.4-.1c-2.5-.1-5.1 0-5.7.3"/><path d="M440.221 2.028c-24 6.5-43.7 26.6-63.5 65-21.4 41.4-36.3 94.1-45.6 161.1-1.1 7.6-2.2 14.8-2.5 16-.3 1.3-1.6 12-3 23.8-7.5 63.6-6.6 57.6-9.6 61.4-2.4 3.1-3.7 3.1-24.9.6-13.1-1.5-47-.7-58.8 1.4-8.4 1.5-11.6 1.2-13.9-1.6-1.5-1.8-2.9-7.9-5.9-26.1-5.4-33.3-10.5-63-12.7-73.7-.3-1.4-1.3-6.3-2.2-11-2.7-14.6-10.2-46.8-14.1-60.5-9.3-32.8-20.1-60.3-35.5-90.5-15.5-30.5-33-49.5-52.7-57.3-17.8-7-38.3-2.1-55.5 13.4-16.2 14.5-28.9 39.8-35.1 70.4-7.8 38.1-5.8 95.9 5 145.5 6.6 30 19.6 70.4 30.9 95.5.7 1.6 3.1 7 5.3 12 2.2 4.9 7.8 16.9 12.5 26.5 9.7 19.7 11.7 26.1 11.7 37 0 12.1-1.6 17.6-9.2 31.7-22.9 42.5-28.9 61.5-31.4 99.3-1.3 20.5 4.5 54.9 12.7 75.8 17.3 43.8 48.9 79.4 88.9 100.1 12.1 6.2 16.5 8.1 32 13.6 27.4 9.6 49.6 13.5 79.5 14.2 20.6.5 26.8.1 50-3.2 37.7-5.5 80.7-21.6 110.5-41.6 44.9-30 74.3-83 76.7-138.3 1-24.5-4.7-58.8-13.7-82.4-2.8-7.3-2.6-10.2 1.4-15.3 16.6-21.9 30-54.4 39.7-97.1 5.2-23.1 7.1-32.3 9.4-46.1 1.3-8.1 2.6-15.6 3-16.6.5-1.5 2.8-20.6 5.5-45.6 2.9-26.4 4.2-129.9 1.9-154.5-2.6-28.8-11.9-60.9-22.2-76.7-14.8-22.7-39.8-32.9-64.6-26.2m28.9 36c18.1 9.6 26.6 32.4 31.2 82.9 1.4 16 1.4 88 0 107-1.6 20.9-6.1 67-6.6 67.9-.3.3-.9 4.5-1.6 9.1-1.4 11.2-6.5 39.2-9.1 50.5-8.9 38.3-12.1 48.3-21.4 67.2-6.9 13.8-11.4 19.3-16 19.3-1.3 0-4.3-1.5-6.8-3.4-6.8-5.2-8.6-6-11.2-4.8-4.1 1.9-3.6 4.5 3.7 19.8 19.4 41 26.7 74.8 23.9 111-2.9 37.7-16 68.2-39.7 92.6-11.9 12.2-20.6 18.8-38.2 29-26.5 15.3-55.9 26-86.1 31.5-12.9 2.4-17.2 2.7-37.1 2.7-20.1 0-24.1-.3-37.5-2.7-32.9-5.9-64.8-17.7-86.8-32-24-15.7-42.6-36.6-55.6-62.4-13.9-27.7-19.4-55.7-17.1-87.9 2.5-34.4 15.4-66.5 39.9-98.9 2.4-3.3 10-11.6 16.7-18.5 13-13.3 14.7-16.3 12-20.5-2.2-3.4-5.9-3.2-12.1.5-6.9 4.1-10.5 3.9-14.5-.6-4.3-4.9-21.4-40.1-29.3-60.4-9.7-24.6-17.6-49.6-24-75.5-11.8-47.6-15.4-70.8-16.4-106.5-1.1-42.6 4.9-70.2 20.1-91.4 5.9-8.3 16.1-17.8 22.3-21 22.1-11.1 46.6 12.7 66.3 64.4 6.3 16.7 15.8 44.9 20 59.5 1.7 6 4 13.9 5 17.5 2.7 9.4 8.5 33.6 11.5 48 1.4 6.9 3.2 15.4 4 19s2.4 11.9 3.5 18.5c1.8 10.5 3.1 18.2 8 50.3.6 3.5 1.7 13.6 2.5 22.3 1.5 16.9 2.3 19.5 6 20.9 2.1.8 12.3-1.5 27-6 7.4-2.2 22.3-3.5 41.5-3.4 21.9.1 31.4 1.2 55.2 6.1 13.9 2.9 17 2.9 18.2-.2.8-2.2 2.9-15.7 6.1-39 6.2-44.7 9.2-64.5 13.6-88 3.8-20.7 10.6-51.6 14.9-67.5 10-36.9 12.9-46.5 19.3-63 11.7-30.4 26.6-53.6 39.9-62.1 10.8-6.9 24-7.6 34.8-1.8"/><path d="M369.821 505.528c-.4.4-.7 4-.7 8.1v7.3h-18v9h8.9c5 0 9.2.4 9.6.9.3.6.8 7.5 1.2 15.5l.6 14.6h8.6l.3-15.3.3-15.2 9.3-.3 9.3-.3-.3-4.2-.3-4.2-9.2-.3-9.2-.3-.3-7.7-.3-7.7-4.5-.3c-2.5-.2-4.9 0-5.3.4"/></svg>