<?xml version="1.0" encoding="UTF-8" standalone="no"?>
<svg
   version="1.0"
   width="1600.6814pt"
   height="745.80591pt"
   viewBox="0 0 1600.6813 745.8059"
   preserveAspectRatio="xMidYMid"
   id="svg10"
   sodipodi:docname="badbunny.svg"
   inkscape:version="1.4.2 (ebf0e940, 2025-05-08)"
   xmlns:inkscape="http://www.inkscape.org/namespaces/inkscape"
   xmlns:sodipodi="http://sodipodi.sourceforge.net/DTD/sodipodi-0.dtd"
   xmlns="http://www.w3.org/2000/svg"
   xmlns:svg="http://www.w3.org/2000/svg">
  <defs
     id="defs10" />
  <sodipodi:namedview
     id="namedview10"
     pagecolor="#ffffff"
     bordercolor="#000000"
     borderopacity="0.25"
     inkscape:showpageshadow="2"
     inkscape:pageopacity="0.0"
     inkscape:pagecheckerboard="0"
     inkscape:deskcolor="#d1d1d1"
     inkscape:document-units="pt"
     inkscape:zoom="0.27206882"
     inkscape:cx="883.96753"
     inkscape:cy="521.92678"
     inkscape:window-width="1320"
     inkscape:window-height="825"
     inkscape:window-x="0"
     inkscape:window-y="38"
     inkscape:window-maximized="0"
     inkscape:current-layer="svg10" />
  <metadata
     id="metadata1">
Created by potrace 1.16, written by Peter Selinger 2001-2019
</metadata>
  <g
     transform="matrix(0.1,0,0,-0.1,-529.87885,1226.9278)"
     fill="#000000"
     stroke="none"
     id="g10"
     inkscape:label="text">
    <path
       d="m 14152.406,11732.467 c -317.269,-42.587 -981.617,-398.183 -1147.704,-615.374 -42.586,-55.362 -76.655,-108.595 -76.655,-121.371 0,-34.069 87.302,-163.958 108.595,-163.958 10.647,0 44.716,17.035 74.526,36.199 53.233,34.069 57.492,34.069 93.691,-14.906 l 38.327,-48.974 55.363,59.621 c 29.81,31.94 55.362,66.009 55.362,76.656 0,12.775 183.122,125.629 204.415,125.629 4.258,0 8.517,-14.905 8.517,-31.939 0,-17.035 -8.517,-31.94 -21.293,-31.94 -10.647,0 -21.293,-23.423 -21.293,-53.233 0,-76.656 -102.208,-417.347 -136.277,-455.675 -17.034,-19.164 -40.457,-106.466 -53.233,-193.768 -14.905,-87.302 -42.586,-240.613 -66.009,-340.6913 -23.422,-100.078 -63.879,-295.9755 -91.561,-436.5107 l -48.974,-255.5185 -132.018,-91.5607 c -70.267,-51.1037 -215.061,-166.087 -317.269,-255.5185 -140.535,-125.6299 -195.897,-187.3802 -219.32,-255.5185 -38.327,-112.854 -12.776,-146.9231 78.785,-100.078 36.199,19.1638 76.656,46.845 91.561,63.8796 34.069,42.5864 97.949,40.4571 114.983,-2.1293 17.035,-42.5865 91.561,-27.6812 206.544,46.845 46.845,27.6812 93.69,46.8451 106.466,38.3278 12.776,-6.388 57.492,10.6466 100.078,40.4571 42.587,29.8105 159.7,95.8194 259.778,146.9231 155.44,80.9142 195.897,91.5608 281.07,85.1728 89.431,-6.388 108.595,0 161.828,53.233 34.069,31.9398 74.526,57.4917 91.561,53.233 29.811,-4.2586 208.673,80.9142 466.321,223.5787 53.233,27.6812 191.639,104.3367 308.752,170.3456 117.112,63.8797 242.742,142.6645 276.811,174.6043 36.199,31.9398 89.432,74.5263 123.501,93.6901 38.328,25.5519 57.492,55.3624 57.492,89.4315 0,29.8105 8.517,53.233 17.034,53.233 34.069,0 66.009,129.8889 44.716,185.2509 -63.88,168.216 -180.992,242.743 -455.675,283.2 -80.914,12.776 -151.181,27.681 -155.44,29.81 -2.129,4.259 72.397,87.302 166.087,185.251 176.734,180.992 319.398,385.407 319.398,457.804 2.129,23.422 14.905,63.88 31.94,93.69 51.104,89.432 40.457,217.191 -25.552,313.01 -97.949,142.665 -144.794,191.639 -229.967,249.131 -78.784,53.233 -89.431,55.362 -381.148,53.233 -166.087,-2.13 -327.915,-8.518 -364.114,-12.776 z m 393.925,-459.933 c 0,-61.751 -159.7,-287.459 -323.657,-455.675 -95.82,-95.819 -178.863,-176.734 -185.251,-176.734 -21.293,0 -2.129,242.743 23.422,291.717 12.776,27.681 19.164,100.078 10.647,174.605 l -10.647,125.629 110.725,31.94 c 140.535,42.587 374.761,46.845 374.761,8.518 z m -319.399,-1377.6709 c 0,-10.6466 -38.327,-46.845 -85.172,-76.6555 -44.716,-29.8105 -108.596,-87.3022 -138.406,-125.6299 -55.363,-72.3969 -234.226,-178.863 -257.648,-153.3111 -8.517,8.5173 -6.388,44.7157 4.259,80.9142 14.905,51.1037 38.327,74.5262 91.56,93.6901 38.328,12.7759 89.432,44.7157 110.725,72.3969 68.138,83.0435 274.682,166.087 274.682,108.5953 z"
       id="path5"
       style="stroke-width:2.12932" />
    <path
       d="m 18117.201,11681.363 c -17.034,-27.681 -51.104,-89.431 -74.526,-136.276 -34.069,-68.139 -80.914,-108.596 -240.613,-204.415 -221.45,-132.018 -244.872,-168.217 -159.699,-259.777 44.715,-48.975 61.75,-55.363 95.819,-36.199 80.914,42.587 117.113,12.776 59.621,-46.845 -17.035,-14.905 -25.552,-38.328 -21.293,-51.104 8.517,-23.422 -8.517,-74.526 -140.535,-455.674 -93.69,-270.424 -106.466,-283.2 -257.648,-234.225 -68.138,23.422 -93.69,19.164 -217.191,-29.811 -74.526,-29.81 -146.923,-55.362 -159.699,-55.362 -12.776,0 -17.034,95.819 -10.646,272.553 4.258,149.052 0,353.467 -12.776,453.545 -25.552,208.674 -114.984,489.744 -187.381,585.563 -97.948,132.018 -268.294,146.923 -381.148,34.069 -70.268,-70.267 -95.819,-132.017 -95.819,-232.096 0,-55.362 -38.328,-138.405 -142.665,-313.01 -76.655,-129.888 -153.311,-251.259 -166.087,-268.294 -14.905,-17.035 -93.69,-155.44 -174.604,-308.752 -302.364,-562.1402 -293.846,-549.3643 -462.063,-606.8559 -134.147,-44.7157 -289.587,-129.8886 -357.726,-200.1561 -44.715,-44.7158 -53.233,-208.6735 -10.646,-242.7426 12.776,-12.7759 51.103,-27.6812 85.173,-36.1984 70.267,-19.1639 70.267,-21.2932 10.646,-140.5352 -46.845,-100.0781 -57.491,-210.8027 -29.81,-344.9499 12.776,-66.009 29.81,-87.3022 89.431,-112.854 112.854,-46.8451 221.45,-8.5173 355.597,125.6299 259.777,257.6478 419.476,442.8987 485.485,570.6579 61.75,114.9833 89.431,144.7938 174.604,185.2509 55.362,25.5518 129.889,53.233 163.958,59.621 l 61.75,12.7759 8.517,-272.553 c 6.388,-151.1818 10.647,-310.8808 12.776,-357.7259 0,-44.7157 14.906,-104.3367 34.069,-132.0179 17.035,-27.6811 34.07,-95.8194 36.199,-151.1817 4.259,-119.242 14.905,-149.0525 40.457,-110.7247 12.776,21.2932 19.164,8.5173 19.164,-38.3278 0,-48.9743 10.646,-70.2676 31.94,-70.2676 17.034,0 31.939,-14.9052 31.939,-34.0691 0,-17.0345 8.518,-27.6811 17.035,-21.2932 10.647,6.388 25.552,129.8886 34.069,272.553 19.164,347.0793 34.069,470.5799 57.492,496.1317 10.646,10.6466 19.164,2.1294 19.164,-27.6811 0,-42.5864 4.258,-44.7158 42.586,-21.2932 27.681,19.1639 42.587,51.1037 42.587,95.8194 0,38.3278 23.422,157.5697 51.103,266.1651 27.681,108.5953 57.492,238.4839 66.009,289.5876 8.517,57.4916 27.681,95.8194 48.975,104.3367 21.293,6.3879 138.405,53.2332 261.906,104.3362 125.63,51.104 232.096,93.691 238.484,93.691 8.517,0 0,-38.328 -17.035,-85.173 -17.034,-46.845 -29.81,-91.561 -29.81,-95.8197 4.258,-53.233 -42.587,-166.087 -112.854,-274.6823 -95.82,-146.9231 -268.295,-491.8731 -276.812,-553.6234 -8.517,-53.233 36.199,-66.0089 72.397,-23.4225 95.819,114.9833 144.794,142.6645 144.794,85.1728 0,-63.8796 57.491,-55.3623 136.276,21.2932 44.716,40.4571 97.949,74.5263 121.372,74.5263 25.551,0 106.466,63.8796 187.38,144.7938 80.914,78.7848 183.121,172.4749 227.837,208.6734 174.604,142.6645 223.579,191.6388 229.967,232.0959 4.258,23.4225 25.552,46.8451 51.103,53.233 25.552,6.388 85.173,63.8795 136.277,127.7595 51.104,66.009 166.087,195.897 257.648,291.717 91.561,93.69 202.285,219.32 244.872,278.941 42.586,59.621 91.56,110.724 106.466,110.724 38.327,0 195.897,166.087 195.897,204.415 0,17.035 8.517,27.681 17.035,21.293 27.681,-17.034 55.362,12.776 106.466,114.984 112.854,227.837 104.336,295.975 -61.751,451.416 -166.087,157.569 -327.915,193.768 -626.02,136.276 -125.63,-25.552 -153.311,-25.552 -193.768,0 -25.552,17.035 -93.69,36.199 -153.311,44.716 -95.819,10.646 -108.595,6.388 -138.406,-38.328 z m 751.65,-319.398 c 0,-25.552 -78.785,-25.552 -95.819,0 -6.388,10.647 6.388,23.423 25.552,27.681 44.715,10.647 70.267,0 70.267,-27.681 z m -21.293,-95.819 c 0,-27.682 -195.897,-291.717 -430.123,-577.046 -125.63,-155.441 -315.139,-334.304 -332.174,-315.14 -6.388,6.388 4.259,46.845 23.423,89.432 17.034,44.715 72.397,187.38 123.5,315.139 185.251,487.615 180.993,481.227 423.735,517.425 136.277,19.164 191.639,10.647 191.639,-29.81 z m -2484.917,-930.514 c 6.388,-17.034 17.035,-91.56 25.552,-168.216 l 14.905,-140.535 -89.431,-14.905 c -48.975,-8.518 -91.561,-10.647 -95.82,-6.388 -14.905,12.776 97.949,357.726 117.113,357.726 8.517,0 21.293,-12.776 27.681,-27.682 z"
       id="path6"
       style="stroke-width:2.12932" />
    <path
       d="m 15745.138,8587.4603 c -183.122,-200.1562 -319.398,-494.0024 -474.839,-1024.2032 -97.948,-327.9154 -210.802,-668.6067 -236.354,-702.6758 -8.517,-10.6466 -66.009,-149.0524 -125.63,-306.6222 -144.794,-366.2431 -251.26,-511.0369 -459.933,-623.8909 -80.914,-44.7157 -161.829,-80.9142 -180.992,-80.9142 -51.104,0 -112.854,76.6556 -95.82,119.242 8.517,21.2932 2.129,104.3367 -10.647,189.5095 -21.293,127.7592 -21.293,174.6043 10.647,308.7515 19.164,87.3021 61.75,215.0614 95.82,287.4583 34.069,70.2675 117.112,253.3891 183.121,404.5709 68.138,153.3111 129.889,287.4583 140.535,300.2342 42.587,53.233 217.191,491.873 212.932,536.5888 -4.258,83.0435 -249.13,304.4928 -370.501,334.3033 -66.009,17.0346 -89.432,-12.7759 -283.2,-361.9845 -272.553,-491.8731 -323.657,-591.9511 -415.218,-809.1418 -166.087,-402.4416 -174.604,-455.6746 -140.535,-894.3147 31.94,-432.252 55.363,-551.494 114.984,-572.7872 53.233,-21.2932 55.362,-2.1293 17.034,104.3367 -44.716,112.854 -29.81,151.1818 19.164,55.3623 46.845,-87.3021 153.311,-163.9576 295.976,-212.932 193.768,-68.1383 276.811,-112.854 244.871,-132.0179 -14.905,-10.6466 -48.974,-19.1639 -76.655,-19.1639 -31.94,0 -46.845,-10.6466 -40.457,-25.5518 12.776,-42.5864 178.863,-17.0346 259.777,38.3277 23.422,17.0346 76.655,29.8105 121.371,29.8105 212.932,0 626.02,161.8284 649.443,257.6478 6.388,21.2932 31.94,40.4571 55.362,44.7158 48.975,6.3879 149.053,138.4058 129.889,170.3456 -6.388,10.6466 -6.388,44.7157 2.129,76.6555 10.647,42.5865 17.035,48.9744 31.94,23.4226 29.81,-46.8451 87.302,23.4225 95.819,119.2419 4.259,42.5864 27.682,100.0781 48.975,125.6299 36.198,38.3278 44.715,87.3022 57.491,310.8808 14.906,268.2944 27.682,327.9154 123.501,660.0894 29.81,106.466 48.974,208.6734 42.586,251.2598 -8.517,46.8451 0,83.0435 23.423,108.5954 19.164,21.2932 34.069,66.0089 31.94,100.0781 -2.13,34.0691 12.776,97.9487 31.94,140.5351 23.422,53.233 25.551,83.0435 10.646,91.5608 -12.776,8.5173 -27.681,-4.2586 -34.069,-29.8105 -10.647,-40.4571 -48.974,-63.8796 -48.974,-29.8105 0,34.0692 97.948,153.3111 136.276,163.9577 36.199,8.5173 38.328,27.6812 29.811,191.6389 -4.259,100.078 -14.906,189.5095 -23.423,195.8975 -8.517,8.5172 -27.681,2.1293 -46.845,-12.776 -42.586,-34.0691 -42.586,-2.1293 0,100.0781 34.069,78.7849 29.811,134.1472 -8.517,134.1472 -10.647,0 -76.656,-61.7503 -144.794,-136.2765 z"
       id="path7"
       style="stroke-width:2.12932" />
    <path
       d="m 19273.422,8685.409 c -29.81,-4.2586 -61.75,-14.9052 -70.267,-23.4225 -38.328,-36.1984 -191.639,-494.0024 -249.131,-747.3915 -23.422,-100.0781 -51.104,-204.4148 -63.88,-234.2253 -10.646,-29.8105 -42.586,-136.2765 -74.526,-238.4839 -51.103,-176.7336 -57.491,-185.2509 -112.854,-180.9922 -51.103,4.2586 -57.491,14.9052 -63.879,95.8194 -4.259,61.7503 -17.035,89.4315 -38.328,89.4315 -17.035,0 -48.974,40.457 -70.268,91.5607 -21.293,51.1037 -93.69,168.2164 -159.699,261.9065 -66.009,91.5608 -119.242,180.9922 -119.242,198.0268 0,17.0345 -21.293,53.233 -44.715,78.7848 -25.552,27.6812 -57.492,70.2676 -70.268,97.9488 -27.681,55.3623 -163.958,91.5608 -223.579,61.7503 -46.845,-25.5519 -110.724,-342.8206 -270.423,-1343.6013 -40.457,-251.2598 -40.457,-787.8486 0,-843.2109 48.974,-66.009 83.043,-8.5173 95.819,166.087 10.647,136.2765 17.035,155.4404 55.362,155.4404 29.811,0 44.716,17.0345 53.233,63.8796 6.388,36.1984 27.682,93.6901 48.975,132.0179 19.164,38.3277 44.716,104.3367 57.491,149.0524 17.035,72.3969 19.164,70.2676 8.518,-29.8105 -8.518,-70.2676 -4.259,-112.854 8.517,-112.854 27.681,0 57.492,89.4315 100.078,293.8463 40.457,202.2854 68.138,253.3891 108.595,215.0613 34.07,-36.1984 261.907,-534.4594 353.468,-775.0727 78.784,-206.5441 125.63,-266.165 176.733,-223.5786 31.94,25.5518 38.328,25.5518 57.492,-8.5173 19.164,-36.1984 23.422,-36.1984 61.75,6.388 23.423,25.5518 55.363,44.7157 72.397,44.7157 40.457,0 59.621,72.3969 61.75,242.7425 0,112.854 4.259,134.1472 19.164,89.4315 10.647,-29.8105 27.681,-51.1037 38.328,-42.5864 31.94,19.1639 21.293,149.0524 -12.776,178.8629 -40.457,34.0692 -42.586,125.6299 -2.129,157.5697 14.905,12.776 38.328,61.7503 51.103,108.5954 42.587,157.5697 112.854,338.562 195.898,515.2956 46.845,97.9487 85.173,195.8975 85.173,219.32 0,57.4916 61.75,80.9142 95.819,36.1984 14.905,-21.2932 31.94,-85.1728 38.328,-144.7938 8.517,-61.7503 31.94,-146.9231 57.492,-191.6388 23.422,-46.8451 44.715,-138.4058 48.974,-204.4148 4.259,-68.1382 19.164,-125.6299 31.94,-129.8885 14.905,-4.2587 25.552,-17.0346 25.552,-29.8105 0,-10.6466 19.164,-48.9744 42.586,-80.9142 23.423,-31.9398 51.104,-95.8194 59.621,-140.5352 10.647,-46.845 29.811,-80.9141 44.716,-76.6555 12.776,2.1293 -19.164,-78.7849 -72.397,-178.8629 -53.233,-102.2074 -95.82,-202.2855 -95.82,-225.708 0,-21.2932 -14.905,-68.1383 -31.939,-104.3367 -48.975,-93.6901 -159.699,-440.7694 -159.699,-500.3904 0,-36.1984 12.776,-51.1037 42.586,-51.1037 23.423,0 42.586,8.5173 42.586,19.1639 0,29.8105 138.406,108.5954 189.51,108.5954 34.069,0 55.362,21.2932 78.785,74.5262 17.034,40.4571 38.328,74.5262 46.845,74.5262 8.517,0 46.845,53.233 85.173,117.1127 38.327,63.8796 80.914,117.1126 91.561,117.1126 12.775,0 14.905,-8.5173 8.517,-21.2932 -6.388,-10.6466 -4.259,-21.2932 6.388,-21.2932 19.164,0 285.329,525.9422 334.303,660.0894 38.328,104.3367 144.794,304.4928 255.519,479.0971 51.103,83.0435 104.336,172.4749 117.112,200.1561 12.776,27.6812 40.457,72.3969 63.88,102.2074 21.293,27.6812 36.198,68.1383 29.81,87.3021 -8.517,27.6812 -2.129,23.4226 29.811,-10.6466 l 40.457,-44.7157 44.716,93.6901 c 25.551,51.1037 59.621,93.6901 76.655,93.6901 14.905,0 51.104,51.1037 76.656,112.854 51.103,114.9833 53.233,129.8886 59.621,240.6132 4.258,51.1037 19.164,72.3969 78.785,100.0781 80.914,38.3278 95.819,72.3969 40.457,93.6901 -38.328,14.9053 -23.423,102.2074 25.551,157.5697 27.682,31.9398 25.552,40.4571 -23.422,78.7849 -29.811,23.4225 -66.009,48.9744 -80.914,55.3623 -17.035,6.388 -2.13,29.8105 36.198,66.009 70.268,63.8796 51.104,119.2419 -25.552,72.3969 -34.069,-21.2932 -51.103,-21.2932 -74.526,-2.1294 -31.94,27.6812 -68.138,17.0346 -183.121,-46.845 -91.561,-53.233 -276.812,-334.3033 -466.322,-713.3224 -244.872,-481.2264 -264.035,-515.2956 -302.363,-506.7783 -17.035,4.2586 -29.811,19.1639 -25.552,31.9398 10.647,51.1037 -40.457,313.0101 -70.268,357.7259 -17.034,25.5518 -46.845,44.7157 -68.138,42.5864 -27.681,-2.1293 -40.457,14.9052 -44.716,61.7503 -6.388,61.7503 -31.939,138.4058 -70.267,202.2854 -59.621,97.9488 -78.785,161.8284 -57.492,187.3802 25.552,29.8105 -36.198,195.8975 -74.526,195.8975 -10.647,0 -14.905,-14.9052 -8.517,-31.9398 8.517,-17.0345 4.258,-36.1984 -6.388,-42.5864 -12.776,-8.5173 -21.293,-2.1293 -21.293,8.5173 0,12.7759 -42.587,23.4225 -93.691,23.4225 -91.56,0 -95.819,4.2587 -144.793,97.9488 -51.104,104.3367 -123.501,153.3111 -208.674,140.5351 z m 1618.284,-1047.6257 c 0,-10.6466 -10.647,-21.2932 -23.423,-21.2932 -10.646,0 -14.905,10.6466 -8.517,21.2932 6.388,12.7759 17.035,21.2932 23.423,21.2932 4.258,0 8.517,-8.5173 8.517,-21.2932 z"
       id="path8"
       style="stroke-width:2.12932" />
    <path
       d="m 17440.077,8519.322 c -46.845,-57.4916 -123.5,-266.165 -200.156,-551.494 -42.586,-151.1818 -97.949,-353.4672 -127.759,-447.1573 -27.681,-93.6901 -61.75,-208.6734 -74.526,-255.5185 -27.682,-106.466 -53.233,-151.1818 -72.397,-121.3713 -8.518,12.776 -27.681,19.1639 -42.587,12.776 -21.293,-8.5173 -34.069,14.9052 -44.715,74.5262 -8.518,55.3623 -23.423,80.9142 -40.458,74.5262 -23.422,-8.5173 -76.655,72.3969 -76.655,119.2419 0,10.6467 -55.362,104.3368 -125.63,206.5441 -68.138,104.3368 -132.018,210.8028 -140.535,240.6133 -8.517,29.8105 -36.199,74.5262 -61.75,100.078 -25.552,25.5519 -61.751,68.1383 -80.915,91.5608 -27.681,29.8105 -63.879,42.5864 -123.5,42.5864 -97.949,0 -117.113,-23.4225 -138.406,-191.6388 -8.517,-63.8796 -23.423,-132.0179 -31.94,-149.0525 -8.517,-17.0345 -21.293,-78.7848 -27.681,-138.4058 -21.293,-195.8975 -83.044,-572.7872 -112.854,-702.6758 -44.716,-193.7682 -80.914,-745.2622 -59.621,-894.3146 17.035,-106.4661 27.681,-129.8886 63.88,-134.1472 38.327,-6.388 46.845,8.5173 57.491,74.5262 8.518,44.7157 14.905,121.3713 14.905,172.475 0,72.3969 6.388,89.4314 40.458,89.4314 29.81,0 42.586,21.2932 53.233,83.0435 6.388,44.7158 27.681,93.6901 44.715,108.5954 17.035,14.9052 38.328,63.8796 44.716,108.5953 19.164,110.7247 51.104,106.4661 36.199,-2.1293 -8.518,-53.233 -4.259,-85.1728 10.646,-85.1728 12.776,0 42.587,93.6901 68.138,208.6734 25.552,112.854 55.363,238.4839 68.139,278.941 21.293,70.2676 23.422,72.3969 53.233,31.9398 42.586,-53.233 198.026,-383.2777 330.044,-700.5465 57.492,-140.5351 117.113,-268.2944 127.76,-281.0703 12.775,-14.9052 48.974,-27.6812 83.043,-27.6812 40.457,0 61.75,-10.6466 61.75,-31.9398 0,-17.0345 10.647,-31.9398 21.294,-31.9398 12.776,0 21.293,17.0346 21.293,38.3278 0,48.9744 40.457,89.4315 87.302,89.4315 27.681,0 38.328,27.6811 48.974,123.5006 8.518,66.0089 8.518,155.4404 2.13,195.8975 l -10.647,74.5262 25.552,-68.1383 c 12.776,-38.3278 31.94,-70.2676 40.457,-70.2676 29.81,0 21.293,108.5954 -17.035,208.6735 -34.069,89.4314 -34.069,95.8194 0,121.3712 19.164,14.9053 44.716,68.1383 55.363,119.242 25.552,119.2419 125.63,406.7002 153.311,432.2521 10.646,12.7759 19.164,38.3277 19.164,57.4916 0,21.2932 6.388,40.4571 17.034,44.7157 8.518,4.2587 36.199,63.8797 63.88,134.1472 27.681,70.2676 59.621,142.6645 70.267,159.6991 10.647,17.0345 25.552,46.845 31.94,63.8796 6.388,17.0346 25.552,57.4917 40.457,87.3021 68.139,127.7593 97.949,408.8296 63.88,611.115 -8.517,48.9744 -23.423,89.4315 -34.069,89.4315 -10.647,0 -19.164,12.7759 -19.164,29.8105 0,46.8451 -104.337,119.242 -170.346,119.242 -31.939,0 -70.267,-14.9053 -87.302,-34.0692 z"
       id="path9"
       style="stroke-width:2.12932" />
    <path
       d="m 12353.13,8331.9418 c -332.174,-76.6555 -809.142,-298.1049 -962.453,-447.1573 -110.724,-104.3367 -125.63,-161.8284 -68.138,-244.8719 34.069,-48.9743 72.397,-51.1037 161.829,-14.9052 23.422,10.6466 38.327,2.1293 48.974,-27.6812 19.164,-63.8796 57.492,-55.3623 161.828,31.9398 151.182,125.6299 291.717,178.863 208.674,78.7849 -17.035,-21.2932 -53.233,-112.854 -78.785,-202.2855 -25.552,-89.4314 -76.656,-210.8027 -110.725,-266.165 -36.198,-55.3624 -80.914,-155.4404 -97.949,-219.3201 -19.164,-63.8796 -78.784,-266.165 -136.276,-447.1573 -57.492,-180.9922 -114.983,-376.8897 -129.889,-436.5107 -27.681,-117.1126 -68.138,-176.7336 -142.664,-204.4148 -72.397,-27.6811 -485.485,-310.8808 -568.529,-391.795 -76.655,-70.2675 -114.983,-170.3456 -78.785,-206.5441 12.776,-12.7759 51.104,-6.3879 112.854,23.4226 108.596,53.233 189.51,57.4916 189.51,12.7759 0,-42.5864 19.164,-40.4571 163.958,14.9052 68.138,25.5519 140.535,44.7158 159.699,40.4571 19.164,-2.1293 74.526,14.9053 123.5,40.4571 212.932,108.5954 451.416,191.6389 489.744,170.3457 63.88,-34.0692 149.052,-25.5519 215.061,23.4225 36.199,25.5518 93.69,46.845 132.018,51.1037 38.328,2.1293 149.053,40.4571 249.131,85.1728 100.078,42.5864 291.717,125.6299 427.993,180.9923 274.683,114.9833 406.7,176.7336 494.003,238.4839 78.784,55.3623 227.837,289.5876 227.837,355.5965 0,138.4058 -193.768,295.9756 -423.735,344.9499 -57.492,10.6466 -121.371,34.0692 -142.664,48.9744 -34.07,25.5518 -31.94,31.9398 46.845,83.0435 44.715,29.8105 157.569,127.7592 247.001,221.4493 344.95,349.2086 393.924,672.8653 140.535,915.6079 -138.406,134.1472 -244.872,163.9577 -613.244,168.2163 -212.932,4.2587 -372.631,-2.1293 -447.158,-21.2932 z m 574.917,-438.64 c 40.457,-21.2932 40.457,-23.4226 4.259,-85.1728 -100.079,-161.8284 -464.192,-511.037 -536.589,-511.037 -36.199,0 -14.906,185.2509 29.81,274.6824 19.164,36.1984 34.069,117.1126 34.069,180.9922 0,127.7593 -10.646,117.1126 138.406,146.9231 85.173,19.1639 291.717,14.9053 330.045,-6.3879 z m -174.604,-1339.3427 c 8.517,-21.2932 -4.259,-25.5518 -46.845,-14.9052 -48.975,12.7759 -76.656,-4.2587 -200.157,-117.1126 -234.225,-212.9321 -557.882,-366.2432 -557.882,-264.0358 0,51.1037 59.621,180.9923 83.044,180.9923 10.646,0 138.406,57.4916 283.2,127.7592 202.285,97.9487 281.07,125.6299 344.949,121.3713 48.975,-2.1294 87.303,-17.0346 93.691,-34.0692 z"
       id="path10"
       inkscape:label="path10"
       style="stroke-width:2.12932" />
  </g>
  <g
     inkscape:groupmode="layer"
     id="layer1"
     inkscape:label="bunny"
     transform="translate(-529.87885,-43.07217)">
    <path
       d="m 7764,6466 c -79,-25 -145,-67 -192,-121 -39,-43 -75,-112 -67,-125 4,-6 160,-10 406,-10 454,0 423,-7 369,87 -89,156 -319,231 -516,169 z"
       id="path4"
       transform="matrix(0.1,0,0,-0.1,0,1270)" />
    <path
       d="m 6673,7143 c -9,-3 -11,-24 -6,-78 l 6,-74 -94,-3 -94,-3 v -40 -40 l 90,-3 c 50,-2 92,-8 96,-14 4,-6 10,-75 14,-155 l 7,-144 40,3 40,3 1,150 2,150 93,3 92,3 v 44 44 l -92,3 -93,3 v 75 l -1,75 -44,1 c -25,1 -51,0 -57,-3 z"
       id="path3"
       transform="matrix(0.1,0,0,-0.1,0,1270)" />
    <path
       d="m 9701,12249 c -240,-65 -437,-266 -635,-650 -214,-414 -363,-941 -456,-1611 -11,-76 -22,-148 -25,-160 -3,-13 -16,-120 -30,-238 -75,-636 -66,-576 -96,-614 -24,-31 -37,-31 -249,-6 -131,15 -470,7 -588,-14 -84,-15 -116,-12 -139,16 -15,18 -29,79 -59,261 -54,333 -105,630 -127,737 -3,14 -13,63 -22,110 -27,146 -102,468 -141,605 -93,328 -201,603 -355,905 -155,305 -330,495 -527,573 -178,70 -383,21 -555,-134 -162,-145 -289,-398 -351,-704 -78,-381 -58,-959 50,-1455 66,-300 196,-704 309,-955 7,-16 31,-70 53,-120 22,-49 78,-169 125,-265 97,-197 117,-261 117,-370 0,-121 -16,-176 -92,-317 -229,-425 -289,-615 -314,-993 -13,-205 45,-549 127,-758 173,-438 489,-794 889,-1001 121,-62 165,-81 320,-136 274,-96 496,-135 795,-142 206,-5 268,-1 500,32 377,55 807,216 1105,416 449,300 743,830 767,1383 10,245 -47,588 -137,824 -28,73 -26,102 14,153 166,219 300,544 397,971 52,231 71,323 94,461 13,81 26,156 30,166 5,15 28,206 55,456 29,264 42,1299 19,1545 -26,288 -119,609 -222,767 -148,227 -398,329 -646,262 z m 289,-360 c 181,-96 266,-324 312,-829 14,-160 14,-880 0,-1070 -16,-209 -61,-670 -66,-679 -3,-3 -9,-45 -16,-91 -14,-112 -65,-392 -91,-505 -89,-383 -121,-483 -214,-672 -69,-138 -114,-193 -160,-193 -13,0 -43,15 -68,34 -68,52 -86,60 -112,48 -41,-19 -36,-45 37,-198 194,-410 267,-748 239,-1110 -29,-377 -160,-682 -397,-926 -119,-122 -206,-188 -382,-290 -265,-153 -559,-260 -861,-315 -129,-24 -172,-27 -371,-27 -201,0 -241,3 -375,27 -329,59 -648,177 -868,320 -240,157 -426,366 -556,624 -139,277 -194,557 -171,879 25,344 154,665 399,989 24,33 100,116 167,185 130,133 147,163 120,205 -22,34 -59,32 -121,-5 -69,-41 -105,-39 -145,6 -43,49 -214,401 -293,604 -97,246 -176,496 -240,755 -118,476 -154,708 -164,1065 -11,426 49,702 201,914 59,83 161,178 223,210 221,111 466,-127 663,-644 63,-167 158,-449 200,-595 17,-60 40,-139 50,-175 27,-94 85,-336 115,-480 14,-69 32,-154 40,-190 8,-36 24,-119 35,-185 18,-105 31,-182 80,-503 6,-35 17,-136 25,-223 15,-169 23,-195 60,-209 21,-8 123,15 270,60 74,22 223,35 415,34 219,-1 314,-12 552,-61 139,-29 170,-29 182,2 8,22 29,157 61,390 62,447 92,645 136,880 38,207 106,516 149,675 100,369 129,465 193,630 117,304 266,536 399,621 108,69 240,76 348,18 z"
       id="path1"
       transform="matrix(0.1,0,0,-0.1,0,1270)" />
    <path
       d="m 8997,7214 c -4,-4 -7,-40 -7,-81 v -73 h -90 -90 v -45 -45 h 89 c 50,0 92,-4 96,-9 3,-6 8,-75 12,-155 l 6,-146 h 43 43 l 3,153 3,152 93,3 93,3 -3,42 -3,42 -92,3 -92,3 -3,77 -3,77 -45,3 c -25,2 -49,0 -53,-4 z"
       id="path2"
       inkscape:label="path2"
       transform="matrix(0.1,0,0,-0.1,0,1270)" />
  </g>
</svg>
