<?xml version="1.0" encoding="UTF-8" standalone="no"?>
<!-- Created with Inkscape (http://www.inkscape.org/) -->
<svg
   xmlns:dc="http://purl.org/dc/elements/1.1/"
   xmlns:cc="http://web.resource.org/cc/"
   xmlns:rdf="http://www.w3.org/1999/02/22-rdf-syntax-ns#"
   xmlns:svg="http://www.w3.org/2000/svg"
   xmlns="http://www.w3.org/2000/svg"
   xmlns:sodipodi="http://sodipodi.sourceforge.net/DTD/sodipodi-0.dtd"
   xmlns:inkscape="http://www.inkscape.org/namespaces/inkscape"
   width="270"
   height="135"
   id="svg1901"
   sodipodi:version="0.32"
   inkscape:version="0.45.1"
   sodipodi:docname="blacksabbath.svg"
   sodipodi:docbase="G:\Users\Eetu\Pictures\väliaikaistiedostot"
   version="1.0"
   inkscape:output_extension="org.inkscape.output.svg.inkscape">
  <defs
     id="defs1903" />
  <sodipodi:namedview
     id="base"
     pagecolor="#ffffff"
     bordercolor="#666666"
     borderopacity="1.0"
     inkscape:pageopacity="0.0"
     inkscape:pageshadow="2"
     inkscape:zoom="1.979899"
     inkscape:cx="161.42352"
     inkscape:cy="116.95729"
     inkscape:document-units="px"
     inkscape:current-layer="layer1"
     gridtolerance="10000"
     inkscape:window-width="1680"
     inkscape:window-height="1000"
     inkscape:window-x="-8"
     inkscape:window-y="-8"
     width="270px"
     height="135px" />
  <metadata
     id="metadata1906">
    <rdf:RDF>
      <cc:Work
         rdf:about="">
        <dc:format>image/svg+xml</dc:format>
        <dc:type
           rdf:resource="http://purl.org/dc/dcmitype/StillImage" />
      </cc:Work>
    </rdf:RDF>
  </metadata>
  <g
     inkscape:label="Taso 1"
     inkscape:groupmode="layer"
     id="layer1"
     style="opacity:1">
    <path
       style="fill:#000000"
       d="M 1.9288746,133.03818 C 1.6126246,132.52649 2.2924746,129.24869 3.4396446,125.75418 C 5.3121746,120.05004 5.7965746,119.404 8.1781446,119.43453 C 11.698664,119.47965 12.096014,117.06704 9.4636646,111.62933 C 8.3208546,109.2686 7.3858246,105.71646 7.3858246,103.73571 C 7.3858246,99.461737 10.364485,92.115247 13.006234,89.873647 C 15.769434,87.529007 22.285324,85.323037 27.132764,85.091087 C 31.181405,84.897357 31.338015,84.994807 30.486905,87.178197 C 29.995865,88.437877 29.025215,91.381027 28.329904,93.718527 C 27.426954,96.754077 26.530964,97.968527 25.194384,97.968527 C 22.312734,97.968527 21.967524,100.54721 24.210404,105.31873 C 25.333164,107.70729 26.525124,112.31814 26.859214,115.56505 C 27.376664,120.59397 27.125084,122.05672 25.161014,125.43896 C 21.510284,131.7257 17.338864,133.96853 9.2969546,133.96853 C 5.5607546,133.96853 2.2451146,133.54987 1.9288746,133.03818 z M 26.385824,128.67759 C 26.385824,128.42591 27.090464,126.25091 27.951704,123.84426 C 28.812935,121.43761 29.731635,117.76683 29.993265,115.68697 C 30.900475,108.47489 35.513845,94.527837 39.573055,86.725527 C 43.973665,78.267007 46.385535,76.470627 54.885705,75.320547 C 58.794875,74.791627 58.914945,74.866747 60.166465,78.623927 C 60.870825,80.738457 61.570375,82.918527 61.721015,83.468527 C 61.871665,84.018527 62.493795,86.043527 63.103525,87.968527 C 63.713255,89.893527 64.492355,93.835897 64.834855,96.729357 C 65.177355,99.622807 66.425465,105.02281 67.608425,108.72936 C 68.791385,112.4359 69.794625,115.69353 69.837855,115.96853 C 69.881085,116.24353 70.273615,117.03103 70.710155,117.71853 C 71.288515,118.62938 70.578035,118.96853 68.091535,118.96853 C 66.214755,118.96853 61.962235,119.25251 58.641505,119.5996 C 53.015745,120.1876 52.555815,120.07948 51.900525,118.01485 C 51.330465,116.21874 50.694235,115.91632 48.541545,116.41822 C 43.342755,117.63031 40.443455,119.2116 39.820375,121.17476 C 39.456125,122.32239 36.794355,124.27634 33.537115,125.78716 C 30.428905,127.22886 27.548324,128.57196 27.135824,128.77182 C 26.723324,128.97168 26.385824,128.92927 26.385824,128.67759 z M 51.208915,105.64863 C 51.399245,104.66032 51.261655,103.09049 50.903145,102.16012 C 50.339995,100.69865 50.140895,100.67259 49.439535,101.96853 C 48.993055,102.79353 48.304865,104.52239 47.910225,105.81045 C 47.320925,107.73385 47.520645,108.08921 49.027775,107.79897 C 50.037075,107.60459 51.018585,106.63694 51.208915,105.64863 z M 72.409625,110.35953 C 72.423875,105.03566 73.237895,98.058267 74.438565,92.968527 C 75.541395,88.293527 76.993185,82.015607 77.664765,79.017607 L 78.885825,73.566687 L 88.385825,71.171727 C 93.610825,69.854507 99.990453,68.553708 102.56279,68.281068 C 106.97113,67.813828 107.33009,67.960058 108.81279,70.827277 C 111.61721,76.250427 110.49502,84.074297 106.26497,88.590717 C 104.55077,90.420967 104.49036,90.794667 105.82586,91.307137 C 108.59298,92.368987 111.37815,98.225597 111.38209,102.99069 C 111.38507,106.59852 110.74384,108.29168 108.21062,111.36492 C 103.78425,116.73488 100.70502,117.71108 85.603475,118.53201 L 72.385825,119.25053 L 72.409625,110.35953 z M 95.195755,101.15127 C 94.976085,99.249837 94.230545,98.375467 92.635825,98.148977 C 90.680685,97.871307 90.385825,98.275377 90.385825,101.23231 C 90.385825,105.40873 91.082055,106.20147 93.577245,104.86609 C 94.900335,104.15799 95.408395,102.99188 95.195755,101.15127 z M 94.185825,83.768527 C 96.062185,81.892167 95.645945,78.968527 93.502455,78.968527 C 91.875675,78.968527 90.451185,81.378657 90.399475,84.218527 C 90.378115,85.392187 92.856745,85.097607 94.185825,83.768527 z M 113.86463,93.289597 C 114.7143,61.473678 113.83812,64.291868 123.16566,63.373288 C 141.63817,61.554108 145.21296,62.657048 148.80535,71.283917 C 150.43102,75.187847 150.54953,76.478777 149.57946,79.716587 C 148.94948,81.819277 147.47155,84.572767 146.29517,85.835457 L 144.15631,88.131267 L 147.33727,90.799897 C 151.96017,94.678227 151.66158,100.42494 146.53211,106.29614 C 143.38486,109.89848 132.29128,113.46286 118.07051,115.44088 L 113.25518,116.11067 L 113.86463,93.289597 z M 134.88299,99.977477 C 135.69579,97.416567 134.77249,95.968527 132.32681,95.968527 C 130.83683,95.968527 130.38583,96.665597 130.38583,98.968527 C 130.38583,101.26699 130.83776,101.96853 132.31844,101.96853 C 133.38138,101.96853 134.53543,101.07256 134.88299,99.977477 z M 134.36759,80.502617 C 135.4378,78.502907 135.4466,77.746667 134.41412,76.502617 C 132.05899,73.664857 130.38583,74.689077 130.38583,78.968527 C 130.38583,83.606987 132.30952,84.348147 134.36759,80.502617 z M 148.38583,108.48077 C 148.38583,108.2513 150.1386,104.73546 152.28088,100.6678 C 156.023,93.562437 162.16744,78.529687 166.05502,66.968528 L 167.90447,61.468528 L 176.49777,61.181748 L 185.09107,60.894958 L 187.34833,67.577548 C 188.58983,71.252967 189.69029,74.757017 189.79381,75.364327 C 189.89732,75.971637 190.46253,77.368527 191.04983,78.468527 C 193.18274,82.463427 196.32577,93.624257 197.1749,100.21853 L 198.04408,106.96853 L 190.16294,106.96853 C 182.30518,106.96853 182.27869,106.95963 181.23599,103.96853 C 180.36089,101.45822 179.65524,100.96853 176.913,100.96853 C 171.17093,100.96853 167.81871,102.06714 166.83641,104.2709 C 166.2474,105.59233 164.55453,106.66887 162.38583,107.10114 C 157.44548,108.08587 148.38583,108.97865 148.38583,108.48077 z M 177.12436,87.968527 C 177.26679,87.143527 176.95263,85.797287 176.42622,84.976887 C 175.30525,83.229877 173.96226,84.306697 172.90488,87.800307 C 172.29171,89.826247 172.50516,90.088577 174.53227,89.800307 C 175.81549,89.617827 176.98193,88.793527 177.12436,87.968527 z M 233.63583,108.17472 C 229.64833,108.01313 226.39468,107.78813 226.4055,107.67472 C 226.41633,107.56132 227.07563,103.86853 227.87062,99.468527 C 228.76684,94.508237 229.32931,84.670037 229.35094,73.576067 L 229.38583,55.683618 L 235.53252,56.326068 C 238.9132,56.679418 242.7382,56.968528 244.03252,56.968528 C 246.31903,56.968528 246.38583,57.209818 246.38583,65.468528 L 246.38583,73.968527 L 249.38583,73.968527 L 252.38583,73.968527 L 252.38583,66.027548 C 252.38583,61.660008 252.83679,57.807848 253.38797,57.467208 C 253.93915,57.126558 257.59997,57.164138 261.52312,57.550718 L 268.65612,58.253588 L 267.96569,81.861057 C 267.58595,94.845167 267.04481,106.25603 266.76316,107.21853 C 266.36,108.59622 265.14846,108.96619 261.06844,108.95752 C 258.21801,108.95147 254.22991,108.67272 252.206,108.33807 C 248.78959,107.77318 248.59264,107.55477 249.45476,105.28722 C 249.96549,103.9439 250.67354,99.722647 251.0282,95.906667 L 251.67303,88.968527 L 248.52943,88.968527 C 245.97126,88.968527 245.38583,89.372287 245.38583,91.136617 C 245.38583,95.328507 243.1909,105.84989 242.04477,107.15193 C 241.23665,108.06998 238.6912,108.37959 233.63583,108.17472 z M 199.76694,105.26028 C 200.84956,101.68385 202.38583,86.345657 202.38583,79.113097 L 202.38583,71.705187 L 198.38583,72.241697 C 196.18583,72.536787 194.40186,72.483537 194.42145,72.123367 C 194.50046,70.670917 197.28059,59.740428 197.67008,59.350948 C 198.83863,58.182398 209.85297,55.902708 217.11089,55.327188 C 226.56863,54.577238 225.92282,53.950198 226.87887,64.811338 L 227.52522,72.154137 L 223.20553,71.811337 L 218.88583,71.468527 L 218.2422,85.968527 C 217.8882,93.943527 217.18206,101.81853 216.67299,103.46853 C 215.75299,106.45045 215.69762,106.47029 207.48599,106.76028 C 199.938,107.02683 199.2714,106.89729 199.76694,105.26028 z M 47.021345,74.187797 C 46.722945,73.704987 47.157285,71.095637 47.986525,68.389248 C 48.960605,65.210158 49.705075,57.054218 50.089905,45.345848 L 50.685565,27.223157 L 63.757335,26.751147 C 77.734835,26.246417 82.368665,26.808507 84.872595,29.312437 C 86.257735,30.697587 86.278025,31.290777 85.041435,34.250337 C 84.268455,36.100347 82.167735,39.286268 80.373165,41.330168 L 77.110305,45.046348 L 79.248065,47.321888 C 81.676655,49.907008 82.042055,54.783958 80.203155,60.069308 C 78.051695,66.252978 75.710775,67.580858 61.919265,70.440777 C 55.479745,71.776127 49.615445,73.362997 48.887465,73.967167 C 48.159495,74.571327 47.319735,74.670617 47.021345,74.187797 z M 66.385825,55.933348 C 66.385825,53.418548 64.759505,53.401778 63.421005,55.902788 C 61.734105,59.054798 62.093105,60.195548 64.385825,58.968528 C 65.485825,58.379828 66.385825,57.013988 66.385825,55.933348 z M 71.215515,42.218528 C 72.319265,40.072478 71.672725,37.968528 69.909475,37.968528 C 68.552195,37.968528 67.385825,40.086108 67.385825,42.550318 C 67.385825,44.553818 70.137025,44.315468 71.215515,42.218528 z M 83.794305,65.332378 C 83.418205,63.327608 83.364375,57.363108 83.674665,52.077938 C 84.108795,44.683518 84.926165,40.739758 87.220695,34.968527 C 88.860715,30.843527 90.442045,26.713917 90.734755,25.791607 C 93.670515,21.009807 97.996465,20.397965 103.66694,18.969877 C 103.37236,21.202788 103.58375,21.931177 102.80384,24.937807 C 101.33112,30.615297 100.80296,51.977748 102.13583,51.956658 C 102.54833,51.950128 105.36083,51.280468 108.38583,50.468528 C 111.41083,49.656588 114.21722,48.986928 114.62225,48.980398 C 115.02729,48.973868 114.30853,51.776588 113.02502,55.208658 L 110.69137,61.448788 L 101.48513,64.589398 C 96.421695,66.316738 90.523715,68.010678 88.378505,68.353708 C 84.528505,68.969348 84.469285,68.930318 83.794305,65.332378 z M 116.22136,53.365818 C 121.06847,43.799538 125.63863,33.768477 127.42642,28.771767 C 129.50886,23.445278 130.01197,22.243487 131.87219,17.004217 L 134.5117,10.096717 L 140.19876,9.4800374 C 143.32665,9.1408574 146.87052,8.6604174 148.07403,8.4123974 C 150.02018,8.0113274 150.33113,8.4872474 150.88519,12.714987 C 152.99391,28.805397 154.75869,37.558607 158.27378,49.361888 C 159.40286,53.153238 160.08841,56.640738 159.79723,57.111888 C 159.50604,57.583038 155.50065,57.968528 150.89636,57.968528 C 142.97623,57.968528 142.50771,57.847228 142.20538,55.718528 C 141.95725,53.971438 141.12847,53.396178 138.49746,53.144848 C 133.23434,52.642078 130.95457,53.623428 129.70693,56.928788 C 128.73438,59.505368 128.0343,59.968528 125.11227,59.968528 C 123.21625,59.968528 119.53983,60.259808 116.94244,60.615818 L 112.21991,61.263118 L 116.22136,53.365818 z M 139.98698,38.455138 C 140.04261,37.362507 139.75196,35.568527 139.34109,34.468527 C 138.67653,32.689347 138.42681,32.853867 137.07931,35.958617 C 136.2462,37.878178 135.79131,39.815588 136.06844,40.263988 C 137.00705,41.782698 139.8852,40.454098 139.98698,38.455138 z M 175.88583,58.022688 C 164.75219,55.352188 158.28504,46.626368 158.09819,34.022707 C 157.99699,27.195897 160.77146,19.243707 165.00104,14.237767 C 166.03767,13.010847 167.66706,10.909517 168.62189,9.5681374 C 171.226,5.9098074 180.38566,1.7703174 185.03201,2.1519774 L 188.88583,2.4685274 L 189.04054,12.288947 C 189.1721,20.640597 188.97126,22.023417 187.69764,21.534687 C 180.98731,18.959687 177.08119,20.672437 175.39664,26.928387 C 174.0521,31.921627 174.95695,35.641407 178.00136,37.636187 C 180.21193,39.084608 181.90449,39.045598 187.43035,37.418867 C 188.76687,37.025417 188.92181,38.277488 188.58093,46.716358 C 188.36427,52.080048 187.87995,56.797818 187.50466,57.200288 C 186.46056,58.319998 179.25242,58.830198 175.88583,58.022688 z M 192.56504,55.115838 C 191.59507,52.763338 192.05127,4.8959774 193.0528,3.9367274 C 193.51097,3.4978974 197.35448,2.9182074 201.59393,2.6485074 L 209.30204,2.1581574 L 209.5951,9.3133474 L 209.88816,16.468527 L 213.09517,9.7185274 L 216.30218,2.9685274 L 222.59401,2.8545074 C 226.05451,2.7917974 230.08977,2.5963374 231.56125,2.4201574 C 234.23589,2.0999074 234.23492,2.1032374 228.1976,13.937457 L 222.15854,25.775107 L 226.20289,36.121817 C 228.42729,41.812508 230.70825,47.682248 231.27169,49.165688 L 232.29614,51.862838 L 223.38624,51.665688 L 214.47633,51.468528 L 212.34718,45.635758 C 211.17615,42.427738 210.02521,39.995818 209.78953,40.231488 C 209.55386,40.467168 209.10823,43.537798 208.79925,47.055108 C 208.49028,50.572418 208.1107,53.576998 207.95574,53.731948 C 207.80079,53.886908 204.42731,54.632318 200.45913,55.388418 C 193.9036,56.637518 193.18218,56.612608 192.56504,55.115838 z "
       id="path2196"
       sodipodi:nodetypes="csssssssssssssccssssssssssssssssssccssssccscccssssssccccsssccssccssscccsccccsssccssccscccccsscccssssccsssccsscccscccccscccsssscccsscccccssscccccssccscccsscccsssccssccssccssccsssscccsccccccsssssssssccccsssccssscccssssssccscccccccsccccccccssssc" />
  </g>
</svg>
