<svg xmlns="http://www.w3.org/2000/svg" viewBox="0 0 270 135"><path d="M1.929 133.038c-.316-.512.363-3.79 1.51-7.284 1.873-5.704 2.358-6.35 4.74-6.32 3.52.046 3.917-2.367 1.285-7.805-1.143-2.36-2.078-5.913-2.078-7.893 0-4.274 2.978-11.62 5.62-13.862 2.763-2.345 9.28-4.551 14.127-4.783 4.048-.194 4.205-.096 3.354 2.087-.491 1.26-1.462 4.203-2.157 6.54-.903 3.036-1.799 4.25-3.136 4.25-2.881 0-3.226 2.58-.984 7.35 1.123 2.39 2.315 7 2.65 10.247.517 5.029.265 6.492-1.699 9.874-3.65 6.287-7.822 8.53-15.864 8.53-3.736 0-7.052-.42-7.368-.93m24.457-4.36c0-.252.704-2.427 1.566-4.834.86-2.406 1.78-6.077 2.041-8.157.907-7.212 5.52-21.16 9.58-28.961 4.4-8.459 6.813-10.255 15.313-11.405 3.909-.53 4.029-.454 5.28 3.303.705 2.114 1.404 4.295 1.555 4.845.15.55.773 2.575 1.383 4.5s1.388 5.867 1.73 8.76c.343 2.894 1.591 8.294 2.774 12 1.183 3.707 2.187 6.965 2.23 7.24s.436 1.062.872 1.75c.579.91-.132 1.25-2.618 1.25-1.877 0-6.13.284-9.45.63-5.626.589-6.086.48-6.741-1.584-.57-1.796-1.207-2.099-3.36-1.597-5.198 1.212-8.098 2.794-8.72 4.757-.365 1.147-3.027 3.101-6.284 4.612a1097 1097 0 0 0-6.401 2.985c-.413.2-.75.157-.75-.094m24.823-23.03c.19-.988.053-2.558-.306-3.488-.563-1.461-.762-1.487-1.463-.191-.447.825-1.135 2.553-1.53 3.841-.59 1.924-.39 2.28 1.118 1.989 1.01-.194 1.99-1.162 2.18-2.15m21.2 4.712c.015-5.324.829-12.302 2.03-17.391a1602 1602 0 0 0 3.226-13.951l1.22-5.451 9.5-2.395c5.226-1.317 11.605-2.618 14.178-2.89 4.408-.468 4.767-.322 6.25 2.545 2.804 5.423 1.682 13.247-2.548 17.764-1.714 1.83-1.775 2.204-.44 2.716 2.768 1.062 5.553 6.919 5.557 11.684.003 3.608-.638 5.3-3.171 8.374-4.427 5.37-7.506 6.346-22.608 7.167l-13.217.719zm22.787-9.209c-.22-1.901-.965-2.776-2.56-3.002-1.955-.278-2.25.126-2.25 3.083 0 4.177.696 4.97 3.191 3.634 1.323-.708 1.831-1.874 1.619-3.715m-1.01-17.382c1.876-1.877 1.46-4.8-.684-4.8-1.626 0-3.05 2.41-3.103 5.25-.02 1.173 2.458.879 3.787-.45m19.679 9.52c.85-31.815-.027-28.997 9.3-29.916 18.473-1.819 22.048-.716 25.64 7.91 1.626 3.905 1.745 5.196.774 8.434-.63 2.102-2.107 4.856-3.284 6.118l-2.139 2.296 3.181 2.669c4.623 3.878 4.325 9.625-.805 15.496-3.147 3.602-14.24 7.167-28.461 9.145l-4.816.67zm21.018 6.688c.813-2.56-.11-4.008-2.556-4.008-1.49 0-1.941.697-1.941 3 0 2.298.452 3 1.932 3 1.063 0 2.217-.896 2.565-1.992m-.515-19.474c1.07-2 1.079-2.756.046-4-2.355-2.838-4.028-1.814-4.028 2.466 0 4.638 1.924 5.38 3.982 1.534m14.018 27.978c0-.23 1.753-3.746 3.895-7.813 3.742-7.106 9.886-22.138 13.774-33.7l1.85-5.5 8.593-.286 8.593-.287 2.257 6.683c1.242 3.675 2.342 7.179 2.446 7.786.103.608.669 2.005 1.256 3.105 2.133 3.994 5.276 15.155 6.125 21.75l.87 6.75h-7.882c-7.858 0-7.884-.01-8.927-3-.875-2.51-1.58-3-4.323-3-5.742 0-9.094 1.098-10.077 3.302-.589 1.321-2.281 2.398-4.45 2.83-4.94.985-14 1.878-14 1.38m28.738-20.512c.143-.825-.171-2.172-.698-2.992-1.12-1.747-2.464-.67-3.521 2.823-.613 2.026-.4 2.289 1.627 2 1.283-.182 2.45-1.006 2.592-1.831m56.512 20.206c-3.988-.162-7.241-.387-7.23-.5.01-.114.67-3.806 1.465-8.206.896-4.96 1.458-14.799 1.48-25.893l.035-17.892 6.147.642c3.38.353 7.205.643 8.5.643 2.286 0 2.353.24 2.353 8.5v8.5h6v-7.941c0-4.368.45-8.22 1.002-8.56.551-.341 4.212-.304 8.135.083l7.133.703-.69 23.607c-.38 12.984-.921 24.395-1.203 25.358-.403 1.377-1.615 1.747-5.695 1.739-2.85-.007-6.838-.285-8.862-.62-3.416-.565-3.613-.783-2.751-3.05.51-1.344 1.219-5.565 1.573-9.381l.645-6.938h-3.144c-2.558 0-3.143.403-3.143 2.168 0 4.192-2.195 14.713-3.341 16.015-.808.918-3.354 1.228-8.41 1.023m-33.87-2.915c1.084-3.576 2.62-18.914 2.62-26.147v-7.408l-4 .537c-2.2.295-3.984.242-3.965-.119.08-1.452 2.86-12.383 3.25-12.772 1.168-1.169 12.182-3.448 19.44-4.024 9.458-.75 8.812-1.377 9.768 9.484l.646 7.343-4.32-.343-4.32-.342-.643 14.5c-.354 7.975-1.06 15.85-1.569 17.5-.92 2.981-.975 3.001-9.187 3.291-7.548.267-8.215.137-7.72-1.5M47.022 74.188c-.298-.483.136-3.092.966-5.799.974-3.179 1.718-11.335 2.103-23.043l.596-18.123 13.071-.472c13.978-.505 18.612.058 21.116 2.561 1.385 1.386 1.405 1.979.168 4.938-.773 1.85-2.873 5.036-4.668 7.08l-3.263 3.716 2.138 2.276c2.429 2.585 2.794 7.462.955 12.747-2.151 6.184-4.492 7.512-18.284 10.372-6.44 1.335-12.304 2.922-13.032 3.526s-1.567.704-1.866.22m19.365-18.255c0-2.514-1.626-2.531-2.965-.03-1.687 3.152-1.328 4.293.965 3.066 1.1-.59 2-1.955 2-3.036m4.83-13.714c1.103-2.147.457-4.25-1.307-4.25-1.357 0-2.523 2.117-2.523 4.581 0 2.004 2.751 1.765 3.83-.331m12.578 23.113c-.376-2.004-.43-7.969-.12-13.254.435-7.394 1.252-11.338 3.547-17.11 1.64-4.124 3.221-8.254 3.514-9.176 2.936-4.782 7.261-5.394 12.932-6.822-.295 2.233-.083 2.961-.863 5.968-1.473 5.677-2.001 27.04-.668 27.019.412-.007 3.225-.677 6.25-1.488 3.025-.812 5.831-1.482 6.236-1.489.405-.006-.313 2.797-1.597 6.229l-2.334 6.24-9.206 3.14c-5.063 1.728-10.961 3.422-13.106 3.765-3.85.615-3.91.576-4.585-3.022m32.427-11.966c4.847-9.566 9.418-19.598 11.205-24.594 2.083-5.327 2.586-6.529 4.446-11.768l2.64-6.907 5.687-.617c3.128-.34 6.672-.82 7.875-1.068 1.946-.4 2.257.075 2.811 4.303 2.109 16.09 3.874 24.844 7.389 36.647 1.129 3.791 1.814 7.279 1.523 7.75s-4.296.857-8.9.857c-7.92 0-8.39-.122-8.692-2.25-.248-1.748-1.077-2.323-3.708-2.574-5.263-.503-7.542.478-8.79 3.784-.973 2.576-1.673 3.04-4.595 3.04-1.896 0-5.572.29-8.17.647l-4.722.647zm23.766-14.91c.056-1.093-.235-2.887-.646-3.987-.664-1.78-.914-1.615-2.262 1.49-.833 1.92-1.288 3.857-1.01 4.305.938 1.519 3.816.19 3.918-1.809m35.899 19.567c-11.134-2.67-17.601-11.397-17.788-24-.101-6.827 2.673-14.78 6.903-19.785a86 86 0 0 0 3.62-4.67c2.605-3.658 11.765-7.798 16.411-7.416l3.854.317.155 9.82c.131 8.352-.07 9.734-1.343 9.246-6.71-2.575-10.617-.863-12.301 5.393-1.345 4.994-.44 8.713 2.604 10.708 2.21 1.449 3.903 1.41 9.43-.217 1.336-.394 1.49.858 1.15 9.297-.217 5.364-.701 10.082-1.076 10.484-1.044 1.12-8.253 1.63-11.62.823m16.679-2.907c-.97-2.353-.514-50.22.488-51.18.458-.438 4.301-1.018 8.54-1.287l7.709-.49.293 7.154.293 7.156 3.207-6.75 3.207-6.75 6.292-.114c3.46-.063 7.496-.259 8.967-.435 2.675-.32 2.674-.317-3.363 11.517l-6.04 11.838 4.045 10.347c2.224 5.69 4.505 11.56 5.069 13.044l1.024 2.697-8.91-.197-8.91-.197-2.129-5.833c-1.17-3.208-2.322-5.64-2.557-5.405-.236.236-.682 3.307-.99 6.824-.31 3.517-.69 6.522-.844 6.677s-3.529.9-7.497 1.656c-6.555 1.25-7.277 1.225-7.894-.272" style="fill:#000"/></svg>