<?xml version="1.0" encoding="UTF-8" standalone="no"?>
<svg
   width="354.41785"
   height="198.18399"
   viewBox="0 0 354.41785 198.18399"
   version="1.1"
   id="svg18"
   sodipodi:docname="Iron_Maiden_logo_black-2.svg"
   inkscape:version="1.4.2 (ebf0e940, 2025-05-08)"
   xmlns:inkscape="http://www.inkscape.org/namespaces/inkscape"
   xmlns:sodipodi="http://sodipodi.sourceforge.net/DTD/sodipodi-0.dtd"
   xmlns="http://www.w3.org/2000/svg"
   xmlns:svg="http://www.w3.org/2000/svg">
  <defs
     id="defs18" />
  <sodipodi:namedview
     id="namedview18"
     pagecolor="#ffffff"
     bordercolor="#000000"
     borderopacity="0.25"
     inkscape:showpageshadow="2"
     inkscape:pageopacity="0.0"
     inkscape:pagecheckerboard="true"
     inkscape:deskcolor="#d1d1d1"
     inkscape:zoom="1.2638575"
     inkscape:cx="324.79929"
     inkscape:cy="69.232491"
     inkscape:window-width="1464"
     inkscape:window-height="858"
     inkscape:window-x="0"
     inkscape:window-y="38"
     inkscape:window-maximized="0"
     inkscape:current-layer="svg18" />
  <path
     d="M 349.68971,92.480903 H 331.80349 V 111.89028 C 324.749,104.28794 313.7946,92.480903 313.7946,92.480903 h -30.15391 c 0,0 12.71302,14.423637 14.35298,16.284517 v 59.25532 h 22.09411 v -35.9539 c 5.40787,5.93892 10.51574,11.55238 11.71571,12.87008 v 25.03737 l 22.04745,23.87394 V 92.480903 Z"
     style="fill:#ffffff;fill-opacity:1;fill-rule:nonzero;stroke:none;stroke-width:0.13333"
     id="path1" />
  <path
     d="M 284.95266,113.94023 V 92.480903 h -43.54558 v 53.655987 l 16.07293,22.07185 h 27.47265 v -22.6505 h -21.47413 v -6.6061 h 21.47413 v -20.36829 h -21.47413 v -4.64362 z M 201.23342,92.480903 h -29.4886 v 75.539837 h 50.79207 l 17.23157,-23.02555 z m -7.78914,53.202797 v -26.21334 c 6.99983,9.43723 14.36097,19.36205 19.44218,26.21334 z m -30.5739,-53.24813 h -17.85422 v 75.58517 h 22.01678 V 92.43557 Z m -27.36865,0.04533 h -19.80751 c 0,0 -10.6344,14.31417 -15.02896,20.22976 -1.935949,-2.7406 -7.218484,-10.21748 -7.218484,-10.21748 l -13.764989,18.6058 7.407815,9.99922 c -2.730599,3.72484 -13.694324,18.6766 -13.694324,18.6766 l 13.654325,18.97606 c 0,0 10.066415,-13.71886 13.916987,-18.96619 4.15856,5.61812 13.63966,18.42407 13.63966,18.42407 h 25.05804 V 92.480903 Z m -17.73289,34.55433 v 8.92898 c -1.58529,-2.16501 -2.47994,-3.38791 -3.29192,-4.49362 0.81598,-1.09944 1.70396,-2.29794 3.29192,-4.43536"
     style="fill:#ffffff;fill-opacity:1;fill-rule:nonzero;stroke:none;stroke-width:0.13333"
     id="path2" />
  <path
     style="fill:#ffffff;fill-opacity:1;fill-rule:nonzero;stroke:none;stroke-width:0.13333"
     d="M 223.25476,4.0993083 H 205.37121 V 23.509223 C 198.31538,15.906213 187.35966,4.0993083 187.35966,4.0993083 h -30.15525 c 0,0 12.71435,14.4235057 14.35564,16.2843927 v 59.254785 h 22.09412 V 43.683652 c 5.40786,5.939985 10.51707,11.554378 11.71704,12.872078 v 25.036841 l 22.04478,23.876999 V 4.0993083 Z"
     id="path24" />
  <path
     style="fill:#ffffff;fill-opacity:1;fill-rule:nonzero;stroke:none;stroke-width:0.13333"
     d="M 23.560818,4.0539761 H 5.7071309 V 79.638486 H 27.723247 V 4.0539761 Z"
     id="path23" />
  <path
     style="fill:#ffffff;fill-opacity:1;fill-rule:nonzero;stroke:none;stroke-width:0.13333"
     d="m 57.530341,90.007498 -3.311917,4.24216 -10.567736,13.537122 C 39.81345,102.9077 31.748319,92.650232 31.748319,92.650232 H 1.1370844 L 13.004788,108.39877 v 59.80997 h 21.104805 v -37.37307 c 3.121255,3.95097 9.613093,12.16743 9.613093,12.16743 0,0 6.186512,-8.12633 9.029108,-11.85863 v 41.54176 l 21.287467,24.00406 v -85.1364 z"
     id="path3" />
  <path
     d="M 125.17228,1.2841787 121.81983,5.8476646 82.130154,59.887914 96.881918,79.638486 h 57.174572 l 14.34764,-19.577643 z m -0.2,35.7903053 c 3.64524,4.943076 9.62163,13.049674 14.52057,19.693241 h -29.04154 c 4.89935,-6.643567 10.87573,-14.750165 14.52097,-19.693241"
     style="fill:#ffffff;fill-opacity:1;fill-rule:nonzero;stroke:none;stroke-width:0.13333"
     id="path4" />
  <path
     d="M 76.93135,59.63272 91.564851,39.592688 63.122362,0.95925345 59.775513,5.5498054 c 0,0 -2.797264,3.8368374 -5.456664,7.4835466 V 4.0539761 H 32.631391 V 79.638486 H 54.318849 V 66.29042 l 28.282626,37.88545 13.517929,-18.28434 c 0,0 -16.241327,-22.222911 -19.188054,-26.25881 M 62.487978,38.226988 c 0.410923,-0.560919 0.440122,-0.600918 0.826513,-1.127971 0.384923,0.527053 0.413989,0.567052 0.823979,1.127971 z"
     style="fill:#ffffff;fill-opacity:1;fill-rule:nonzero;stroke:none;stroke-width:0.13333"
     id="path5" />
  <path
     d="m 311.97865,96.411071 h -19.12086 l 9.29844,10.550269 v 56.66418 h 13.76899 v -42.54587 l 20.04083,22.01358 v 25.02231 l 13.72366,14.85896 V 96.411071 h -13.72366 v 25.851879 z m -31.18855,0 h -35.22179 v 48.138389 l 14.03032,19.26512 h 21.19147 v -14.32724 h -21.47413 v -14.92936 h 21.47413 v -12.0445 h -21.47413 v -12.96741 h 21.47413 z"
     style="fill:#000000;fill-opacity:1;fill-rule:nonzero;stroke:none;stroke-width:0.13333"
     id="path6" />
  <path
     d="m 189.28305,106.63894 v 42.97386 h 31.87254 z m 9.84109,-10.227869 h -23.21675 v 67.214449 h 44.54555 l 14.13564,-18.88699 z"
     style="fill:#000000;fill-opacity:1;fill-rule:evenodd;stroke:none;stroke-width:0.13333"
     id="path7" />
  <path
     d="m 149.17872,96.365205 h 13.69166 v 67.260315 h -13.69166 z"
     style="fill:#000000;fill-opacity:1;fill-rule:nonzero;stroke:none;stroke-width:0.13333"
     id="path8" />
  <path
     d="m 121.9314,114.20902 v 34.24755 l -12.62502,-17.23544 z m -5.22787,49.60556 h 18.7982 V 96.411071 h -17.71556 l -17.20624,23.159819 -7.210485,-10.20708 -8.509121,11.50131 7.399815,9.98722 -13.72099,18.71313 8.542453,11.87157 13.870318,-18.89806 z"
     style="fill:#000000;fill-opacity:1;fill-rule:evenodd;stroke:none;stroke-width:0.13333"
     id="path9" />
  <path
     style="display:inline;fill:#000000;fill-opacity:1;fill-rule:nonzero;stroke:none;stroke-width:0.13333"
     d="M 185.5437,8.0293434 H 166.42151 L 175.72128,18.57908 V 75.243263 H 189.4916 V 32.695927 l 20.04084,22.015583 v 25.021241 l 13.72232,14.861628 V 8.0293434 H 209.53244 V 33.881364 Z"
     id="path20" />
  <path
     style="display:inline;fill:#000000;fill-opacity:1;fill-rule:nonzero;stroke:none;stroke-width:0.13333"
     d="M 9.8688935,7.9834778 H 23.560818 V 75.243263 H 9.8688935 Z"
     id="path19" />
  <path
     style="display:inline;fill:#000000;fill-opacity:1;fill-rule:nonzero;stroke:none;stroke-width:0.13333"
     d="M 29.725703,96.580267 H 9.4848757 L 17.16735,106.77374 v 57.04084 h 12.781014 v -45.19314 l 13.71299,17.3589 13.253002,-17.40583 v 52.29923 l 12.962343,14.61737 V 112.73253 L 57.499675,96.578667 43.661354,114.30329 Z"
     id="path10" />
  <path
     d="m 124.97228,29.828265 -22.76036,30.869628 h 45.52073 z M 125.17494,8.0793421 87.309224,59.63432 98.967733,75.243263 h 52.978137 l 11.29572,-15.410548 z"
     style="display:inline;fill:#000000;fill-opacity:1;fill-rule:evenodd;stroke:none;stroke-width:0.13333"
     id="path11" />
  <path
     d="M 54.28085,42.157157 H 72.329865 L 63.319691,29.815332 Z M 36.79382,7.9834778 h 13.3626 V 25.574771 L 63.138495,7.7689499 86.403513,39.370293 71.776279,59.401526 90.955,85.64407 82.585876,96.96312 50.15642,53.526206 v 21.717057 h -13.3626 z"
     style="display:inline;fill:#000000;fill-opacity:1;fill-rule:evenodd;stroke:none;stroke-width:0.13333"
     id="path12" />
  <path
     d="m 284.95266,113.94023 h -21.47413 v 4.64362 h 21.47413 v 20.36829 h -21.47413 v 6.6061 h 21.47413 v 22.6505 H 257.48001 L 241.40708,146.13689 V 92.480903 h 72.38752 l 18.00889,19.409377 V 92.480903 h 22.04745 V 193.84823 l -22.04745,-23.87394 v -25.03737 l -11.71571,-12.87008 v 35.9539 H 297.99367 V 108.76542 L 284.95266,93.969399 Z m -83.71924,-21.459327 38.53504,52.514287 -17.23157,23.02555 H 171.74482 V 92.480903 h 27.37932 z"
     style="display:inline;fill:none;stroke:#231f20;stroke-width:1.13384;stroke-linecap:butt;stroke-linejoin:miter;stroke-miterlimit:3.86369;stroke-dasharray:none;stroke-opacity:1"
     id="path13" />
  <path
     d="m 193.44428,145.6837 h 19.44218 l -19.44218,-26.21334 z m -30.5739,-53.24813 h 4.16256 v 75.58517 H 145.01616 V 92.43557 Z m -45.10154,34.59966 -3.29192,4.43536 3.29192,4.49362 z"
     style="display:inline;fill:none;stroke:#231f20;stroke-width:1.13384;stroke-linecap:butt;stroke-linejoin:miter;stroke-miterlimit:3.86369;stroke-dasharray:none;stroke-opacity:1"
     id="path14" />
  <path
     style="display:inline;fill:none;stroke:#231f20;stroke-width:1.13384;stroke-linecap:butt;stroke-linejoin:miter;stroke-miterlimit:3.86369;stroke-dasharray:none;stroke-opacity:1"
     d="m 223.25476,4.0993083 h 4.16123 V 105.46957 L 205.37121,81.592571 V 56.55573 L 193.65417,43.683652 V 79.638486 H 171.56005 V 20.383701 L 157.20441,4.0993083 h 30.15525 L 205.37121,23.509223 V 4.0993083 Z"
     id="path22" />
  <path
     style="display:inline;fill:none;stroke:#231f20;stroke-width:1.13384;stroke-linecap:butt;stroke-linejoin:miter;stroke-miterlimit:3.86369;stroke-dasharray:none;stroke-opacity:1"
     d="m 23.560818,4.0539761 h 4.162429 V 79.638486 H 5.7071309 V 4.0539761 Z"
     id="path21" />
  <path
     style="display:inline;fill:none;stroke:#231f20;stroke-width:1.13384;stroke-linecap:butt;stroke-linejoin:miter;stroke-miterlimit:3.86369;stroke-dasharray:none;stroke-opacity:1"
     d="m 57.530341,90.007498 16.50892,21.546392 v 37.34386 l 13.050341,-17.79955 -7.407815,-9.99922 13.764989,-18.6058 7.218484,10.21748 15.02896,-20.229757 h 23.97007 V 168.20874 H 114.60625 L 100.96659,149.78467 87.049603,168.75086 74.039261,150.66958 v 46.02071 L 52.751794,172.68623 v -41.54176 l -9.029108,11.85863 -9.613093,-12.16743 v 37.37307 H 13.004788 V 108.39877 L 1.1370844,92.650232 H 31.748319 L 43.650688,107.78678 54.218424,94.249658 Z"
     id="path15" />
  <path
     d="M 125.17228,1.2841787 168.40413,60.060843 154.05649,79.638486 H 96.881918 L 82.130154,59.887914 121.81983,5.8476646 Z"
     style="display:inline;fill:none;stroke:#231f20;stroke-width:1.13384;stroke-linecap:butt;stroke-linejoin:miter;stroke-miterlimit:3.86369;stroke-dasharray:none;stroke-opacity:1"
     id="path16" />
  <path
     d="m 124.97228,37.074484 -14.52097,19.693241 h 29.04154 z M 76.93135,59.63272 96.119404,85.89153 82.601475,104.17587 54.318849,66.29042 V 79.638486 H 32.631391 V 4.0539761 H 54.318849 V 13.033352 L 59.775513,5.5498054 63.122362,0.95925345 91.564851,39.592688 Z"
     style="display:inline;fill:none;stroke:#231f20;stroke-width:1.13384;stroke-linecap:butt;stroke-linejoin:miter;stroke-miterlimit:3.86369;stroke-dasharray:none;stroke-opacity:1"
     id="path17" />
  <path
     d="M 62.487978,38.226988 H 64.13847 L 63.314491,37.099017 Z"
     style="display:inline;fill:none;stroke:#231f20;stroke-width:1.13384;stroke-linecap:butt;stroke-linejoin:miter;stroke-miterlimit:3.86369;stroke-dasharray:none;stroke-opacity:1"
     id="path18" />
</svg>
