<svg xmlns="http://www.w3.org/2000/svg" viewBox="0 0 445 159"><path d="M290.29 4.777h147.98v147.977H290.29Zm-8.38 64.168H4.55v20.43h277.36ZM.883.852h443.933v157.664H.883ZM264.46 64.207v-5.098c2.172-.172 4.469-1 6.867-2.468 1.27-.813 2.414-1.883 3.426-3.239 1-1.355 1.758-2.843 2.258-4.457.285-.898.613-1.523.984-1.898.371-.383.871-.57 1.484-.57.672 0 1.23.257 1.672.757s.668 1.13.668 1.883c0 1.242-.484 2.77-1.441 4.555s-2.2 3.426-3.695 4.937c-1.844 1.828-3.743 3.2-5.668 4.098-1.942.887-4.13 1.387-6.555 1.5m-.129-54.242V4.91c1.371.215 2.469.457 3.328.715.856.242 2.383.77 4.625 1.582 1.414.5 2.371.758 2.84.758.816 0 1.43-.356 1.844-1.086l.543-1.012c.328-.672.957-1 1.883-1 .757 0 1.328.23 1.742.672.398.441.597 1.098.597 1.953v17.403c0 1.113-.254 1.925-.754 2.425s-1.07.758-1.714.758c-.672 0-1.2-.215-1.614-.64-.398-.446-.726-1.145-.984-2.114-.586-2.215-1.156-3.941-1.715-5.195-1.2-2.645-2.555-4.8-4.098-6.442-1.027-1.113-2.054-1.968-3.097-2.566a9.1 9.1 0 0 0-3.426-1.156m-3.297-5.098v5.055q-2.503.386-3.746 2.183c-.828 1.2-1.234 2.91-1.234 5.137v36.344c0 .644.132 1.312.406 2.027.262.715.61 1.313 1.047 1.813.449.57.93.957 1.437 1.199.524.242 1.203.398 2.09.484v5.098c-5.504 0-10.281-1.414-14.348-4.227-3.574-2.484-6.257-5.808-8.074-10.003-1.816-4.2-2.73-9.18-2.73-14.918 0-4.211.597-8.137 1.773-11.778 1.176-3.625 2.875-6.793 5.125-9.465 2.266-2.71 4.98-4.879 8.149-6.523 3.164-1.64 6.199-2.469 9.132-2.469Zm-28.808 58.211h-20.063c-1.016 0-1.812-.183-2.363-.57-.555-.371-.828-.914-.828-1.598q0-1.714 1.699-2.27c.941-.3 1.476-.488 1.637-.558.16-.07.32-.227.492-.484.336-.442.508-1.157.508-2.125V13.602c0-.97-.172-1.684-.508-2.125-.172-.258-.332-.415-.492-.485s-.696-.258-1.637-.558q-1.7-.555-1.7-2.27c0-.684.274-1.226.829-1.598.55-.386 1.347-.57 2.363-.57h21.164c1.016 0 1.813.184 2.363.57.551.372.829.914.829 1.598 0 1.145-.567 1.899-1.7 2.27-.941.3-1.476.488-1.636.558s-.32.227-.496.485c-.333.441-.504 1.156-.504 2.125v41.87c0 .97.171 1.684.504 2.126.175.257.335.414.496.484s.695.258 1.636.559q1.7.554 1.7 2.27c0 .683-.278 1.226-.829 1.597-.55.387-1.347.57-2.363.57Zm-42.008 0v-4.68c1.289-.257 2.293-.53 3.043-.843.75-.301 1.46-.758 2.144-1.34 1.102-.914 2.106-2.188 3.02-3.8.922-1.626 1.66-3.427 2.238-5.395.414-1.543.805-2.555 1.164-3.04.352-.488.871-.726 1.543-.726.738 0 1.274.312 1.61.953q.241.474.242 1.844v17.027Zm-4.41 0h-19.2c-.972 0-1.738-.183-2.27-.57-.526-.371-.792-.914-.792-1.598q0-1.714 1.629-2.27c.902-.3 1.418-.488 1.57-.558.156-.07.309-.227.477-.484.32-.442.488-1.157.488-2.125V13.602c0-.97-.168-1.684-.488-2.125-.168-.258-.32-.415-.477-.485-.152-.07-.668-.258-1.57-.558q-1.63-.555-1.63-2.27c0-.684.267-1.226.794-1.598.531-.386 1.297-.57 2.27-.57h20.62c1.196 0 2.06.168 2.575.5.707.441 1.054 1.027 1.054 1.754 0 1.227-.652 2-1.96 2.297-1.06.258-1.684.43-1.864.5-.195.086-.39.258-.613.515-.402.5-.613 1.27-.613 2.34Zm-38.125-29.562c2.507.5 4.46.984 5.808 1.457a16 16 0 0 1 3.684 1.797 11.86 11.86 0 0 1 4.3 4.753c.989 1.957 1.493 4.157 1.493 6.582 0 4.766-1.766 8.493-5.29 11.165a16.7 16.7 0 0 1-6.038 2.953c-2.192.57-5.075.855-8.63.855h-4.991v-4.394c1.12-.075 1.992-.243 2.64-.473a4.34 4.34 0 0 0 1.719-1.2c.934-1.027 1.39-2.624 1.39-4.808v-9.492c0-1.387-.113-2.484-.359-3.258-.226-.781-.672-1.496-1.316-2.14a4.4 4.4 0 0 0-1.551-1.083c-.559-.23-1.36-.402-2.395-.542v-4.356c1.036-.086 1.836-.215 2.41-.414a4.4 4.4 0 0 0 1.579-.957c.441-.426.816-.969 1.133-1.64.3-.657.472-1.27.5-1.84v-9.524c0-.758-.13-1.543-.372-2.367-.257-.828-.558-1.473-.933-1.942-.531-.644-1.117-1.113-1.778-1.43-.66-.296-1.546-.511-2.667-.628V5.996h4.832c6.382 0 11.253 1.313 14.625 3.926q2.302 1.801 3.527 4.351c.816 1.7 1.219 3.54 1.219 5.524 0 1.941-.414 3.785-1.235 5.512a11.76 11.76 0 0 1-3.468 4.308q-1.659 1.353-3.786 2.188c-1.433.554-3.457 1.125-6.05 1.71m-13.496-27.52v57.082h-19.364c-.984 0-1.754-.183-2.289-.57-.531-.371-.8-.914-.8-1.598q-.001-1.714 1.644-2.27c.91-.3 1.43-.488 1.586-.558.152-.07.305-.227.476-.484.32-.442.489-1.157.489-2.125V13.602c0-.97-.168-1.684-.489-2.125-.171-.258-.324-.415-.476-.485-.156-.07-.676-.258-1.586-.558q-1.646-.555-1.645-2.27c0-.684.27-1.226.801-1.598.535-.386 1.305-.57 2.29-.57Zm-47.34 58.211v-4.418c2.793-.355 5.265-2.16 7.132-4.09 2.125-2.195 3.047-5.765 3.047-9.89V18.543c0-3.824-1.476-6.48-4.41-7.996-.86-.442-1.43-.824-1.687-1.14-.274-.329-.403-.786-.403-1.4 0-.726.274-1.241.801-1.554.531-.3 1.39-.457 2.594-.457h10.277c.875 0 1.446.012 1.746.055.29.043.575.16.86.316.73.43 1.09.996 1.09 1.711 0 .613-.23 1.145-.672 1.559-.145.14-.746.511-1.805 1.125-1.23.672-2.191 1.699-2.895 3.07-.699 1.383-1.043 2.953-1.043 4.711v27.309c0 4.68-1.03 8.535-3.105 11.546-1.504 2.227-3.668 4.012-6.504 5.352-1.387.656-3.062 1.156-5.023 1.457m-27.5-17.816V13.6c0-.968-.176-1.683-.512-2.124-.176-.258-.336-.415-.496-.485-.164-.07-.703-.258-1.653-.558q-1.71-.557-1.71-2.227c0-.727.277-1.27.832-1.64.554-.387 1.359-.57 2.382-.57h21.325l1.55.167c.48.133.875.387 1.2.746.304.371.464.797.464 1.297q0 1.67-1.707 2.227c-.953.3-1.492.488-1.652.558s-.324.227-.496.485c-.34.441-.512 1.156-.512 2.125v35.09c0 2.367.059 4.023.188 4.953.195 1.39.617 3.703 1.855 4.527.469.312 1.508 1.32 2.793 1.707v4.328h-.933c-3.715 0-6.797-.312-9.254-.957-2.895-.758-5.407-1.871-7.586-3.355-2.16-1.47-3.711-3.125-4.617-4.965-.98-1.957-1.461-4.797-1.461-8.54m-27.02-5.18v-4.484c1.219-.27 2.078-.57 2.57-.872q.741-.466 1.305-1.425c.594-1.086.887-2.555.887-4.383v-13.39c0-1.313-.102-2.282-.305-2.927-.191-.64-.594-1.226-1.191-1.753-.813-.786-1.914-1.27-3.309-1.47v-4.51c5.832 0 10.145.538 12.914 1.624q4.81 1.886 7.621 5.781c1.899 2.641 2.844 5.899 2.844 9.739 0 4.297-.957 7.804-2.89 10.53-1.93 2.716-4.614 4.712-8.083 5.985-2.855 1.04-6.976 1.555-12.363 1.555M28.54 5.996V55.13c0 1.098.211 1.867.617 2.34.227.285.422.457.617.527.184.074.813.242 1.88.527 1.316.301 1.976 1.075 1.976 2.301 0 .727-.352 1.313-1.066 1.754-.52.328-1.387.5-2.594.5H9.199c-.98 0-1.75-.183-2.285-.57-.531-.371-.797-.914-.797-1.598q.001-1.714 1.637-2.27c.914-.3 1.43-.488 1.586-.558.152-.07.308-.227.476-.484.32-.442.489-1.157.489-2.125V13.602c0-.97-.168-1.684-.489-2.125-.168-.258-.324-.415-.476-.485-.156-.07-.672-.258-1.586-.558q-1.636-.555-1.637-2.27c0-.684.266-1.226.797-1.598.535-.386 1.305-.57 2.285-.57Zm237.734 117.305-2.347-5.461 4.398-9.8c.356-.83.54-1.966.54-3.419 0-1.605-.895-2.758-2.676-3.453-.965-.387-1.606-.727-1.891-1.027-.3-.286-.442-.739-.442-1.352 0-.754.258-1.32.754-1.707.329-.254.7-.41 1.125-.496.41-.086 1.137-.129 2.16-.129h10.29c1.949 0 2.93.781 2.93 2.332 0 .555-.13.984-.4 1.297-.257.297-.769.625-1.523.953-1.367.61-2.332 1.223-2.918 1.836-.836.895-1.52 1.906-2.09 3.043l-.953 2.121Zm-1.62 3.957v18.164c0 1.098.214 1.863.624 2.336.23.281.426.453.63.523.183.074.823.242 1.906.528 1.335.296 2.003 1.066 2.003 2.293 0 .793-.37 1.406-1.125 1.832-.437.27-1.308.414-2.586.414h-21.382c-1.239 0-2.121-.172-2.618-.5-.726-.442-1.082-1.024-1.082-1.746 0-1.227.668-1.997 1.993-2.293 1.093-.286 1.718-.454 1.922-.528.199-.07.382-.242.582-.523.414-.473.625-1.238.625-2.336V131.34l-11.793-28.125c-.442-1.067-1.067-1.82-1.88-2.305-.753-.469-1.222-.84-1.437-1.125-.21-.27-.312-.668-.312-1.164 0-1.437 1.054-2.164 3.172-2.164h20.417c1.094 0 1.833.129 2.262.371.696.453 1.035 1.04 1.035 1.75 0 .895-.394 1.594-1.207 2.09l-1.21.754c-.47.3-.712.754-.712 1.367 0 .695.157 1.379.458 2.047Zm-95.098-11.801 4.425 12.574v12.547c0 1.281.043 2.207.141 2.762.102.555.313 1.168.656 1.82.582 1.223 1.38 2.149 2.403 2.762l1.55.992q1.58.96 1.579 2.137c0 1.406-1.036 2.117-3.114 2.117h-10.472c-2.09 0-3.13-.695-3.13-2.074 0-.457.087-.797.27-1.024q.28-.365 1.07-.812c3.087-1.68 4.622-4.567 4.622-8.68Zm16.16-19.176 8.21 23.387 3.626-12.633v13.828l-9.63 32.305h-2.206l-16.176-47.969c-.555-1.605-1.137-2.703-1.75-3.258-.351-.355-.98-.625-1.875-.78-1.809-.4-2.703-1.255-2.703-2.59 0-.727.258-1.282.77-1.692.511-.399 1.265-.598 2.23-.598Zm15.336 0h19.633c2.09 0 3.129.723 3.129 2.16q0 1.712-1.665 2.262c-.925.3-1.449.484-1.609.555q-.228.104-.48.484c-.329.442-.5 1.153-.5 2.121v41.723c0 .969.171 1.68.5 2.121.168.254.328.41.48.484.16.07.684.254 1.61.555q1.663.55 1.663 2.262c0 1.437-1.039 2.16-3.128 2.16h-21.055c-1.207 0-2.133-.184-2.762-.566-.625-.372-.937-.926-.937-1.68 0-1.223.668-1.992 1.992-2.29 1.094-.284 1.723-.456 1.922-.527.195-.07.383-.226.582-.484.414-.496.625-1.281.625-2.375Zm-61.555 56.887v-4.496q2.712-.42 4.48-1.164c1.184-.512 2.376-1.266 3.57-2.305 1.196-1.023 2.138-2.09 2.849-3.187.71-1.094 1.378-2.547 2.02-4.352.312-.883.624-1.496.968-1.809q.488-.485 1.363-.484c.781 0 1.324.23 1.637.684.3.468.457 1.265.457 2.406v14.707Zm-.242-26.543v-4.84c1.61-.781 2.805-1.62 3.586-2.543.77-.91 1.336-2.137 1.707-3.672.215-1.05.512-1.777.867-2.191.371-.399.883-.598 1.55-.598.884 0 1.497.344 1.837 1.04.183.37.285 1.179.285 2.46v15.875c0 1.309-.145 2.223-.441 2.719-.286.496-.829.754-1.594.754-.64 0-1.137-.2-1.508-.582-.356-.387-.656-1.04-.867-1.965-.485-1.922-1.153-3.387-2.02-4.426-.883-1.023-2.008-1.707-3.402-2.031m.2-30.344h16.8v14.75q-.002 1.302-.496 1.88c-.344.382-.867.581-1.594.581-.613 0-1.055-.129-1.324-.367-.285-.258-.54-.77-.797-1.55q-1.576-4.83-4.652-7.372c-2.036-1.707-4.68-2.715-7.938-3.043Zm-3.7 0v56.887H116.12c-.992 0-1.777-.184-2.316-.566-.54-.372-.813-.91-.813-1.594q0-1.71 1.664-2.262c.926-.3 1.453-.484 1.61-.555.156-.074.312-.23.484-.484.328-.441.496-1.152.496-2.121v-41.723c0-.968-.168-1.68-.496-2.12-.172-.255-.328-.415-.484-.485-.157-.07-.684-.254-1.61-.555q-1.665-.55-1.664-2.262c0-.683.274-1.222.813-1.593.539-.383 1.324-.567 2.316-.567Zm-34.297 31.836-4.426-7.453v-11.55c0-2.337-.34-4.114-1.023-5.352-.684-1.239-1.88-2.305-3.598-3.184-.597-.285-.996-.586-1.226-.898-.211-.328-.325-.739-.325-1.239 0-.738.243-1.293.723-1.636.5-.356 1.281-.524 2.363-.524h10.426c1.426 0 2.348.227 2.79.668.468.442.71.965.71 1.578 0 .582-.129 1.024-.398 1.309-.254.3-.895.695-1.891 1.195q-2.22 1.13-3.328 3.457c-.527 1.137-.797 2.688-.797 4.625Zm-39.633-17.215 4.422 7.344v22.332c0 1.95.328 3.543.98 4.797.657 1.25 1.68 2.273 3.102 3.086l1.254.71c.727.415 1.082 1.04 1.082 1.88 0 .64-.27 1.164-.797 1.578-.441.355-1.351.539-2.746.539h-9.633c-2.531 0-3.797-.723-3.797-2.16 0-.512.13-.899.399-1.196.254-.285.84-.683 1.734-1.18 2.66-1.48 4-4.155 4-8.054Zm17.453-14.62 22.18 38.507v18.379H90.074l-28.293-48.766c-.613-1.05-1.11-1.793-1.508-2.203a3.3 3.3 0 0 0-1.496-.91l-1.578-.586a2 2 0 0 1-1.011-.754 2.2 2.2 0 0 1-.368-1.207c0-.472.13-.91.367-1.308.258-.414.586-.7 1.012-.871.469-.184 1.75-.282 3.828-.282Zm-47.172 56.886v-4.496c1.805-.281 3.301-.668 4.48-1.164 1.18-.512 2.376-1.266 3.571-2.305 1.196-1.023 2.133-2.09 2.848-3.187.71-1.094 1.379-2.547 2.02-4.352.312-.883.624-1.496.964-1.809q.493-.485 1.367-.484 1.171.001 1.637.684c.297.468.453 1.265.453 2.406v14.707Zm-.242-26.543v-4.84c1.606-.781 2.801-1.62 3.586-2.543.766-.91 1.336-2.137 1.707-3.672.211-1.05.512-1.777.867-2.191.372-.399.883-.598 1.551-.598.883 0 1.492.344 1.836 1.04.184.37.281 1.179.281 2.46v15.875c0 1.309-.14 2.223-.437 2.719-.285.496-.828.754-1.594.754-.64 0-1.14-.2-1.508-.582-.355-.387-.656-1.04-.87-1.965-.481-1.922-1.153-3.387-2.02-4.426-.88-1.023-2.004-1.707-3.399-2.031m.2-30.344h16.8v14.75c0 .867-.172 1.496-.5 1.88-.34.382-.867.581-1.59.581-.613 0-1.054-.129-1.324-.367-.285-.258-.543-.77-.797-1.55q-1.581-4.83-4.652-7.372c-2.035-1.707-4.68-2.715-7.937-3.043Zm-3.7 0v56.887H8.73c-.996 0-1.777-.184-2.316-.566-.543-.372-.812-.91-.812-1.594q0-1.71 1.664-2.262c.925-.3 1.453-.484 1.609-.555.156-.074.313-.23.48-.484.329-.441.5-1.152.5-2.121v-41.723c0-.968-.171-1.68-.5-2.12-.168-.255-.324-.415-.48-.485s-.684-.254-1.61-.555q-1.663-.55-1.663-2.262c0-.683.27-1.222.812-1.593.54-.383 1.32-.567 2.316-.567Zm335.79-80.23c34.546 0 62.562 27.847 62.562 62.187s-28.016 62.188-62.563 62.188c-34.543 0-62.554-27.848-62.554-62.188s28.011-62.187 62.554-62.187m1.1 38.484c12.56.719 22.642 10.57 23.532 22.93h35.297c-.414-32.18-26.496-58.219-58.828-58.797Zm23.575 25.684c-.5 12.73-10.742 22.996-23.574 23.726v33.86c31.926-.57 57.762-25.965 58.8-57.586ZM362.5 103.957c-12.914-.644-23.254-10.945-23.758-23.738h-34.488c1.035 31.437 26.574 56.722 58.246 57.574Zm-23.715-26.492c.895-12.418 11.07-22.309 23.715-22.938V18.68c-32.074.863-57.863 26.789-58.273 58.785Zm26.469-20.555c10.918.73 19.672 9.516 20.527 20.555h-20.527Zm20.574 23.309c-.484 11.41-9.39 20.605-20.574 21.351V80.22ZM362.5 101.582c-11.27-.656-20.27-9.89-20.758-21.363H362.5Zm-20.71-24.117c.862-11.098 9.706-19.922 20.71-20.563v20.563Zm20.5-33.36c-1.606.973-3.075 2.583-4.442 4.622-.836.488-1.97 1.093-4.442 2.84-2.258 4.187-.273 8.05 2.973 10.394l-.043 3.82c-6.7-.297-12.691 6.45-10.445 16.899 1.289 2.664.355 3.55.949 4.922.676 3.41 1.445 6.691 2.48 9.625.961 3.347 1.461 6.875.766 10.695q-2.22 3.64 1.062 6.219c2.946 1.73 13.387 2.062 26.594 2.273 2.016-.41 2.945-5.918 2.133-9.238-.309-1.266-.719-2.422-.176-3.73.356-2.15-1.066-3.872-1.777-5.887l6.664 2.898c1.34.582 2.258 1.426 5.484-.852 3.285-2.316 2.442-5.55-.601-9.128-2.012-2.176-4.059-4.059-7.727-5.997-2.191-5.746-5.629-9.722-10.305-9.195-.25-.082-.554-.39-1.601-2.816-1.047-2.418-1.77-2.621-2.395-2.778-.12-1.289.356-2.504 2.13-3.554 1.784-2.004 3.206-4.266 2.866-5.88-.476-2.273-.882-3.538.688-4.956 3.945-1.813 4.645-4.164.664-7.153-1.644-.586-2.805-.773-4.039-1.378-3.023-.512-3.246-1.493-4.441-2.31-.829-.706-1.836-.827-3.02-.355m1.862-30.425c35.864 0 64.946 28.91 64.946 64.558 0 35.645-29.082 64.555-64.946 64.555-35.859 0-64.937-28.91-64.937-64.555 0-35.648 29.078-64.558 64.937-64.558" style="stroke:none;fill-rule:evenodd;fill:#231f20;fill-opacity:1"/></svg>