<?xml version="1.0" encoding="UTF-8"?>
<svg xmlns="http://www.w3.org/2000/svg" xmlns:xlink="http://www.w3.org/1999/xlink" width="445pt" height="159pt" viewBox="0 0 445 159" version="1.1">
<g id="surface1">
<path style=" stroke:none;fill-rule:evenodd;fill:rgb(13.699341%,12.199402%,12.5%);fill-opacity:1;" d="M 290.289063 4.777344 L 438.269531 4.777344 L 438.269531 152.753906 L 290.289063 152.753906 Z M 281.910156 68.945313 L 4.550781 68.945313 L 4.550781 89.375 L 281.910156 89.375 Z M 0.882813 0.851563 L 444.816406 0.851563 L 444.816406 158.515625 L 0.882813 158.515625 Z M 264.460938 64.207031 L 264.460938 59.109375 C 266.632813 58.9375 268.929688 58.109375 271.328125 56.640625 C 272.597656 55.828125 273.742188 54.757813 274.753906 53.402344 C 275.753906 52.046875 276.511719 50.558594 277.011719 48.945313 C 277.296875 48.046875 277.625 47.421875 277.996094 47.046875 C 278.367188 46.664063 278.867188 46.476563 279.480469 46.476563 C 280.152344 46.476563 280.710938 46.734375 281.152344 47.234375 C 281.59375 47.734375 281.820313 48.363281 281.820313 49.117188 C 281.820313 50.359375 281.335938 51.886719 280.378906 53.671875 C 279.421875 55.457031 278.179688 57.097656 276.683594 58.609375 C 274.839844 60.4375 272.941406 61.808594 271.015625 62.707031 C 269.074219 63.59375 266.886719 64.09375 264.460938 64.207031 Z M 264.332031 9.964844 L 264.332031 4.910156 C 265.703125 5.125 266.800781 5.367188 267.660156 5.625 C 268.515625 5.867188 270.042969 6.394531 272.285156 7.207031 C 273.699219 7.707031 274.65625 7.964844 275.125 7.964844 C 275.941406 7.964844 276.554688 7.609375 276.96875 6.878906 L 277.511719 5.867188 C 277.839844 5.195313 278.46875 4.867188 279.394531 4.867188 C 280.152344 4.867188 280.722656 5.097656 281.136719 5.539063 C 281.535156 5.980469 281.734375 6.636719 281.734375 7.492188 L 281.734375 24.894531 C 281.734375 26.007813 281.480469 26.820313 280.980469 27.320313 C 280.480469 27.820313 279.910156 28.078125 279.265625 28.078125 C 278.59375 28.078125 278.066406 27.863281 277.652344 27.4375 C 277.253906 26.992188 276.925781 26.292969 276.667969 25.324219 C 276.082031 23.109375 275.511719 21.382813 274.953125 20.128906 C 273.753906 17.484375 272.398438 15.328125 270.855469 13.6875 C 269.828125 12.574219 268.800781 11.71875 267.757813 11.121094 C 266.730469 10.519531 265.589844 10.132813 264.332031 9.964844 Z M 261.035156 4.867188 L 261.035156 9.921875 C 259.367188 10.179688 258.117188 10.90625 257.289063 12.105469 C 256.460938 13.304688 256.054688 15.015625 256.054688 17.242188 L 256.054688 53.585938 C 256.054688 54.230469 256.1875 54.898438 256.460938 55.613281 C 256.722656 56.328125 257.070313 56.925781 257.507813 57.425781 C 257.957031 57.996094 258.4375 58.382813 258.945313 58.625 C 259.46875 58.867188 260.148438 59.023438 261.035156 59.109375 L 261.035156 64.207031 C 255.53125 64.207031 250.753906 62.792969 246.6875 59.980469 C 243.113281 57.496094 240.429688 54.171875 238.613281 49.976563 C 236.796875 45.777344 235.882813 40.796875 235.882813 35.058594 C 235.882813 30.847656 236.480469 26.921875 237.65625 23.28125 C 238.832031 19.65625 240.53125 16.488281 242.78125 13.816406 C 245.046875 11.105469 247.761719 8.9375 250.929688 7.292969 C 254.09375 5.652344 257.128906 4.824219 260.0625 4.824219 Z M 232.226563 63.078125 L 212.164063 63.078125 C 211.148438 63.078125 210.351563 62.894531 209.800781 62.507813 C 209.246094 62.136719 208.972656 61.59375 208.972656 60.910156 C 208.972656 59.765625 209.539063 59.011719 210.671875 58.640625 C 211.613281 58.339844 212.148438 58.152344 212.308594 58.082031 C 212.46875 58.011719 212.628906 57.855469 212.800781 57.597656 C 213.136719 57.15625 213.308594 56.441406 213.308594 55.472656 L 213.308594 13.601563 C 213.308594 12.632813 213.136719 11.917969 212.800781 11.476563 C 212.628906 11.21875 212.46875 11.0625 212.308594 10.992188 C 212.148438 10.921875 211.613281 10.734375 210.671875 10.433594 C 209.539063 10.0625 208.972656 9.308594 208.972656 8.164063 C 208.972656 7.480469 209.246094 6.9375 209.800781 6.566406 C 210.351563 6.179688 211.148438 5.996094 212.164063 5.996094 L 233.328125 5.996094 C 234.34375 5.996094 235.140625 6.179688 235.691406 6.566406 C 236.242188 6.9375 236.519531 7.480469 236.519531 8.164063 C 236.519531 9.308594 235.953125 10.0625 234.820313 10.433594 C 233.878906 10.734375 233.34375 10.921875 233.183594 10.992188 C 233.023438 11.0625 232.863281 11.21875 232.6875 11.476563 C 232.355469 11.917969 232.183594 12.632813 232.183594 13.601563 L 232.183594 55.472656 C 232.183594 56.441406 232.355469 57.15625 232.6875 57.597656 C 232.863281 57.855469 233.023438 58.011719 233.183594 58.082031 C 233.34375 58.152344 233.878906 58.339844 234.820313 58.640625 C 235.953125 59.011719 236.519531 59.765625 236.519531 60.910156 C 236.519531 61.59375 236.242188 62.136719 235.691406 62.507813 C 235.140625 62.894531 234.34375 63.078125 233.328125 63.078125 Z M 190.21875 63.078125 L 190.21875 58.398438 C 191.507813 58.140625 192.511719 57.867188 193.261719 57.554688 C 194.011719 57.253906 194.722656 56.796875 195.40625 56.214844 C 196.507813 55.300781 197.511719 54.027344 198.425781 52.414063 C 199.347656 50.789063 200.085938 48.988281 200.664063 47.019531 C 201.078125 45.476563 201.46875 44.464844 201.828125 43.980469 C 202.179688 43.492188 202.699219 43.253906 203.371094 43.253906 C 204.109375 43.253906 204.644531 43.566406 204.980469 44.207031 C 205.140625 44.523438 205.222656 45.136719 205.222656 46.050781 L 205.222656 63.078125 Z M 185.808594 63.078125 L 166.609375 63.078125 C 165.636719 63.078125 164.871094 62.894531 164.339844 62.507813 C 163.8125 62.136719 163.546875 61.59375 163.546875 60.910156 C 163.546875 59.765625 164.089844 59.011719 165.175781 58.640625 C 166.078125 58.339844 166.59375 58.152344 166.746094 58.082031 C 166.902344 58.011719 167.054688 57.855469 167.222656 57.597656 C 167.542969 57.15625 167.710938 56.441406 167.710938 55.472656 L 167.710938 13.601563 C 167.710938 12.632813 167.542969 11.917969 167.222656 11.476563 C 167.054688 11.21875 166.902344 11.0625 166.746094 10.992188 C 166.59375 10.921875 166.078125 10.734375 165.175781 10.433594 C 164.089844 10.0625 163.546875 9.308594 163.546875 8.164063 C 163.546875 7.480469 163.8125 6.9375 164.339844 6.566406 C 164.871094 6.179688 165.636719 5.996094 166.609375 5.996094 L 187.230469 5.996094 C 188.425781 5.996094 189.289063 6.164063 189.804688 6.496094 C 190.511719 6.9375 190.859375 7.523438 190.859375 8.25 C 190.859375 9.476563 190.207031 10.25 188.898438 10.546875 C 187.839844 10.804688 187.214844 10.976563 187.035156 11.046875 C 186.839844 11.132813 186.644531 11.304688 186.421875 11.5625 C 186.019531 12.0625 185.808594 12.832031 185.808594 13.902344 Z M 147.683594 33.515625 C 150.191406 34.015625 152.144531 34.5 153.492188 34.972656 C 154.851563 35.441406 156.085938 36.042969 157.175781 36.769531 C 159.054688 37.96875 160.488281 39.554688 161.476563 41.523438 C 162.464844 43.480469 162.96875 45.679688 162.96875 48.105469 C 162.96875 52.871094 161.203125 56.597656 157.679688 59.269531 C 155.855469 60.667969 153.851563 61.652344 151.640625 62.222656 C 149.449219 62.792969 146.566406 63.078125 143.011719 63.078125 L 138.019531 63.078125 L 138.019531 58.683594 C 139.140625 58.609375 140.011719 58.441406 140.660156 58.210938 C 141.304688 57.96875 141.878906 57.570313 142.378906 57.011719 C 143.3125 55.984375 143.769531 54.386719 143.769531 52.203125 L 143.769531 42.710938 C 143.769531 41.324219 143.65625 40.226563 143.410156 39.453125 C 143.183594 38.671875 142.738281 37.957031 142.09375 37.3125 C 141.617188 36.8125 141.101563 36.457031 140.542969 36.230469 C 139.984375 36 139.183594 35.828125 138.148438 35.6875 L 138.148438 31.332031 C 139.183594 31.246094 139.984375 31.117188 140.558594 30.917969 C 141.132813 30.71875 141.660156 30.40625 142.136719 29.960938 C 142.578125 29.535156 142.953125 28.992188 143.269531 28.320313 C 143.570313 27.664063 143.742188 27.050781 143.769531 26.480469 L 143.769531 16.957031 C 143.769531 16.199219 143.640625 15.414063 143.398438 14.589844 C 143.140625 13.761719 142.839844 13.117188 142.464844 12.648438 C 141.933594 12.003906 141.347656 11.535156 140.6875 11.21875 C 140.027344 10.921875 139.140625 10.707031 138.019531 10.589844 L 138.019531 5.996094 L 142.851563 5.996094 C 149.234375 5.996094 154.105469 7.308594 157.476563 9.921875 C 159.011719 11.121094 160.1875 12.574219 161.003906 14.273438 C 161.820313 15.972656 162.222656 17.8125 162.222656 19.796875 C 162.222656 21.738281 161.808594 23.582031 160.988281 25.308594 C 160.15625 27.050781 158.996094 28.476563 157.519531 29.617188 C 156.414063 30.519531 155.152344 31.246094 153.734375 31.804688 C 152.300781 32.359375 150.277344 32.929688 147.683594 33.515625 Z M 134.1875 5.996094 L 134.1875 63.078125 L 114.824219 63.078125 C 113.839844 63.078125 113.070313 62.894531 112.535156 62.507813 C 112.003906 62.136719 111.734375 61.59375 111.734375 60.910156 C 111.734375 59.765625 112.28125 59.011719 113.378906 58.640625 C 114.289063 58.339844 114.808594 58.152344 114.964844 58.082031 C 115.117188 58.011719 115.269531 57.855469 115.441406 57.597656 C 115.761719 57.15625 115.929688 56.441406 115.929688 55.472656 L 115.929688 13.601563 C 115.929688 12.632813 115.761719 11.917969 115.441406 11.476563 C 115.269531 11.21875 115.117188 11.0625 114.964844 10.992188 C 114.808594 10.921875 114.289063 10.734375 113.378906 10.433594 C 112.28125 10.0625 111.734375 9.308594 111.734375 8.164063 C 111.734375 7.480469 112.003906 6.9375 112.535156 6.566406 C 113.070313 6.179688 113.839844 5.996094 114.824219 5.996094 Z M 86.847656 64.207031 L 86.847656 59.789063 C 89.640625 59.433594 92.113281 57.628906 93.980469 55.699219 C 96.105469 53.503906 97.027344 49.933594 97.027344 45.808594 L 97.027344 18.542969 C 97.027344 14.71875 95.550781 12.0625 92.617188 10.546875 C 91.757813 10.105469 91.1875 9.722656 90.929688 9.40625 C 90.65625 9.078125 90.527344 8.621094 90.527344 8.007813 C 90.527344 7.28125 90.800781 6.765625 91.328125 6.453125 C 91.859375 6.152344 92.71875 5.996094 93.921875 5.996094 L 104.199219 5.996094 C 105.074219 5.996094 105.644531 6.007813 105.945313 6.050781 C 106.234375 6.09375 106.519531 6.210938 106.804688 6.367188 C 107.535156 6.796875 107.894531 7.363281 107.894531 8.078125 C 107.894531 8.691406 107.664063 9.222656 107.222656 9.636719 C 107.078125 9.777344 106.476563 10.148438 105.417969 10.761719 C 104.1875 11.433594 103.226563 12.460938 102.523438 13.832031 C 101.824219 15.214844 101.480469 16.785156 101.480469 18.542969 L 101.480469 45.851563 C 101.480469 50.53125 100.449219 54.386719 98.375 57.398438 C 96.871094 59.625 94.707031 61.410156 91.871094 62.75 C 90.484375 63.40625 88.808594 63.90625 86.847656 64.207031 Z M 59.347656 46.390625 L 59.347656 13.601563 C 59.347656 12.632813 59.171875 11.917969 58.835938 11.476563 C 58.660156 11.21875 58.5 11.0625 58.339844 10.992188 C 58.175781 10.921875 57.636719 10.734375 56.6875 10.433594 C 55.546875 10.0625 54.976563 9.320313 54.976563 8.207031 C 54.976563 7.480469 55.253906 6.9375 55.808594 6.566406 C 56.363281 6.179688 57.167969 5.996094 58.191406 5.996094 L 79.515625 5.996094 L 81.066406 6.164063 C 81.546875 6.296875 81.941406 6.550781 82.265625 6.910156 C 82.570313 7.28125 82.730469 7.707031 82.730469 8.207031 C 82.730469 9.320313 82.160156 10.0625 81.023438 10.433594 C 80.070313 10.734375 79.53125 10.921875 79.371094 10.992188 C 79.210938 11.0625 79.046875 11.21875 78.875 11.476563 C 78.535156 11.917969 78.363281 12.632813 78.363281 13.601563 L 78.363281 48.691406 C 78.363281 51.058594 78.421875 52.714844 78.550781 53.644531 C 78.746094 55.035156 79.167969 57.347656 80.40625 58.171875 C 80.875 58.484375 81.914063 59.492188 83.199219 59.878906 L 83.199219 64.207031 L 82.265625 64.207031 C 78.550781 64.207031 75.46875 63.894531 73.011719 63.25 C 70.117188 62.492188 67.605469 61.378906 65.425781 59.894531 C 63.265625 58.425781 61.714844 56.769531 60.808594 54.929688 C 59.828125 52.972656 59.347656 50.132813 59.347656 46.390625 Z M 32.328125 41.210938 L 32.328125 36.726563 C 33.546875 36.457031 34.40625 36.15625 34.898438 35.855469 C 35.390625 35.542969 35.828125 35.070313 36.203125 34.429688 C 36.796875 33.34375 37.089844 31.875 37.089844 30.046875 L 37.089844 16.65625 C 37.089844 15.34375 36.988281 14.375 36.785156 13.730469 C 36.59375 13.089844 36.191406 12.503906 35.59375 11.976563 C 34.78125 11.191406 33.679688 10.707031 32.285156 10.507813 L 32.285156 5.996094 C 38.117188 5.996094 42.429688 6.535156 45.199219 7.621094 C 48.40625 8.878906 50.945313 10.804688 52.820313 13.402344 C 54.71875 16.042969 55.664063 19.300781 55.664063 23.140625 C 55.664063 27.4375 54.707031 30.945313 52.773438 33.671875 C 50.84375 36.386719 48.160156 38.382813 44.691406 39.65625 C 41.835938 40.695313 37.714844 41.210938 32.328125 41.210938 Z M 28.539063 5.996094 L 28.539063 55.128906 C 28.539063 56.226563 28.75 56.996094 29.15625 57.46875 C 29.382813 57.753906 29.578125 57.925781 29.773438 57.996094 C 29.957031 58.070313 30.585938 58.238281 31.652344 58.523438 C 32.96875 58.824219 33.628906 59.597656 33.628906 60.824219 C 33.628906 61.550781 33.277344 62.136719 32.5625 62.578125 C 32.042969 62.90625 31.175781 63.078125 29.96875 63.078125 L 9.199219 63.078125 C 8.21875 63.078125 7.449219 62.894531 6.914063 62.507813 C 6.382813 62.136719 6.117188 61.59375 6.117188 60.910156 C 6.117188 59.765625 6.664063 59.011719 7.753906 58.640625 C 8.667969 58.339844 9.183594 58.152344 9.339844 58.082031 C 9.492188 58.011719 9.648438 57.855469 9.816406 57.597656 C 10.136719 57.15625 10.304688 56.441406 10.304688 55.472656 L 10.304688 13.601563 C 10.304688 12.632813 10.136719 11.917969 9.816406 11.476563 C 9.648438 11.21875 9.492188 11.0625 9.339844 10.992188 C 9.183594 10.921875 8.667969 10.734375 7.753906 10.433594 C 6.664063 10.0625 6.117188 9.308594 6.117188 8.164063 C 6.117188 7.480469 6.382813 6.9375 6.914063 6.566406 C 7.449219 6.179688 8.21875 5.996094 9.199219 5.996094 Z M 266.273438 123.300781 L 263.925781 117.839844 L 268.324219 108.039063 C 268.679688 107.210938 268.863281 106.074219 268.863281 104.621094 C 268.863281 103.015625 267.96875 101.863281 266.1875 101.167969 C 265.222656 100.78125 264.582031 100.441406 264.296875 100.140625 C 263.996094 99.855469 263.855469 99.402344 263.855469 98.789063 C 263.855469 98.035156 264.113281 97.46875 264.609375 97.082031 C 264.9375 96.828125 265.308594 96.671875 265.734375 96.585938 C 266.144531 96.5 266.871094 96.457031 267.894531 96.457031 L 278.183594 96.457031 C 280.132813 96.457031 281.113281 97.238281 281.113281 98.789063 C 281.113281 99.34375 280.984375 99.773438 280.714844 100.085938 C 280.457031 100.382813 279.945313 100.710938 279.191406 101.039063 C 277.824219 101.648438 276.859375 102.261719 276.273438 102.875 C 275.4375 103.769531 274.753906 104.78125 274.183594 105.917969 L 273.230469 108.039063 Z M 264.652344 127.257813 L 264.652344 145.421875 C 264.652344 146.519531 264.867188 147.285156 265.277344 147.757813 C 265.507813 148.039063 265.703125 148.210938 265.90625 148.28125 C 266.089844 148.355469 266.730469 148.523438 267.8125 148.808594 C 269.148438 149.105469 269.816406 149.875 269.816406 151.101563 C 269.816406 151.894531 269.445313 152.507813 268.691406 152.933594 C 268.253906 153.203125 267.382813 153.347656 266.105469 153.347656 L 244.722656 153.347656 C 243.484375 153.347656 242.601563 153.175781 242.105469 152.847656 C 241.378906 152.40625 241.023438 151.824219 241.023438 151.101563 C 241.023438 149.875 241.691406 149.105469 243.015625 148.808594 C 244.109375 148.523438 244.734375 148.355469 244.9375 148.28125 C 245.136719 148.210938 245.320313 148.039063 245.519531 147.757813 C 245.933594 147.285156 246.144531 146.519531 246.144531 145.421875 L 246.144531 131.339844 L 234.351563 103.214844 C 233.910156 102.148438 233.285156 101.394531 232.472656 100.910156 C 231.71875 100.441406 231.25 100.070313 231.035156 99.785156 C 230.824219 99.515625 230.722656 99.117188 230.722656 98.621094 C 230.722656 97.183594 231.777344 96.457031 233.894531 96.457031 L 254.3125 96.457031 C 255.40625 96.457031 256.144531 96.585938 256.574219 96.828125 C 257.269531 97.28125 257.609375 97.867188 257.609375 98.578125 C 257.609375 99.472656 257.214844 100.171875 256.402344 100.667969 L 255.191406 101.421875 C 254.722656 101.722656 254.480469 102.175781 254.480469 102.789063 C 254.480469 103.484375 254.636719 104.167969 254.9375 104.835938 Z M 169.554688 115.457031 L 173.980469 128.03125 L 173.980469 140.578125 C 173.980469 141.859375 174.023438 142.785156 174.121094 143.339844 C 174.222656 143.894531 174.433594 144.507813 174.777344 145.160156 C 175.359375 146.382813 176.15625 147.308594 177.179688 147.921875 L 178.730469 148.914063 C 179.785156 149.554688 180.308594 150.265625 180.308594 151.050781 C 180.308594 152.457031 179.273438 153.167969 177.195313 153.167969 L 166.722656 153.167969 C 164.632813 153.167969 163.59375 152.472656 163.59375 151.09375 C 163.59375 150.636719 163.679688 150.296875 163.863281 150.070313 C 164.050781 149.828125 164.40625 149.554688 164.933594 149.257813 C 168.019531 147.578125 169.554688 144.691406 169.554688 140.578125 Z M 185.714844 96.28125 L 193.925781 119.667969 L 197.550781 107.035156 L 197.550781 120.863281 L 187.921875 153.167969 L 185.714844 153.167969 L 169.539063 105.199219 C 168.984375 103.59375 168.402344 102.496094 167.789063 101.941406 C 167.4375 101.585938 166.808594 101.316406 165.914063 101.160156 C 164.105469 100.761719 163.210938 99.90625 163.210938 98.570313 C 163.210938 97.84375 163.46875 97.289063 163.980469 96.878906 C 164.492188 96.480469 165.246094 96.28125 166.210938 96.28125 Z M 201.050781 96.28125 L 220.683594 96.28125 C 222.773438 96.28125 223.8125 97.003906 223.8125 98.441406 C 223.8125 99.582031 223.257813 100.335938 222.148438 100.703125 C 221.222656 101.003906 220.699219 101.1875 220.539063 101.257813 C 220.386719 101.328125 220.226563 101.488281 220.058594 101.742188 C 219.730469 102.183594 219.558594 102.894531 219.558594 103.863281 L 219.558594 145.585938 C 219.558594 146.554688 219.730469 147.265625 220.058594 147.707031 C 220.226563 147.960938 220.386719 148.117188 220.539063 148.191406 C 220.699219 148.261719 221.222656 148.445313 222.148438 148.746094 C 223.257813 149.113281 223.8125 149.867188 223.8125 151.007813 C 223.8125 152.445313 222.773438 153.167969 220.683594 153.167969 L 199.628906 153.167969 C 198.421875 153.167969 197.496094 152.984375 196.867188 152.601563 C 196.242188 152.230469 195.929688 151.675781 195.929688 150.921875 C 195.929688 149.699219 196.597656 148.929688 197.921875 148.632813 C 199.015625 148.347656 199.644531 148.175781 199.84375 148.105469 C 200.039063 148.035156 200.226563 147.878906 200.425781 147.621094 C 200.839844 147.125 201.050781 146.339844 201.050781 145.246094 Z M 139.496094 153.167969 L 139.496094 148.671875 C 141.304688 148.390625 142.796875 148.003906 143.976563 147.507813 C 145.160156 146.996094 146.351563 146.242188 147.546875 145.203125 C 148.742188 144.179688 149.683594 143.113281 150.394531 142.015625 C 151.105469 140.921875 151.773438 139.46875 152.414063 137.664063 C 152.726563 136.78125 153.039063 136.167969 153.382813 135.855469 C 153.707031 135.53125 154.164063 135.371094 154.746094 135.371094 C 155.527344 135.371094 156.070313 135.601563 156.382813 136.054688 C 156.683594 136.523438 156.839844 137.320313 156.839844 138.460938 L 156.839844 153.167969 Z M 139.253906 126.625 L 139.253906 121.785156 C 140.863281 121.003906 142.058594 120.164063 142.839844 119.242188 C 143.609375 118.332031 144.175781 117.105469 144.546875 115.570313 C 144.761719 114.519531 145.058594 113.792969 145.414063 113.378906 C 145.785156 112.980469 146.296875 112.78125 146.964844 112.78125 C 147.847656 112.78125 148.460938 113.125 148.800781 113.820313 C 148.984375 114.191406 149.085938 115 149.085938 116.28125 L 149.085938 132.15625 C 149.085938 133.464844 148.941406 134.378906 148.644531 134.875 C 148.359375 135.371094 147.816406 135.628906 147.050781 135.628906 C 146.410156 135.628906 145.914063 135.429688 145.542969 135.046875 C 145.1875 134.660156 144.886719 134.007813 144.675781 133.082031 C 144.191406 131.160156 143.523438 129.695313 142.65625 128.65625 C 141.773438 127.632813 140.648438 126.949219 139.253906 126.625 Z M 139.453125 96.28125 L 156.253906 96.28125 L 156.253906 111.03125 C 156.253906 111.898438 156.085938 112.527344 155.757813 112.910156 C 155.414063 113.292969 154.890625 113.492188 154.164063 113.492188 C 153.550781 113.492188 153.109375 113.363281 152.839844 113.125 C 152.554688 112.867188 152.300781 112.355469 152.042969 111.574219 C 150.992188 108.355469 149.441406 105.898438 147.390625 104.203125 C 145.355469 102.496094 142.710938 101.488281 139.453125 101.160156 Z M 135.753906 96.28125 L 135.753906 153.167969 L 116.121094 153.167969 C 115.128906 153.167969 114.34375 152.984375 113.804688 152.601563 C 113.265625 152.230469 112.992188 151.691406 112.992188 151.007813 C 112.992188 149.867188 113.546875 149.113281 114.65625 148.746094 C 115.582031 148.445313 116.109375 148.261719 116.265625 148.191406 C 116.421875 148.117188 116.578125 147.960938 116.75 147.707031 C 117.078125 147.265625 117.246094 146.554688 117.246094 145.585938 L 117.246094 103.863281 C 117.246094 102.894531 117.078125 102.183594 116.75 101.742188 C 116.578125 101.488281 116.421875 101.328125 116.265625 101.257813 C 116.109375 101.1875 115.582031 101.003906 114.65625 100.703125 C 113.546875 100.335938 112.992188 99.582031 112.992188 98.441406 C 112.992188 97.757813 113.265625 97.21875 113.804688 96.847656 C 114.34375 96.464844 115.128906 96.28125 116.121094 96.28125 Z M 101.457031 128.117188 L 97.03125 120.664063 L 97.03125 109.113281 C 97.03125 106.777344 96.691406 105 96.007813 103.761719 C 95.324219 102.523438 94.128906 101.457031 92.410156 100.578125 C 91.8125 100.292969 91.414063 99.992188 91.183594 99.679688 C 90.972656 99.351563 90.859375 98.941406 90.859375 98.441406 C 90.859375 97.703125 91.101563 97.148438 91.582031 96.804688 C 92.082031 96.449219 92.863281 96.28125 93.945313 96.28125 L 104.371094 96.28125 C 105.796875 96.28125 106.71875 96.507813 107.160156 96.949219 C 107.628906 97.390625 107.871094 97.914063 107.871094 98.527344 C 107.871094 99.109375 107.742188 99.550781 107.472656 99.835938 C 107.21875 100.136719 106.578125 100.53125 105.582031 101.03125 C 104.101563 101.785156 102.992188 102.9375 102.253906 104.488281 C 101.726563 105.625 101.457031 107.175781 101.457031 109.113281 Z M 61.824219 110.902344 L 66.246094 118.246094 L 66.246094 140.578125 C 66.246094 142.527344 66.574219 144.121094 67.226563 145.375 C 67.882813 146.625 68.90625 147.648438 70.328125 148.460938 L 71.582031 149.171875 C 72.308594 149.585938 72.664063 150.210938 72.664063 151.050781 C 72.664063 151.691406 72.394531 152.214844 71.867188 152.628906 C 71.425781 152.984375 70.515625 153.167969 69.121094 153.167969 L 59.488281 153.167969 C 56.957031 153.167969 55.691406 152.445313 55.691406 151.007813 C 55.691406 150.496094 55.820313 150.109375 56.089844 149.8125 C 56.34375 149.527344 56.929688 149.128906 57.824219 148.632813 C 60.484375 147.152344 61.824219 144.476563 61.824219 140.578125 Z M 79.277344 96.28125 L 101.457031 134.789063 L 101.457031 153.167969 L 90.074219 153.167969 L 61.78125 104.402344 C 61.167969 103.351563 60.671875 102.609375 60.273438 102.199219 C 59.886719 101.785156 59.390625 101.472656 58.777344 101.289063 L 57.199219 100.703125 C 56.773438 100.5625 56.445313 100.304688 56.1875 99.949219 C 55.949219 99.582031 55.820313 99.179688 55.820313 98.742188 C 55.820313 98.269531 55.949219 97.832031 56.1875 97.433594 C 56.445313 97.019531 56.773438 96.734375 57.199219 96.5625 C 57.667969 96.378906 58.949219 96.28125 61.027344 96.28125 Z M 32.105469 153.167969 L 32.105469 148.671875 C 33.910156 148.390625 35.40625 148.003906 36.585938 147.507813 C 37.765625 146.996094 38.960938 146.242188 40.15625 145.203125 C 41.351563 144.179688 42.289063 143.113281 43.003906 142.015625 C 43.714844 140.921875 44.382813 139.46875 45.023438 137.664063 C 45.335938 136.78125 45.648438 136.167969 45.988281 135.855469 C 46.316406 135.53125 46.773438 135.371094 47.355469 135.371094 C 48.136719 135.371094 48.679688 135.601563 48.992188 136.054688 C 49.289063 136.523438 49.445313 137.320313 49.445313 138.460938 L 49.445313 153.167969 Z M 31.863281 126.625 L 31.863281 121.785156 C 33.46875 121.003906 34.664063 120.164063 35.449219 119.242188 C 36.214844 118.332031 36.785156 117.105469 37.15625 115.570313 C 37.367188 114.519531 37.667969 113.792969 38.023438 113.378906 C 38.394531 112.980469 38.90625 112.78125 39.574219 112.78125 C 40.457031 112.78125 41.066406 113.125 41.410156 113.820313 C 41.59375 114.191406 41.691406 115 41.691406 116.28125 L 41.691406 132.15625 C 41.691406 133.464844 41.550781 134.378906 41.253906 134.875 C 40.96875 135.371094 40.425781 135.628906 39.660156 135.628906 C 39.019531 135.628906 38.519531 135.429688 38.152344 135.046875 C 37.796875 134.660156 37.496094 134.007813 37.28125 133.082031 C 36.800781 131.160156 36.128906 129.695313 35.261719 128.65625 C 34.382813 127.632813 33.257813 126.949219 31.863281 126.625 Z M 32.0625 96.28125 L 48.863281 96.28125 L 48.863281 111.03125 C 48.863281 111.898438 48.691406 112.527344 48.363281 112.910156 C 48.023438 113.292969 47.496094 113.492188 46.773438 113.492188 C 46.160156 113.492188 45.71875 113.363281 45.449219 113.125 C 45.164063 112.867188 44.90625 112.355469 44.652344 111.574219 C 43.597656 108.355469 42.046875 105.898438 40 104.203125 C 37.964844 102.496094 35.320313 101.488281 32.0625 101.160156 Z M 28.363281 96.28125 L 28.363281 153.167969 L 8.730469 153.167969 C 7.734375 153.167969 6.953125 152.984375 6.414063 152.601563 C 5.871094 152.230469 5.601563 151.691406 5.601563 151.007813 C 5.601563 149.867188 6.15625 149.113281 7.265625 148.746094 C 8.191406 148.445313 8.71875 148.261719 8.875 148.191406 C 9.03125 148.117188 9.1875 147.960938 9.355469 147.707031 C 9.683594 147.265625 9.855469 146.554688 9.855469 145.585938 L 9.855469 103.863281 C 9.855469 102.894531 9.683594 102.183594 9.355469 101.742188 C 9.1875 101.488281 9.03125 101.328125 8.875 101.257813 C 8.71875 101.1875 8.191406 101.003906 7.265625 100.703125 C 6.15625 100.335938 5.601563 99.582031 5.601563 98.441406 C 5.601563 97.757813 5.871094 97.21875 6.414063 96.847656 C 6.953125 96.464844 7.734375 96.28125 8.730469 96.28125 Z M 364.152344 16.050781 C 398.699219 16.050781 426.714844 43.898438 426.714844 78.238281 C 426.714844 112.578125 398.699219 140.425781 364.152344 140.425781 C 329.609375 140.425781 301.597656 112.578125 301.597656 78.238281 C 301.597656 43.898438 329.609375 16.050781 364.152344 16.050781 Z M 365.253906 54.535156 C 377.8125 55.253906 387.894531 65.105469 388.785156 77.464844 L 424.082031 77.464844 C 423.667969 45.285156 397.585938 19.246094 365.253906 18.667969 Z M 388.828125 80.21875 C 388.328125 92.949219 378.085938 103.214844 365.253906 103.945313 L 365.253906 137.804688 C 397.179688 137.234375 423.015625 111.839844 424.054688 80.21875 Z M 362.5 103.957031 C 349.585938 103.3125 339.246094 93.011719 338.742188 80.21875 L 304.253906 80.21875 C 305.289063 111.65625 330.828125 136.941406 362.5 137.792969 Z M 338.785156 77.464844 C 339.679688 65.046875 349.855469 55.15625 362.5 54.527344 L 362.5 18.679688 C 330.425781 19.542969 304.636719 45.46875 304.226563 77.464844 Z M 365.253906 56.910156 C 376.171875 57.640625 384.925781 66.425781 385.78125 77.464844 L 365.253906 77.464844 Z M 385.828125 80.21875 C 385.34375 91.628906 376.4375 100.824219 365.253906 101.570313 L 365.253906 80.21875 Z M 362.5 101.582031 C 351.230469 100.925781 342.230469 91.691406 341.742188 80.21875 L 362.5 80.21875 Z M 341.789063 77.464844 C 342.652344 66.367188 351.496094 57.542969 362.5 56.902344 L 362.5 77.464844 Z M 362.289063 44.105469 C 360.683594 45.078125 359.214844 46.6875 357.847656 48.726563 C 357.011719 49.214844 355.878906 49.820313 353.40625 51.566406 C 351.148438 55.753906 353.132813 59.617188 356.378906 61.960938 L 356.335938 65.78125 C 349.636719 65.484375 343.644531 72.230469 345.890625 82.679688 C 347.179688 85.34375 346.246094 86.230469 346.839844 87.601563 C 347.515625 91.011719 348.285156 94.292969 349.320313 97.226563 C 350.28125 100.574219 350.78125 104.101563 350.085938 107.921875 C 348.605469 110.347656 348.960938 112.421875 351.148438 114.140625 C 354.09375 115.871094 364.535156 116.203125 377.742188 116.414063 C 379.757813 116.003906 380.6875 110.496094 379.875 107.175781 C 379.566406 105.910156 379.15625 104.753906 379.699219 103.445313 C 380.054688 101.296875 378.632813 99.574219 377.921875 97.558594 L 384.585938 100.457031 C 385.925781 101.039063 386.84375 101.882813 390.070313 99.605469 C 393.355469 97.289063 392.511719 94.054688 389.46875 90.476563 C 387.457031 88.300781 385.410156 86.417969 381.742188 84.480469 C 379.550781 78.734375 376.113281 74.757813 371.4375 75.285156 C 371.1875 75.203125 370.882813 74.894531 369.835938 72.46875 C 368.789063 70.050781 368.066406 69.847656 367.441406 69.691406 C 367.320313 68.402344 367.796875 67.1875 369.570313 66.136719 C 371.355469 64.132813 372.777344 61.871094 372.4375 60.257813 C 371.960938 57.984375 371.554688 56.71875 373.125 55.300781 C 377.070313 53.488281 377.769531 51.136719 373.789063 48.148438 C 372.144531 47.5625 370.984375 47.375 369.75 46.769531 C 366.726563 46.257813 366.503906 45.277344 365.308594 44.460938 C 364.480469 43.753906 363.472656 43.632813 362.289063 44.105469 Z M 364.152344 13.679688 C 400.015625 13.679688 429.097656 42.589844 429.097656 78.238281 C 429.097656 113.882813 400.015625 142.792969 364.152344 142.792969 C 328.292969 142.792969 299.214844 113.882813 299.214844 78.238281 C 299.214844 42.589844 328.292969 13.679688 364.152344 13.679688 "/>
</g>
</svg>
