<svg xmlns="http://www.w3.org/2000/svg" xml:space="preserve" viewBox="0 0 511.988 242.521"><path d="M509.8 178.72c.28-1.68 2.67-3.09 2.1-5.61-1.4-5.75-4.35-3.79-2.53-12.35-1.26-1.26-2.67-3.23-3.65-4.63-1.96-.42-2.95-.98-5.61-.98-3.51 3.65-7.58 6.73-11.78 9.68-.14 1.96-.7 3.37 0 4.63-4.21 3.23-4.07.56-7.15 6.17-3.93.84-10.94.98-13.89-.98-2.38-.7-3.65-2.24-2.1-4.07-.14-4.21-2.38-5.19-5.19-6.59.7-2.67 1.54-6.45 2.53-8.7 2.53-.84 7.15-1.4 9.68-1.54-.7-1.82-7.44-7.01-9.26-8.14.28-1.82.42-2.24 1.54-3.09-.84-3.51-8.14-8.7-4.07-14.87.42-3.93 3.93-7.44 6.59-9.26-.7-1.12-1.82-.42-3.09-2.1h-.56c.84-2.38 2.53-3.23 3.65-5.61-2.24-1.4-4.07-3.51-6.17-5.19 0-1.26 0-1.96.56-2.53.56-1.54 1.12-1.4 2.1-2.53 10.8-.42 8.56 4.35 14.31 8.14 1.4.98 5.05 1.54 6.59.56 2.53-.98 2.38-2.81 3.65-5.05 5.75-11.08 0-17.12-5.05-24.55-8.7.7-8.98 9.82-19.5 3.65-.28-.84-.14-.56-.56-.98.28-1.96.98-3.37 2.1-4.63-.28-4.21-2.53-4.07-3.09-7.72-1.26-3.37 6.03-8.84 2.53-12.77.7-3.23 4.91-3.37 7.15-4.63v-.98l-6.17-3.09c-1.54-1.54-1.12-3.37-3.09-4.63 0-3.79.84-5.05.98-8.14 2.67-.84 4.91-.84 6.59-2.53l.56-.56c-3.09-.98-7.58-2.53-10.24-4.07.7-5.19 4.77-2.81 8.14-5.19.98-.7 1.54-4.07 2.1-5.05 9.26.42 18.24 11.08 21.46 17.96 2.24.56 6.59 2.38 8.7.98 2.24-.28 2.53-.7 4.07-1.54.56-2.38 1.26-5.47 2.53-7.15 0-6.45-2.67-4.91-4.07-8.14-1.54-3.37.28-5.89-2.53-8.14-4.07-3.09-23.99-4.07-30.72-4.07v.98c-7.72-1.54-18.38-.42-25.53.56-3.09.42-7.44-1.12-10.8 0-2.24.84-4.35 2.95-6.17 4.07v.98c2.95 2.67 12.21 8.84 7.72 15.29 0 4.21-3.79 6.87-6.59 8.14.56.84 1.4.84 2.1 1.54 1.54 1.82 1.54 4.91 3.09 6.59-.14 5.05-3.93 9.12-6.59 11.78.42 2.24 1.96 2.67 3.65 3.65-.28 1.54-1.96 3.93-.98 6.17.7 1.96 4.35 5.05 2.1 8.7-.98 2.67-4.91 2.95-7.15 4.07.7 1.82 2.1 2.67 4.07 3.09-.56 1.54-.84 1.82-2.1 2.53.42 2.81 1.82 3.23 2.53 5.61-1.82 1.4-3.23 1.82-5.61 3.09l.56 3.65c1.96.98 5.05 1.68 7.15 2.53-.14 1.12-.14 1.4-.56 2.1-.42.84-6.45 3.37-7.72 4.07 1.12 5.05 8.84 3.23 10.8 8.14.42.7-.56 2.67-1.54 3.65.14 3.37 1.26 5.05 3.09 6.59-.14 3.79-5.33 12.63-7.72 14.31.84 1.54 3.09 1.82 4.63 2.53 0 3.65-.98 5.75-1.54 8.14-.56 2.81 1.54 3.93.98 6.17-.14.7-1.54 2.53-2.1 3.09.42 2.1 1.54 2.67 3.09 3.65-1.4 1.82-4.77 2.53-6.59 4.07 0 2.67.42 4.63 1.54 6.17-1.26 1.82-5.33.42-7.15 1.54l-1.54.56c2.1 3.09 8 2.53 9.26 6.17.42.98.28 1.12-.56 2.1 1.54 7.44 11.08 3.23 18.38 5.05 2.95.7 6.87 2.38 9.68 3.09l7.15-.98c7.86 1.26 19.36 2.38 28.2.56 5.89-1.26 10.8.7 14.31-2.53 2.1-.7 5.75-4.49 5.19-7.72-.03-1.11-1.15-1.39-.87-2.93M360.81 43.62c-1.4-3.23.7-9.54-2.1-13.33l-5.61-4.07c-2.24-2.95-4.07-8.7-7.15-10.8l-6.17-.98-2.1-3.65c-.84-.56-10.24-3.79-11.22-4.07-5.33-1.54-14.03-.98-18.38 0h-8.7c-1.12.28-3.37 1.82-4.07 2.1-.28.14-2.38-.98-2.53-.98-1.26-.28-3.09.42-3.65.56-1.96.28-5.89-.56-8.7-.56-1.82 1.96-4.91 4.21-7.15 5.61.28 6.45 3.09 9.96 3.09 16.83l-2.53 3.65c-1.4.98-2.1.7-3.09 2.1 2.53 2.53 4.63 5.19 7.72 7.15-1.96 3.51-.98 8.14 2.53 10.24-.14 3.79-2.24 5.05-4.07 7.15.56 2.53 2.38 3.37 4.07 4.63-.28 6.03-4.77 4.63-6.17 9.26h-.56c1.26 3.51 5.05 7.86 7.72 10.24-.28 5.75-2.95 8.98-4.07 13.33-.84 3.09.98 3.79-.56 5.61.14 3.79 1.54 5.19 4.07 6.59-.14 3.65-2.81 5.75-5.19 7.15v1.54c1.4.14 2.67.42 3.65.98l1.54.56c-.14 1.12-.14.98-.56 1.54-.7 1.54-2.24 2.1-4.07 2.53.56 4.21 2.67 4.63 2.53 10.24-1.96 1.82-5.33 3.79-6.59 6.17h-.56v.56c1.54 0 3.23-.14 4.07.56 2.38 0 3.23.28 4.63.98-.28 1.54-.28 1.68-.98 2.53-1.96 1.54-4.91-.14-7.72.98-1.54.7-3.09 3.09-4.63 4.07.28 2.67.84 2.1 2.1 3.65 1.68-.42 2.24-.98 4.63-.98 1.4 1.54 7.58 9.68 8.7 10.24h2.53l3.65 2.53c-2.24 2.38-5.19 1.82-8.14 3.65-4.49-.14-4.21.84-6.17 3.09v4.07c.84 1.4 5.33 1.54 6.59 2.53l3.09 3.65c-.42.7.7 1.12 0 2.53-.56 1.26-1.68.84-2.1 3.09 4.07.28 8.98-1.12 13.89 0 4.77 1.12 12.21 2.95 15.29-.98 0-.84-.14-.42-.98-1.54l4.63-4.63c-.28-4.63-2.53-6.45-3.65-9.68-.84-2.95 1.26-5.05 0-7.15-.14-6.31 2.53-5.33 6.17-7.72 2.81.14 13.19 4.63 14.87 6.17.7 1.12 0 2.95.56 4.63.7 2.24 3.37 4.77 5.05 6.17-.14 2.95-.7 4.07-1.54 6.17 1.68 1.68 2.67 4.77 4.63 6.17 4.21 3.09 18.94 4.77 23.57.98 2.24-.84 2.53-2.53 4.07-4.07-.42-11.36-15.85-23.01-7.72-31.71-.56-1.26-2.1-1.54-2.53-2.53l.56-6.59c-.98-3.23-6.59-15.85-8.7-17.96.28-3.09 2.24-4.07 4.07-5.61-.14-5.75-5.33-5.61-8.7-8.14-1.96-1.54-1.96-4.21-3.65-6.17-.84-1.12-3.51-2.81-4.63-3.65v-6.59c.84-1.82 3.51-1.96 5.05-3.09l9.68-9.68c2.1-1.4 5.61-1.12 7.72-2.53h.56c-.7-1.82-2.24-2.95-3.65-4.07.14-1.12.14-.98.56-1.54.7-1.4 1.96-2.1 3.65-2.53.28-1.68-.14-4.49.56-5.61l7.15-7.72c1.96-1.26 3.79.14 5.05-3.09l.56-.56h-.56c-2.26-5.01-10.96-2.76-13.21-10.2m-47.13-20.06c3.93.14 8.56 3.09 10.24 5.61l.56.56h-.56c-.42 1.12-.56 1.12-.98 2.1-2.24 0-10.52-.56-11.22-.98-1.4-.42-1.54-.84-2.53-1.54.7-2.52 3.08-3.65 4.49-5.75m10.8 129.06c-2.38 1.4-4.91-.28-7.15 1.54-3.23-.28-3.79-1.54-6.17-2.53-.14-.98-.84-1.96-.98-2.53v-6.17l.98-.98c-.42-.7-1.26-.7-2.1-.98.28-2.38.42-1.82 1.54-3.09 3.37 1.4 7.58 2.24 11.22 3.65.7 1.96 1.12 6.03 3.09 8.14-.01 1.27-.01 2.25-.43 2.95m-12.91-35.77c0-2.67.28-4.07.98-5.61 2.67.14 3.37.7 5.05 1.54.7 2.81 4.07 6.87 2.53 9.26-.28 2.81-1.12 3.23-3.09 4.07-1.26.98-5.89-.98-6.59-3.65l-.56-.56 1.54-1.54c-.56-1.55-1.4-2.25.14-3.51m8.7-33.81c-3.23 0-3.51-.84-5.61-1.54v-.56l3.09-2.53h4.07l2.1 2.1c-.84 1.69-2.11 1.41-3.65 2.53m2.1 48.12-.56 3.09c-4.35.84-6.87-.42-10.24-1.54l-.56-1.54c.98-.42 1.82-.84 2.53-1.54 2.81-.14 5.75-.28 7.15.98zm2.53-57.38c-3.79-.14-5.61-.84-7.72.98-6.17 0-6.31-2.67-9.26-5.61.28-3.93 1.96-3.93 3.65-6.17 5.05.84 10.52 4.77 14.31 7.15 0 2.25-.42 2.25-.98 3.65m-11.22-17.95c.42-1.96.7-1.82 1.54-3.09 2.53-.14 4.35-.14 5.61.98h.98c-.28 1.68-.56 1.96-.98 3.09-3.37 1.54-4.63.7-7.15-.98m13.89-17.82c-.56 1.68-1.68 2.67-3.09 3.65.42 1.82 1.4 2.95 3.09 3.65v.98c-1.12.84-1.54 1.54-3.09 2.1-1.68 1.26-8.14 1.54-10.24 0-4.21-1.82.14-7.01.56-10.8 3.93.14 7.58 1.12 10.24-.98 1.96.14 1.82-.28 2.53.98l.56.56zM216.46 15.98c1.54-4.35.14-5.05 3.65-7.72-.7-3.09-2.1-4.91-3.65-7.15-4.77-.28-8.84-1.12-14.31-.98-1.12.7-2.81.28-4.07.98l-2.53 2.53c-1.82 7.01-2.38 12.35 3.65 15.85 0 5.47-5.05 8.28.56 13.89 0 2.67-.42 3.51-2.1 4.63.28 3.51 1.82 3.93 2.53 6.17 1.12 3.37-2.1 4.91-.98 8.14l1.54 1.54-.56 21.04c.56 2.38 2.95 4.77 2.1 8.14-.98 3.51-4.77 7.86-7.15 10.24.56 2.24 3.37 4.07 5.05 5.19-.28 3.23-2.95 4.77-5.05 6.17.42 6.03 5.75 7.01 7.15 12.35 1.26 4.63-3.09 9.54-4.07 12.77l3.65 3.65c-.56 6.45-9.26 11.5-3.09 19.92-1.26 7.58-4.77 5.05-7.72 8.7-1.54 1.96.14 3.09-2.53 4.07-1.68.7-13.05-3.93-15.29-5.05-1.12-5.89-2.1-7.58-5.61-10.8.14-5.19 1.82-12.06 5.05-14.31v-.98c-1.54.56-1.54.98-3.09 1.54-.84-.84-1.96-1.54-3.09-2.1l.56-.56c.84-1.82 2.95-2.24 4.63-3.09-.42-2.81-3.65-5.47-5.61-6.59-.14-1.68-.42-2.24 0-3.09.28-3.79 1.96-3.37 3.65-5.61.28-.14-2.1-3.51-2.53-5.05 1.96-1.82 4.49-4.07 6.59-5.61-.84-3.51-4.91-3.09-6.59-5.61-.7-1.12-.7-2.53-1.54-3.65.28-2.1 1.12-3.09 2.53-4.07-.14-3.51-1.68-6.31-3.65-8.14.28-4.91 2.38-6.31-.98-9.68.42-2.81 1.26-3.23 3.65-4.07-.28-4.91-3.65-5.75-4.63-9.26-.7-2.53 1.4-3.65 1.54-5.19l-2.1-6.59 2.53-2.53c-.14-2.38-1.4-3.93-.98-5.61.42-1.96 2.24-4.63.98-8.7-.42-1.54-2.1-3.93-2.53-5.61-.56-1.96.42-3.09 0-4.07.42-.42 1.54-.28 2.53-.98 2.53-.98 2.67-3.23 4.07-5.19-.28-3.51-1.68-8.84-3.65-11.22-.7-.98-1.96-2.24-3.09-2.53l-8.14.56c-7.44 0-16.97-2.1-21.46 1.54-1.54.56-1.54.42-2.1 2.1-.84 2.1 2.38 3.93 3.09 6.17l-.56 5.05c.84 1.96 5.33 3.09 4.07 7.15-.42 1.4-1.96 2.38-2.53 4.07-1.54 3.51 2.67 7.44 3.65 10.24v13.89c-.7 2.95 1.4 5.61.56 8.7-.56 1.82-3.51 4.21-2.53 7.15.28.84 1.68 2.1 2.1 3.09v8.14c0 .28 1.12 1.68.98 2.1-.14 1.82-2.81 3.09-3.09 4.63-.56 2.67 2.67 3.93 2.1 6.59-.28 1.54-2.24 3.51-2.53 5.19-.14.42 1.96 8.14 2.1 8.7 1.68 5.89-4.91 9.12 0 15.29-.42 3.65-2.67 3.51-3.65 6.59-.56 1.26.28 2.24 1.54 3.09-1.26 1.54-4.07 1.96-6.17 3.09.14 6.59 4.77 8 6.59 12.35v5.61l3.65 3.65 3.65 9.68 4.07 3.09c3.37 3.23 4.49 7.15 9.26 9.26 6.31 2.67 13.47 1.54 21.46 3.09 3.51.7 10.66-.14 14.31-1.54 1.96-.7 11.22-6.59 12.35-8.14l1.54-4.07c1.12-1.68 4.07-2.24 5.05-4.07.98-1.82 0-3.65.98-5.61l5.19-5.05.56-4.63c.28-.7 1.54-1.68 2.1-2.53.28-.28-5.89-8.42-7.15-9.68.42-3.09 1.96-3.79 2.53-6.17.84-3.51-1.82-11.78-3.65-13.33.14-3.23 1.54-4.07 4.63-4.07.28-1.68-1.54-9.68-3.09-11.22.14-2.81 3.09-6.59 4.63-8.14-.56-3.23-2.81-3.37-3.65-5.61-2.53-7.01-.14-14.73.98-20.48.7-3.09-1.12-4.77-1.54-6.59-.56-2.81 2.1-4.21 1.54-6.59-.42-1.82-3.51-2.95-2.53-6.17.28-.98 2.24-2.1 2.53-3.09.14-.42 1.54-17.96 1.54-17.96-.42-1.54-2.38-3.23-3.65-4.07.04-4.77 2.28-4.63 3.27-7.16M91.46 200.18c-1.12-2.81-4.49-5.61-6.59-7.72-6.87.14-8.42 3.65-12.35 6.59-.7.56-1.68.28-2.1.98-.98 1.96.56 3.93-.98 5.05-1.4 1.12-3.51.56-5.19 1.54-1.96 1.12-1.82 4.49-3.65 5.61-2.95 1.96-4.21-1.12-7.15 2.53h-2.38l-5.61-8.7c-.42-.7-.42-1.26-.56-2.53 1.68-.14 1.96-.56 3.09 0h.98c-1.12-4.07-4.91-5.05-6.17-8.7 1.82-1.68 5.75-4.35 6.59-6.59.42-.56.14-.14.56-.98-4.07-2.1-6.17-2.95-7.72-7.72-.7-2.1-.42-3.65-1.54-5.05.14-5.75 2.67-2.67 4.07-5.61 1.12-2.1-.14-2.81 1.54-4.07-.56-1.54-3.93-7.01-5.05-8.14.56-2.53 2.1-2.38 4.07-3.09.28-.84.14-.56.56-.98v-.98l-3.65.98-1.54-1.54c.56-3.65 2.53-3.23 4.63-5.05h.56c-.7-1.96-3.51-3.93-5.05-5.05.14-6.87 3.09-5.89 4.63-9.68.98-2.53-6.31-13.47-7.15-16.83-1.26-4.63 4.49-5.89-.98-10.24.28-4.21 3.23-6.59 5.61-8.7-.28-2.53-1.12-3.37-2.53-4.63 0-1.96.7-6.17 1.54-7.72.42-.84 2.24-.98 2.53-2.1 1.4-4.21-3.79-5.19 1.54-8.7-.14-2.67-.42-3.09-2.1-4.07 0-1.96.14-2.67.98-3.65.28-.14 12.21.56 12.77.98 4.91 1.82 3.37 9.26 6.17 13.33l3.09 2.1c2.1 1.96 3.37 4.21 5.19 6.59 1.4 1.82 3.79 2.81 5.19 4.63 1.96 0 3.09-.14 4.07-.98 3.93-2.67 4.49-8.84 7.72-12.35-.42-4.07-2.53-5.05-3.65-7.72v-7.15c-.7-2.67-2.81-5.05-4.07-7.15-5.05-1.96-11.08-2.24-15.29-3.65-3.51-1.12-7.3-3.93-11.22-4.63-2.53-.42-6.03 1.96-8.14 2.53l-9.26.56c-1.68.7-3.09 2.67-4.63 3.65-2.38 1.4-8.84 3.37-11.22 4.07l.56 6.17c-.42 1.26-2.1 2.53-2.53 3.65l-.56 3.65-7.72 7.15c-1.54 2.24-1.68 5.19-3.65 7.15.28 2.53 1.4 3.93 3.65 4.63-.56 3.09-2.24 7.15-4.63 9.68.98 5.33 5.75 9.82-.56 13.89 1.4 8 3.51 10.38-3.09 16.41.14 3.23 1.54 3.51 3.65 4.63v.98l-4.63 4.63c1.54 3.93 5.19 7.15 5.61 12.35-3.09 3.09-3.51 3.93-7.72 6.17.56 2.38 2.24 1.54 3.09 3.09l-.56 6.17c.56 1.68 3.23 3.65 4.63 4.63-1.12 4.91.42 6.31 1.54 11.22v5.61c1.26 2.81 8 3.51 4.63 8.14.14 6.45 3.23 3.51 4.63 6.59l-.56 3.51c.28.98 2.1 2.1 2.53 3.09l.56 4.63 3.65 2.1c2.81 2.38 4.07 6.17 7.15 8.14 0 2.24 0 3.51-.98 4.63 1.4 2.1 7.44 2.95 9.68 4.07 3.93 2.1 7.44 5.05 12.35 6.17 3.09.7 6.03-1.4 8.14-2.1 7.58-2.24 8.28-2.53 13.89-6.17.98-.7 2.38-.7 3.09-1.54 2.81-3.23 4.07-7.3 6.59-10.8 2.24-3.09 8.56-3.93 9.68-7.72 1.26-2.24-1.96-4.91-2.53-6.59zM93.98 11.35c2.67-.14 2.67-.56 4.07-1.54-.14-1.96-.42-1.96-.98-3.09-1.82-.7-3.23-1.4-5.61-1.54-1.82 1.54-8.56 1.12-9.68 3.09 0 0 1.12 7.15.56 9.26-.98 3.79-3.23 4.63-5.19 7.15 1.82 1.68 2.95 3.93 4.63 5.61.14 3.09.14 4.21-2.53 4.63 1.96 4.77 2.1 5.75 2.53 10.8 2.67.56 9.12 2.38 10.8 1.54 2.81 0 3.51-.42 4.07-2.53.42-.56.14-.14.56-.98l-.98-.98c-2.24.14-4.21.84-5.61 0-1.26-.42-.84-.56-2.1-.98-.42-2.38-2.24-7.15-.56-9.68.28-3.51 3.37-3.93 5.61-5.19-.14-1.12-.14-.98-.56-1.54-1.12-1.82-4.07-1.82-5.05-3.65-1.96-2.95.98-9.26 2.1-11.22 2.1-.28 3.08-.28 3.92.84M40.81 38.43l4.63 1.54h2.53c-.42-1.54-.98-11.08.98-13.89 1.12-.84 4.21-1.54 4.63-1.54 1.68.28 1.54.42 2.53.98-.14 5.89-2.53 9.54-2.1 14.31 3.93.42 6.03.42 8.14-2.1 1.68-2.53-.28-7.86.56-11.22 2.38-9.54 2.81-18.66-1.54-25.53L55 1.54v1.54c.84-.28.84-.42 2.1-.56l.56.56c-.14.98-.14.98-.56 1.54-1.12.56-1.12.14-2.53 0 .84 1.54 2.67 5.33.98 7.72-.56 1.4-.98 1.12-1.54 2.53-1.82-.14-2.81-.42-3.65 0-1.12-.14-1.26-.28-2.1-.56-.14-5.61 0-8 0-14.31-2.1 0-3.51.14-4.63.98-4.49 3.09-.42 6.73-2.1 12.35-.42 1.54-1.68 4.21-2.1 6.17s.7 3.37.98 4.63c1.81 5.88-1.28 10.37.4 14.3M12.2 7.29l1.54 1.54c-.42 6.17 1.68 22.87-2.1 28.2.28 2.53 1.12 2.95 2.1 4.63 3.37 0 4.21-.84 6.17-2.1 0-3.51.56-6.31.98-8.7l-.56-12.35c.14-2.95 2.1-6.31 0-8.7.14-1.12.28-1.26.56-2.1 1.96-.28 2.24-.14 4.63 0l.56-1.54c.42-.56.14-.14.56-.98l-3.09-2.53c-1.12-.42-10.8-.98-11.78-.98-.84.7-1.68.84-3.09.98-.28.7-.56 1.12-.98 1.54.28 2.24.7 2.24 1.54 3.65z"/></svg>