<?xml version="1.0" encoding="UTF-8" standalone="no"?>
<!-- Generator: Adobe Illustrator 27.0.0, SVG Export Plug-In . SVG Version: 6.00 Build 0)  -->

<svg
   version="1.1"
   id="Layer_1"
   x="0px"
   y="0px"
   viewBox="0 0 511.98752 242.52089"
   xml:space="preserve"
   sodipodi:docname="thecure.svg"
   width="511.98752"
   height="242.52089"
   inkscape:version="1.4.2 (ebf0e940, 2025-05-08)"
   xmlns:inkscape="http://www.inkscape.org/namespaces/inkscape"
   xmlns:sodipodi="http://sodipodi.sourceforge.net/DTD/sodipodi-0.dtd"
   xmlns="http://www.w3.org/2000/svg"
   xmlns:svg="http://www.w3.org/2000/svg"><defs
   id="defs1" /><sodipodi:namedview
   id="namedview1"
   pagecolor="#ffffff"
   bordercolor="#000000"
   borderopacity="0.25"
   inkscape:showpageshadow="2"
   inkscape:pageopacity="0.0"
   inkscape:pagecheckerboard="0"
   inkscape:deskcolor="#d1d1d1"
   inkscape:zoom="0.89700228"
   inkscape:cx="139.91046"
   inkscape:cy="143.81234"
   inkscape:window-width="1336"
   inkscape:window-height="811"
   inkscape:window-x="0"
   inkscape:window-y="38"
   inkscape:window-maximized="0"
   inkscape:current-layer="Layer_1" />
<g
   id="XMLID_1_"
   transform="translate(-0.09,-134.78)">
	<path
   id="XMLID_3_"
   d="m 509.89,313.5 c 0.28,-1.68 2.67,-3.09 2.1,-5.61 -1.4,-5.75 -4.35,-3.79 -2.53,-12.35 -1.26,-1.26 -2.67,-3.23 -3.65,-4.63 -1.96,-0.42 -2.95,-0.98 -5.61,-0.98 -3.51,3.65 -7.58,6.73 -11.78,9.68 -0.14,1.96 -0.7,3.37 0,4.63 -4.21,3.23 -4.07,0.56 -7.15,6.17 -3.93,0.84 -10.94,0.98 -13.89,-0.98 -2.38,-0.7 -3.65,-2.24 -2.1,-4.07 -0.14,-4.21 -2.38,-5.19 -5.19,-6.59 0.7,-2.67 1.54,-6.45 2.53,-8.7 2.53,-0.84 7.15,-1.4 9.68,-1.54 -0.7,-1.82 -7.44,-7.01 -9.26,-8.14 0.28,-1.82 0.42,-2.24 1.54,-3.09 -0.84,-3.51 -8.14,-8.7 -4.07,-14.87 0.42,-3.93 3.93,-7.44 6.59,-9.26 -0.7,-1.12 -1.82,-0.42 -3.09,-2.1 h -0.56 c 0.84,-2.38 2.53,-3.23 3.65,-5.61 -2.24,-1.4 -4.07,-3.51 -6.17,-5.19 0,-1.26 0,-1.96 0.56,-2.53 0.56,-1.54 1.12,-1.4 2.1,-2.53 10.8,-0.42 8.56,4.35 14.31,8.14 1.4,0.98 5.05,1.54 6.59,0.56 2.53,-0.98 2.38,-2.81 3.65,-5.05 5.75,-11.08 0,-17.12 -5.05,-24.55 -8.7,0.7 -8.98,9.82 -19.5,3.65 -0.28,-0.84 -0.14,-0.56 -0.56,-0.98 0.28,-1.96 0.98,-3.37 2.1,-4.63 -0.28,-4.21 -2.53,-4.07 -3.09,-7.72 -1.26,-3.37 6.03,-8.84 2.53,-12.77 0.7,-3.23 4.91,-3.37 7.15,-4.63 v -0.98 l -6.17,-3.09 c -1.54,-1.54 -1.12,-3.37 -3.09,-4.63 0,-3.79 0.84,-5.05 0.98,-8.14 2.67,-0.84 4.91,-0.84 6.59,-2.53 l 0.56,-0.56 c -3.09,-0.98 -7.58,-2.53 -10.24,-4.07 0.7,-5.19 4.77,-2.81 8.14,-5.19 0.98,-0.7 1.54,-4.07 2.1,-5.05 9.26,0.42 18.24,11.08 21.46,17.96 2.24,0.56 6.59,2.38 8.7,0.98 2.24,-0.28 2.53,-0.7 4.07,-1.54 0.56,-2.38 1.26,-5.47 2.53,-7.15 0,-6.45 -2.67,-4.91 -4.07,-8.14 -1.54,-3.37 0.28,-5.89 -2.53,-8.14 -4.07,-3.09 -23.99,-4.07 -30.72,-4.07 v 0.98 c -7.72,-1.54 -18.38,-0.42 -25.53,0.56 -3.09,0.42 -7.44,-1.12 -10.8,0 -2.24,0.84 -4.35,2.95 -6.17,4.07 v 0.98 c 2.95,2.67 12.21,8.84 7.72,15.29 0,4.21 -3.79,6.87 -6.59,8.14 0.56,0.84 1.4,0.84 2.1,1.54 1.54,1.82 1.54,4.91 3.09,6.59 -0.14,5.05 -3.93,9.12 -6.59,11.78 0.42,2.24 1.96,2.67 3.65,3.65 -0.28,1.54 -1.96,3.93 -0.98,6.17 0.7,1.96 4.35,5.05 2.1,8.7 -0.98,2.67 -4.91,2.95 -7.15,4.07 0.7,1.82 2.1,2.67 4.07,3.09 -0.56,1.54 -0.84,1.82 -2.1,2.53 0.42,2.81 1.82,3.23 2.53,5.61 -1.82,1.4 -3.23,1.82 -5.61,3.09 l 0.56,3.65 c 1.96,0.98 5.05,1.68 7.15,2.53 -0.14,1.12 -0.14,1.4 -0.56,2.1 -0.42,0.84 -6.45,3.37 -7.72,4.07 1.12,5.05 8.84,3.23 10.8,8.14 0.42,0.7 -0.56,2.67 -1.54,3.65 0.14,3.37 1.26,5.05 3.09,6.59 -0.14,3.79 -5.33,12.63 -7.72,14.31 0.84,1.54 3.09,1.82 4.63,2.53 0,3.65 -0.98,5.75 -1.54,8.14 -0.56,2.81 1.54,3.93 0.98,6.17 -0.14,0.7 -1.54,2.53 -2.1,3.09 0.42,2.1 1.54,2.67 3.09,3.65 -1.4,1.82 -4.77,2.53 -6.59,4.07 0,2.67 0.42,4.63 1.54,6.17 -1.26,1.82 -5.33,0.42 -7.15,1.54 l -1.54,0.56 c 2.1,3.09 8,2.53 9.26,6.17 0.42,0.98 0.28,1.12 -0.56,2.1 1.54,7.44 11.08,3.23 18.38,5.05 2.95,0.7 6.87,2.38 9.68,3.09 l 7.15,-0.98 c 7.86,1.26 19.36,2.38 28.2,0.56 5.89,-1.26 10.8,0.7 14.31,-2.53 2.1,-0.7 5.75,-4.49 5.19,-7.72 -0.03,-1.11 -1.15,-1.39 -0.87,-2.93 z" />
	<path
   id="XMLID_13_"
   d="m 360.9,178.4 c -1.4,-3.23 0.7,-9.54 -2.1,-13.33 L 353.19,161 c -2.24,-2.95 -4.07,-8.7 -7.15,-10.8 l -6.17,-0.98 -2.1,-3.65 c -0.84,-0.56 -10.24,-3.79 -11.22,-4.07 -5.33,-1.54 -14.03,-0.98 -18.38,0 h -8.7 c -1.12,0.28 -3.37,1.82 -4.07,2.1 -0.28,0.14 -2.38,-0.98 -2.53,-0.98 -1.26,-0.28 -3.09,0.42 -3.65,0.56 -1.96,0.28 -5.89,-0.56 -8.7,-0.56 -1.82,1.96 -4.91,4.21 -7.15,5.61 0.28,6.45 3.09,9.96 3.09,16.83 l -2.53,3.65 c -1.4,0.98 -2.1,0.7 -3.09,2.1 2.53,2.53 4.63,5.19 7.72,7.15 -1.96,3.51 -0.98,8.14 2.53,10.24 -0.14,3.79 -2.24,5.05 -4.07,7.15 0.56,2.53 2.38,3.37 4.07,4.63 -0.28,6.03 -4.77,4.63 -6.17,9.26 h -0.56 c 1.26,3.51 5.05,7.86 7.72,10.24 -0.28,5.75 -2.95,8.98 -4.07,13.33 -0.84,3.09 0.98,3.79 -0.56,5.61 0.14,3.79 1.54,5.19 4.07,6.59 -0.14,3.65 -2.81,5.75 -5.19,7.15 v 1.54 c 1.4,0.14 2.67,0.42 3.65,0.98 l 1.54,0.56 c -0.14,1.12 -0.14,0.98 -0.56,1.54 -0.7,1.54 -2.24,2.1 -4.07,2.53 0.56,4.21 2.67,4.63 2.53,10.24 -1.96,1.82 -5.33,3.79 -6.59,6.17 h -0.56 v 0.56 c 1.54,0 3.23,-0.14 4.07,0.56 2.38,0 3.23,0.28 4.63,0.98 -0.28,1.54 -0.28,1.68 -0.98,2.53 -1.96,1.54 -4.91,-0.14 -7.72,0.98 -1.54,0.7 -3.09,3.09 -4.63,4.07 0.28,2.67 0.84,2.1 2.1,3.65 1.68,-0.42 2.24,-0.98 4.63,-0.98 1.4,1.54 7.58,9.68 8.7,10.24 h 2.53 l 3.65,2.53 c -2.24,2.38 -5.19,1.82 -8.14,3.65 -4.49,-0.14 -4.21,0.84 -6.17,3.09 v 4.07 c 0.84,1.4 5.33,1.54 6.59,2.53 l 3.09,3.65 c -0.42,0.7 0.7,1.12 0,2.53 -0.56,1.26 -1.68,0.84 -2.1,3.09 4.07,0.28 8.98,-1.12 13.89,0 4.77,1.12 12.21,2.95 15.29,-0.98 0,-0.84 -0.14,-0.42 -0.98,-1.54 l 4.63,-4.63 c -0.28,-4.63 -2.53,-6.45 -3.65,-9.68 -0.84,-2.95 1.26,-5.05 0,-7.15 -0.14,-6.31 2.53,-5.33 6.17,-7.72 2.81,0.14 13.19,4.63 14.87,6.17 0.7,1.12 0,2.95 0.56,4.63 0.7,2.24 3.37,4.77 5.05,6.17 -0.14,2.95 -0.7,4.07 -1.54,6.17 1.68,1.68 2.67,4.77 4.63,6.17 4.21,3.09 18.94,4.77 23.57,0.98 2.24,-0.84 2.53,-2.53 4.07,-4.07 -0.42,-11.36 -15.85,-23.01 -7.72,-31.71 -0.56,-1.26 -2.1,-1.54 -2.53,-2.53 l 0.56,-6.59 c -0.98,-3.23 -6.59,-15.85 -8.7,-17.96 0.28,-3.09 2.24,-4.07 4.07,-5.61 -0.14,-5.75 -5.33,-5.61 -8.7,-8.14 -1.96,-1.54 -1.96,-4.21 -3.65,-6.17 -0.84,-1.12 -3.51,-2.81 -4.63,-3.65 v -6.59 c 0.84,-1.82 3.51,-1.96 5.05,-3.09 l 9.68,-9.68 c 2.1,-1.4 5.61,-1.12 7.72,-2.53 h 0.56 c -0.7,-1.82 -2.24,-2.95 -3.65,-4.07 0.14,-1.12 0.14,-0.98 0.56,-1.54 0.7,-1.4 1.96,-2.1 3.65,-2.53 0.28,-1.68 -0.14,-4.49 0.56,-5.61 l 7.15,-7.72 c 1.96,-1.26 3.79,0.14 5.05,-3.09 l 0.56,-0.56 h -0.56 c -2.26,-5.01 -10.96,-2.76 -13.21,-10.2 z m -47.13,-20.06 c 3.93,0.14 8.56,3.09 10.24,5.61 l 0.56,0.56 h -0.56 c -0.42,1.12 -0.56,1.12 -0.98,2.1 -2.24,0 -10.52,-0.56 -11.22,-0.98 -1.4,-0.42 -1.54,-0.84 -2.53,-1.54 0.7,-2.52 3.08,-3.65 4.49,-5.75 z m 10.8,129.06 c -2.38,1.4 -4.91,-0.28 -7.15,1.54 -3.23,-0.28 -3.79,-1.54 -6.17,-2.53 -0.14,-0.98 -0.84,-1.96 -0.98,-2.53 v -6.17 l 0.98,-0.98 c -0.42,-0.7 -1.26,-0.7 -2.1,-0.98 0.28,-2.38 0.42,-1.82 1.54,-3.09 3.37,1.4 7.58,2.24 11.22,3.65 0.7,1.96 1.12,6.03 3.09,8.14 -0.01,1.27 -0.01,2.25 -0.43,2.95 z m -12.91,-35.77 c 0,-2.67 0.28,-4.07 0.98,-5.61 2.67,0.14 3.37,0.7 5.05,1.54 0.7,2.81 4.07,6.87 2.53,9.26 -0.28,2.81 -1.12,3.23 -3.09,4.07 -1.26,0.98 -5.89,-0.98 -6.59,-3.65 l -0.56,-0.56 1.54,-1.54 c -0.56,-1.55 -1.4,-2.25 0.14,-3.51 z m 8.7,-33.81 c -3.23,0 -3.51,-0.84 -5.61,-1.54 v -0.56 l 3.09,-2.53 h 4.07 l 2.1,2.1 c -0.84,1.69 -2.11,1.41 -3.65,2.53 z m 2.1,48.12 -0.56,3.09 c -4.35,0.84 -6.87,-0.42 -10.24,-1.54 l -0.56,-1.54 c 0.98,-0.42 1.82,-0.84 2.53,-1.54 2.81,-0.14 5.75,-0.28 7.15,0.98 z m 2.53,-57.38 c -3.79,-0.14 -5.61,-0.84 -7.72,0.98 -6.17,0 -6.31,-2.67 -9.26,-5.61 0.28,-3.93 1.96,-3.93 3.65,-6.17 5.05,0.84 10.52,4.77 14.31,7.15 0,2.25 -0.42,2.25 -0.98,3.65 z m -11.22,-17.95 c 0.42,-1.96 0.7,-1.82 1.54,-3.09 2.53,-0.14 4.35,-0.14 5.61,0.98 h 0.98 c -0.28,1.68 -0.56,1.96 -0.98,3.09 -3.37,1.54 -4.63,0.7 -7.15,-0.98 z m 13.89,-17.82 c -0.56,1.68 -1.68,2.67 -3.09,3.65 0.42,1.82 1.4,2.95 3.09,3.65 v 0.98 c -1.12,0.84 -1.54,1.54 -3.09,2.1 -1.68,1.26 -8.14,1.54 -10.24,0 -4.21,-1.82 0.14,-7.01 0.56,-10.8 3.93,0.14 7.58,1.12 10.24,-0.98 1.96,0.14 1.82,-0.28 2.53,0.98 l 0.56,0.56 z" />
	<path
   id="XMLID_14_"
   d="m 216.55,150.76 c 1.54,-4.35 0.14,-5.05 3.65,-7.72 -0.7,-3.09 -2.1,-4.91 -3.65,-7.15 -4.77,-0.28 -8.84,-1.12 -14.31,-0.98 -1.12,0.7 -2.81,0.28 -4.07,0.98 l -2.53,2.53 c -1.82,7.01 -2.38,12.35 3.65,15.85 0,5.47 -5.05,8.28 0.56,13.89 0,2.67 -0.42,3.51 -2.1,4.63 0.28,3.51 1.82,3.93 2.53,6.17 1.12,3.37 -2.1,4.91 -0.98,8.14 l 1.54,1.54 -0.56,21.04 c 0.56,2.38 2.95,4.77 2.1,8.14 -0.98,3.51 -4.77,7.86 -7.15,10.24 0.56,2.24 3.37,4.07 5.05,5.19 -0.28,3.23 -2.95,4.77 -5.05,6.17 0.42,6.03 5.75,7.01 7.15,12.35 1.26,4.63 -3.09,9.54 -4.07,12.77 l 3.65,3.65 c -0.56,6.45 -9.26,11.5 -3.09,19.92 -1.26,7.58 -4.77,5.05 -7.72,8.7 -1.54,1.96 0.14,3.09 -2.53,4.07 -1.68,0.7 -13.05,-3.93 -15.29,-5.05 -1.12,-5.89 -2.1,-7.58 -5.61,-10.8 0.14,-5.19 1.82,-12.06 5.05,-14.31 v -0.98 c -1.54,0.56 -1.54,0.98 -3.09,1.54 -0.84,-0.84 -1.96,-1.54 -3.09,-2.1 l 0.56,-0.56 c 0.84,-1.82 2.95,-2.24 4.63,-3.09 -0.42,-2.81 -3.65,-5.47 -5.61,-6.59 -0.14,-1.68 -0.42,-2.24 0,-3.09 0.28,-3.79 1.96,-3.37 3.65,-5.61 0.28,-0.14 -2.1,-3.51 -2.53,-5.05 1.96,-1.82 4.49,-4.07 6.59,-5.61 -0.84,-3.51 -4.91,-3.09 -6.59,-5.61 -0.7,-1.12 -0.7,-2.53 -1.54,-3.65 0.28,-2.1 1.12,-3.09 2.53,-4.07 -0.14,-3.51 -1.68,-6.31 -3.65,-8.14 0.28,-4.91 2.38,-6.31 -0.98,-9.68 0.42,-2.81 1.26,-3.23 3.65,-4.07 -0.28,-4.91 -3.65,-5.75 -4.63,-9.26 -0.7,-2.53 1.4,-3.65 1.54,-5.19 l -2.1,-6.59 2.53,-2.53 c -0.14,-2.38 -1.4,-3.93 -0.98,-5.61 0.42,-1.96 2.24,-4.63 0.98,-8.7 -0.42,-1.54 -2.1,-3.93 -2.53,-5.61 -0.56,-1.96 0.42,-3.09 0,-4.07 0.42,-0.42 1.54,-0.28 2.53,-0.98 2.53,-0.98 2.67,-3.23 4.07,-5.19 -0.28,-3.51 -1.68,-8.84 -3.65,-11.22 -0.7,-0.98 -1.96,-2.24 -3.09,-2.53 l -8.14,0.56 c -7.44,0 -16.97,-2.1 -21.46,1.54 -1.54,0.56 -1.54,0.42 -2.1,2.1 -0.84,2.1 2.38,3.93 3.09,6.17 l -0.56,5.05 c 0.84,1.96 5.33,3.09 4.07,7.15 -0.42,1.4 -1.96,2.38 -2.53,4.07 -1.54,3.51 2.67,7.44 3.65,10.24 v 13.89 c -0.7,2.95 1.4,5.61 0.56,8.7 -0.56,1.82 -3.51,4.21 -2.53,7.15 0.28,0.84 1.68,2.1 2.1,3.09 v 8.14 c 0,0.28 1.12,1.68 0.98,2.1 -0.14,1.82 -2.81,3.09 -3.09,4.63 -0.56,2.67 2.67,3.93 2.1,6.59 -0.28,1.54 -2.24,3.51 -2.53,5.19 -0.14,0.42 1.96,8.14 2.1,8.7 1.68,5.89 -4.91,9.12 0,15.29 -0.42,3.65 -2.67,3.51 -3.65,6.59 -0.56,1.26 0.28,2.24 1.54,3.09 -1.26,1.54 -4.07,1.96 -6.17,3.09 0.14,6.59 4.77,8 6.59,12.35 v 5.61 l 3.65,3.65 3.65,9.68 4.07,3.09 c 3.37,3.23 4.49,7.15 9.26,9.26 6.31,2.67 13.47,1.54 21.46,3.09 3.51,0.7 10.66,-0.14 14.31,-1.54 1.96,-0.7 11.22,-6.59 12.35,-8.14 l 1.54,-4.07 c 1.12,-1.68 4.07,-2.24 5.05,-4.07 0.98,-1.82 0,-3.65 0.98,-5.61 l 5.19,-5.05 0.56,-4.63 c 0.28,-0.7 1.54,-1.68 2.1,-2.53 0.28,-0.28 -5.89,-8.42 -7.15,-9.68 0.42,-3.09 1.96,-3.79 2.53,-6.17 0.84,-3.51 -1.82,-11.78 -3.65,-13.33 0.14,-3.23 1.54,-4.07 4.63,-4.07 0.28,-1.68 -1.54,-9.68 -3.09,-11.22 0.14,-2.81 3.09,-6.59 4.63,-8.14 -0.56,-3.23 -2.81,-3.37 -3.65,-5.61 -2.53,-7.01 -0.14,-14.73 0.98,-20.48 0.7,-3.09 -1.12,-4.77 -1.54,-6.59 -0.56,-2.81 2.1,-4.21 1.54,-6.59 -0.42,-1.82 -3.51,-2.95 -2.53,-6.17 0.28,-0.98 2.24,-2.1 2.53,-3.09 0.14,-0.42 1.54,-17.96 1.54,-17.96 -0.42,-1.54 -2.38,-3.23 -3.65,-4.07 0.04,-4.77 2.28,-4.63 3.27,-7.16 z" />
	<path
   id="XMLID_15_"
   d="m 91.55,334.96 c -1.12,-2.81 -4.49,-5.61 -6.59,-7.72 -6.87,0.14 -8.42,3.65 -12.35,6.59 -0.7,0.56 -1.68,0.28 -2.1,0.98 -0.98,1.96 0.56,3.93 -0.98,5.05 -1.4,1.12 -3.51,0.56 -5.19,1.54 -1.96,1.12 -1.82,4.49 -3.65,5.61 -2.95,1.96 -4.21,-1.12 -7.15,2.53 h -2.38 l -5.61,-8.7 c -0.42,-0.7 -0.42,-1.26 -0.56,-2.53 1.68,-0.14 1.96,-0.56 3.09,0 h 0.98 c -1.12,-4.07 -4.91,-5.05 -6.17,-8.7 1.82,-1.68 5.75,-4.35 6.59,-6.59 0.42,-0.56 0.14,-0.14 0.56,-0.98 -4.07,-2.1 -6.17,-2.95 -7.72,-7.72 -0.7,-2.1 -0.42,-3.65 -1.54,-5.05 0.14,-5.75 2.67,-2.67 4.07,-5.61 1.12,-2.1 -0.14,-2.81 1.54,-4.07 -0.56,-1.54 -3.93,-7.01 -5.05,-8.14 0.56,-2.53 2.1,-2.38 4.07,-3.09 0.28,-0.84 0.14,-0.56 0.56,-0.98 v -0.98 l -3.65,0.98 -1.54,-1.54 c 0.56,-3.65 2.53,-3.23 4.63,-5.05 h 0.56 c -0.7,-1.96 -3.51,-3.93 -5.05,-5.05 0.14,-6.87 3.09,-5.89 4.63,-9.68 0.98,-2.53 -6.31,-13.47 -7.15,-16.83 -1.26,-4.63 4.49,-5.89 -0.98,-10.24 0.28,-4.21 3.23,-6.59 5.61,-8.7 -0.28,-2.53 -1.12,-3.37 -2.53,-4.63 0,-1.96 0.7,-6.17 1.54,-7.72 0.42,-0.84 2.24,-0.98 2.53,-2.1 1.4,-4.21 -3.79,-5.19 1.54,-8.7 -0.14,-2.67 -0.42,-3.09 -2.1,-4.07 0,-1.96 0.14,-2.67 0.98,-3.65 0.28,-0.14 12.21,0.56 12.77,0.98 4.91,1.82 3.37,9.26 6.17,13.33 l 3.09,2.1 c 2.1,1.96 3.37,4.21 5.19,6.59 1.4,1.82 3.79,2.81 5.19,4.63 1.96,0 3.09,-0.14 4.07,-0.98 3.93,-2.67 4.49,-8.84 7.72,-12.35 -0.42,-4.07 -2.53,-5.05 -3.65,-7.72 v -7.15 c -0.7,-2.67 -2.81,-5.05 -4.07,-7.15 -5.05,-1.96 -11.08,-2.24 -15.29,-3.65 -3.51,-1.12 -7.3,-3.93 -11.22,-4.63 -2.53,-0.42 -6.03,1.96 -8.14,2.53 l -9.26,0.56 c -1.68,0.7 -3.09,2.67 -4.63,3.65 -2.38,1.4 -8.84,3.37 -11.22,4.07 l 0.56,6.17 c -0.42,1.26 -2.1,2.53 -2.53,3.65 l -0.56,3.65 -7.72,7.15 c -1.54,2.24 -1.68,5.19 -3.65,7.15 0.28,2.53 1.4,3.93 3.65,4.63 -0.56,3.09 -2.24,7.15 -4.63,9.68 0.98,5.33 5.75,9.82 -0.56,13.89 1.4,8 3.51,10.38 -3.09,16.41 0.14,3.23 1.54,3.51 3.65,4.63 v 0.98 l -4.63,4.63 c 1.54,3.93 5.19,7.15 5.61,12.35 -3.09,3.09 -3.51,3.93 -7.72,6.17 0.56,2.38 2.24,1.54 3.09,3.09 l -0.56,6.17 c 0.56,1.68 3.23,3.65 4.63,4.63 -1.12,4.91 0.42,6.31 1.54,11.22 v 5.61 c 1.26,2.81 8,3.51 4.63,8.14 0.14,6.45 3.23,3.51 4.63,6.59 l -0.56,3.51 c 0.28,0.98 2.1,2.1 2.53,3.09 l 0.56,4.63 3.65,2.1 c 2.81,2.38 4.07,6.17 7.15,8.14 0,2.24 0,3.51 -0.98,4.63 1.4,2.1 7.44,2.95 9.68,4.07 3.93,2.1 7.44,5.05 12.35,6.17 3.09,0.7 6.03,-1.4 8.14,-2.1 7.58,-2.24 8.28,-2.53 13.89,-6.17 0.98,-0.7 2.38,-0.7 3.09,-1.54 2.81,-3.23 4.07,-7.3 6.59,-10.8 2.24,-3.09 8.56,-3.93 9.68,-7.72 1.26,-2.24 -1.96,-4.91 -2.53,-6.59 z" />
	<path
   id="XMLID_16_"
   d="m 94.07,146.13 c 2.67,-0.14 2.67,-0.56 4.07,-1.54 -0.14,-1.96 -0.42,-1.96 -0.98,-3.09 -1.82,-0.7 -3.23,-1.4 -5.61,-1.54 -1.82,1.54 -8.56,1.12 -9.68,3.09 0,0 1.12,7.15 0.56,9.26 -0.98,3.79 -3.23,4.63 -5.19,7.15 1.82,1.68 2.95,3.93 4.63,5.61 0.14,3.09 0.14,4.21 -2.53,4.63 1.96,4.77 2.1,5.75 2.53,10.8 2.67,0.56 9.12,2.38 10.8,1.54 2.81,0 3.51,-0.42 4.07,-2.53 0.42,-0.56 0.14,-0.14 0.56,-0.98 l -0.98,-0.98 c -2.24,0.14 -4.21,0.84 -5.61,0 -1.26,-0.42 -0.84,-0.56 -2.1,-0.98 -0.42,-2.38 -2.24,-7.15 -0.56,-9.68 0.28,-3.51 3.37,-3.93 5.61,-5.19 -0.14,-1.12 -0.14,-0.98 -0.56,-1.54 -1.12,-1.82 -4.07,-1.82 -5.05,-3.65 -1.96,-2.95 0.98,-9.26 2.1,-11.22 2.1,-0.28 3.08,-0.28 3.92,0.84 z" />
	<path
   id="XMLID_17_"
   d="m 40.9,173.21 4.63,1.54 h 2.53 c -0.42,-1.54 -0.98,-11.08 0.98,-13.89 1.12,-0.84 4.21,-1.54 4.63,-1.54 1.68,0.28 1.54,0.42 2.53,0.98 -0.14,5.89 -2.53,9.54 -2.1,14.31 3.93,0.42 6.03,0.42 8.14,-2.1 1.68,-2.53 -0.28,-7.86 0.56,-11.22 2.38,-9.54 2.81,-18.66 -1.54,-25.53 l -6.17,0.56 v 1.54 c 0.84,-0.28 0.84,-0.42 2.1,-0.56 l 0.56,0.56 c -0.14,0.98 -0.14,0.98 -0.56,1.54 -1.12,0.56 -1.12,0.14 -2.53,0 0.84,1.54 2.67,5.33 0.98,7.72 -0.56,1.4 -0.98,1.12 -1.54,2.53 -1.82,-0.14 -2.81,-0.42 -3.65,0 -1.12,-0.14 -1.26,-0.28 -2.1,-0.56 -0.14,-5.61 0,-8 0,-14.31 -2.1,0 -3.51,0.14 -4.63,0.98 -4.49,3.09 -0.42,6.73 -2.1,12.35 -0.42,1.54 -1.68,4.21 -2.1,6.17 -0.42,1.96 0.7,3.37 0.98,4.63 1.81,5.88 -1.28,10.37 0.4,14.3 z" />
	<path
   id="XMLID_18_"
   d="m 12.29,142.07 1.54,1.54 c -0.42,6.17 1.68,22.87 -2.1,28.2 0.28,2.53 1.12,2.95 2.1,4.63 3.37,0 4.21,-0.84 6.17,-2.1 0,-3.51 0.56,-6.31 0.98,-8.7 l -0.56,-12.35 c 0.14,-2.95 2.1,-6.31 0,-8.7 0.14,-1.12 0.28,-1.26 0.56,-2.1 1.96,-0.28 2.24,-0.14 4.63,0 l 0.56,-1.54 c 0.42,-0.56 0.14,-0.14 0.56,-0.98 l -3.09,-2.53 c -1.12,-0.42 -10.8,-0.98 -11.78,-0.98 -0.84,0.7 -1.68,0.84 -3.09,0.98 -0.28,0.7 -0.56,1.12 -0.98,1.54 0.28,2.24 0.7,2.24 1.54,3.65 z" />
</g>
</svg>
