<?xml version="1.0" standalone="no"?>
<!DOCTYPE svg PUBLIC "-//W3C//DTD SVG 20010904//EN"
 "http://www.w3.org/TR/2001/REC-SVG-20010904/DTD/svg10.dtd">
<svg version="1.0" xmlns="http://www.w3.org/2000/svg"
 width="1588.000000pt" height="1270.000000pt" viewBox="0 0 1588.000000 1270.000000"
 preserveAspectRatio="xMidYMid meet">
<metadata>
Created by potrace 1.16, written by Peter Selinger 2001-2019
</metadata>
<g transform="translate(0.000000,1270.000000) scale(0.100000,-0.100000)"
fill="#000000" stroke="none">
<path d="M9701 12249 c-240 -65 -437 -266 -635 -650 -214 -414 -363 -941 -456
-1611 -11 -76 -22 -148 -25 -160 -3 -13 -16 -120 -30 -238 -75 -636 -66 -576
-96 -614 -24 -31 -37 -31 -249 -6 -131 15 -470 7 -588 -14 -84 -15 -116 -12
-139 16 -15 18 -29 79 -59 261 -54 333 -105 630 -127 737 -3 14 -13 63 -22
110 -27 146 -102 468 -141 605 -93 328 -201 603 -355 905 -155 305 -330 495
-527 573 -178 70 -383 21 -555 -134 -162 -145 -289 -398 -351 -704 -78 -381
-58 -959 50 -1455 66 -300 196 -704 309 -955 7 -16 31 -70 53 -120 22 -49 78
-169 125 -265 97 -197 117 -261 117 -370 0 -121 -16 -176 -92 -317 -229 -425
-289 -615 -314 -993 -13 -205 45 -549 127 -758 173 -438 489 -794 889 -1001
121 -62 165 -81 320 -136 274 -96 496 -135 795 -142 206 -5 268 -1 500 32 377
55 807 216 1105 416 449 300 743 830 767 1383 10 245 -47 588 -137 824 -28 73
-26 102 14 153 166 219 300 544 397 971 52 231 71 323 94 461 13 81 26 156 30
166 5 15 28 206 55 456 29 264 42 1299 19 1545 -26 288 -119 609 -222 767
-148 227 -398 329 -646 262z m289 -360 c181 -96 266 -324 312 -829 14 -160 14
-880 0 -1070 -16 -209 -61 -670 -66 -679 -3 -3 -9 -45 -16 -91 -14 -112 -65
-392 -91 -505 -89 -383 -121 -483 -214 -672 -69 -138 -114 -193 -160 -193 -13
0 -43 15 -68 34 -68 52 -86 60 -112 48 -41 -19 -36 -45 37 -198 194 -410 267
-748 239 -1110 -29 -377 -160 -682 -397 -926 -119 -122 -206 -188 -382 -290
-265 -153 -559 -260 -861 -315 -129 -24 -172 -27 -371 -27 -201 0 -241 3 -375
27 -329 59 -648 177 -868 320 -240 157 -426 366 -556 624 -139 277 -194 557
-171 879 25 344 154 665 399 989 24 33 100 116 167 185 130 133 147 163 120
205 -22 34 -59 32 -121 -5 -69 -41 -105 -39 -145 6 -43 49 -214 401 -293 604
-97 246 -176 496 -240 755 -118 476 -154 708 -164 1065 -11 426 49 702 201
914 59 83 161 178 223 210 221 111 466 -127 663 -644 63 -167 158 -449 200
-595 17 -60 40 -139 50 -175 27 -94 85 -336 115 -480 14 -69 32 -154 40 -190
8 -36 24 -119 35 -185 18 -105 31 -182 80 -503 6 -35 17 -136 25 -223 15 -169
23 -195 60 -209 21 -8 123 15 270 60 74 22 223 35 415 34 219 -1 314 -12 552
-61 139 -29 170 -29 182 2 8 22 29 157 61 390 62 447 92 645 136 880 38 207
106 516 149 675 100 369 129 465 193 630 117 304 266 536 399 621 108 69 240
76 348 18z"/>
<path d="M8997 7214 c-4 -4 -7 -40 -7 -81 l0 -73 -90 0 -90 0 0 -45 0 -45 89
0 c50 0 92 -4 96 -9 3 -6 8 -75 12 -155 l6 -146 43 0 43 0 3 153 3 152 93 3
93 3 -3 42 -3 42 -92 3 -92 3 -3 77 -3 77 -45 3 c-25 2 -49 0 -53 -4z"/>
<path d="M6673 7143 c-9 -3 -11 -24 -6 -78 l6 -74 -94 -3 -94 -3 0 -40 0 -40
90 -3 c50 -2 92 -8 96 -14 4 -6 10 -75 14 -155 l7 -144 40 3 40 3 1 150 2 150
93 3 92 3 0 44 0 44 -92 3 -93 3 0 75 -1 75 -44 1 c-25 1 -51 0 -57 -3z"/>
<path d="M7764 6466 c-79 -25 -145 -67 -192 -121 -39 -43 -75 -112 -67 -125 4
-6 160 -10 406 -10 454 0 423 -7 369 87 -89 156 -319 231 -516 169z"/>
<path d="M7085 4173 c-149 -20 -461 -187 -539 -289 -20 -26 -36 -51 -36 -57 0
-16 41 -77 51 -77 5 0 21 8 35 17 25 16 27 16 44 -7 l18 -23 26 28 c14 15 26
31 26 36 0 6 86 59 96 59 2 0 4 -7 4 -15 0 -8 -4 -15 -10 -15 -5 0 -10 -11
-10 -25 0 -36 -48 -196 -64 -214 -8 -9 -19 -50 -25 -91 -7 -41 -20 -113 -31
-160 -11 -47 -30 -139 -43 -205 l-23 -120 -62 -43 c-33 -24 -101 -78 -149
-120 -66 -59 -92 -88 -103 -120 -18 -53 -6 -69 37 -47 17 9 36 22 43 30 16 20
46 19 54 -1 8 -20 43 -13 97 22 22 13 44 22 50 18 6 -3 27 5 47 19 20 14 75
45 122 69 73 38 92 43 132 40 42 -3 51 0 76 25 16 15 35 27 43 25 14 -2 98 38
219 105 25 13 90 49 145 80 55 30 114 67 130 82 17 15 42 35 58 44 18 12 27
26 27 42 0 14 4 25 8 25 16 0 31 61 21 87 -30 79 -85 114 -214 133 -38 6 -71
13 -73 14 -1 2 34 41 78 87 83 85 150 181 150 215 1 11 7 30 15 44 24 42 19
102 -12 147 -46 67 -68 90 -108 117 -37 25 -42 26 -179 25 -78 -1 -154 -4
-171 -6z m185 -216 c0 -29 -75 -135 -152 -214 -45 -45 -84 -83 -87 -83 -10 0
-1 114 11 137 6 13 9 47 5 82 l-5 59 52 15 c66 20 176 22 176 4z m-150 -647
c0 -5 -18 -22 -40 -36 -21 -14 -51 -41 -65 -59 -26 -34 -110 -84 -121 -72 -4
4 -3 21 2 38 7 24 18 35 43 44 18 6 42 21 52 34 32 39 129 78 129 51z"/>
<path d="M8947 4149 c-8 -13 -24 -42 -35 -64 -16 -32 -38 -51 -113 -96 -104
-62 -115 -79 -75 -122 21 -23 29 -26 45 -17 38 20 55 6 28 -22 -8 -7 -12 -18
-10 -24 4 -11 -4 -35 -66 -214 -44 -127 -50 -133 -121 -110 -32 11 -44 9 -102
-14 -35 -14 -69 -26 -75 -26 -6 0 -8 45 -5 128 2 70 0 166 -6 213 -12 98 -54
230 -88 275 -46 62 -126 69 -179 16 -33 -33 -45 -62 -45 -109 0 -26 -18 -65
-67 -147 -36 -61 -72 -118 -78 -126 -7 -8 -44 -73 -82 -145 -142 -264 -138
-258 -217 -285 -63 -21 -136 -61 -168 -94 -21 -21 -25 -98 -5 -114 6 -6 24
-13 40 -17 33 -9 33 -10 5 -66 -22 -47 -27 -99 -14 -162 6 -31 14 -41 42 -53
53 -22 104 -4 167 59 122 121 197 208 228 268 29 54 42 68 82 87 26 12 61 25
77 28 l29 6 4 -128 c3 -71 5 -146 6 -168 0 -21 7 -49 16 -62 8 -13 16 -45 17
-71 2 -56 7 -70 19 -52 6 10 9 4 9 -18 0 -23 5 -33 15 -33 8 0 15 -7 15 -16 0
-8 4 -13 8 -10 5 3 12 61 16 128 9 163 16 221 27 233 5 5 9 1 9 -13 0 -20 2
-21 20 -10 13 9 20 24 20 45 0 18 11 74 24 125 13 51 27 112 31 136 4 27 13
45 23 49 10 3 65 25 123 49 59 24 109 44 112 44 4 0 0 -18 -8 -40 -8 -22 -14
-43 -14 -45 2 -25 -20 -78 -53 -129 -45 -69 -126 -231 -130 -260 -4 -25 17
-31 34 -11 45 54 68 67 68 40 0 -30 27 -26 64 10 21 19 46 35 57 35 12 0 50
30 88 68 38 37 86 81 107 98 82 67 105 90 108 109 2 11 12 22 24 25 12 3 40
30 64 60 24 31 78 92 121 137 43 44 95 103 115 131 20 28 43 52 50 52 18 0 92
78 92 96 0 8 4 13 8 10 13 -8 26 6 50 54 53 107 49 139 -29 212 -78 74 -154
91 -294 64 -59 -12 -72 -12 -91 0 -12 8 -44 17 -72 21 -45 5 -51 3 -65 -18z
m353 -150 c0 -12 -37 -12 -45 0 -3 5 3 11 12 13 21 5 33 0 33 -13z m-10 -45
c0 -13 -92 -137 -202 -271 -59 -73 -148 -157 -156 -148 -3 3 2 22 11 42 8 21
34 88 58 148 87 229 85 226 199 243 64 9 90 5 90 -14z m-1167 -437 c3 -8 8
-43 12 -79 l7 -66 -42 -7 c-23 -4 -43 -5 -45 -3 -7 6 46 168 55 168 4 0 10 -6
13 -13z"/>
<path d="M7833 2696 c-86 -94 -150 -232 -223 -481 -46 -154 -99 -314 -111
-330 -4 -5 -31 -70 -59 -144 -68 -172 -118 -240 -216 -293 -38 -21 -76 -38
-85 -38 -24 0 -53 36 -45 56 4 10 1 49 -5 89 -10 60 -10 82 5 145 9 41 29 101
45 135 16 33 55 119 86 190 32 72 61 135 66 141 20 25 102 231 100 252 -2 39
-117 143 -174 157 -31 8 -42 -6 -133 -170 -128 -231 -152 -278 -195 -380 -78
-189 -82 -214 -66 -420 15 -203 26 -259 54 -269 25 -10 26 -1 8 49 -21 53 -14
71 9 26 22 -41 72 -77 139 -100 91 -32 130 -53 115 -62 -7 -5 -23 -9 -36 -9
-15 0 -22 -5 -19 -12 6 -20 84 -8 122 18 11 8 36 14 57 14 100 0 294 76 305
121 3 10 15 19 26 21 23 3 70 65 61 80 -3 5 -3 21 1 36 5 20 8 23 15 11 14
-22 41 11 45 56 2 20 13 47 23 59 17 18 21 41 27 146 7 126 13 154 58 310 14
50 23 98 20 118 -4 22 0 39 11 51 9 10 16 31 15 47 -1 16 6 46 15 66 11 25 12
39 5 43 -6 4 -13 -2 -16 -14 -5 -19 -23 -30 -23 -14 0 16 46 72 64 77 17 4 18
13 14 90 -2 47 -7 89 -11 92 -4 4 -13 1 -22 -6 -20 -16 -20 -1 0 47 16 37 14
63 -4 63 -5 0 -36 -29 -68 -64z"/>
<path d="M9490 2742 c-14 -2 -29 -7 -33 -11 -18 -17 -90 -232 -117 -351 -11
-47 -24 -96 -30 -110 -5 -14 -20 -64 -35 -112 -24 -83 -27 -87 -53 -85 -24 2
-27 7 -30 45 -2 29 -8 42 -18 42 -8 0 -23 19 -33 43 -10 24 -44 79 -75 123
-31 43 -56 85 -56 93 0 8 -10 25 -21 37 -12 13 -27 33 -33 46 -13 26 -77 43
-105 29 -22 -12 -52 -161 -127 -631 -19 -118 -19 -370 0 -396 23 -31 39 -4 45
78 5 64 8 73 26 73 14 0 21 8 25 30 3 17 13 44 23 62 9 18 21 49 27 70 8 34 9
33 4 -14 -4 -33 -2 -53 4 -53 13 0 27 42 47 138 19 95 32 119 51 101 16 -17
123 -251 166 -364 37 -97 59 -125 83 -105 15 12 18 12 27 -4 9 -17 11 -17 29
3 11 12 26 21 34 21 19 0 28 34 29 114 0 53 2 63 9 42 5 -14 13 -24 18 -20 15
9 10 70 -6 84 -19 16 -20 59 -1 74 7 6 18 29 24 51 20 74 53 159 92 242 22 46
40 92 40 103 0 27 29 38 45 17 7 -10 15 -40 18 -68 4 -29 15 -69 27 -90 11
-22 21 -65 23 -96 2 -32 9 -59 15 -61 7 -2 12 -8 12 -14 0 -5 9 -23 20 -38 11
-15 24 -45 28 -66 5 -22 14 -38 21 -36 6 1 -9 -37 -34 -84 -25 -48 -45 -95
-45 -106 0 -10 -7 -32 -15 -49 -23 -44 -75 -207 -75 -235 0 -17 6 -24 20 -24
11 0 20 4 20 9 0 14 65 51 89 51 16 0 26 10 37 35 8 19 18 35 22 35 4 0 22 25
40 55 18 30 38 55 43 55 6 0 7 -4 4 -10 -3 -5 -2 -10 3 -10 9 0 134 247 157
310 18 49 68 143 120 225 24 39 49 81 55 94 6 13 19 34 30 48 10 13 17 32 14
41 -4 13 -1 11 14 -5 l19 -21 21 44 c12 24 28 44 36 44 7 0 24 24 36 53 24 54
25 61 28 113 2 24 9 34 37 47 38 18 45 34 19 44 -18 7 -11 48 12 74 13 15 12
19 -11 37 -14 11 -31 23 -38 26 -8 3 -1 14 17 31 33 30 24 56 -12 34 -16 -10
-24 -10 -35 -1 -15 13 -32 8 -86 -22 -43 -25 -130 -157 -219 -335 -115 -226
-124 -242 -142 -238 -8 2 -14 9 -12 15 5 24 -19 147 -33 168 -8 12 -22 21 -32
20 -13 -1 -19 7 -21 29 -3 29 -15 65 -33 95 -28 46 -37 76 -27 88 12 14 -17
92 -35 92 -5 0 -7 -7 -4 -15 4 -8 2 -17 -3 -20 -6 -4 -10 -1 -10 4 0 6 -20 11
-44 11 -43 0 -45 2 -68 46 -24 49 -58 72 -98 66z m760 -492 c0 -5 -5 -10 -11
-10 -5 0 -7 5 -4 10 3 6 8 10 11 10 2 0 4 -4 4 -10z"/>
<path d="M8629 2664 c-22 -27 -58 -125 -94 -259 -20 -71 -46 -166 -60 -210
-13 -44 -29 -98 -35 -120 -13 -50 -25 -71 -34 -57 -4 6 -13 9 -20 6 -10 -4
-16 7 -21 35 -4 26 -11 38 -19 35 -11 -4 -36 34 -36 56 0 5 -26 49 -59 97 -32
49 -62 99 -66 113 -4 14 -17 35 -29 47 -12 12 -29 32 -38 43 -13 14 -30 20
-58 20 -46 0 -55 -11 -65 -90 -4 -30 -11 -62 -15 -70 -4 -8 -10 -37 -13 -65
-10 -92 -39 -269 -53 -330 -21 -91 -38 -350 -28 -420 8 -50 13 -61 30 -63 18
-3 22 4 27 35 4 21 7 57 7 81 0 34 3 42 19 42 14 0 20 10 25 39 3 21 13 44 21
51 8 7 18 30 21 51 9 52 24 50 17 -1 -4 -25 -2 -40 5 -40 6 0 20 44 32 98 12
53 26 112 32 131 10 33 11 34 25 15 20 -25 93 -180 155 -329 27 -66 55 -126
60 -132 6 -7 23 -13 39 -13 19 0 29 -5 29 -15 0 -8 5 -15 10 -15 6 0 10 8 10
18 0 23 19 42 41 42 13 0 18 13 23 58 4 31 4 73 1 92 l-5 35 12 -32 c6 -18 15
-33 19 -33 14 0 10 51 -8 98 -16 42 -16 45 0 57 9 7 21 32 26 56 12 56 59 191
72 203 5 6 9 18 9 27 0 10 3 19 8 21 4 2 17 30 30 63 13 33 28 67 33 75 5 8
12 22 15 30 3 8 12 27 19 41 32 60 46 192 30 287 -4 23 -11 42 -16 42 -5 0 -9
6 -9 14 0 22 -49 56 -80 56 -15 0 -33 -7 -41 -16z"/>
<path d="M6240 2576 c-156 -36 -380 -140 -452 -210 -52 -49 -59 -76 -32 -115
16 -23 34 -24 76 -7 11 5 18 1 23 -13 9 -30 27 -26 76 15 71 59 137 84 98 37
-8 -10 -25 -53 -37 -95 -12 -42 -36 -99 -52 -125 -17 -26 -38 -73 -46 -103 -9
-30 -37 -125 -64 -210 -27 -85 -54 -177 -61 -205 -13 -55 -32 -83 -67 -96 -34
-13 -228 -146 -267 -184 -36 -33 -54 -80 -37 -97 6 -6 24 -3 53 11 51 25 89
27 89 6 0 -20 9 -19 77 7 32 12 66 21 75 19 9 -1 35 7 58 19 100 51 212 90
230 80 30 -16 70 -12 101 11 17 12 44 22 62 24 18 1 70 19 117 40 47 20 137
59 201 85 129 54 191 83 232 112 37 26 107 136 107 167 0 65 -91 139 -199 162
-27 5 -57 16 -67 23 -16 12 -15 15 22 39 21 14 74 60 116 104 162 164 185 316
66 430 -65 63 -115 77 -288 79 -100 2 -175 -1 -210 -10z m270 -206 c19 -10 19
-11 2 -40 -47 -76 -218 -240 -252 -240 -17 0 -7 87 14 129 9 17 16 55 16 85 0
60 -5 55 65 69 40 9 137 7 155 -3z m-82 -629 c4 -10 -2 -12 -22 -7 -23 6 -36
-2 -94 -55 -110 -100 -262 -172 -262 -124 0 24 28 85 39 85 5 0 65 27 133 60
95 46 132 59 162 57 23 -1 41 -8 44 -16z"/>
</g>
</svg>
