<?xml version="1.0" encoding="UTF-8" standalone="no"?>
<!-- Created with Inkscape (http://www.inkscape.org/) -->

<svg
   xmlns:dc="http://purl.org/dc/elements/1.1/"
   xmlns:cc="http://creativecommons.org/ns#"
   xmlns:rdf="http://www.w3.org/1999/02/22-rdf-syntax-ns#"
   xmlns:svg="http://www.w3.org/2000/svg"
   xmlns="http://www.w3.org/2000/svg"
   xmlns:sodipodi="http://sodipodi.sourceforge.net/DTD/sodipodi-0.dtd"
   xmlns:inkscape="http://www.inkscape.org/namespaces/inkscape"
   id="svg2"
   version="1.1"
   inkscape:version="0.48.2 r9819"
   width="800"
   height="213"
   sodipodi:docname="AIRBOURNE_logo.jpg">
  <metadata
     id="metadata8">
    <rdf:RDF>
      <cc:Work
         rdf:about="">
        <dc:format>image/svg+xml</dc:format>
        <dc:type
           rdf:resource="http://purl.org/dc/dcmitype/StillImage" />
        <dc:title></dc:title>
      </cc:Work>
    </rdf:RDF>
  </metadata>
  <defs
     id="defs6" />
  <sodipodi:namedview
     pagecolor="#ffffff"
     bordercolor="#666666"
     borderopacity="1"
     objecttolerance="10"
     gridtolerance="10"
     guidetolerance="10"
     inkscape:pageopacity="0"
     inkscape:pageshadow="2"
     inkscape:window-width="1680"
     inkscape:window-height="988"
     id="namedview4"
     showgrid="false"
     inkscape:zoom="1.875"
     inkscape:cx="400"
     inkscape:cy="106.5"
     inkscape:window-x="-8"
     inkscape:window-y="-8"
     inkscape:window-maximized="1"
     inkscape:current-layer="svg2" />
  <path
     style="fill:#000000"
     d="M 676.39115,202.25 C 664.78344,183.01054 629.8331,127.4703 628.43107,126.03571 627.1884,124.76421 627,126.92052 627,142.41454 l 0,17.84312 -4.75,-0.6232 c -5.9373,-0.77897 -44.61446,-5.28065 -52.90556,-6.15774 l -6.15557,-0.65117 -6.84443,-10.16278 L 549.5,132.5 l -0.28938,9.39024 -0.28938,9.39024 -10.21062,-0.67071 c -5.61584,-0.3689 -13.02312,-0.94415 -16.46062,-1.27834 L 516,148.72381 516,97.361905 516,46 l 4.25,0.0127 c 8.74188,0.02612 39.03814,3.010443 45.29699,4.461969 11.8545,2.749242 18.96743,7.873672 24.93826,17.966506 L 594,74.382343 594,63.691172 c 0,-5.880145 0.3375,-10.697601 0.75,-10.705458 0.4125,-0.0079 6.93185,0.740643 14.48744,1.663333 l 13.73744,1.677619 13.26256,22.316433 L 649.5,100.95953 650,80.729766 c 0.42392,-17.151621 0.72824,-20.215085 2,-20.133282 0.825,0.05307 8.1375,1.132713 16.25,2.399215 l 14.75,2.302731 0,73.35078 C 683,178.99215 682.83656,212 682.6368,212 c -0.19976,0 -3.0103,-4.3875 -6.24565,-9.75 z M 679.73672,68.403385 C 679.40899,68.075653 655.77319,64 654.20032,64 c -0.74293,0 -1.03883,7.290713 -0.95299,23.480745 0.0685,12.914405 -0.0909,23.696105 -0.35406,23.959325 -0.26322,0.26322 -7.55193,-11.39637 -16.19713,-25.910191 L 620.97758,59.141112 615.23879,58.484394 C 612.08246,58.123199 607.025,57.465274 604,57.022338 c -3.30346,-0.48371 -5.73623,-0.428308 -6.0915,0.138725 -0.32533,0.519234 -0.54415,21.653375 -0.48626,46.964757 0.0579,25.31138 -0.16909,46.46458 -0.50439,47.00711 -0.3353,0.54252 -1.43333,-0.27794 -2.44006,-1.82326 -1.00673,-1.54532 -6.4959,-9.05235 -12.19816,-16.68229 -5.70225,-7.62993 -10.23541,-13.99024 -10.07368,-14.134 0.16173,-0.14377 2.67613,-1.27743 5.58755,-2.51924 10.67356,-4.55262 15.75991,-14.20879 15.01003,-28.495756 C 592.259,77.103659 588.37161,68.49205 581.20814,61.79146 c -7.9958,-7.479135 -15.65609,-9.405947 -47.00681,-11.823735 -7.31427,-0.564081 -13.70336,-0.775485 -14.19799,-0.469787 -0.51661,0.319278 -0.81507,20.834546 -0.70134,48.206673 l 0.198,47.650859 2.5,0.66371 c 1.375,0.36503 7.32396,0.97338 13.2199,1.35188 l 10.7199,0.68817 0.2801,-12.77962 L 546.5,122.5 l 9.26768,13.75 c 5.09722,7.5625 9.4418,13.75 9.65462,13.75 2.36544,0 49.68216,5.51429 55.8277,6.50616 l 2.75,0.44384 0,-21.675 c 0,-13.17937 0.35974,-21.30264 0.91781,-20.725 0.90192,0.93356 28.05319,44.01551 45.63166,72.40549 l 8.95053,14.45549 0.25719,-66.36497 c 0.14146,-36.500728 0.13224,-66.489911 -0.0205,-66.642625 z M 668.5,180.25123 c -4.95,-8.07184 -13.82807,-22.34298 -19.72904,-31.71365 -5.90097,-9.37067 -14.00097,-22.30234 -18,-28.73704 -3.99903,-6.4347 -7.60846,-11.7222 -8.02096,-11.75 -0.4125,-0.0278 -0.75,10.53303 -0.75,23.46851 l 0,23.51905 -2.25,-0.49957 c -1.2375,-0.27477 -6.06229,-0.99346 -10.72176,-1.59709 -4.65947,-0.60364 -8.82197,-1.31396 -9.25,-1.5785 -0.99907,-0.61746 -1.02695,-92.101976 -0.0282,-92.675925 1.1171,-0.641992 19.39219,2.05392 20.32792,2.998743 C 620.52145,62.133591 628.559,75.325 637.93915,91 l 17.05482,28.5 0.003,-26.875 0.003,-26.875 2.79119,0.558239 c 1.53516,0.307031 6.71016,1.106474 11.5,1.77654 L 678,69.30308 l 0,62.84846 c 0,34.56665 -0.1125,62.8321 -0.25,62.81211 -0.1375,-0.02 -4.3,-6.64058 -9.25,-14.71242 z m -91.33418,-30.78565 c -6.2338,-0.71533 -11.42401,-1.45023 -11.53381,-1.63309 -2.33575,-3.89029 -20.27564,-30.11224 -20.84013,-30.46112 C 544.35635,117.1022 544,123.46731 544,131.51606 l 0,14.63409 -9.25,-0.62919 c -5.0875,-0.34605 -10.2625,-0.8384 -11.5,-1.09412 L 521,143.9619 521,97.480948 521,51 l 2.48358,0 c 5.76747,0 36.42108,3.090183 41.01642,4.134857 6.94481,1.578786 11.89073,4.255872 16.64353,9.008672 9.31639,9.316388 12.75717,25.646327 8.00578,37.995381 -2.52662,6.56679 -11.91492,13.78237 -18.0063,13.83913 -1.53639,0.0143 -2.18059,0.48165 -1.85032,1.34232 0.27867,0.7262 5.41939,8.0387 11.42381,16.25 6.00443,8.2113 11.25113,15.49214 11.65934,16.17964 0.88787,1.49535 0.18534,1.48221 -15.21002,-0.28442 z M 563.72316,98.027281 c 3.72543,-2.271484 4.73595,-5.2617 3.99618,-11.824971 -0.41799,-3.70839 -1.20094,-5.240999 -3.77537,-7.390227 C 560.6262,76.042289 553.62635,74 547.45078,74 L 544,74 l 0,12.333333 c 0,6.783334 0.3,12.633334 0.66667,13 0.36666,0.366667 4.07916,0.664985 8.25,0.662929 5.77379,-0.0028 8.35244,-0.472685 10.80649,-1.968981 z M 549.75,98.300315 546,97.879269 546,86.939635 546,76 l 3.05718,0 c 5.34904,0 11.81212,2.142025 14.46374,4.793646 2.23133,2.231333 2.52947,3.285041 2.27359,8.035404 -0.24232,4.498378 -0.73757,5.786284 -2.79451,7.267169 -2.80872,2.022124 -7.66939,2.83068 -13.25,2.204096 z m 12.27607,-4.831725 c 0.60288,-0.726429 0.95615,-3.22155 0.78504,-5.544714 -0.37218,-5.053133 -3.15714,-7.535965 -9.56111,-8.523869 l -4.25,-0.655623 0,8.061385 c 0,8.050864 0.004,8.061799 2.75,8.377809 4.37835,0.503785 9.08681,-0.282015 10.27607,-1.714988 z M 593.99384,123.25 c -0.006,-18.48596 -0.10566,-19.55799 -1.5608,-16.75 -2.23352,4.31003 -7.33352,9.36632 -11.73508,11.6345 l -3.80204,1.95925 3.10993,4.20312 c 1.71046,2.31172 5.44638,7.44621 8.30204,11.40998 2.85566,3.96377 5.30461,7.22627 5.44211,7.25 0.1375,0.0237 0.24723,-8.84435 0.24384,-19.70685 z M 685,107.84543 C 685,20.601884 685.21067,4.8614302 686.35605,6.5274938 687.10188,7.6123722 691.88388,15.25 696.98272,23.5 c 5.09885,8.25 12.08779,19.5 15.53099,25 6.06954,9.695196 20.53447,33.353983 30.74594,50.287953 2.74878,4.558377 4.78764,8.498097 4.5308,8.754937 -0.38282,0.38281 -18.86026,-3.00595 -27.54045,-5.05092 -1.9197,-0.45226 -2.24956,-0.12358 -2.24698,2.23898 l 0.003,2.76905 17.35898,3.37585 17.35899,3.37584 10.57493,17.62416 c 5.8162,9.69328 10.18726,17.76283 9.71346,17.93233 -0.47381,0.16949 -11.35793,-1.93978 -24.18694,-4.68729 C 715.40667,137.96381 718,138.2794 718,141.36966 c 0,1.88714 0.612,2.71565 2.25,3.04596 14.96107,3.01697 52.06084,10.90755 54.75,11.64452 3.19895,0.87669 4.42044,2.50662 14.20103,18.94953 C 795.0866,184.90435 799.5639,193 799.15058,193 c -0.41332,0 -11.52879,-2.50561 -24.70104,-5.56803 -32.61401,-7.58244 -59.47238,-12.82034 -60.44057,-11.78709 -0.4407,0.47032 -7.148,8.64819 -14.90512,18.17305 L 685,211.13586 685,107.84543 z M 701.41588,186.25 c 8.88907,-10.80392 12.28054,-14.25 14.02419,-14.25 2.80728,0 54.29317,10.85996 67.80993,14.30321 5.3625,1.36604 9.74778,2.19415 9.74507,1.84025 -0.003,-0.3539 -3.76326,-6.94346 -8.35677,-14.64346 l -8.35183,-14 -11.89324,-2.67923 c -6.54127,-1.47358 -20.33073,-4.37911 -30.64323,-6.45674 l -18.75,-3.7775 0,-5.79327 C 715,137.60697 715.11791,135 715.26201,135 c 0.65049,0 39.31609,8.09039 45.31851,9.48244 3.69239,0.85632 6.8476,1.42278 7.01159,1.25879 0.26928,-0.26928 -15.62881,-27.11127 -16.68045,-28.1629 -0.24294,-0.24294 -7.40995,-1.84332 -15.92669,-3.55639 -8.51673,-1.71308 -16.49747,-3.32739 -17.73497,-3.58736 -2.00216,-0.42062 -2.25,-1.07641 -2.25,-5.95363 0,-6.527743 -0.87047,-6.34791 15,-3.09888 6.325,1.29486 11.65957,2.21654 11.85461,2.04817 0.19503,-0.16837 -2.03059,-4.271548 -4.94583,-9.11818 C 725.93069,76.060811 689.74577,17.461422 688.89097,16.55 688.36925,15.993717 688,54.308578 688,109 c 0,51.37 0.38059,92.9725 0.84575,92.45 0.46517,-0.5225 6.12172,-7.3625 12.57013,-15.2 z m -11.56426,7.91906 C 689.65823,192.70108 689.725,153.35003 690,106.72228 l 0.5,-84.777719 3.40898,5.77772 C 695.78392,30.900026 701.93041,40.925 707.56786,50 c 22.27928,35.864588 31.08947,50.51057 30.5237,50.74239 C 737.7662,100.8757 732.1,99.933198 725.5,98.647938 l -12,-2.336836 -0.2969,6.997548 c -0.16329,3.84865 0.0617,7.31906 0.5,7.71202 0.4383,0.39296 7.9969,2.14525 16.7969,3.894 8.8,1.74874 16.78015,3.41132 17.73367,3.69463 1.58869,0.47203 16.13923,23.35113 15.35163,24.13873 -0.18895,0.18895 -9.96044,-1.67141 -21.71442,-4.13415 -11.75399,-2.46273 -23.05838,-4.78342 -25.12088,-5.15708 l -3.75,-0.67938 0,7.61129 c 0,4.18621 0.23809,7.61129 0.52908,7.61129 1.53303,0 57.81844,12.18163 59.84433,12.95187 1.58513,0.60266 4.61542,4.74274 9.00766,12.30653 3.64041,6.26909 6.61893,11.64134 6.61893,11.93835 0,0.297 -6.6375,-1.00472 -14.75,-2.89271 -8.1125,-1.888 -25.22563,-5.59421 -38.02917,-8.23602 l -23.27917,-4.80331 -8.66176,10.61765 c -4.76397,5.8397 -9.88011,12.04372 -11.36921,13.7867 l -2.70745,3.16906 -0.35162,-2.66906 z m -555.91137,7.06809 c -2.50787,-3.15543 -9.59537,-12.12733 -15.75,-19.93755 L 107,167.09919 l 0,-11.09491 0,-11.09491 -3.75,0.66249 c -12.103452,2.13825 -21.732373,4.36915 -21.987661,5.09428 -0.161463,0.45862 -4.224042,7.11762 -9.027954,14.79778 L 63.5,179.42784 l -6.427265,1.29188 c -3.534996,0.71053 -17.417224,3.79453 -30.849396,6.85335 -13.432172,3.05881 -24.6324127,5.35119 -24.8894237,5.09418 -0.257011,-0.25701 2.6002172,-4.75887 6.349396,-10.00413 3.7491787,-5.24526 9.4985157,-13.38096 12.7763037,-18.07934 l 5.959615,-8.54251 9.6545,-2.15559 c 8.485466,-1.89458 9.859429,-2.50252 11.346921,-5.02064 C 48.351482,147.28927 48.910765,146 48.6635,146 c -0.247264,0 -3.907575,0.71513 -8.134024,1.58918 -4.226449,0.87405 -7.876234,1.3974 -8.110634,1.163 -0.2344,-0.2344 5.410897,-8.51408 12.545103,-18.39929 l 12.971283,-17.9731 6.481919,-1.2884 c 4.980239,-0.98991 6.859629,-1.86486 8.112288,-3.77666 0.896704,-1.36854 1.429127,-2.6895 1.183162,-2.93547 C 73.466632,104.1333 71.120963,104.41263 68.5,105 c -2.620963,0.58737 -4.920821,0.91251 -5.110794,0.72254 C 62.880995,105.21433 85.81621,73.802522 88.19413,71.75 89.309221,70.7875 91.442399,70 92.934525,70 95.4165,70 97.471724,67.076297 117.07374,35.660237 L 138.5,1.3204737 138.759,52.660237 c 0.14245,28.23687 0.14245,74.508983 0,102.826913 l -0.259,51.48715 -4.55975,-5.73715 z M 135.75989,58.45507 135.5,11.910139 121.5,34.479212 C 97.49269,73.180836 98.046143,72.411017 93.738957,73.093131 c -2.068574,0.327592 -3.88671,0.778153 -4.040302,1.001246 -0.414413,0.601936 -7.55038,10.321081 -14.161585,19.287995 l -5.811584,7.882368 5.646919,-0.70553 5.646919,-0.705537 -4.022368,6.415277 -4.022367,6.41529 -6.737295,1.25014 -6.737294,1.25014 -10,14.0817 c -5.5,7.74493 -10.136274,14.41224 -10.302832,14.81623 -0.166558,0.404 3.343148,-0.0567 7.799347,-1.02374 9.183548,-1.99296 9.067035,-2.18848 3.697638,6.20523 -3.180187,4.97144 -3.704529,5.33872 -9.282369,6.50195 -13.476672,2.8105 -12.402205,2.00505 -23.36827,17.5175 -5.526825,7.81817 -9.6286273,14.35491 -9.1151159,14.52608 0.5135114,0.17117 11.9213759,-2.19094 25.3508109,-5.24913 C 47.708643,179.50215 59.379999,177 60.215556,177 c 0.88735,0 5.183272,-6.07315 10.329038,-14.60219 4.945912,-8.19777 9.718951,-14.97657 10.882625,-15.45579 C 83.941658,145.90652 104.82189,142 107.84215,142 109.93172,142 110,142.37651 110,153.89954 l 0,11.89954 12.75,16.20582 12.75,16.20582 0.25989,-46.60536 c 0.14294,-25.63295 0.14294,-67.550579 0,-93.15029 z M 122.75739,179.12814 112.01477,165.5 l -0.007,-13.35841 c -0.007,-13.33988 -0.0105,-13.35768 -2.25739,-12.83528 -1.2375,0.28772 -8.66659,1.73808 -16.50908,3.22302 l -14.25908,2.69989 -9.048701,14.82649 -9.048701,14.82648 -5.692219,1.17215 c -3.13072,0.64468 -14.146075,3.08275 -24.478566,5.41794 -10.33249,2.33519 -18.65749,3.90435 -18.5,3.48701 C 12.371144,184.54196 16.325,178.80908 21,172.21955 l 8.5,-11.98095 8.5,-1.75951 c 4.675,-0.96772 9.07268,-2.05749 9.772622,-2.42171 2.235215,-1.16309 11.255807,-16.53215 9.885281,-16.8423 -0.692471,-0.1567 -4.141957,0.38763 -7.665523,1.20962 -3.523567,0.82199 -6.519444,1.38157 -6.657506,1.24351 -0.138062,-0.13806 3.667611,-5.73262 8.457052,-12.43234 L 60.5,117.05455 l 7.012213,-1.57475 7.012213,-1.57476 4.812878,-8.04409 c 2.647083,-4.42426 4.666587,-8.188842 4.487787,-8.365748 C 83.646291,97.318297 81.475,97.545456 79,98 c -2.475,0.454544 -4.580469,0.747525 -4.67882,0.651068 -0.09835,-0.09646 3.618412,-5.418572 8.259475,-11.826924 C 90.411643,76.011159 91.305377,75.124202 94.998754,74.50021 98.934586,73.835256 99.12366,73.593988 112.11112,52.663913 119.33403,41.023761 126.69508,29.25 128.46901,26.5 c 1.77394,-2.75 3.73043,-5.9 4.34776,-7 0.61733,-1.1 1.14486,-1.55 1.17229,-1 0.20558,4.121804 -0.007,173.84318 -0.21839,174.02414 -0.14887,0.12768 -5.10485,-5.90052 -11.01328,-13.396 z M 105.25,118.95582 112,117.79469 112,105.39735 C 112,98.578805 111.82483,93 111.61073,93 c -0.2141,0 -3.67145,5.2875 -7.68299,11.75 -4.011538,6.4625 -7.986561,12.83643 -8.833382,14.16429 -1.494234,2.34304 -1.466699,2.39641 0.932984,1.80848 1.359962,-0.3332 5.510158,-1.12832 9.222658,-1.76695 z m -6.085297,-3.0853 c 0.853957,-1.30379 3.528747,-5.67447 5.943977,-9.71263 l 4.39132,-7.342111 0.29298,8.249131 c 0.16114,4.53702 -0.0639,8.58265 -0.5,8.99029 -0.43614,0.40764 -3.24277,1.06621 -6.23696,1.4635 l -5.44397,0.72233 1.552653,-2.37051 z M 107,111.83333 c 0,-1.19166 -0.12734,-1.97916 -0.28297,-1.75 -0.15563,0.22917 -0.88573,1.20417 -1.62244,2.16667 -1.14658,1.49798 -1.10583,1.75 0.28297,1.75 0.99737,0 1.62244,-0.83473 1.62244,-2.16667 z m 34,22.88572 0,-72.680946 2.25,-0.526806 C 145.74672,60.926728 172.55989,57 174.05485,57 174.63576,57 175,76.237429 175,106.91856 l 0,49.91857 -16.10986,24.33143 c -8.86043,13.38229 -16.51043,24.75894 -17,25.28144 C 141.36941,207.00575 141,177.23747 141,134.71905 z m 17.12614,42.03095 13.35816,-20.25 0.008,-47.75 0.008,-47.75 -2.4846,0 c -1.36653,0 -7.55415,0.757816 -13.75027,1.684035 L 144,64.368071 144,130.68404 C 144,167.15782 144.1728,197 144.38399,197 c 0.2112,0 6.39517,-9.1125 13.74215,-20.25 z M 146,128.72949 l 0,-62.570579 2.75,-0.57568 c 4.25338,-0.890393 16.49003,-2.541325 19,-2.563422 L 170,63 l 0,46.17942 0,46.17941 -9.21202,14.07059 c -5.06661,7.73882 -10.46661,15.8256 -12,17.97062 L 146,191.30008 146,128.72949 z M 176.241,108.25 176.5,56.5 l 17,-2.206679 c 19.76999,-2.566236 35.68734,-3.044985 41.1777,-1.238508 8.24498,2.712819 14.38808,8.468323 18.34639,17.188841 L 254.95608,74.5 254.97804,61.311273 255,48.122546 259.25,47.584522 C 267.86752,46.493596 290.52797,45 298.46168,45 c 19.11578,0 27.97012,7.269201 31.04498,25.487194 l 0.67296,3.987194 2.66019,-5.449911 c 3.71152,-7.603757 13.12158,-17.343668 21.05462,-21.792641 21.56013,-12.091257 48.83012,-8.69746 65.69479,8.17583 C 422.9383,58.75845 427.09657,63.975 428.82984,67 l 3.15139,5.5 0.009,-15.25 L 432,42 l 7.25,0.0052 c 3.9875,0.0028 11.6375,0.295715 17,0.650823 l 9.75,0.645649 0,33.381296 c 0,36.817322 0.37428,39.581972 5.49113,40.560122 4.01326,0.76718 6.54848,-0.21703 7.58559,-2.94485 C 479.58452,112.96258 480,96.674096 480,78.101567 c 0,-18.572529 0.18589,-33.955734 0.41309,-34.1849 0.22721,-0.229167 7.87721,-0.01188 17,0.482867 L 514,45.299068 l 0,35.301245 c 0,21.779057 -0.42108,37.331117 -1.09927,40.600467 -2.07584,10.00687 -8.78587,18.33047 -18.90073,23.44579 -4.75065,2.40252 -6.948,2.83495 -16.12793,3.1739 -16.01261,0.59124 -25.61154,-2.65518 -34.68812,-11.73176 -5.48824,-5.48824 -9.10729,-12.09825 -9.91306,-18.10571 -0.59627,-4.44558 -1.75399,-5.17863 -2.63499,-1.66845 -0.96047,3.82683 -10.15774,15.16411 -15.4582,19.05501 -15.07916,11.06912 -35.93724,14.43427 -53.28481,8.59673 -8.70412,-2.92898 -19.02399,-10.00414 -24.13228,-16.54476 l -4.23418,-5.42142 -2.15008,4.87184 c -1.18254,2.67951 -3.85085,6.75439 -5.92957,9.05528 -7.97145,8.82344 -15.80155,11.32028 -40.94678,13.05701 -8.8,0.6078 -25.225,1.98393 -36.5,3.05806 -11.275,1.07414 -21.47358,1.95404 -22.6635,1.95534 -1.55286,0.002 -4.09308,-2.53879 -9,-9.00096 l -6.8365,-9.00332 -0.28498,10.00332 c -0.15674,5.50183 -0.60674,10.00383 -1,10.00445 C 207.82176,156.00174 200.525,156.90124 192,158 c -8.525,1.09876 -15.61655,1.99826 -15.759,1.99887 -0.14245,6.2e-4 -0.14245,-23.28637 0,-51.74887 z m 16.259,46.74637 c 3.85,-0.53021 8.44956,-1.21426 10.22125,-1.52012 l 3.22126,-0.55609 0.27874,-12.94558 0.27875,-12.94559 9.04183,11.73551 c 8.50503,11.03877 9.24714,11.73241 12.5,11.68338 5.45461,-0.0822 22.53959,-1.61221 25.82338,-2.31253 l 2.97915,-0.63535 -12.37162,-14 c -6.80439,-7.7 -12.39437,-14.51372 -12.42218,-15.14159 -0.0278,-0.62788 1.02015,-1.41033 2.3288,-1.73878 4.0679,-1.02097 12.33735,-9.34264 15.32028,-15.41702 C 252.17009,96.171827 252.5,94.380801 252.5,86 c 0,-8.385454 -0.32922,-10.170421 -2.80615,-15.214439 -3.27545,-6.67012 -9.92756,-12.939792 -15.50069,-14.609544 -5.7743,-1.73002 -18.60832,-1.437831 -36.69316,0.835383 -8.8,1.106135 -16.5625,2.216957 -17.25,2.468493 -0.9763,0.3572 -1.25,10.974194 -1.25,48.488727 L 179,156 l 3.25,-0.0198 c 1.7875,-0.0109 6.4,-0.45361 10.25,-0.98382 z m -11.5,-47.45106 0,-46.454684 3.25,-0.544116 c 11.56489,-1.936199 29.65732,-3.775544 37.75,-3.837807 10.91714,-0.08399 15.08494,1.376241 21.10204,7.393333 5.58116,5.581163 8.18646,13.527225 7.68512,23.439303 -0.65871,13.023391 -7.02232,22.980671 -17.7731,27.809971 l -4.78333,2.14869 12.35326,14 c 6.79429,7.7 12.36738,14.26093 12.38463,14.57984 0.0312,0.5775 -27.05977,3.25213 -27.41602,2.70671 -0.10294,-0.1576 -4.88188,-6.31177 -10.61988,-13.67592 L 204.5,121.72125 l -0.27509,14.96226 -0.27509,14.96226 -10.22491,1.1828 c -5.6237,0.65054 -10.78741,1.18024 -11.47491,1.17711 -0.98198,-0.004 -1.25,-9.96631 -1.25,-46.46037 z m 30.97626,-3.61114 C 222.76667,102.18351 228,97.300304 228,88.982459 228,80.080295 220.9201,76.464964 207.75,78.641848 l -3.75,0.619837 0,12.869157 c 0,7.078037 0.3375,12.865758 0.75,12.861608 0.4125,-0.004 3.66432,-0.48038 7.22626,-1.05828 z M 206,92.194887 C 206,79.620589 205.71603,80 215.12724,80 222.92597,80 226,82.651371 226,89.37782 c 0,7.622967 -4.53186,11.40388 -15.75,13.14018 l -4.25,0.6578 0,-10.980913 z m 11.45163,5.389771 C 221.46138,95.909274 223,93.418002 223,88.600925 c 0,-4.413013 -2.29029,-5.822101 -8.78404,-5.404326 L 209.5,83.5 l -0.29206,7.75 c -0.29151,7.735197 -0.28715,7.75 2.28211,7.75 1.4158,0 4.09851,-0.636904 5.96158,-1.415342 z M 284,145.92815 c 16.06007,-1.13123 26.04961,-2.8682 30.88954,-5.37103 1.5457,-0.79931 4.89549,-3.56829 7.44397,-6.15329 5.44305,-5.52103 8.64537,-13.12558 8.71326,-20.69134 l 0.0468,-5.21249 1.79676,4.59241 c 8.11605,20.74413 31.37354,33.40201 55.28053,30.0864 15.14571,-2.10053 30.36543,-11.7059 37.30156,-23.54151 22.89474,-39.066909 -12.00741,-85.556722 -56.37933,-75.097517 -23.03763,5.430356 -39.07196,25.625705 -39.35108,49.562953 l -0.10146,8.701104 -2.75964,-3.809571 c -1.5178,-2.095266 -4.10911,-4.606724 -5.75846,-5.581019 l -2.99882,-1.771445 2.58973,-3.070902 c 3.92751,-4.657231 5.51235,-9.387917 5.47228,-16.334454 -0.0449,-7.780499 -2.76656,-13.865941 -8.33205,-18.629796 -6.78038,-5.803748 -13.29632,-6.531326 -40.70531,-4.545205 -8.05654,0.583797 -15.66076,1.26737 -16.89826,1.519052 l -2.25,0.457604 0,48.596171 0,48.596175 5.25,-0.60525 c 2.8875,-0.33289 12.225,-1.09656 20.75,-1.69705 z m -24,-46.696504 0,-46.95603 18.75,-1.280317 c 21.47346,-1.466285 29.15105,-1.136487 34.61622,1.486969 11.97177,5.746847 14.97005,24.773246 5.51955,35.025835 C 316.74859,89.82666 315,91.956243 315,92.24051 c 0,0.284267 1.34514,1.074025 2.9892,1.755018 4.30825,1.784534 9.78259,8.271102 10.58353,12.540452 1.96471,10.47284 -1.31448,21.04245 -8.73762,28.16334 -6.23685,5.98291 -12.62805,7.67911 -34.83511,9.24508 -8.525,0.60116 -17.6375,1.35182 -20.25,1.66814 l -4.75,0.57514 0,-46.956034 z m 35.5,22.788974 c 7.09088,-1.14376 10.5,-4.20268 10.5,-9.4214 0,-6.03318 -4.03495,-7.89329 -15.11728,-6.96906 L 283,106.28755 l 0,8.35623 0,8.35622 3.25,-0.006 c 1.7875,-0.003 5.95,-0.4413 9.25,-0.97359 z m -10.5,-7.29642 0,-6.56501 6.4247,-0.68803 c 3.53359,-0.37841 7.69609,-0.26423 9.25,0.25374 2.53005,0.84335 2.8253,1.40192 2.8253,5.34496 0,3.79997 -0.37072,4.58087 -2.7061,5.70019 -1.48836,0.71335 -5.65086,1.57199 -9.25,1.90808 l -6.5439,0.61108 0,-6.56501 z m 14.25,1.1128 c 2.41533,-1.25233 2.20049,-4.55925 -0.34876,-5.36835 -1.15432,-0.36636 -4.07932,-0.36911 -6.5,-0.006 -4.23761,0.63536 -4.40124,0.79002 -4.40124,4.1599 l 0,3.5 4.75,-0.6891 c 2.6125,-0.379 5.5375,-1.0974 6.5,-1.59645 z m -0.82303,-32.197194 c 4.07375,-2.669224 4.03246,-9.653813 -0.0681,-11.52216 -2.73325,-1.24535 -7.5088,-1.437657 -12.23386,-0.492646 L 283,72.25 l 0,7.01191 0,7.011911 6.49975,-0.521738 c 3.57486,-0.286956 7.59211,-1.23748 8.92722,-2.112277 z M 285,78.5 l 0,-5.5 6.46482,0 c 5.56954,0 6.62242,0.294484 7.60288,2.126493 C 301.60292,79.863603 296.87951,84 288.9349,84 L 285,84 l 0,-5.5 z m 11.27656,0.623439 C 297.96706,77.43294 295.97803,76 291.94098,76 288.35167,76 288,76.234759 288,78.630842 c 0,2.470585 0.22317,2.594627 3.66369,2.036307 2.01503,-0.326994 4.09082,-1.021664 4.61287,-1.54371 z m 72.83177,61.794961 c -5.40621,-1.06172 -15.89296,-5.88961 -20.61318,-9.4899 -5.51137,-4.20372 -12.10484,-13.75551 -14.60763,-21.16168 -4.4616,-13.202628 -2.38513,-30.582814 5.03544,-42.146757 20.93409,-32.622955 70.58111,-30.184174 87.02695,4.274973 17.75576,37.203864 -15.03505,76.733684 -56.84158,68.523364 z m 23.72739,-23.13678 c 9.0884,-4.67705 15.04977,-16.59037 13.76629,-27.510788 -1.77756,-15.124289 -13.50501,-25.28282 -27.70148,-23.995529 -27.36801,2.481644 -32.21046,43.319287 -6.3098,53.212297 5.40225,2.06344 14.3924,1.30587 20.24499,-1.70598 z m -20.22024,-0.25392 c -5.21704,-1.85945 -11.20637,-7.90051 -13.35719,-13.47255 -2.17214,-5.627305 -2.18008,-16.156511 -0.016,-21.194714 0.85984,-2.00176 3.21068,-5.462967 5.22409,-7.691572 10.3357,-11.440386 29.12665,-8.982012 36.92751,4.831136 2.76432,4.894835 3.10418,6.380239 3.08877,13.5 -0.0203,9.37071 -1.97592,14.00256 -8.33949,19.75167 -6.19497,5.59678 -15.22005,7.23704 -23.52772,4.27603 z m 16.15299,-3.07543 C 397.17624,110.93928 401.439,103.89303 401.44391,93.5 401.45016,80.285038 393.16034,71 381.35556,71 c -16.45965,0 -26.12702,19.00476 -17.8295,35.0504 1.59584,3.086 6.56141,7.26361 10.50382,8.83701 3.74978,1.49653 10.59947,1.2943 14.73859,-0.43514 z m 103.50268,27.7385 c 2.62413,-1.1758 6.97589,-4.34257 9.67058,-7.03726 3.86608,-3.86608 5.33801,-6.31938 6.97885,-11.63181 C 510.85568,117.2566 511,114.40212 511,82.394665 L 511,48 l -4.84638,0 c -2.6655,0 -8.86309,-0.285115 -13.77242,-0.633589 l -8.92605,-0.633589 -0.0572,33.015218 c -0.0422,24.35104 -0.39148,33.82217 -1.3309,36.09014 -2.47861,5.98389 -12.26363,6.45617 -16.49207,0.79599 -1.98966,-2.66336 -2.08677,-4.16615 -2.36229,-36.557485 l -0.28734,-33.779943 -9.71266,-0.643198 c -5.34197,-0.353758 -11.65965,-0.645525 -14.03928,-0.64837 L 434.84677,45 l 0.38865,36.25 c 0.44172,41.19945 0.57142,41.98213 8.40013,50.68954 8.87865,9.8752 17.66365,13.22555 33.36445,12.72428 8.04207,-0.25675 11.61687,-0.83567 15.27115,-2.47305 z m -23.86813,0.71005 C 457.6475,141.58464 449.32882,136.94044 443.49729,128.99631 437.55945,120.90735 437,116.66553 437,79.732818 l 0,-32.846985 10.14438,0.188459 c 5.57941,0.103652 10.95683,0.40092 11.94983,0.660595 1.68623,0.44096 1.82528,2.627933 2.10562,33.118625 0.27386,29.784608 0.46379,32.916678 2.16666,35.728688 1.02656,1.69521 2.768,3.64521 3.86986,4.33333 2.51973,1.5736 9.88698,1.62402 12.75834,0.0873 C 484.59299,118.54191 485,115.29166 485,81.032119 L 485,49 l 4.34912,0 c 2.39202,0 7.81764,0.293197 12.05695,0.651549 l 7.70782,0.65155 -0.30695,35.59845 c -0.34711,40.257001 -0.18228,39.309081 -8.3542,48.045521 -7.23163,7.7312 -17.83442,10.69331 -32.04972,8.95375 z M 254.96348,118.75 l -0.0365,-21.25 -2.44351,5 c -2.61096,5.34262 -6.94722,10.434 -12.37346,14.5282 l -3.35075,2.5282 8.74631,10.2218 c 4.81047,5.62199 8.91464,10.2218 9.12038,10.2218 0.20574,0 0.35764,-9.5625 0.33755,-21.25 z M 326.97776,88.690983 326.95553,85.5 l -1.90735,2.48238 c -1.36905,1.781788 -1.61302,2.837029 -0.86446,3.73899 1.57337,1.895796 2.81896,0.544849 2.79404,-3.030387 z"
     id="path2995"
     inkscape:connector-curvature="0" />
</svg>
