<?xml version="1.0" encoding="utf-8"?>
<!-- Generator: Adobe Illustrator 13.0.0, SVG Export Plug-In . SVG Version: 6.00 Build 14948)  -->
<!DOCTYPE svg PUBLIC "-//W3C//DTD SVG 1.1//EN" "http://www.w3.org/Graphics/SVG/1.1/DTD/svg11.dtd">
<svg version="1.1" id="Layer_1" xmlns="http://www.w3.org/2000/svg" xmlns:xlink="http://www.w3.org/1999/xlink" x="0px" y="0px"
	 width="800px" height="550px" viewBox="0 0 800 550" enable-background="new 0 0 800 550" xml:space="preserve">
<g>
	<g>
		<g>
			<path d="M797.869,4.5h-59.766v86.176L685.619,4.5h-61.287v174.214h59.086V94.57l51.299,84.144h63.152V4.5z"/>
			<path d="M551.361,4.5h-63.658l-40.125,65.521V4.5H381.38v174.214h66.198v-65.52l39.956,65.52h131.719V4.5h-66.198v158.639
				l-50.452-71.616L551.361,4.5z"/>
			<path d="M547.975,202.925c-15.914-13.376-34.875-19.809-57.055-19.302H381.38V364.44l-63.32-180.817H169.072l44.696,46.729
				l-16.422,46.049c0.677-4.063,1.015-7.956,1.015-12.188c0-1.186,0-2.54,0-3.725c0-1.354,0-2.71,0-4.064
				c0-20.146-7.788-37.247-23.533-51.468c-15.576-14.391-34.199-21.333-55.362-21.333H4v217.388h85.838l0.996-59.512
				c8.667-0.333,17-1,26.667-2c23-2.666,40.906-9.596,56.82-23.648c6.603-5.926,11.852-12.19,15.745-19.133l-37.247,104.293h82.621
				l6.941-28.105h60.103l6.772,28.105h153.729v-64.336l114.45,211.292V395.593l-43.851-81.097c4.74-2.54,9.312-5.756,13.715-9.142
				c16.084-13.206,24.039-28.952,24.039-47.406c0-1.354,0-2.539,0-3.556c0-1.354,0-2.54,0-3.893
				C571.338,232.046,563.552,216.299,547.975,202.925z M496.507,262.521c0.169,7.788-3.217,13.374-10.159,16.761
				c-6.771,3.556-14.56,4.91-23.363,4.571v-42.495c8.466-0.846,16.254,0.676,23.195,4.233
				C492.95,248.976,496.507,254.731,496.507,262.521z M89.838,283.853v-42.495c8.634-0.846,16.252,0.676,23.024,4.233
				c6.941,3.386,10.498,9.141,10.498,16.93c0.169,7.788-3.217,13.374-10.158,16.761C106.429,282.837,98.641,284.191,89.838,283.853z
				 M289.786,320.592h-34.369l17.27-69.922L289.786,320.592z"/>
			<path d="M658.7,183.624h-74.493v217.388H658.7v-86.007l51.978,86.007h87.191l-68.231-108.694l68.231-108.694h-94.473
				L658.7,266.244V183.624z"/>
			<path d="M266.761,4.5h-61.289v174.214h60.78V92.538L376.3,273.187V4.5h-56.886v86.176L266.761,4.5z"/>
			<path d="M200.393,178.714V4.5h-66.198v174.214H200.393z"/>
			<path d="M129.116,119.458H70.029V4.5H4v174.214h125.116V119.458z"/>
		</g>
	</g>
</g>
</svg>
