<svg version="1.1" viewBox="0.0 0.0 870.4251968503937 558.6141732283464" fill="none" stroke="none" stroke-linecap="square" stroke-miterlimit="10" xmlns:xlink="http://www.w3.org/1999/xlink" xmlns="http://www.w3.org/2000/svg"><clipPath id="p.0"><path d="m0 0l870.4252 0l0 558.6142l-870.4252 0l0 -558.6142z" clip-rule="nonzero"/></clipPath><g clip-path="url(#p.0)"><path fill="#000000" fill-opacity="0.0" d="m0 0l870.4252 0l0 558.6142l-870.4252 0z" fill-rule="evenodd"/><path fill="#000000" d="m52.697304 437.15472c3.4430656 -6.4591064 21.975128 -26.63095 41.316795 -55.449677c19.341667 -28.818756 52.454544 -83.774445 74.733215 -117.46283c22.278656 -33.688385 39.49559 -59.028748 58.93878 -84.667496c19.443207 -25.638748 41.214203 -51.57589 57.720398 -69.16501c16.506226 -17.589111 32.000275 -29.612183 41.316803 -36.369682c9.316528 -6.7574997 11.949463 -5.0694275 14.582397 -4.175316c2.6329346 0.89411926 3.5440674 6.3600006 1.21521 9.540001c-2.3288574 3.1800003 -9.011414 4.7700043 -15.188416 9.540001c-6.177002 4.7699966 -8.809937 5.1675034 -21.873596 19.080002c-13.06366 13.912498 -34.73578 36.371246 -56.508392 64.395004c-21.772598 28.023743 -55.595657 77.11499 -74.1272 103.74748c-18.531525 26.632507 -24.60646 37.26538 -37.061996 56.047516c-12.455536 18.782135 -26.936935 41.937805 -37.671204 56.645325c-10.734268 14.707489 -18.835602 23.550568 -26.734398 31.59967c-7.8988037 8.049103 -24.10147 23.154114 -20.658401 16.695007z" fill-rule="evenodd"/><path fill="#000000" d="m278.80804 372.41934c-20.875305 -15.84314 -95.162506 -69.07944 -129.50652 -87.90384c-34.344025 -18.824371 -56.00074 -21.763367 -76.5576 -25.04248c-20.55687 -3.2791138 -34.935673 1.8894348 -46.783607 5.367798c-11.847935 3.4783936 -21.164467 9.540009 -24.304 15.502502c-3.1395326 5.962494 -2.026928 14.807129 5.466805 20.272522c7.4937334 5.4653625 23.090393 11.128418 39.495594 12.519684c16.405201 1.3912354 41.112675 -2.1846924 58.935604 -4.1722107c17.822937 -1.9874878 42.229538 -5.268158 48.002 -7.7528076c5.772461 -2.4846191 -4.4557343 -7.0558777 -13.367203 -7.154999c-8.9114685 -0.099121094 -25.519196 4.9703064 -40.1016 6.5603333c-14.582397 1.5899963 -34.531662 3.2780457 -47.3928 2.9796753c-12.86113 -0.29840088 -23.393927 -2.4846497 -29.773993 -4.7700195c-6.380066 -2.2853394 -8.000333 -6.060547 -8.5064 -8.942169c-0.5060682 -2.8816223 2.1279287 -5.862854 5.4699945 -8.347504c3.3420658 -2.4846191 7.8988 -4.771576 14.582401 -6.5603027c6.6835976 -1.7887573 15.392532 -4.17218 25.5192 -4.17218c10.126667 0 18.7346 -0.8956909 35.240803 4.17218c16.506195 5.0678406 42.02433 14.210358 63.796394 26.234985c21.77208 12.024628 50.719986 34.93878 66.83601 45.91281c16.116013 10.97403 21.744415 14.522858 29.860107 19.931335c8.115692 5.4085083 14.98587 11.62558 18.834015 12.519684c3.848114 0.8941345 25.130066 8.688141 4.2547913 -7.154999z" fill-rule="evenodd"/><path fill="#000000" d="m131.68573 295.24854c0.8101349 -1.490387 14.479797 -4.1722107 18.834 -4.1722107c4.3542023 0 8.101334 2.6818237 7.2911987 4.1722107c-0.8101349 1.4903564 -7.7977905 4.769989 -12.151993 4.769989c-4.3542023 0 -14.78334 -3.2796326 -13.973206 -4.769989z" fill-rule="evenodd"/><path fill="#000000" d="m62.76115 214.15845c-1.9530373 6.019348 -2.9369965 9.740311 -2.430397 14.907806c0.5065994 5.1674957 2.9380608 12.420578 5.46999 16.097183c2.5319366 3.6766205 7.190201 5.4653625 9.721603 5.962509c2.5314026 0.49713135 5.163269 -1.58844 5.4668045 -2.9796906c0.30353546 -1.3912506 -2.2278671 -3.8769226 -3.6455994 -5.367813c-1.4177322 -1.4908905 -3.7471313 -1.7887573 -4.8608017 -3.5774994c-1.1136627 -1.7887573 -2.63134 -2.087143 -1.8212051 -7.154999c0.8101349 -5.067871 1.9227371 -13.556213 6.682007 -23.252182c4.7592697 -9.695984 11.645401 -21.351807 21.873604 -34.923676c10.228195 -13.571854 23.69799 -30.990387 39.495598 -46.507492c15.797592 -15.517105 35.441727 -32.568916 55.289993 -46.59514c19.848267 -14.026222 43.343735 -27.767097 63.79959 -37.562183c20.455872 -9.79509 36.454407 -15.983988 58.935608 -21.208347c22.481201 -5.2243614 54.179016 -9.740315 75.9516 -10.137815c21.772614 -0.39750004 38.452637 3.0819292 54.68399 7.7528152c16.231384 4.670885 29.915924 10.832136 42.704254 20.272501c12.7883 9.440361 24.5065 23.195847 34.025604 36.369686c9.519043 13.173836 19.1391 31.174011 23.088806 42.673347c3.949646 11.499329 3.444641 18.656418 0.6091919 26.322632c-2.8355103 7.6662292 -7.5963745 12.519684 -17.62201 19.674683c-10.025696 7.154999 -23.624115 14.893738 -42.532013 23.255325c-18.907898 8.361572 -33.47592 14.478485 -70.915375 26.914185c-37.439423 12.435699 -109.872986 34.979996 -153.72119 47.699997c-43.848206 12.720001 -92.355194 22.657501 -109.368 28.619995c-17.012802 5.9625244 -3.1390076 8.247864 7.2911987 7.154999c10.430191 -1.092865 15.492462 -2.6818237 55.29001 -13.712158c39.79753 -11.030365 140.55812 -39.537186 183.4952 -52.470016c42.937073 -12.932831 50.835876 -15.572922 74.1272 -25.126999c23.29132 -9.554092 51.139374 -21.862503 65.62082 -32.19751c14.481384 -10.334991 18.432129 -19.761276 21.267578 -29.8125c2.8354492 -10.051224 -1.1152344 -20.343964 -4.254822 -30.49482c-3.1395264 -10.150856 -6.5825806 -18.286568 -14.582397 -30.410316c-7.999756 -12.123749 -23.492249 -32.03996 -33.41638 -42.332184c-9.924133 -10.292225 -15.495117 -13.600552 -26.128387 -19.421162c-10.63327 -5.82061 -24.608063 -11.825886 -37.671204 -15.502501c-13.063141 -3.6766143 -25.821686 -5.762185 -40.70761 -6.557185c-14.885925 -0.795 -29.569855 -0.8956791 -48.608 1.787185c-19.038116 2.6828644 -44.45581 7.35375 -65.62079 14.31c-21.165009 6.956249 -44.327164 18.327776 -61.3692 27.4275c-17.042038 9.099724 -23.94252 13.897373 -40.883026 27.170845c-16.940506 13.273476 -43.84874 35.86003 -60.760002 52.47c-16.91127 16.609978 -31.593605 35.647713 -40.707603 47.189827c-9.113998 11.542099 -10.099022 14.850952 -13.976395 22.062805c-3.8773727 7.2118683 -7.334793 15.188995 -9.28783 21.208359z" fill-rule="evenodd"/><path fill="#000000" d="m296.3433 241.32947c-2.9370117 1.8878632 -6.0760193 5.2097473 -8.506409 8.347504c-2.4303894 3.137741 -4.2532043 6.8446045 -6.075989 10.478973c-1.822815 3.634369 -4.0506897 7.2530518 -4.8608093 11.327179c-0.81015015 4.074127 -1.4177246 9.63913 0 13.117493c1.4177246 3.4783936 5.063324 6.2619324 8.506409 7.752838c3.4430542 1.4908752 7.797241 2.2858582 12.151978 1.1924744c4.3547363 -1.0933838 7.596344 -1.8894043 13.97641 -7.7528076c6.380066 -5.863373 20.253326 -20.868744 24.303986 -27.42749c4.0506897 -6.5587616 3.7471313 -11.328751 0 -11.925003c-3.7471313 -0.59625244 -18.432129 4.7700043 -22.482788 8.347504c-4.050659 3.5774994 1.1152649 8.844101 -1.8211975 13.117508c-2.9364624 4.2733765 -11.746948 10.137787 -15.797607 12.522797c-4.050659 2.3850098 -7.7972717 3.4768372 -8.506409 1.7872009c-0.70910645 -1.6896362 1.5176697 -8.745026 4.2516174 -11.925018c2.7339478 -3.1799927 9.822601 -1.8315125 12.152008 -7.154999c2.3293762 -5.323456 3.0395813 -21.151474 1.8243713 -24.785843c-1.2151794 -3.6343536 -6.178589 1.0918274 -9.11557 2.9796906z" fill-rule="evenodd"/><path fill="#000000" d="m292.69632 267.31177c3.2405396 0.93688965 7.0902405 1.8028564 12.7612 0.8513489c5.670929 -0.95150757 24.504913 -5.623413 21.264404 -6.5603027c-3.2405396 -0.93688965 -35.036682 -0.012542725 -40.70761 0.93896484c-5.670929 0.95150757 3.4414673 3.8330994 6.682007 4.769989z" fill-rule="evenodd"/><path fill="#000000" d="m300.5976 256.57925c0.30352783 -1.3912506 13.973206 -1.8894196 16.403595 -0.59780884c2.43042 1.291626 0.91275024 8.247864 -1.8211975 8.347504c-2.7339172 0.09963989 -14.885925 -6.358429 -14.582397 -7.749695z" fill-rule="evenodd"/><path fill="#000000" d="m299.98923 263.1371c2.0253296 0.59625244 10.126678 -1.3912354 9.721619 -2.3849792c-0.40509033 -0.9937744 -10.531738 -3.975006 -12.152008 -3.5775146c-1.6202698 0.39749146 0.4050598 5.3662415 2.4303894 5.962494z" fill-rule="evenodd"/><path fill="#000000" d="m301.20294 237.49835c1.2151794 0.9937439 6.075989 4.96875 7.2911987 5.962494" fill-rule="evenodd"/><path fill="#000000" d="m327.33008 246.4394c-2.0253296 -0.79499817 2.4303894 -6.5858765 0 -6.55719c-2.4303894 0.028701782 -10.632751 4.7418365 -14.582397 6.7293396c-3.9496765 1.9874878 -6.583679 6.019348 -9.115601 5.1956635c-2.5319214 -0.8236847 -7.493744 -6.858185 -6.075989 -10.137817c1.4177246 -3.2796326 9.721588 -7.3537445 14.582397 -9.539993c4.860779 -2.1862488 10.531738 -3.7762604 14.582397 -3.5774994c4.050659 0.19874573 7.5947266 2.086609 9.721588 4.769989c2.1268616 2.6833954 4.5583496 9.1440735 3.0396118 11.330322c-1.5187378 2.1862488 -10.126678 2.5821838 -12.152008 1.7871857z" fill-rule="evenodd"/><path fill="#000000" d="m362.57266 240.13805c5.974457 -0.3975067 12.454468 0.20031738 16.403595 1.7903137c3.9491577 1.5899963 6.0760193 5.265564 7.2911987 7.7496796c1.21521 2.4841156 -2.4303894 7.6516113 0 7.154999c2.43042 -0.49661255 8.303864 -6.358429 14.582397 -10.134674c6.278534 -3.7762604 17.822937 -10.236938 23.088806 -12.522827c5.265869 -2.2858734 6.177002 -1.7887421 8.506409 -1.1924896c2.3294067 0.5962372 4.659851 2.981247 5.470001 4.769989c0.8101196 1.7887573 0.9100647 3.5774994 -0.6091919 5.962509c-1.5192871 2.3849945 -3.8481445 3.4778595 -8.506409 8.347504c-4.658264 4.869629 -14.582397 14.709045 -19.443207 20.8703c-4.8608093 6.161255 -10.936798 14.20932 -9.721588 16.097198c1.2151794 1.8878479 8.506409 -0.39749146 17.012787 -4.7700195c8.506409 -4.3724976 20.455872 -11.471161 34.025604 -21.464996c13.569733 -9.993835 37.0636 -29.838577 47.39279 -38.498016c10.329224 -8.659454 7.7972717 -4.7559204 14.582397 -13.458664c6.7851562 -8.702744 19.748352 -30.211563 26.128418 -38.757812c6.380066 -8.546249 7.4937134 -11.923447 12.151978 -12.519684c4.658264 -0.59625244 14.27887 5.6630707 15.797607 8.942184c1.5187378 3.2791138 -0.5076294 3.6766052 -6.6851807 10.732498c-6.1775513 7.0558777 -18.532104 19.975677 -30.380005 31.602814c-11.847961 11.627136 -27.947998 27.3143 -40.70761 38.160004c-12.759613 10.845688 -25.318268 19.44725 -35.850006 26.9142c-10.531708 7.4669495 -19.239044 13.316223 -27.340393 17.887482c-8.101318 4.5712585 -14.887543 9.042877 -21.267609 9.540009c-6.380066 0.49713135 -13.873779 -3.4768372 -17.012787 -6.55719c-3.1390076 -3.0803528 -3.4414673 -6.856598 -1.8211975 -11.924988c1.6202698 -5.06839 12.555481 -17.193176 11.542786 -18.485321c-1.0126648 -1.2921448 -7.2895813 3.8753662 -17.618805 10.732483c-10.329193 6.857147 -34.533264 23.751953 -44.356384 30.41034c-9.82312 6.658386 -10.025665 9.142487 -14.582397 9.539978c-4.556732 0.39752197 -13.062073 -4.0740967 -12.757996 -7.154999c0.30404663 -3.0808716 5.367401 -4.0756836 14.582397 -11.330292c9.214996 -7.2546387 32.302734 -24.545898 40.70761 -32.19751c8.404846 -7.6516113 10.126648 -11.724686 9.721588 -13.712189c-0.4050598 -1.987503 -4.8608093 0.09806824 -12.152008 1.7871857c-7.2911987 1.6891022 -24.50653 8.347488 -31.595184 8.347488c-7.088684 0 -13.266205 -5.2671204 -10.936798 -8.347488c2.3293762 -3.080368 17.520447 -7.7496796 24.913177 -10.134689c7.3927307 -2.3849945 13.46875 -3.7778168 19.443207 -4.175308z" fill-rule="evenodd"/><path fill="#000000" d="m499.8904 234.7726c-8.000336 10.789352 -6.5836487 13.713745 -9.115601 21.464981c-2.5319214 7.751251 -5.873474 16.397156 -6.075989 25.042511c-0.20254517 8.645355 1.6202698 19.973083 4.8608093 26.829681c3.240509 6.8566284 9.620056 12.123749 14.582397 14.309998c4.962311 2.1862488 13.469788 -0.39749146 15.191589 -1.1925049c1.7218018 -0.7949829 -2.9364624 -2.8393555 -4.860779 -3.5774841c-1.9243774 -0.7381592 -4.254822 0.5821533 -6.685211 -0.8513489c-2.43042 -1.4335022 -5.770874 -3.916565 -7.897217 -7.7496643c-2.1263428 -3.83313 -5.3668823 -7.2421265 -4.8608093 -15.248993c0.506073 -8.006866 1.92276 -17.63086 7.897217 -32.792175c5.974457 -15.161346 21.97461 -46.59149 27.949585 -58.175858c5.9750366 -11.584351 13.064758 -16.653793 7.9003906 -11.330307c-5.1643066 5.323471 -30.886047 32.481796 -38.886383 43.271164z" fill-rule="evenodd"/><path fill="#000000" d="m517.59467 228.72517c2.6329346 -3.975006 12.455505 -18.781616 15.797607 -23.850006c3.342041 -5.0683746 3.5456543 -5.466919 4.2547607 -6.5603027" fill-rule="evenodd"/><path fill="#000000" d="m542.5063 197.72081c-4.860779 5.8628693 -12.354492 12.420578 -17.012756 18.482193c-4.658325 6.0615997 -7.8988037 13.316238 -10.936829 17.887497c-3.0379944 4.5712433 -4.658264 8.347504 -7.2911987 9.539993c-2.6329346 1.1925049 -16.506195 9.042862 -8.506409 -2.3849945c7.999817 -11.427872 47.18866 -56.14557 56.505188 -66.18219c9.316528 -10.036606 1.5203247 2.1862488 -0.60595703 5.962509c-2.1263428 3.776245 -7.2911987 10.832123 -12.152039 16.694992z" fill-rule="evenodd"/><path fill="#000000" d="m557.0904 152.91518c3.0379639 -3.7762604 7.4937134 -9.83786 13.3671875 -16.695007c5.873474 -6.857132 15.392517 -18.385674 21.873596 -24.447807c6.481079 -6.0621414 12.962158 -10.235886 17.012817 -11.925003c4.050659 -1.6891174 6.075989 0.10067749 7.2911987 1.7903137c1.21521 1.6896362 1.21521 5.763748 0 8.347504c-1.21521 2.5837479 -0.9111328 -0.59625244 -7.2911987 7.154999c-6.380066 7.751251 -23.697998 30.011253 -30.989197 39.3525c-7.2911987 9.341248 -8.302307 11.527496 -12.757996 16.694992c-4.4557495 5.167511 -9.723206 11.825897 -13.97644 14.310013c-4.253174 2.4841003 -11.644287 5.364685 -11.542786 0.5946808c0.1015625 -4.7700043 9.316528 -23.351822 12.151978 -29.214691c2.8355103 -5.862854 1.822815 -2.1862488 4.86084 -5.962494z" fill-rule="evenodd"/><path fill="#000000" d="m597.1067 206.91948c-0.50665283 -1.8878632 12.454468 -11.229111 22.479553 -17.887497c10.0251465 -6.658386 22.177185 -13.715317 37.671204 -22.062805c15.49408 -8.347504 44.761475 -25.339325 55.293213 -28.022186c10.531738 -2.6828613 9.011414 8.744995 7.897217 11.925003c-1.1141968 3.1799927 -4.1522217 2.0871277 -14.582397 7.154999c-10.430237 5.067856 -34.12555 16.196808 -47.99884 23.252182c-13.87323 7.055359 -25.114136 14.80661 -35.240784 19.080002c-10.126648 4.2733765 -25.012573 8.448181 -25.519165 6.5603027z" fill-rule="evenodd"/><path fill="#000000" d="m562.6447 268.6719c-0.43371582 -3.1231384 0.8707886 -6.173767 2.8673706 -8.601013c1.9966431 -2.4272766 3.8465576 -3.3787537 9.112427 -5.962509c5.265869 -2.5837555 8.71051 -4.96875 22.482788 -9.540009c13.772278 -4.5712433 46.075012 -14.210358 60.150818 -17.887497c14.075806 -3.6771393 19.1391 -4.2744293 24.304016 -4.175308c5.164856 0.099105835 5.7734985 2.7825012 6.6851807 4.769989c0.9116821 1.987503 1.0126343 5.5650024 -1.21521 7.154999c-2.2278442 1.5900116 -3.9491577 0.4966278 -12.151978 2.3850098c-8.202881 1.888382 -22.077759 4.175308 -37.065247 8.9453125c-14.987427 4.7700043 -42.429382 15.500931 -52.85956 19.674698c-10.430237 4.1737366 -11.876648 2.542511 -9.721619 5.367798c2.1550293 2.8252869 11.208984 7.112213 22.651855 11.583832c11.442871 4.4716187 32.362793 10.362671 46.00537 15.24585c13.642517 4.883209 13.368774 4.2577515 35.849976 14.053345c22.481201 9.795624 70.07495 30.09784 99.03723 44.720337c28.96222 14.622467 59.64734 32.963287 74.73639 43.014496c15.088989 10.0512085 13.671265 12.423187 15.797607 17.292816c2.1262817 4.869629 1.213562 10.434631 -3.0396118 11.924988c-4.253235 1.490387 -8.302307 -0.59780884 -22.479614 -2.9828186c-14.177307 -2.3849792 -35.849976 -6.7559204 -62.58441 -11.327179c-26.734375 -4.571228 -70.07495 -12.224426 -97.82202 -16.100311c-27.74701 -3.875885 -46.68524 -5.5650024 -68.66034 -7.154999c-21.975159 -1.5899963 -41.62091 -2.3850098 -63.19043 -2.3850098c-21.569519 0 -45.582764 0.7950134 -66.22681 2.3850098c-20.644043 1.5899963 -35.170624 3.2791138 -57.63748 7.154999c-22.466827 3.875885 -54.0748 10.819092 -77.163605 16.100311c-23.088806 5.2812195 -36.963654 7.1263123 -61.3692 15.587006c-24.405518 8.460724 -54.481445 20.11496 -85.06398 35.177185c-30.582535 15.062225 -75.516235 41.52469 -98.431206 55.196198c-22.91497 13.671448 -30.928596 20.472778 -39.05863 26.832764c-8.130039 6.3600464 -6.987137 10.433105 -9.7216 11.327209c-2.7344666 0.894104 -5.875061 -3.1799927 -6.685196 -5.9625244c-0.8101349 -2.7824707 -1.6186714 -6.2608643 1.8243942 -10.732483c3.4430656 -4.4716187 3.0364075 -5.7053223 18.834003 -16.097168c15.7976 -10.391846 46.38173 -30.39624 75.9516 -46.253998c29.56987 -15.857727 71.854675 -36.456787 101.467606 -48.892487c29.61293 -12.435699 45.28029 -17.658508 76.209946 -25.72168c30.929657 -8.063202 73.31708 -17.589142 109.36798 -22.657501c36.050934 -5.06839 70.58261 -7.4544373 106.93759 -7.752838c36.35504 -0.29837036 74.54822 2.3850098 111.192444 5.9625244c36.644165 3.5774841 76.78827 10.334991 108.67267 15.502472c31.8844 5.167511 71.3927 15.005371 82.633606 15.502502c11.240845 0.49716187 -8.403809 -7.9484253 -15.188416 -12.519684c-6.784607 -4.571228 -16.70874 -10.080933 -25.519226 -14.907806c-8.810425 -4.826874 -11.545959 -6.4439697 -27.343567 -14.053345c-15.797607 -7.609375 -49.113037 -23.241241 -67.44202 -31.602814c-18.32898 -8.361572 -24.10144 -11.397614 -42.531982 -18.56668c-18.430542 -7.169098 -51.862915 -17.633453 -68.05121 -24.447815c-16.188293 -6.8143616 -23.320557 -12.009003 -29.078674 -16.438354c-5.7581177 -4.429352 -5.036255 -7.014679 -5.4700317 -10.137817z" fill-rule="evenodd"/></g></svg>