<?xml version="1.0" encoding="utf-8"?>
<!-- Generator: Adobe Illustrator 25.4.1, SVG Export Plug-In . SVG Version: 6.00 Build 0)  -->
<svg version="1.1" id="Calque_1" xmlns="http://www.w3.org/2000/svg" xmlns:xlink="http://www.w3.org/1999/xlink" x="0px" y="0px"
	 viewBox="0 0 500 500" style="enable-background:new 0 0 500 500;" xml:space="preserve">
<style type="text/css">
	.st0{stroke:#000000;stroke-width:4;stroke-linecap:round;stroke-linejoin:round;stroke-miterlimit:10;}
	.st1{fill:#070707;}
	.st2{fill:#FFFFFF;}
</style>
<g>
	<path d="M361.3,175.4c-1.8-1.7-1.8-3.4-0.5-5.5c0.4-0.6,0.4-1.6,0.6-2.4c-0.9,0.1-1.7,0.2-2.6,0.3c-0.9,0.2-1.7,0.5-2.6,0.6
		c-0.8,0.1-1.7-0.1-2.5,0.1c-0.6,0.1-1.3,0.5-1.6,1c-0.2,0.4,0,1.4,0.3,1.5c0.6,0.3,1.4,0.3,2,0c1.1-0.4,2.1-1.6,3.1-0.1
		c0.4,0.7,0.9,1.9,0.6,2.3c-0.7,0.9-1.9,1.7-2.9,1.9c-2.8,0.4-5.8,0.7-6-4.3c-1.2,1-1.9,1.7-2.7,2.2c-1.2,0.8-2.5,2-3.9,2
		c-5.5,0.2-10.9,0.1-16.4,0.1c-3.4,0-4-0.9-3.2-4c0.4-1.6-0.4-2.4-1.8-2.8c-1.5-0.4-2,0.7-2,1.9c0,0.5,0,1.1,0,1.6
		c0,0.8,0,1.7,0,2.5c-1,0-2.3,0.3-3-0.2c-1.7-1.2-3.2-0.8-4.8,0c-1.5,0.8-2.5,0.3-3.3-1.1c-0.3-0.6-0.7-1.3-1.2-1.6
		c-1.7-1-1.6-2-0.2-3c1.3-0.8,1.1-1.4,0.2-2.2c-2.2-2-2.9-6.7-1.1-9.1c1-1.3,0.8-2.3,0.1-3.6c-0.5-1-0.9-2.2-0.9-3.3
		c-0.1-9.8-0.1-19.6,0-29.4c0-1.1,0.5-2.2,0.6-3.3c0.2-1.8,0.2-3.6,0.2-5.4c0-0.9-0.5-2.1-0.1-2.8c1.9-2.9,0.8-5.8,0.5-8.8
		c-0.2-2.2-0.8-4.3-0.8-6.4c-0.2-10-0.3-20-0.5-30c0-1.5,0.2-3.1,0-4.6c-0.3-2.4-1.7-3.6-4.1-3.5c-2.8,0-5.6,0.3-8.3,0.4
		c-1.9,0.1-3.8-0.2-5.7,0c-1.8,0.2-2.9,2.4-2.7,4.3c0.2,1.7,0.1,3.5,0.2,5.3c0,0.5,0,1.3,0.3,1.6c1.3,1.3,1.1,2.5,0.5,4.2
		c-1.1,3-1.1,6.2-0.5,9.4c0.6,3.4,1.2,6.8,1.2,10.2c0.2,10.3,0.1,20.6,0,31c0,1.6-0.3,3.4-1,4.7c-1.2,2.3-0.6,4.3,0,6.5
		c0.4,1.6,0.9,3.3,1,5c0.1,4.2-0.2,8.4,0.1,12.5c0.2,3.5-0.8,6.6-1.5,9.9c-0.2,0.8-0.1,1.9,0.4,2.4c2.1,2.1,0.7,4.3,0.1,6.2
		c-0.6,2-2.4,2.5-4.5,2.6c-2.3,0.1-4.7,0.6-6.8,1.6c-5.4,2.4-12.8-2.1-12.8-7.9c0-8.8,0-17.6,0-26.4c0-0.9,0-2,0.5-2.6
		c2.2-2.2,1-4.5,0.5-6.9c-0.3-1.4,0-2.8,0-4.3c0-1.3,0.2-2.5,0-3.7c-0.3-2.3-1-4.5-1.1-6.8c-0.1-14.2,0-28.4-0.1-42.6
		c0-2.1-0.7-4.3-0.7-6.4c0-1.4,0.5-2.9,1-4.2c0.6-1.5,1.8-2.9,0.5-4.5c-1.3-1.7-3.2-1.4-5-1.4c-2,0-4,0-6,0c-1.5,0-3.1,0.1-4.6-0.1
		c-1-0.1-1.9-0.9-2.9-1c-0.9-0.1-1.9,0-2.6,0.5c-0.4,0.3-0.4,1.5-0.1,2.2c1.6,3.6,0.8,7.4,0.8,11.2c0,1.3-0.8,2.4-2.5,2.2
		c-0.1,0-0.4-0.1-0.4,0c-2.8,3.2-5.7,0.4-8.5,0.2c-1.4-0.1-2.9,0-4.2,0.4c-2.8,0.9-5-0.1-7-1.8c-0.4-0.4-0.4-1.2-0.5-1.8
		c-0.3-1.7-0.6-3.3-0.9-5c-0.3-1.7-0.5-3.5-0.7-5.2c-0.1-0.4,0-0.9-0.2-1.3c-1.1-2.1-2-4.5-3.6-6.3c-1.4-1.6-3.3-0.4-4.6,0.6
		c-1.6,1.3-3.6,2.6-4.2,4.3c-1.3,3.7-2.2,7.6-1.5,11.7c1.6,9.7,8,15.7,16.1,19.9c8.3,4.3,15.1,10.2,20.6,17.7c1.4,1.9,2.8,3.9,4,5.9
		c1.2,2.1,2.3,4.2,2,6.8c-0.1,1.4,0.5,2.9,0.6,4.4c0,1.1,0,2.7-0.7,3.3c-1.4,1.2-3.2,2-5,0.2c-0.9-0.9-1.8-1.8-2.7-2.7
		c-3-3-5.1-2.8-7.5,0.6c-0.6,0.8-0.9,1.9-1.1,2.9c-0.6,2.1-1,4.3-1.5,6.5c-0.1,0.6-0.3,1.3-0.3,2c0,0.5,0.3,1.1,0.7,1.3
		c0.4,0.1,1.1-0.1,1.3-0.5c1.8-2.8,4.6-2.8,7.4-2.6c1.6,0.1,2.9-0.2,3.8-1.7c0.9-1.5,1.8-1.3,2.8,0.2c2.6,4.2,2.5,8.6,1.6,13.2
		c-0.1,0.6-0.6,1.3-1.1,1.5c-2.2,0.8-4.5,1.5-6.7,2.3c-0.5,0.2-1,0.4-1.3,0.8c-0.2,0.2,0,1,0.2,1.1c0.5,0.3,1.4,0.6,1.7,0.4
		c2-1.5,3.7-1.1,4.8,1c1.2,2.1,1.7,3.7-0.3,6.1c-2.9,3.3-5.4,7-8.2,10.3c-2.7,3.2-6.4,5.1-10.1,6.9c-0.4,0.2-0.9,0.2-1.3,0.2
		c-1.8-0.1-3.5,0-5,1.3c-0.8,0.7-2.2,0.8-3.3,0.9c-2.8,0.2-5.7,0.4-8.5,0.4c-0.9,0-1.8-0.3-2.6-0.6c-3.9-1.7-7.7-3.4-11.5-5.3
		c-1.6-0.8-3.1-2.1-4.1-3.6c-3-4.5-5.9-9.1-7.5-14.3c-0.2-0.6-0.1-1.4,0.1-2c0.4-1.1,0.9-2.2,1.4-3.3c1.1-2.7,1.1-2.8-1.6-3.9
		c-1.6-0.6-2.3-1.6-2.2-3.4c0.1-3.8,0-7.6,0-11.4c0-2.8,2.3-5.4,5.1-5.4c3.9,0,7.8-0.8,11.6,1.1c0.4,0.2,1.2,0.1,1.7-0.2
		c1.2-0.6,2.2-1.4,3.6-0.3c1.7,1.3,3.1,2.6,3.1,4.8c0,4-0.1,8.1,0.1,12.1c0.1,1.5,0.8,3.2,1.7,4.4c1.2,1.7,2.9,3.1,4.4,4.5
		c1.7,1.7,3,1.7,4.6,0c1.1-1.1,2-1.2,3.4-0.6c0.7,0.3,1.9,0.2,2.4-0.3c0.6-0.6,1.2-2.1,0.9-2.5c-2.3-3.3-0.8-6.5-0.2-9.8
		c1.3-7.4-0.6-14.4-7.3-18.8c-0.7-0.5-1.5-0.9-2.2-1.5c-1.9-1.6-2-2.6-0.6-4.3c1.5-1.9,2.6-0.8,3.9,0.3c1.5,1.3,3.3,2.4,4.8,3.6
		c1.5,1.2,2.9,0.7,4-0.4c1.1-1.1,1.5-2.6,0.4-4.1c-0.8-1.1-0.9-2.1-0.2-3.3c0.8-1.3,1.4-2.8,2.2-4.3c-1.6-0.3-3.1-0.6-5.2-1
		c2-2.5,3.7-4.7,5.5-6.9c-3.8-1.9-8-0.4-9.4,3.2c-2,4.9-5.6,8.5-9.8,11.5c-1.7,1.3-5.2,0.4-7.5-1.4c-1.1-0.9-2.6-1.5-3.7-2.4
		c-1.8-1.5-3.7-3-5.2-4.8c-1.9-2.3-3.7-4.9-5.2-7.5c-1-1.8-1.6-3.8-1.8-5.8c-0.2-1.8,1.4-2.9,3.1-2.3c3.7,1.1,7.4,2,11.2,1.6
		c0.5,0,1.1,0,1.5,0.2c3.7,2.2,7.7,1.4,11.8,1.5c-0.2-2.1-1.1-3.1-3.3-3.2c-2.3-0.1-4.7-0.7-6.9-1.5c-0.9-0.4-1.4-1.9-2.3-3.4
		c-0.2,0-1.2,0-1.7,0.4c-3.1,2.3-6.4,1.4-9.6,0.5c-1.3-0.4-2.7-0.7-4.1-0.9c-2.3-0.4-3.4-1.7-3.4-4c-0.1-2.9-0.3-5.7-0.4-8.6
		c0-1.1,0.3-2.2,0.4-3.3c0.1-2.3-0.2-4.6,0.1-6.9c0.2-1.5,0.8-3.1,1.7-4.2c2-2.6,3.8-4.9,2.1-8.5c-0.5-1.1,0.1-3.1,0.7-4.4
		c1.3-2.8,3.1-5.3,4.3-8.1c1.4-3.2,3.8-4.7,7-5.6c3.1-0.9,6.2-2,9.4-2.8c0.9-0.2,2.2,0.1,3.1,0.5c2.1,1,4,1.8,6.5,0.9
		c2.7-1,4.2,1.9,6.2,3.1c0,0.3,0.1,0.5,0.1,0.8c-1,0.3-2,0.6-3,0.9c-0.9,0.3-1.7,0.5-2.6,0.9c-0.1,0.1,0,1.1,0.2,1.2
		c1.1,0.4,2.4,1.1,3.3,0.8c2.5-0.8,4.6-2.4,6-4.7c1.4-2.3,2.1-2.5,4-0.7c1.9,1.8,3.5,3.9,5.2,5.9c1.2,1.4,2.2,3,3.5,4.4
		c1.3,1.5,2.2,3,1.9,5.1c-0.1,1.3,0.3,2.3,1.6,2c0.6-0.1,1.4-1.4,1.4-2.1c0.1-2.1-0.2-4.2-0.3-6.3c-0.2-1.7-0.3-3.4-0.7-5.1
		c-0.9-3.8,1.8-6.8,5.5-6.5c1.8,0.1,3.7-0.5,5.5-0.8c1.4-0.2,2.9-0.6,4.2-0.3c4.8,1.1,9.6,1.3,14.5,0.8c3.9-0.4,7.8,0.5,11.7,0.2
		c4.4-0.3,8.7-1.4,13-1.9c1.9-0.2,4.2-0.5,5.7,0.4c3.2,1.8,6.1,1.8,9,0.1c2.4-1.3,4.8-1.1,6.9-0.2c3.7,1.7,7.3,1.2,11,0.7
		c1.4-0.2,2.8-0.3,4.2-0.4c2.1-0.2,4.2-0.5,6.3-0.4c1.7,0,3.5,0.2,5,0.9c2.5,1.1,4.8,1.1,7.3,0.1c0.8-0.3,2,0.2,3,0.2
		c0.7,0,1.5,0,2.2-0.1c0.8-0.1,1.6-0.5,2.2-0.3c1.3,0.3,2.6,1,4.2,1.7c0.4,2.7,0.8,5.8,1.3,8.9c0.3,1.9-0.7,2.9-2.3,3.5
		c-2.7,1.1-3,1.7-1.9,4.7c0.5-0.1,1-0.2,1.4-0.5c1.1-0.6,2.3-0.7,2.6,0.5c0.2,0.9-0.2,2.2-0.8,3.1c-0.4,0.6-1.4,0.8-2.1,1.2
		c-1.1,0.6-1.5,1.3-1,2.7c1.1,3,0.3,3.8-2.9,3.9c-3,0.1-6.2-0.8-9,1.2c-0.2,0.1-0.7,0.2-0.9,0c-3.9-2.7-8.8-0.9-12.9-3
		c-0.4-0.2-1.7,0.5-2,1.1c-0.5,0.9-0.8,2.1-0.8,3.2c-0.1,7.1,0,14.1-0.1,21.2c0,3.2-0.1,4,3.9,4c6.8,0,13.7,0,20.5,0
		c5,0,5.2,1.1,6.1,5.7c0.5,2.2,0.6,4.3-0.4,6.6c-0.7,1.6,2.5,5.3,4.2,4.9c0.6-0.1,1.5-1.2,1.5-1.9c0.1-4.6,0.5-9.2-1.3-13.6
		c-0.2-0.6-0.3-1.6,0-2c1.1-1.4,0.7-2.6,0.1-4.1c-0.5-1.3-0.2-3-0.2-4.5c0-0.9,0.2-1.9,0-2.7c-0.7-3.1-0.6-5.9,1.3-8.6
		c0.3-0.4,0.3-1.3,0-1.7c-2.1-4.3-2.2-8.5-0.4-12.9c1.4-3.5-0.3-6.7-1-10c-0.9-3.8-0.6-7.6,1.5-11.1c1.2-2.1,2.6-2.5,4.8-1.5
		c1.9,0.9,3.9,1.4,6.1,0.7c1-0.3,2.3-0.3,3.4,0c1.7,0.5,3,0.3,4.4-0.7c0.5-0.4,1.6-0.2,2.3-0.1c2.5,0.3,5,0.9,7.5,1.1
		c1.6,0.1,2.5,0.8,2.8,2.1c0.9,3.7,2.5,7.2,2,11.2c-0.1,1.1,0,2.3,0.5,3.3c1.4,2.7,1.1,5.7,1.3,8.6c0.2,2.6,0.9,5.1,1.4,7.6
		c0.1,0.6,0.4,1.2,0.3,1.7c-0.9,2.9-0.1,5.7,0.4,8.6c0.6,3,0.9,6.2,1.4,9.2c0.7,3.7,1.4,7.4,2.3,11.1c0.4,1.7,1.2,3.3,2,5.2
		c-2.5,2.7-1.3,6.4-1.5,9.8c0,0.4,0.6,1.3,0.9,1.3c0.6-0.1,1.6-0.5,1.7-0.9c0.3-1.8,0.5-3.6,0.5-5.4c-0.1-3.9-0.3-7.8-0.4-11.7
		c0-1.2,0.3-2.3,0.5-3.5c0.4-2.3,0.8-4.7,1.2-7c0.3-1.8,0.7-3.6,1.1-5.4c0.3-1.3,0.6-2.6,0.7-3.9c0.5-4.4,0.9-8.8,1.4-13.1
		c0.5-4.4,1.5-8.7,1.6-13.1c0.1-4.3,0.8-8.3,2.1-12.3c1.3-4,1.1-3.9,5.5-3.3c1.5,0.2,3.1-0.2,4.7-0.4c2.8-0.4,5.5-1.2,8.3-1.3
		c2.6,0,5.2-0.9,7.9,0.3c3.5,1.6,4.7,2.8,5,6.5c0.1,0.8,0.3,1.6,0.7,2.3c1.7,2.8,1.3,5.8,0.3,8.7c-0.9,2.7-1.5,5.1-0.3,8
		c0.9,2.1,1,4.5,1,6.8c0.1,23.1,0.1,46.1,0,69.2c0,2.1-0.6,4.3-1.5,6.2c-0.6,1.3-2.2,2.2-3.5,3.1c-1.2,0.9-3.4,0.9-3.1,3.2
		c0.1,0.6,0.3,1.5,0.8,1.8c0.5,0.3,1.4,0.1,2-0.1c0.6-0.2,1.1-0.8,1.7-1.3c1.4,0.7,1.9,1.7,2,3.4c0.1,1.6,0.7,3.2,1.1,4.9
		c0.2,0.9,0.6,1.9,0.6,2.8c0.1,3.2-0.1,6.4,0.1,9.6c0.1,2.6-0.8,4.4-3,5.8c-2.2,1.4-2.6,3.3-1.2,5.8c1.1-1.4,2.1-2.7,3.5-4.4
		c0.5,2.4-0.6,3.9-1.7,5.2c-0.8,1-2.1,1.2-3.8,0.6c-2.5-0.9-5.2-0.9-7.9-1.2c-1.5-0.1-2.7-0.2-3.3-2c-0.3-0.7-1.5-1.2-2.4-1.5
		c-1.6-0.4-2.2-1.1-1.4-2.7c0.6-1.4,1-2.8-0.6-4c-0.5-0.5-0.6-1.7-0.6-2.5c-0.1-2.6,0-5.2,0-7.8c0-0.6-0.1-1.3,0.2-1.8
		c1.7-2.6,1.2-5.2,0.4-8c-0.6-2.3,0-4.9-0.2-7.3c-0.2-2-0.9-4-1.3-6c-0.1-0.5-0.2-1.1-0.1-1.6c0.4-2,1.3-4,1.4-6
		c0.2-4.6,0.1-9.3,0-13.9c0-0.8-0.1-1.7-0.5-2.4c-0.3-0.5-1.1-0.9-1.6-0.8c-0.4,0.1-1,0.9-1,1.4c0,2.9,0.3,5.7,0.3,8.6
		c0,1.5-0.4,3.1-0.7,4.6c-0.3,1.5-0.9,3-1,4.5c-0.6,6.6-1.3,13.2-3.4,19.5c-0.2,0.6-0.4,1.4-0.2,2c1,3.6,0.1,6.9-1.1,10.3
		c-0.1,0.4-0.4,1-0.2,1.3c1.1,2.1,0.3,3.7-0.8,5.7c-1.1,2-0.5,4.9-1.2,7.2c-0.7,2.2-2,4.3-3.2,6.3c-0.2,0.4-1.5,0.6-2,0.3
		c-0.7-0.4-1.2-1.3-1.8-2c-1-1.2-2.1-2-3.6-0.7c-1.5,1.3-3,1.3-4.7,0.2c-0.9-0.6-1.9-0.9-2.8-1.4c-1.6-0.9-2.7-3.7-1.7-5
		c2.2-2.9,1.7-5.6,0.3-8.6c-0.5-1-0.2-2.3-0.3-3.4c-0.1-0.7,0-1.7-0.4-2c-1.8-1.4-1.3-3-0.4-4.4c1.2-1.7,1.1-3,0.1-4.8
		c-0.8-1.5-1.7-3-1.2-5c0.2-0.7-1.2-1.8-1.9-2.8c-0.4-0.7-0.9-1.4-1.1-2.1c-0.5-1.4-0.5-2.9-1.2-4.2c-1.3-2.8-1.4-5.8-1.2-8.8
		c0.1-0.9,0.2-2-0.2-2.6c-1.3-1.8-0.8-3.7-1.1-5.6c-0.4-2.7-1.2-5.3-1.8-8.1c-1.7-0.1-1.3,1.2-1.3,2.3c0.1,1,0.4,2.1,0.4,3.1
		c0,13.8,0,27.6,0,41.4c0,3,0.3,6-0.1,8.9c-0.4,3.8-1,7.7-2.2,11.3c-1.1,3.4-5.8,3.7-8,0.8c-1.8-2.4-1.8-2.3-3.2,0.4
		c-0.3,0.7-1.4,1.3-2.2,1.4c-2.5,0.5-4.7-0.2-6.6-2c-1-0.9-1.7-1-2.4,0.4C363,174.4,362,174.8,361.3,175.4z M365.7,147.5
		c0.2-1.9,0.4-3.2,0.5-4.6c0.2-3.8,0-7.6,0.6-11.3c0.3-2.2,1-4.2,0.4-6.6c-1-3.8-1.5-7.7,0.6-11.5c0.3-0.5,0-1.4-0.2-2.1
		c-0.4-1.2-1-2.5-1.6-3.6c-0.2-0.4-0.9-0.9-1-0.9c-1,0.9-2.5,1.7-2.7,2.7c-0.8,3.5-0.6,3.4-4.3,3.6c-1.6,0.1-3.6,0.2-4.6,1.1
		c-0.9,0.8-1.8,0.9-2.4,0.6c-4.7-2.8-9.8-1.5-14.8-1.7c-1.1-0.1-2.3,0.3-3.7,0.5c0,10.8,0,21.4,0,31.5c4.1-0.2,7.9-0.5,11.7-0.6
		c3.6-0.1,7.3,0.1,10.9,0C358.7,144.6,362.3,144.6,365.7,147.5z M442.1,122.3c-2.6-0.5-4.8-0.8-5.9,1.1c-1.1,1.8,0.3,3.2,1.8,4.4
		C439.3,126.1,440.6,124.4,442.1,122.3z M312,122.8c-2.5,0.7-2.9,2.5-3.1,4.3c-0.1,0.7,0.7,1.5,1.1,2.2c0.7-0.7,1.7-1.2,1.9-2
		C312.3,125.9,312,124.4,312,122.8z"/>
	<path d="M170.6,323.5c1.1-0.1,2.4-0.1,3.4-0.5c3.8-1.6,7.4-3.6,11.2-5.1c5.5-2.2,10.8-1.2,16,1.2c4.2,2,8.5,3.6,12.7,5.5
		c3,1.3,5,3.6,6.3,6.6c1.4,3.3,3.1,6.6,4.8,9.7c1.3,2.3,2.3,2.1,4.4,0.5c1.5-1.2,3.4-1.9,5.4-3c-1.4-1.6-2.9-3.5-4.6-5.3
		c-0.9-0.9-1-1.7-0.6-2.9c0.3-1.2,0.3-2.7-0.2-3.8c-2-4.6,0.7-6.9,4.7-6.4c4.5,0.5,9,1.2,13.5,1.9c2.2,0.3,3.1,2,4,3.8
		c0.9,1.9,1.9,3.7,2.8,5.5c0.7,1.3,1.4,2.6,2,3.9c0.9,1.8,1.6,3.7,2.7,5.3c1.1,1.5,0.6,2.5-0.3,3.6c-1.6,1.9-1.8,4.6-0.6,6.6
		c1.3,2,2.5,3.9,1.3,6.6c-0.4,0.8,0.2,2.3,0.8,3.1c4.1,4.7,4.6,10.1,3.6,16c-0.3,1.6,0.4,3.3,0.4,4.9c-0.1,4.4-0.4,8.9-0.4,13.3
		c0,1.4,0.3,2.9,1,4c1.9,3,2.3,6.2,2.6,9.6c0.3,3.3,0.5,6.5,0.8,9.8c0.2,0,0.4,0,0.6,0c0.5-4.4,1.1-8.7,1.3-13.1
		c0.2-4.3,0.1-8.7,0-13c-0.1-2.8,0.4-5.4,1.8-8c1.4-2.7,0.7-5.2-1.9-7.2c1.1-1.7,2.2-3.3,3.2-4.9c0.8-1.4,1.3-2.7,0.4-4.4
		c-0.5-1-0.4-2.7,0-3.9c0.6-1.7,1-3.2,0.8-5.1c-0.2-2.1,0.2-4.5,1.2-6.5c1.6-3.2,1.6-6.4,1.1-9.8c-0.2-1.4,0.3-3.2,1-4.5
		c2.4-4.5,1.8-9.2,1.3-13.9c-0.2-2.1,0.4-3.6,1.8-4.7c0.7-0.5,2.1-0.2,3.2,0.1c4,1.2,7.9,2.1,12.1-0.1c1.5-0.8,3.7-0.2,5.6,0
		c1.1,0.2,2.2,0.9,3.3,1.4c1.9,0.7,2.8,2.2,2.7,4.1c-0.2,2.9,0.5,5.4,2,7.9c0.4,0.8,0.3,1.9,0.3,2.9c0,1.3-0.3,2.6,1.4,3.4
		c2.4,1.2,2.4,3.8,3.1,6c0.9,2.9,1.7,5.9,1.9,8.9c0.4,4.7,0.3,9.3,0.4,14c0.1,1.4,0.1,3,0.6,4.2c2.2,4.8,2,9.7,1.3,14.8
		c-0.1,0.8,0.1,1.9,0.5,2.6c2.3,3.3,1.5,7.2,2.1,10.9c0.3,1.6,0.5,3.2,0.7,4.7c0.2,0,0.5,0,0.7,0c0.3-2.5,0.8-5.1,0.8-7.6
		c-0.1-7.3,0.8-14.3,3.5-21.1c0.3-0.7,0.2-1.5,0.2-2.2c-0.1-1.5,0.2-2.7,1.3-3.9c0.7-0.8,0.7-2.3,0.9-3.5c0.2-1.2-0.1-2.5,0.2-3.7
		c0.6-3,1.7-6,2.1-9.1c0.2-1.2-0.5-2.7-1.1-4c-1.7-3.4-1.6-3.6,0.7-5.6c1.7-1.4,2.2-3,1.3-5.1c-2.8-6.3-0.5-11.9,2.2-17.5
		c0.3-0.6,0.7-1.1,1.1-1.7c1.6-2.7,3.8-3.8,7-3.2c4.5,0.8,8.8,2,13.5,1.9c2.5-0.1,4.9,1.3,5.9,4c0.2,0.6,0.1,1.2,0.2,1.8
		c0.7,5.1-1.2,9.8-2.2,14.6c-0.8,4.1-1.5,8.3-2.2,12.4c-0.7,4.3-1.7,8.6-2.5,12.9c-0.5,2.5,0.1,5.2,0.4,7.9c0.2,2.5-0.7,4.2-2.8,5.4
		c-1.3,0.7-1.5,1.7-1.1,3c0.6,1.8,1.2,3.6,1.6,5.5c0.2,0.9-0.3,1.9-0.5,2.8c-0.5,2.3-1.6,4.6-1.5,6.9c0.4,8.2-1.6,16-3,24
		c-0.6,3.7-2,7.6-1.5,11.2c0.6,4.4-1.3,7.2-3.5,10.3c-1.3,1.8-2,3.9-3,5.8c-0.1,0.2,0,0.8,0.1,0.8c3.2,1.6,1.4,4.3,1,6.2
		c-0.5,2.7-1.4,5.5-4.4,6.8c-0.6,0.2-0.9,1.4-1,2.2c0,0.2,1,0.8,1.7,0.9c2.3,0.3,2.9,2.2,3.8,3.8c0.2,0.3,0.3,0.7,0.5,1
		c-1,1.9-2.6,2.6-4.7,2.6c-3.9-0.1-7.8-0.3-11.6,0.1c-3.3,0.3-6.6,1-9.8,1.9c-2.5,0.7-4.8,0.8-7.1-0.1c-3.3-1.3-3.6-3.5-3.5-7.3
		c0.1-4.2,1.4-8.8-1.7-12.7c-0.5-0.6-0.5-1.6-0.5-2.3c0.1-2.9,0.5-5.9,0.3-8.8c-0.2-2.6-1-5.1-1.5-7.6c-0.4-2.1-1.3-4.3-1.1-6.3
		c0.3-3-0.7-5.6-1.5-8.3c-0.8-2.9,0.3-5.7,2.8-7.3c0.4-0.3,1-0.5,1.3-0.9c0.7-1,1.2-2.1,1.8-3.1c-0.8-0.3-1.7-0.5-2.5-1
		c-1.7-1-3.6-1.9-5-3.3c-1.4-1.4-0.5-3,0.4-4.5c1.6-2.5,0.7-5-2.3-6.4c-2.2,2.2-1.5,4.9-1.4,7.6c0.1,2.5,0.2,5-1.1,7.3
		c-0.5,0.9-0.8,1.9-0.8,2.9c-0.1,4.8,0,9.6,0,14.3c0,0.7,0,1.4-0.3,2c-2.8,5.9-3.3,12.5-5.9,18.5c-0.6,1.3,0.2,3.2,0.3,4.8
		c0,1,0.1,2.1-0.2,2.9c-0.7,1.7-1.8,3.2-2.5,4.9c-0.3,0.6-0.3,1.6,0,2.3c0.8,2,0,3.5-1.3,5c-1.4,1.7-2.8,3.5-4,5.4
		c-1.7,2.8-6,4.5-9.4,3.1c-3.3-1.4-6.5-1.4-9.9-1.4c-1.4,0-2.8-0.2-4.2-0.5c-2.2-0.5-3.7-3.2-2.9-5.5c0.7-2.1-0.1-3.1-1.8-3.9
		c-1.8-0.9-2.3-2.3-1.8-4.3c0.6-2.3,1.4-4.6,1.5-7c0.1-2.1-0.6-4.2-1.2-6.3c-0.6-2.1-1.1-4-0.7-6.3c0.3-2.1-0.5-4.4-0.8-6.6
		c-0.2-1.2-0.7-2.3-0.8-3.4c-0.1-2.2-0.1-4.4,0-6.6c0.1-2.4-0.2-4.6-1.8-6.5c-1.1-1.3-1.2-2.7,0.1-4.2c1.5-1.7,1.2-3.3-0.6-4.7
		c-1.8-1.4-2.5-3.2-2.4-5.5c0.1-2.5-0.2-4.9-0.4-7.4c-0.1-0.6-0.7-1.1-0.8-1.6c-0.2-1-0.6-2.5-0.1-3c1.2-1.3,0.8-2.2,0.1-3.4
		c-1.3-2.1-1.2-4.4-0.8-6.7c0.1-0.7,0-1.6-0.3-2.3c-1.1-3-2.2-6-3.7-8.9c-0.6-1.2-0.4-3.2,0.3-4.4c1.7-3.3,1.7-3.6-1.4-5.2
		c-1.8-0.9-2-2-0.7-3.8c1.3-1.7,1.1-2.8-0.4-4.2c-1.1-0.9-1.9-2.1-3-2.9c-0.6-0.5-1.8-0.8-2.5-0.5c-1,0.4-1.9,1.4-0.9,2.7
		c1.7,2.2,2.5,4.6,1.9,7.4c-0.2,0.9,0.3,1.9,0.3,2.9c0,1.3,0.4,2.9-0.2,3.8c-2.6,3.6-1.2,7.2-0.5,10.8c0.2,0.9,0.3,1.8,0.4,2.6
		c0,14.4,0.1,28.8-0.1,43.3c0,2.3-1.2,4.7-1.8,7c-0.3,1.1-0.5,2.4-0.3,3.5c0.5,2.1,0.7,4.1-0.7,5.8c-1.6,2-0.9,4.5-1.8,6.6
		c-1.7,4.2-2,8.5-1.9,13c0.1,2.3-1.7,3.9-3.5,4.9c-5.4,3-10.9,5.7-16.4,8.4c-2.2,1.1-4.5,1.9-6.8,2.7c-0.4,0.2-1,0.1-1.4,0.1
		c-1.4,0.2-2.9,0.4-4.3,0.5c-1.2,0.1-2.4,0.2-3.6,0.2c-1.9,0-3.8-0.4-5.7-0.1c-3.5,0.6-6.9,2-10.5,0.8c-1.4-0.5-3.1-1.3-3.6-2.5
		c-1.4-3-4-3.8-6.7-4.7c-3.4-1.1-6.1-2.9-7.9-6.1c-1.6-2.9-3.3-5.6-5.2-8.3c-1.2-1.7-0.9-3.1,0.1-4.5c1.4-1.9,1.6-3.5,0.1-5.6
		c-1.8-2.5-1.9-5.6-1.3-8.4c0.4-1.9-0.1-3.3-1-4.5c-1.3-1.7-1-3.3,0.2-4.6c0.8-1,0.4-1.6,0-2.5c-0.5-1.1-1-2.3-1.1-3.5
		c-0.1-9.1,0.2-18.2-0.1-27.3c-0.2-5.6-1-11.1-1.9-16.7c-0.3-2-0.1-3.5,1.1-5c0.4-0.5,1-1,0.9-1.5c-0.5-3.4,0.8-6.3,2-9.2
		c0.3-0.8-0.2-1.9-0.1-2.8c0.4-2.9,1-5.9,1.4-8.8c0.2-1.4,0.3-2.9-0.1-4.1c-0.6-1.9-0.2-3.4,0.8-5c1.3-2,2.5-4.2,3.4-6.4
		c2.7-7.5,10.1-13.9,18.7-13.5c0.8,0,1.5,0.4,2.2,0.7c-0.4,0.6-0.8,1.1-1.1,1.7c-0.3,0.5-0.5,1.1-0.7,1.6
		C170.5,323,170.5,323.3,170.6,323.5z M191.2,449.4c0.2-0.1,0.9-0.4,1.5-0.9c1.5-1.1,2.7-2.2,3.5-4.3c1.4-3.6,2.4-7,2.1-10.8
		c0-0.1,0.1-0.3,0.2-0.4c2.2-3.2,2.1-6.9,2.1-10.6c0-1.4,0.3-2.9,1-4c1.1-2.1,1.4-3.9,0.2-6.3c-1.4-2.9-2.5-6.4,0.2-9.2
		c3.1-3.3,4-6.4,1.6-10.4c-0.9-1.5-1.2-3.2,0.5-4.7c0.9-0.8,0.8-2-0.6-2.7c-2.2-1-3.2-2.7-2.9-5.2c0.2-2.3,0.2-4.6,0-6.8
		c-0.1-1.5-0.3-3.2-1.1-4.5c-1.7-2.6-1.3-5,0.3-7.3c1-1.4,0.7-2.4,0.2-3.7c-1.3-3.5-2.5-6.9-3.5-10.5c-0.8-2.9-1.1-3.2-4-3.4
		c-2-0.2-4-0.9-6-1.3c-1.3-0.3-2.6-0.7-3.8-0.5c-3.6,0.6-4.8,3.3-5.3,6.5c-0.6,3-0.8,6.2-3.5,8.4c-0.8,0.7-1.3,2.1-1.4,3.2
		c-0.3,4.1,0,8.1-1.6,12.1c-1.1,2.7-0.4,6.4,0.5,9.3c0.7,2.4,1.3,4.5,1.1,7c-0.3,5.2-0.1,10.5-0.1,15.7c0,1,0.1,2,0.5,2.8
		c1,1.8,1.2,3.3-0.7,4.7c2.4,2,3,4.2,1.1,6.7c-0.3,0.4-0.4,1.1-0.5,1.7c-0.4,4.5-1.5,9,1,13.4c1.5,2.7,2,6,3,9c0,0.1,0,0.2,0,0.2
		c-0.5,2.3,1.1,2.8,2.8,3.3c2.4,0.7,4.8,1.3,7.3,2C188.1,448.4,189.4,448.8,191.2,449.4z M163.8,331.2c0.8-0.3,1.4-0.4,1.9-0.7
		c1.2-0.7,2.7-1.7,1.9-3.2c-0.7-1.4-2.2-0.6-3.3,0.1c-0.4,0.2-0.8,0.4-1.1,0.7c-0.5,0.5-0.9,1-1.3,1.5
		C162.5,330.2,163.2,330.7,163.8,331.2z"/>
	<path d="M451.9,347.4c0,8.6,0,17.2,0,25.7c0,1.2-0.3,2.6-1,3.6c-2.5,3.7-3.3,7.8-3.5,12c-0.2,5.5,0,11.1-0.1,16.6
		c0,4.9,0.3,9.8-1.6,14.7c-0.9,2.4-0.2,5.4-0.2,8.2c0,2.7,0.1,5.3,0,8c-0.1,2.5-0.4,5-0.4,7.4c-0.1,6-0.1,12,0,18
		c0.1,3.3-0.9,5.7-4,7.1c-2.9,1.3-5.7,3.5-8.8,3.9c-2.9,0.4-5.6,1.4-8.3,2.2c-1,0.3-2.4-0.2-3.5-0.5c-1.9-0.6-3.7-1.4-5.5-2.3
		c-0.6-0.3-1-1.4-1-2.1c0.1-5.2,0.3-10.4,0.4-15.6c0-0.3,0-0.6-0.1-0.9c-1.2-2.5-2.4-5-3.5-7.5c-0.3-0.7-0.8-1.3-0.9-2
		c-0.9-4.2-1.5-8.5-2.6-12.6c-0.8-3-1.6-6.2-3.3-8.6c-1.8-2.5-3.2-4.9-2.9-8c0-0.5-0.2-1-0.4-1.5c-1.2-3-2.5-6-3.4-9
		c-0.3-0.9,0.1-2.3,0.7-3.1c1.4-2.2,1.3-4.5-0.1-6.3c-3-4-3.7-8.2-3.1-13c0.1-0.7-0.5-1.8-1.1-2.2c-1.8-1.1-3.4,0-3.4,2.1
		c0,3.1,0.2,6.3,0,9.4c-0.4,6,0.4,11.9,2,17.6c1,3.7,0.8,7.3-0.8,10.6c-1.4,3.1-1.4,6.1-0.2,9.1c1.1,2.9,1.4,5.8,1.4,8.8
		c-0.1,5.6,0.1,11.2-1.7,16.7c-0.8,2.5-0.4,5.5-0.5,8.3c-0.1,1.7,0.1,3.4-0.2,5c-0.9,3.9-3.3,4.6-8.3,3.7c-0.7-0.1-1.5-0.3-2.2-0.3
		c-3.8-0.2-7.6-0.3-11.3-0.8c-0.8-0.1-1.5-1.6-2.1-2.6c-0.3-0.5-0.1-1.2-0.1-1.8c0-9.8,0-19.6,0-29.4c0-1.2-0.2-2.6-0.7-3.7
		c-2.4-5.7-2.2-11.3-0.3-17c0.6-1.8,1-3.8,1-5.7c0.1-6.6,0-13.2,0-19.8c0-20.4,0-40.7,0-61.1c0-1.9-0.1-3.8,0-5.7
		c0.1-0.7,0.7-1.7,1.3-1.9c2.6-1,5.3-1.9,8-2.6c2.4-0.6,5.1-0.5,7.4-1.2c5.2-1.7,14.9,0.1,17.4,5.7c0.7,1.6,0.7,3.5,1,5.3
		c0.4,2,0.8,3.9,1.1,5.9c0.4,2.3,1,4.7,1,7c0,4.7,1.7,8.8,3.9,12.9c1.1,2,1.9,4.2,2.7,6.3c0.1,0.3,0.3,0.8,0.2,1.1
		c-0.9,2.5-0.3,4.8,0.5,7.2c2,5.4,4,10.9,5.9,16.3c0.7,2.2,1.1,4.5,2,6.5c0.4,0.8,1.8,1.2,2.7,1.7c0.4-0.7,1.1-1.4,1.1-2.1
		c0.2-2.2,0.1-4.4,0-6.6c-0.1-2.6-0.2-5.2,1.7-7.5c0.5-0.6,0.8-1.9,0.5-2.5c-1.3-2.7-0.5-5.3,0.1-7.8c0.8-2.9,0.1-5.6-0.6-8.3
		c-0.8-3.3-1.5-6.7-1.7-10.1c-0.3-5.1-0.1-10.2-0.1-15.3c0-2.8,0.2-5.5-1.1-8.2c-0.8-1.6-0.3-3.3,1.1-4.7c3.5-3.5,8.3-4.2,12.8-2.3
		c1.5,0.6,3.8,0.7,5.3,0c3.6-1.7,6.7-0.6,9.7,0.9c0.8,0.4,1.3,2,1.3,3.1C451.9,330.1,451.9,338.8,451.9,347.4z"/>
	<path d="M65.3,471.5c-3.3-0.2-6.5-0.3-9.7-0.7c-1.8-0.2-3.2-1.3-4-3.2c-0.9-2.1-2.3-4-3.1-6.2c-0.5-1.3-0.9-3.3-0.3-4.4
		c2.1-3.8,1.5-7.3,0.3-11.1c-0.9-2.6-0.8-5.3,0.7-7.8c1.4-2.3,1.5-4.6,0.1-6.9c-1.2-2-1.3-3.9-0.9-6.2c0.5-2.2,0.1-4.6,0.2-6.8
		c0.1-1.4,1.2-3,0.7-4c-1.6-3.4-1.6-5.9,2.2-7.8c0.7-0.4,0.9-2.3,0.9-3.6c0-0.8-0.5-1.7-1-2.5c-3.5-6-3.9-12.3-3.1-19.1
		c0.6-4.7,1.1-9.3,3.7-13.5c-0.3-0.4-0.6-1-1-1.1c-3.2-1.1-3-3.6-3-6.2c0-12.5,0.2-25-0.1-37.6c-0.1-3.2,3-5.2,5.8-3.7
		c2.4,1.3,4.7,1.2,7-0.1c0.9-0.5,2-0.7,3-0.7c7.4-0.1,14.7,0,22.1-0.1c2.6,0,4.8,0.7,6.6,2.7c1.8,2,2.8,1.7,3.4-0.8
		c0.5-2.2,2.3-2.3,3.5-1.7c3.7,1.9,7.8,1.3,11.5,2.2c1.6,0.4,3.4,1.4,4.2,2.7c1,1.6,2.4,2.4,3.9,3.1c2,0.9,3.2,2.2,3.5,4.5
		c0.1,0.7,1,1.3,1.5,2c0.4,0.7,1.1,1.5,1,2c-0.2,0.7-1.2,1.3-1.9,1.5c-3.3,0.7-3.5,1.2-1.7,4.1c1.1,1.8,1.3,3.7,1.3,5.8
		c-0.2,4.8,0.4,9.7,0.3,14.5c0,2.2-0.9,4.5-1.3,6.7c-0.6,3-1.4,5.9-1,9.2c0.5,4.5-0.1,9.2-0.4,13.8c-0.1,0.9-1,1.8-1.3,2.7
		c-0.2,0.8-0.1,1.7-0.1,2.5c0.9,0,2,0.2,2.6-0.2c1.4-0.9,2.8-2.1,3.9-3.4c0.7-0.9,1.4-2.6,1-3.3c-1.9-3.1-1.8-6-0.1-9.1
		c0.7-1.3,1-2.8,1.6-4.1c0.7-1.4,0.8-2.3-0.5-3.5c-0.5-0.4-0.3-2.3,0.3-3c1.2-1.6,1.6-3.1,1.1-5c-0.1-0.4,0.1-1.2,0.4-1.6
		c1.5-1.6,1.4-3.3,1-5.3c-0.6-2.7-1.1-5.4-1.5-8.1c-0.1-0.5,0.4-1.2,0.6-1.8c0.6,0.3,1.4,0.4,1.7,0.8c1.6,2.6,3,5.3,4.5,8
		c-2.2,1.8-2.1,3.4-0.6,5.7c2.1,3.1,1.2,6.5-0.5,9.5c-1.2,2.2-1,2.6,1.2,3.4c1.1,0.4,2,1.1,3.1,1.6c-1.6,3.4-3.7,6.4-2.4,10.2
		c0.2,0.6-0.1,1.6-0.6,2.1c-2.9,3.4-1.8,6.8-0.4,10.4c1.2,3,1.7,6.3,2.4,9.4c0.1,0.6-0.4,1.7-1,2.1c-1.9,1.6-3.1,3.8-1.9,6
		c1.8,3.1,1.1,6,0.3,9.1c-1.2,4.7-2.1,9.4-3.3,14.1c-0.5,2-1.4,3.9-2.2,5.8c-1.7,3.8-2.8,7.9-5.2,11.2c-4.3,6.1-9.4,11.5-17.7,12.2
		c-1.4,0.1-2.9,0.3-3.6,2.1c-0.2,0.6-1.5,1.1-2.3,1.1c-2.9-0.2-5.8-1-8.6-0.9c-3.3,0.2-5.8-1.6-8.7-2.4c-2.2-0.6-4.5-1-6.7-1.3
		c-2.4-0.4-4.8-0.7-7.3-0.9c-1.2-0.1-2.5-0.1-3.5,0.4c-0.4,0.2-0.1,1.8-0.1,2.8C65.3,470.3,65.3,470.7,65.3,471.5z M97.3,345.7
		c-1.5-0.4-2.9-0.4-3.9-1c-1.5-1-3-1.2-4.7-0.6c-2.3,0.7-4.6,1.8-6.9-0.2c-0.4-0.4-2-0.3-2.3,0.1c-0.5,0.7-0.7,1.8-0.5,2.7
		c0.2,1.1,0.8,2.2,1.3,3.3c1.3,2.9,0.5,5.8,0.5,8.8c-0.1,11.6-0.1,23.2,0,34.8c0,2.5,0.7,5,1.5,7.4c1,2.9,1.2,5.8-0.3,8.4
		c-1.1,2-1.1,3.6,0.5,5.2c-1.9,1.7-2.4,3.4-0.8,5.4c0.9,1,1.7,2.1,2.6,3.1c1.3,1.6,1.5,3.7,0.1,5.1c-1.2,1.1-1.4,2.3-1.4,3.8
		c0.1,1.6-0.1,3.2,0,4.8c0.2,4.3-1.2,7.7-5.1,9.9c-1.5,0.9-1.7,2.4-0.5,3.6c1.8,1.8,3.9,3,6.6,2.7c2-0.2,3.1-1.9,2.4-3.7
		c-0.8-2.3-0.1-3.5,2.4-3.6c1.7-0.1,3.4-0.2,5,0c4.8,0.6,6.9-1.1,9.4-5.3c1-1.7,2.5-3.1,3.9-4.5c1-1,1.7-1.9,0.5-3.1
		c-0.9-0.9-1.8-1.7-2.3-2.1c1.3-3.3,2.7-6.3,3.6-9.3c0.3-1.1,0.1-3.1-0.7-3.8c-1.8-1.7-1.5-3.6-1.5-5.6c0-2.6,0-5.2,0-7.7
		c0-0.8,0-1.8,0.5-2.3c2.2-2.4,1.8-5.3,1.7-8.1c-0.1-1.7-0.5-3.5-0.9-5.2c-0.4-1.6-1.1-3.1-1.2-4.6c-0.5-7.5,0.8-15.1-1.7-22.6
		c-1.1-3.3-1.1-6.4-4.1-9C99,350.8,98.3,347.7,97.3,345.7z M125.5,418.8c-1.4-1.3-2.7-2.6-4-3.8c-0.2-0.2-0.7-0.3-0.8-0.2
		c-0.7,0.5-1.8,0.9-2,1.6c-1.1,3.5-1.8,7-4.4,9.8c-0.2,0.2,0.1,1.3,0.5,1.6c1.5,1.2,2.9,0,4-0.8c0.6-0.5,1.2-1.8,1-2.5
		c-0.8-2.3,0.3-3.1,2.1-3.9C123.2,420.1,124.5,419.3,125.5,418.8z"/>
	<path d="M91.9,229.7c-0.4,0.5-0.8,1-1.2,1.4c-0.7,0.7-1.5,1.4-2.1,2.2c-0.8,1.1-1.4,2.3-2.2,3.5c0.3,0.3,0.9,0.7,1.3,1.1
		c1.8,2.1,1.7,2.2-0.4,4c-0.6,0.6-0.9,1.6-1.3,2.4c0.7,0.3,1.4,0.8,2.2,1c1.1,0.4,2.3,0.7,3.6,1.1c0,2.7,0.5,5.5-0.2,8.1
		c-0.7,2.5-2.4,4.8-4,7c-2.4,3.3-2.5,4,0.9,7.4c-2.6,0.5-4.8,1-6.7,1.3c1.9,0.2,4.1,0.3,6.3,0.6c1.9,0.2,3.7,0.4,3.8,3.2
		c0,0.6,1.6,1.4,2.6,1.8c1.2,0.4,2.5,0.3,3.7,0.6c0.5,0.1,1.3,0.5,1.4,0.9c0.6,3.4,3.6,2.8,5.7,3.1c4.6,0.5,9.2-0.5,13.7-1.6
		c4.9-1.2,9.9-2,15-2.3c7.4-0.5,14.8-0.4,22.2-0.5c2.3,0,4.6,0.5,6.1,2.6c-0.5,2-4.1,1.5-3.2,4.3c-0.9,0.4-1.8,0.8-3.1,1.4
		c1.8,1,3.3,1.7,4.7,2.5c0,0.2,0,0.4,0,0.6c-1.6,0.3-3.3,0.5-4.9,0.9c-2.4,0.7-4.8,1.5-7.2,2.3c-1.2,0.4-2.4,0.6-3.6,0.9
		c-1.4,0.4-2.9,0.5-4,1.1c-6.4,3.6-13.3,5-20.7,4.8c-4.5-0.1-9,0.1-13.4-0.1c-3.1-0.1-6.3-0.6-9.4-0.8c-1.2-0.1-2.4-0.1-3.6,0
		c-2.8,0.2-5.6,0.6-8.5,0.8c-0.6,0-1.2-0.2-1.7-0.4c-4.1-1.8-8.2-3.7-12.4-5.5c-0.9-0.4-1.8-0.7-2.8-1.1c1.7-2,0.5-3.4-0.9-4.6
		c-2.7-2.3-5.5-4.4-6.9-7.9c-0.2-0.6-1-1.1-1.5-1.5c-1.6-1.2-1.6-2.4,0.3-3.1c1.9-0.7,4-1.2,6-1.3c3.7-0.2,7.4-0.1,11.1-0.1
		c0.7,0,1.4-0.1,2.1-0.2c0-0.3,0-0.6,0-0.9c-2.4-0.2-4.9-0.5-7.3-0.7c-2.3-0.1-2.9-0.4-3.7-2.3c-2.5,0.7-5.1,1.4-7.6,2.1
		c-1.3,0.4-2.1-0.2-2.6-1.5c-0.4-1.1-0.8-2.1-1.4-3.6c-0.2,0.3-0.1,0,0.1-0.2c2-1.7,2-1.8-0.2-3.1c-3.3-1.9-4.1-3.5-3.6-7.5
		c0.1-0.7-0.5-1.7-1.1-2.2c-2.7-2.4-2.7-2.4,0.1-4.2c0.9-0.6,1.1-1.3,0.4-2.2c-0.3-0.4-0.7-0.8-1.1-1.1c-2.3-2.3-2.3-2.3,0-4.6
		c1.3-1.3,2.4-2.5,1.4-4.5c-0.2-0.5-0.1-1.2-0.1-1.8c0-2.7,0-5.5,0-8.2c0-1.6,0.5-2.6,2-3.4c3.1-1.6,4.1-3.9,3.6-7.3
		c-0.1-0.8,0.3-2.1,0.9-2.5c3.2-2.3,6.4-4.8,10-6.3c5.8-2.5,11.8-4.5,17.8-6.1c3.3-0.9,7-0.7,10.5-1.1c1.4-0.1,2.7-0.5,4.1-0.7
		c1-0.1,2-0.2,2.9-0.1c3.3,0.2,6.5,0.8,9.8,0.8c9.6,0.1,19.1,1,28.2,4.4c5.6,2.2,10.9,5.1,15.5,9.1c2.2,1.9,2.6,4.3,2.1,6.7
		c-0.4,2-0.5,3.5,1.4,4.6c0.2,0.1,0.2,0.6,0.4,1c-0.7,0.4-1.4,0.9-2.3,1.4c0.5,0.6,0.9,1.1,1.4,1.6c1.6,1.4,2.6,2.8,1.6,5.1
		c-0.2,0.4,0.5,1.3,0.8,2c0.6,1.3,1.4,2.4,1.8,3.8c1,3.5,0.1,6.7-1.9,9.7c-0.7,1.1-0.4,2.8-0.4,4.2c0,4.5,0,8.9,0.1,13.4
		c0,0.3-0.2,0.6-0.4,0.8c-2.3,1.6-0.8,2.6,0.5,3.7c0.5,0.4,1.1,0.9,1.4,1.5c0.4,0.7,0.7,1.6,0.5,2.2c-0.2,0.5-1.2,1-1.8,1
		c-2,0-4-0.3-6.1-0.4c-2,0-4.1,0.1-6.1,0.3c-7.4,0.5-14.8,0-22.1-1.1c-0.8-6.5,5.3-4.8,7.8-7.3c-0.6-0.2-1.2-0.4-1.8-0.6
		c-3.5-0.8-3.7-1.3-3.3-4.8c0.2-1.9-0.1-3.8,0.1-5.7c0.1-1.8,0.3-3.8,2.6-4.3c0-0.2,0-0.5-0.1-0.5c-2.2-0.7-2.9-2.2-2.6-4.4
		c0.2-1.4-0.1-2.9,0.1-4.3c0.4-3.4-0.2-6.2-4.2-7c-0.5-0.1-0.8-0.7-1.3-1.1c0.4-0.5,0.8-1,1.3-1.3c1.3-0.8,2.6-1.4,4-2.1
		c-0.1-0.9-0.2-1.7-0.2-2.7c-0.6-0.3-1.4-0.7-2.3-1.2c0.2-2.1-0.2-4-2.4-5.2c-0.6-0.3-0.7-1.7-1.2-3.1c-7-3.7-14.8-5.6-22.6-4.2
		c-1.8,1.8-3,3.4-4.6,4.5c-2.2,1.4-3.3,3.1-2.9,5.8c0.4,2.5-0.3,4.5-3,5.3C91.6,229.3,91.7,229.5,91.9,229.7z"/>
	<path d="M109.1,58.8c2.3,1,2.8,3.4,2.6,6.2c-0.1,1.1,0,2.1,0,3.2c0,4.1-2,5.6-6.2,5.2c-3-0.3-6.2,0.5-9.2,0.3
		c-2.2-0.1-4.5-0.8-6.6-1.7c-0.8-0.4-1.4-2-1.5-3.2c-0.3-2.1,0.1-4.3-0.3-6.4c-0.4-2.5-1.2-5-1.9-7.5c-0.8-2.5-3.2-3.6-6-3
		c-2.6,0.6-4.7,1.6-6.2,4c-1.1,1.9-1.1,3.4-0.6,5.6c0.7,3.2,0.5,6.8,0,10.2c-0.3,1.9-0.2,2.8,1,4.2c5.7,6.3,12.9,10.6,20.1,14.8
		c6.3,3.7,10.8,9.3,15.5,14.6c2,2.2,2.7,5.7,3.5,8.8c0.9,3.3,0.8,7,2,10.2c1.7,4.3,0.8,8.3-0.1,12.4c-0.5,2.1-0.6,4.4-0.4,6.5
		c0.4,4.6-1.3,8.7-2.6,12.8c-1.2,3.8-3.2,7.4-5.3,10.8c-1.1,1.8-3,3.4-4.9,4.6c-3.1,2.1-6,4.9-10.3,4c-0.6-0.1-1.5,0.2-1.8,0.6
		c-1.4,2-3.4,1.6-5.3,1.6c-4.2,0-8.3,0-12.5,0c-0.7,0-1.6,0-1.9-0.3c-1.9-2.4-5.2-2.5-7.4-4.6c-2.1-1.9-4.9-3-7.2-4.7
		c-0.8-0.6-1.7-1.7-1.7-2.6c0.1-3.4-1.5-6.4-2.2-9.5c-1.2-5.6-4.5-10.6-3.9-16.6c0.4-3.7,0-7.5,0.1-11.2c0-1.2,0.3-2.5,0.6-4.2
		c1.7,0.8,3.1,1.6,4.5,2c1.4,0.4,3.2,1,4.3,0.5c3.1-1.6,5.9-0.9,8.8,0c0.3,0.1,0.6,0.3,0.8,0.2c4.4-1.2,5.3,2.5,7,5
		c0.4,0.5-0.1,2-0.6,2.7c-1.1,1.3-2.6,2.2-3.5,3c0.8,1,1.4,2.1,2.4,2.9c1.5,1.3,2,2.6,0.9,4.4c-0.4,0.7-0.4,2.1,0,2.6
		c1.9,1.9,3.8,4,6.1,5.2c3.2,1.7,6-0.1,8.7-3.1c4.7-5.1,4-11.1,3.1-17.1c-0.7-4.6-1.9-9-6-11.8c-3.4-2.2-6.9-4.1-10.5-6
		C68.4,111.1,63,107,58.3,102c-0.8-0.8-1.2-2-1.7-3.1c-1.3-2.4-2.7-4.8-3.7-7.4c-0.9-2.2-1.6-4.6-2.1-6.9c-0.5-2.3-1.1-4.5-0.2-6.9
		c0.3-0.8-0.8-2.3-1.4-3.4c-2.1-3.6-2.1-7.1,0.4-10.6c0.5-0.7,0.7-1.8,0.7-2.7c-0.1-6.8,1.3-13.4,4-19.6c3.1-7.3,9.2-11.5,16.4-13.9
		c2.7-0.9,5.7-1.6,8.5-2.4c1.8-0.5,4.1,0.6,6.1,0.7c6.4,0.3,11.8,3.6,16.1,7.5c3.6,3.3,5.5,8.5,7.7,13c1,1.9,1.3,4.3,1.3,6.5
		C110.4,54.7,109.6,56.5,109.1,58.8z M55.8,148.5c1.7,1.6,2.9,1.5,4,0.1c0.9-1.2,1.3-2.3-0.4-3.7C58.2,146.1,57.1,147.3,55.8,148.5z
		"/>
	<path d="M433.8,284.9c4.3,0.9,9.2,1.8,14,3c1.1,0.3,2.1,1.2,2.8,2.2c0.8,1.1,0.5,2.5-1,2.7c-2.5,0.3-5.2,0.8-7.6,0.2
		c-4.5-1.1-8.9-1.1-13.5-0.3c-2.2,0.4-4.5,0.4-6.7,0.5c-3,0.1-4.5-2.3-3.3-5.1c1.5-3.8,4.7-5,9.6-3.9c1.1,0.2,2.2,0.3,3.5,0.5
		c-3.3-1.1-6.3-2.3-9.4-3.1c-3-0.8-6.5,0.9-9.4-1.7c0.8-0.8,1.5-1.6,2.2-2.4c-1.8-1.7-4-2.3-6.3-2.4c-4.7-0.1-9.4,0-14.1-0.1
		c-5.2-0.1-10.4-0.5-15.7-0.4c-3.2,0.1-6.3,0.9-9.5,1.1c-2.3,0.1-4.6-0.1-6.9-0.3c-4-0.3-7.9-0.7-11.9-0.9
		c-4.4-0.2-8.8-0.4-12.8-2.5c-3-1.6-3.3-3.6-0.9-6.1c2.1-2.1,4-4.4,6.1-6.5c0.9-0.9,2.1-1.4,3-2.2c1.3-1.3,1-2.9,0.8-4.5
		c-0.1-1.3,0.4-2.1,1.3-3.2c1.8-2.3,2.8-5.1,4.1-7.8c0.4-0.8,0.2-2,0.8-2.7c3.3-3.6,3.1-6-1.1-9.2c1.1-0.7,2.1-1.3,3.3-1.9
		c-0.6-1.5-0.1-2.6,1.4-3.6c1.7-1.2,1.8-3.2,1.4-5.1c-0.7-3.3-0.5-3.7,2.7-4.9c1.1-0.5,2.3-0.8,2.6-2.6c0.2-1.4,1.5-2.8,2.6-3.8
		c2.4-2.1,2.8-3.3,1.1-6.2c2.1-0.5,4-1.2,5.9-1.2c12-0.1,24,0,36-0.1c2.1,0,3.5,0.8,4.5,2.7c1.4,2.5,3.1,4.9,4.6,7.4
		c0.3,0.4,0.7,1,0.6,1.4c-0.9,2.5-0.3,4.2,2.3,5.2c0.3,0.1,0.7,1,0.5,1.3c-0.9,2.1,0.5,3.5,1.7,5.2c-1.5,0.6-2.9,1.2-4.4,1.8
		c1.3,1.5,2.6,3,3.8,4.5c0.2,0.3,0.7,0.5,0.8,0.8c0.4,2.9,0.7,5.7,3.6,7.4c-1.2,2.4,0.9,3.2,2.2,4.4c0.3,0.3,0.6,0.8,0.5,1.2
		c-0.6,2.7,1.3,2.8,3.1,3.3c0.7,0.2,1.3,0.5,1.9,0.8c-0.4,0.5-0.7,1.2-1.2,1.6c-1.4,1-2.2,1.7-0.1,2.9c1.2,0.7,2.1,1.9,1.5,3.8
		c-0.3,0.8,0.8,2,1.4,3c0.5,1,1.2,1.9,1.6,2.9c0.6,1.5,1,3.1,1.6,4.5c0.7,1.5,1.8,2.9-0.1,4.8c1.5,0.9,2.8,1.8,4.2,2.5
		c0.8,0.5,1.8,0.7,2.6,1.3c0.4,0.4,0.8,1.4,0.6,1.9c-1.2,3-1.1,4.7,2.1,7.2c-0.6,2.4-2.6,1.3-4,1.5c-1.1,0.2-1.8-0.1-2-1.5
		c-0.2-1.4-1.2-2-2.6-1.4C437.9,283.3,435.7,284.2,433.8,284.9z M385.4,256.6c6.1,0.8,11.9,1.5,17.7,2.5c1.4,0.2,2.6,0.2,3.1-0.8
		c0.5-0.9,0.5-2.4,0.1-3.3c-1.5-3-3.2-5.9-5.1-8.6c-1.4-1.9-2.4-3.7-2.1-6.2c0.2-1.9-0.4-3.5-1.8-4.8c-0.5-0.5-0.7-1.6-0.8-2.4
		c-0.3-1.8-0.4-3.5-0.6-5.3c-0.1-1.1-0.3-2.2-0.6-3.9c-0.9-0.1-2.5-0.2-4.6-0.4c1.7,3.4-0.1,5.4-1.7,7.6c-0.6,0.9-0.8,2.4-0.5,3.4
		c0.7,2.8-0.1,5-2.2,6.8c-0.3,0.2-0.6,0.7-0.6,1C385.4,247.2,385.4,252.1,385.4,256.6z"/>
	<path d="M136.5,175.3c-0.3-1.3-0.6-2.2-0.6-3.1c-0.1-1.9-0.8-3.9,0.8-5.7c0.7-0.8,0.9-2.2,0.9-3.3c0.1-6.1,0-12.3,0.1-18.4
		c0-1.4,0.4-2.8,0.3-4.2c-0.2-2.1-0.8-4-2.5-5.6c-1.7-1.6-1.5-3.6-0.8-5.7c0.9-2.6,1.7-5.3,2.4-8c0.1-0.5-0.4-1.2-0.8-1.7
		c-2-2.3-1.8-3.3,0.9-4.9c0.7-0.4,1.1-1.4,1.7-2.1c-1,0-2-0.4-2.9,0c-1.6,0.7-2.4,0.3-2.8-1.3c-0.8-3-1.3-6.1-2.5-9
		c-1.1-2.8-1.4-5.2,0.7-7.8c-4.8-2.7-5-7.8-6.5-12.2c-1.3-3.9-2.8-7.8-3.9-11.8c-1.4-5.3-2.6-10.8-3.9-16.2
		c-0.2-0.8-0.7-1.6-1.1-2.4c-0.5-1.2-1.6-2.4-1.5-3.6c0.3-4.8-1.7-9-2.7-13.5c-0.3-1.6-0.7-3.8,0.1-5c1.2-1.9,3.5-2.5,6-1.7
		c2.3,0.7,4.8,1.3,7.2,1.4c1.8,0.1,3.7-0.4,5.5-0.9c2.8-0.8,3.6-0.5,4.4,2.3c0.8,2.8,1.5,5.6,2.3,8.4c0.3,1,0.7,2,0.9,3
		c0.3,1.8,0.5,3.6,0.5,5.4c0,1.9-0.1,3.7,1.5,5.2c2.2,1.9,3,4.5,2.9,7.2c0,3.2,0.4,6.2,1.4,9.3c0.3,0.8-0.1,1.8,0,2.7
		c0.1,0.7,0.5,1.4,0.8,2.1c0.6-0.4,1.4-0.6,1.7-1.2c0.5-1,0.7-2.1,1-3.1c0.2-0.6,0.2-1.2,0.4-1.7c0.6-1.9,0.9-3.7,0.7-5.8
		c-0.2-2.6,0.8-5.4,1.4-8.1c1.2-4.5,2.8-8.9,3.6-13.5c0.6-3.2,1-6.3,3-9c0.7-0.9,1.4-1.8,2.4-2.4c1.4-0.9,3-1.4,4.2,0.2
		c1.5,1.9,3.4,2.3,5.8,2.3c2.9,0.1,6-0.1,8.7,2c-0.6,3.3-1,6.6-2,9.8c-1,3.4-2.2,6.6-2.4,10.2c0,0.6-0.8,1.2-1.1,1.9
		c-0.2,0.5-0.3,1.3-0.1,1.5c2.7,2.4,0.5,4.7,0.1,7c-0.6,3.5-1.2,7-2,10.5c-0.8,4-1.8,7.9-2.6,11.9c-0.4,2-1.5,2.9-3.5,3.1
		c-1.2,0.1-2.3,0.7-3.9,1.2c1,1.1,1.9,1.8,2.3,2.6c0.6,1.3,1.4,2.8,1.3,4.1c-0.3,3.1-1,6.1-1.7,9.1c-0.9,4.2-2,8.4-3,12.5
		c-0.2,0.7-0.2,1.3-0.2,2c0,14.3,0,28.7,0,43c0,1.2,0.5,2.5,0.9,3.6c1.3,3.7-0.7,7.1-4.6,7.3C149.5,175.4,143,175.3,136.5,175.3z
		 M124.6,45.2c-1.2-1.5-2.3-2.6-4-1.3c-0.3,0.3-0.5,1.3-0.3,1.6C121.7,47.2,123.1,46.3,124.6,45.2z"/>
	<path d="M249.7,201.8c-0.8,0.4-1.5,1.1-2.3,1.1c-2,0.2-3.1,1-4.3,2.7c-1.2,1.7-3.9,2.3-5.9,3.3c-1.6,0.8-3.2,1.5-4.9,2.3
		c3,1.9,6.6,2.6,8.3,6.4c-1.7,0.3-3.2,0.8-4.8,0.8c-4.2,0.1-8.3-0.1-12.5,0.1c-2.8,0.1-5.7,0.5-8.4,1.1c-0.9,0.2-2.2,1.1-2.3,1.9
		c-0.2,1.5-0.8,3.3,1.1,4.4c0.4,0.2,0.7,0.7,1.2,1.2c-0.9,0.4-1.7,0.8-2.5,1.1c-2.5,1.2-3.3,2.8-2.7,5.4c0.1,0.2,0.3,0.6,0.5,0.6
		c2.2,0.8,4.4,1.9,6.7,2.2c3.4,0.4,6.8-0.1,10.2,0.1c6.6,0.3,13.2,1.1,19.8,1.2c3.2,0.1,6.5-0.7,9.7-1.1c2.9-0.3,5.9-0.6,8.6,0.8
		c0.4,0.2,1,1.1,0.8,1.4c-1.2,2.6,1.7,3.3,2.3,5.1c0.3,0.9,0.5,1.8,0.7,2.7c0.4,2,0.9,4,1.4,6.6c-2.1,0.3-4.8,0.7-7.6,0.9
		c-0.7,0-2-0.8-2-1.3c-0.4-3.4-3.1-3.9-5.6-4.5c-1.4-0.3-2.9,0-4.3-0.1c-1.7,0-1.7,0.8-1,2c0.7,1.2,1.5,2.4,2.2,3.6
		c1,1.7,0,2.6-1.5,2.6c-4.3,0-8.6-0.3-12.9-0.4c-7-0.2-14.1-0.4-21.1-0.4c-0.5,0-1.2,1-1.4,1.7c-0.3,1.2,0,2.6-0.4,3.7
		c-1.1,3.2-4,3.7-6.9,4c-2.5,0.3-5.1,0.3-7.6,0.5c-0.6,0-1.1,0.4-1.6,0.7c0.1,0.2,0.1,0.4,0.2,0.6c1.6,0,3.2,0.3,4.6-0.1
		c3.5-0.8,6.6,0,9.7,1.5c1.6,0.8,2.3,2.1,1.9,3.7c-0.4,1.4-1.7,1.9-3.2,1.9c-3.4,0-6.8,0.3-10.2,0.4c-4.9,0.2-9.7-0.7-14.5-1.3
		c-1.7-0.2-3.5,0.1-5.1,0.6c-1.9,0.7-3.4,0.3-5-0.4c-0.6-0.3-1.4-0.8-1.4-1.2c0-0.6,0.6-1.4,1.1-1.7c1.5-0.9,2.4-1.8,1.5-3.6
		c-0.1-0.1-0.1-0.4-0.2-0.4c-3.1-0.9-2-3.4-2.1-5.4c-0.2-5.4-0.5-10.7-0.4-16.1c0-6.9,0-13.8,0.5-20.6c0.6-7.1,1.7-14.2,2.7-21.3
		c0.4-2.8,3-2.7,4.8-2.8c8.8-0.3,17.7-0.5,26.5-0.5c8.7,0,17.4,0.2,26.1,0.5c4.5,0.1,8.9,0.7,13.4,1
		C249.6,201.5,249.7,201.7,249.7,201.8z"/>
	<path d="M178.8,280.3c-0.9-1.3-1.7-2.3-2.7-3.8c1-0.2,1.9-0.6,2.8-0.6c11.1,0,22.1-0.1,33.2,0.1c1.8,0,4.2-0.4,5.8,1.6
		c-1.5,1.7-2.7,3.5-4.3,4.9c-1.7,1.6-1.3,2.8,0.1,4.1c0.7,0.6,1.4,1.2,2.6,2.3c-1.2,0.9-2.3,1.5-3,2.3c-0.5,0.5-1,1.4-0.9,2.1
		c0.2,1.8-1.1,2.3-2.2,2.5c-2,0.4-4,0.4-6,0.6c-2.8,0.2-5.6,0.4-8.4,0.5c-1.4,0.1-2.8,0.1-4.1-0.1c-4.1-0.5-8.2-1.2-12.3-1.8
		c-0.6-0.1-1.2,0-1.8,0c-3.5-0.2-4.8-1.6-4.8-5.1c0-1.1,0-2.1,0-3.2c0-4.2,0-4.2,4-5.6C177.4,281,178,280.7,178.8,280.3z"/>
	<path d="M367.4,281.4c-0.4,2.6-0.8,4.9-1.1,7.1c-0.3,2.2-2.2,4.3-5,4.6c-3.7,0.5-7.4,0.8-11.2,0.9c-4.2,0.2-8.3,0.2-12.5,0
		c-3.4-0.2-6.7-0.9-8.3-4.6c-0.2-0.4-0.2-0.9-0.2-1.4c0.3-2.4,0.9-4.8,1-7.2c0.1-1.9,1-2.6,2.5-3.2c1.7-0.6,3.3-1.2,4.9-1.9
		c0.3-0.1,0.5-0.4,0.8-0.4c5.5,0.1,11-0.8,16.4,0.9c0.8,0.2,1.7,0.5,2.2,1.1c2.1,2.7,5.2,2.6,8.1,3
		C366,280.6,366.7,281.1,367.4,281.4z"/>
	<path d="M249.5,218.3c0.6-0.5,1.1-0.9,1.6-1.4c-0.8-0.5-1.7-1.1-2.6-1.7c1.1-0.9,2.3-1.8,3.4-2.6c-0.9-1.1-1.9-2.3-3-3.6
		c1.4-1.1,2.9-2.3,4.5-3.5c0.5-0.4,1-0.9,1.4-1.4c1.1-1.3,2-3.6,3.3-3.9c3-0.6,6.2-0.3,9.3-0.1c0.5,0,1.3,1.4,1.3,2.2
		c0.2,2.8,0.1,5.6,0.1,8.4c0,0.5,0,0.9,0,1.4c0.4,5.2-0.3,6.2-5.7,7c-2.6,0.4-5.2,0.8-7.8,0.9c-1.9,0.1-3.8-0.5-5.7-0.7
		C249.6,218.9,249.5,218.6,249.5,218.3z"/>
</g>
</svg>
